<svg width="20" height="12" viewBox="0 0 20 12" fill="none" xmlns="http://www.w3.org/2000/svg" xmlns:xlink="http://www.w3.org/1999/xlink">
<path d="M-0.707,10.293C-1.098,10.683 -1.098,11.317 -0.707,11.707C-0.317,12.098 0.317,12.098 0.707,11.707L-0.707,10.293ZM9,2L9.707,1.293C9.52,1.105 9.265,1 9,1C8.735,1 8.48,1.105 8.293,1.293L9,2ZM17.293,11.707C17.683,12.098 18.317,12.098 18.707,11.707C19.098,11.317 19.098,10.683 18.707,10.293L17.293,11.707ZM0.707,11.707L9.707,2.707L8.293,1.293L-0.707,10.293L0.707,11.707ZM8.293,2.707L17.293,11.707L18.707,10.293L9.707,1.293L8.293,2.707Z" transform="rotate(360 9 6.5)" fill="#505463"/>
</svg>
