<svg width="22" height="12" viewBox="0 0 22 12" fill="none" xmlns="http://www.w3.org/2000/svg" xmlns:xlink="http://www.w3.org/1999/xlink">
<path d="M1.293,10.293C0.902,10.683 0.902,11.317 1.293,11.707C1.683,12.098 2.317,12.098 2.707,11.707L1.293,10.293ZM11,2L11.707,1.293C11.317,0.902 10.683,0.902 10.293,1.293L11,2ZM19.293,11.707C19.683,12.098 20.317,12.098 20.707,11.707C21.098,11.317 21.098,10.683 20.707,10.293L19.293,11.707ZM2.707,11.707L11.707,2.707L10.293,1.293L1.293,10.293L2.707,11.707ZM10.293,2.707L19.293,11.707L20.707,10.293L11.707,1.293L10.293,2.707Z" transform="rotate(360 11 6.5)" fill="#505463"/>
</svg>
