<svg width="72" height="92" viewBox="0 0 72 92" fill="none" xmlns="http://www.w3.org/2000/svg" xmlns:xlink="http://www.w3.org/1999/xlink">
<g opacity="0.8">
</g>
<path d="M22.488,85.498L21.952,83.241C21.948,82.579 21.99,81.917 22.074,81.261C22.752,76.02 23.892,71.043 25.642,66.415L22.087,64.348C20.813,68.976 19.771,78.102 19.455,81.049C19.39,81.66 19.359,82.273 19.363,82.887C19.186,84.752 18.599,86.404 18.704,87.526C18.726,87.761 18.836,87.981 19.012,88.15L19.714,88.826C19.847,89.403 20.173,89.741 20.857,89.637C21.123,90.052 21.372,90.399 21.614,90.5C21.687,90.53 21.766,90.48 21.757,90.407C21.67,89.728 21.262,86.483 21.405,86.466C21.889,86.409 21.929,88.276 22.312,88.229C22.625,88.191 22.578,86.536 22.549,85.925C22.542,85.781 22.522,85.639 22.489,85.498L22.488,85.498Z" fill="#FBD3A8"/>
<path d="M49.616,85.498L50.152,83.241C50.156,82.579 50.115,81.917 50.03,81.261C49.352,76.02 48.213,71.043 46.463,66.415L50.018,64.348C51.291,68.976 52.334,78.102 52.65,81.049C52.715,81.66 52.746,82.273 52.742,82.887C52.919,84.752 53.505,86.404 53.4,87.526C53.378,87.761 53.269,87.981 53.092,88.15L52.391,88.826C52.258,89.403 51.931,89.741 51.248,89.637C50.981,90.052 50.733,90.399 50.49,90.5C50.418,90.53 50.338,90.48 50.348,90.407C50.434,89.728 50.843,86.483 50.699,86.466C50.216,86.409 50.175,88.276 49.792,88.229C49.479,88.191 49.527,86.536 49.556,85.925C49.562,85.781 49.582,85.639 49.615,85.498L49.616,85.498Z" fill="#FBD3A8"/>
<path d="M39.475,51.582L32.557,51.582C32.615,54.364 32.224,56.116 31.812,57.212C31.657,57.624 31.779,58.089 32.111,58.383C33.623,59.721 38.135,60.2 39.973,58.238C40.249,57.943 40.332,57.521 40.195,57.143C39.792,56.043 39.418,54.306 39.475,51.581L39.475,51.582Z" fill="#FBD3A8"/>
<g opacity="0.35">
<path d="M32.778,51.956L39.302,52L39.413,53.883C38.377,55.394 33.362,55.33 32.591,53.813L32.778,51.957L32.778,51.956Z" fill="#F8A364"/>
</g>
<path d="M20.812,44.405C17.832,44.405 15.931,40.475 16.857,37.938C17.08,37.325 17.523,36.802 18.128,36.545C19.206,36.088 20.178,36.651 20.812,37.072L20.812,44.405Z" fill="#FBD3A8"/>
<path d="M19.776,42.801C17.913,42.408 17.099,37.923 19.413,38.217L20.734,38.364L20.734,42.964L19.776,42.8L19.776,42.801Z" fill="#FBBD89"/>
<path d="M20.675,38.552C20.377,38.445 20.074,38.352 19.765,38.3C19.459,38.255 19.14,38.244 18.856,38.347C18.573,38.447 18.336,38.669 18.206,38.957C18.074,39.244 18.021,39.567 17.999,39.89C17.988,39.567 18.007,39.238 18.114,38.92C18.217,38.603 18.458,38.315 18.778,38.166C19.099,38.012 19.457,37.991 19.796,38.007C20.137,38.03 20.468,38.097 20.794,38.178L20.674,38.552L20.675,38.552Z" fill="#603813"/>
<path d="M51.317,44.405C54.298,44.405 56.199,40.475 55.273,37.938C55.049,37.325 54.607,36.802 54.002,36.545C52.924,36.088 51.952,36.651 51.317,37.072L51.317,44.405Z" fill="#FBD3A8"/>
<path d="M52.352,42.801C54.215,42.408 55.028,37.923 52.716,38.217L51.394,38.364L51.394,42.964L52.352,42.8L52.352,42.801Z" fill="#FBBD89"/>
<path d="M51.334,38.177C51.66,38.096 51.991,38.028 52.332,38.006C52.671,37.991 53.029,38.012 53.349,38.165C53.67,38.314 53.911,38.603 54.014,38.919C54.121,39.236 54.14,39.566 54.128,39.889C54.107,39.567 54.053,39.243 53.921,38.956C53.791,38.668 53.555,38.446 53.271,38.346C52.987,38.243 52.669,38.254 52.363,38.299C52.054,38.351 51.751,38.445 51.453,38.551L51.333,38.177L51.334,38.177Z" fill="#603813"/>
<path d="M51.356,22.471C41.141,13.817 31.015,13.857 20.974,22.471C16.852,41.075 19.813,53.309 35.957,53.693L36.374,53.693C52.517,53.309 55.479,41.075 51.357,22.471L51.356,22.471Z" fill="#FBD3A8"/>
<path d="M35.855,42.553C35.92,42.565 35.985,42.551 36.048,42.532C37.223,42.19 37.393,43.495 36.448,43.613C35.546,43.695 35.071,43.393 34.781,43.006C34.622,42.794 34.745,42.478 35.01,42.445C35.247,42.414 35.556,42.493 35.855,42.552L35.855,42.553Z" fill="#F8A364"/>
<path d="M29.773,40.46C30.52,40.46 31.125,39.503 31.125,38.321C31.125,37.14 30.52,36.182 29.773,36.182C29.026,36.182 28.42,37.14 28.42,38.321C28.42,39.503 29.026,40.46 29.773,40.46Z" fill="#4D4E4E"/>
<path d="M29.911,38.211C30.244,38.211 30.515,37.88 30.515,37.47C30.515,37.061 30.244,36.729 29.911,36.729C29.577,36.729 29.306,37.061 29.306,37.47C29.306,37.88 29.577,38.211 29.911,38.211Z" fill="#FFFFFF"/>
<path d="M42.123,40.46C42.87,40.46 43.475,39.503 43.475,38.321C43.475,37.14 42.87,36.182 42.123,36.182C41.376,36.182 40.77,37.14 40.77,38.321C40.77,39.503 41.376,40.46 42.123,40.46Z" fill="#4D4E4E"/>
<path d="M41.38,37.47C41.38,37.88 41.65,38.211 41.984,38.211C42.318,38.211 42.589,37.88 42.589,37.47C42.589,37.061 42.318,36.729 41.984,36.729C41.65,36.729 41.38,37.061 41.38,37.47Z" fill="#FFFFFF"/>
<path d="M32.119,46.58C32.792,46.712 33.445,46.848 34.101,46.943C34.756,47.035 35.409,47.093 36.063,47.099C36.716,47.106 37.369,47.062 38.025,46.979C38.68,46.892 39.334,46.759 40.006,46.624C39.427,46.989 38.786,47.255 38.118,47.433C37.451,47.615 36.753,47.7 36.057,47.692C35.361,47.683 34.667,47.584 34.004,47.394C33.339,47.208 32.701,46.94 32.12,46.579L32.119,46.58Z" fill="#F8A364"/>
<path d="M34.212,48.404C34.546,48.414 34.866,48.441 35.184,48.461C35.503,48.482 35.817,48.495 36.132,48.504C36.447,48.511 36.763,48.514 37.081,48.51C37.4,48.507 37.722,48.497 38.056,48.505C37.758,48.657 37.44,48.754 37.113,48.817C36.787,48.879 36.454,48.909 36.121,48.898C35.788,48.89 35.456,48.844 35.134,48.764C34.812,48.684 34.499,48.57 34.21,48.403L34.212,48.404Z" fill="#F8A364"/>
<path d="M47.863,59.932C47.152,58.492 45.884,57.397 44.346,56.897L39.73,55.384C38.936,57.194 38.071,58.313 36.004,58.335C33.937,58.313 33.093,57.194 32.301,55.384L27.663,56.897C26.125,57.397 24.856,58.491 24.145,59.932L20.843,66.622L25.175,68.306L26.791,83.945L45.216,83.945L46.756,68.306L51.164,66.622L47.862,59.932L47.863,59.932Z" fill="#255A9E"/>
<path d="M26.871,46.528C28.172,46.528 29.226,45.483 29.226,44.195C29.226,42.907 28.172,41.862 26.871,41.862C25.571,41.862 24.517,42.907 24.517,44.195C24.517,45.483 25.571,46.528 26.871,46.528Z" fill="#EF8971"/>
<path d="M46.07,46.528C47.37,46.528 48.424,45.483 48.424,44.195C48.424,42.907 47.37,41.862 46.07,41.862C44.769,41.862 43.715,42.907 43.715,44.195C43.715,45.483 44.769,46.528 46.07,46.528Z" fill="#EF8971"/>
<path d="M41.523,34.916C40.366,34.938 39.927,33.837 40.734,33.168C41.07,32.888 41.531,32.825 41.967,32.872C43.168,33 43.912,33.421 44.045,34.236C44.093,34.529 44.009,34.837 43.787,35.039C43.365,35.422 42.707,35.275 41.991,34.995C41.843,34.937 41.683,34.915 41.523,34.918L41.523,34.916Z" fill="#4D4E4E"/>
<path d="M29.962,34.916C31.119,34.938 31.558,33.837 30.751,33.168C30.415,32.888 29.954,32.825 29.518,32.872C28.316,33 27.572,33.421 27.439,34.236C27.391,34.529 27.476,34.837 27.697,35.039C28.12,35.422 28.778,35.275 29.494,34.995C29.642,34.937 29.802,34.915 29.962,34.918L29.962,34.916Z" fill="#4D4E4E"/>
<path d="M47.225,83.944C47.225,83.944 46.855,78.881 46.757,68.304C43.595,68.267 43.867,62.713 43.721,56.697L42.203,56.223C42.443,61.864 40.354,64.829 35.967,65.154C31.579,64.829 29.49,61.864 29.73,56.223L28.212,56.754C28.065,62.769 28.338,68.267 25.176,68.304C25.077,78.88 24.566,83.944 24.566,83.944C31.292,86.702 41.609,86.378 47.225,83.944Z" fill="#1A4C82"/>
<path d="M59.501,21.166C60.18,18.758 59.856,16.633 57.856,14.983C58.811,13.243 57.917,11.502 54.413,9.731C52.807,7.224 50.979,6.89 49.097,7.08C46.024,4.601 43.75,4.35 41.959,5.448L40.744,5.448C38.797,4.564 37.258,4.539 36.216,5.561C35.174,4.539 33.635,4.564 31.688,5.448L30.473,5.448C28.682,4.35 26.408,4.601 23.335,7.08C21.453,6.89 19.624,7.224 18.019,9.731C14.515,11.502 13.62,13.243 14.576,14.983C12.576,16.633 12.251,18.758 12.931,21.166C9.003,24.619 9.358,27.126 12.552,29.006C11.982,31.74 12.417,33.864 14.273,35.125C14.685,36.857 15.648,37.86 17.007,38.337C17.82,40.491 18.792,42.227 20.196,42.824C20.668,41.928 20.795,41.016 20.423,40.081C20.337,39.861 20.198,39.67 20.068,39.473C19.965,39.319 19.935,39.111 19.968,38.858C20.021,38.444 20.23,38.065 20.516,37.761C21.903,36.29 22.398,34.553 20.703,32.166C22.196,30.803 22.17,30.374 21.31,28.61C22.778,28.942 25.102,27.413 24.398,25.907C26.803,25.653 27.91,24.059 27.537,22.287C29.081,23.205 30.696,22.486 30.625,21.064C32.112,21.672 35.011,22.808 36.216,21.477C37.421,22.807 40.32,21.672 41.807,21.064C41.736,22.486 43.351,23.206 44.895,22.287C44.523,24.059 45.629,25.653 48.034,25.907C47.33,27.413 49.654,28.941 51.122,28.61C50.262,30.374 50.236,30.803 51.729,32.166C50.035,34.553 50.53,36.29 51.916,37.761C52.202,38.065 52.41,38.444 52.464,38.858C52.496,39.111 52.466,39.318 52.364,39.473C52.234,39.67 52.095,39.862 52.008,40.081C51.638,41.016 51.765,41.928 52.236,42.824C53.639,42.227 54.611,40.49 55.425,38.337C56.783,37.859 57.747,36.857 58.159,35.125C60.015,33.863 60.45,31.74 59.88,29.006C63.073,27.126 63.428,24.619 59.501,21.166Z" fill="#333333"/>
</svg>
