<svg width="104" height="138" viewBox="0 0 104 138" fill="none" xmlns="http://www.w3.org/2000/svg" xmlns:xlink="http://www.w3.org/1999/xlink">
<path d="M64.507,20.327C69.383,18.836 75.908,21.451 83.71,27.249C83.905,27.394 84.178,27.224 84.132,26.987C83.038,21.418 80.212,16.924 74.576,14.174C76.225,13.115 78.282,14.045 80.466,15.597C80.696,15.759 80.992,15.504 80.857,15.258C77.978,10.026 73.704,7.106 67.601,7.214C67.683,6.005 69.063,5.2 70.989,4.566C71.271,4.473 71.212,4.064 70.916,4.051C60.862,3.62 55.515,8.617 54.031,18.071L64.51,20.327L64.507,20.327Z" fill="#333333"/>
<path d="M53.098,20.992C57.02,21.071 60.871,21.808 64.638,23.324L64.507,20.328C61.182,19.14 57.683,18.404 54.029,18.072L53.098,20.992Z" fill="#F15B67"/>
<path d="M31.716,129.065L30.935,125.78C30.93,124.817 30.99,123.854 31.113,122.899C32.101,115.27 33.761,108.028 36.311,101.294L31.132,98.285C29.276,105.02 27.758,118.301 27.298,122.589C27.202,123.479 27.157,124.372 27.163,125.265C26.905,127.979 26.051,130.384 26.204,132.016C26.236,132.357 26.396,132.678 26.652,132.924L27.675,133.908C27.868,134.747 28.344,135.24 29.339,135.089C29.728,135.692 30.09,136.197 30.443,136.345C30.548,136.388 30.665,136.314 30.651,136.209C30.524,135.22 29.93,130.498 30.139,130.473C30.843,130.391 30.902,133.107 31.46,133.039C31.916,132.983 31.847,130.575 31.805,129.686C31.795,129.476 31.766,129.269 31.718,129.064L31.716,129.065Z" fill="#FBD3A8"/>
<path d="M71.235,129.065L72.016,125.78C72.022,124.817 71.961,123.854 71.838,122.899C70.851,115.27 69.19,108.028 66.641,101.294L71.82,98.285C73.675,105.02 75.194,118.301 75.654,122.589C75.749,123.479 75.794,124.372 75.788,125.265C76.046,127.979 76.9,130.384 76.748,132.016C76.715,132.357 76.555,132.678 76.299,132.924L75.276,133.908C75.083,134.747 74.608,135.24 73.612,135.089C73.223,135.692 72.862,136.197 72.508,136.345C72.403,136.388 72.287,136.314 72.301,136.209C72.427,135.22 73.021,130.498 72.812,130.473C72.108,130.391 72.05,133.107 71.491,133.039C71.036,132.983 71.104,130.575 71.146,129.686C71.156,129.476 71.186,129.269 71.233,129.064L71.235,129.065Z" fill="#FBD3A8"/>
<path d="M56.461,79.706L46.384,79.706C46.468,83.755 45.898,86.304 45.298,87.899C45.072,88.5 45.25,89.176 45.734,89.603C47.936,91.55 54.512,92.249 57.187,89.392C57.588,88.964 57.71,88.349 57.51,87.799C56.924,86.199 56.378,83.672 56.461,79.705L56.461,79.706Z" fill="#FBD3A8"/>
<g opacity="0.35">
<path d="M46.707,80.25L56.211,80.314L56.372,83.055C54.863,85.253 47.557,85.16 46.434,82.952L46.707,80.251L46.707,80.25Z" fill="#F8A364"/>
</g>
<path d="M29.276,69.262C24.934,69.262 22.164,63.542 23.513,59.85C23.839,58.958 24.484,58.198 25.365,57.824C26.935,57.158 28.352,57.978 29.276,58.59L29.276,69.262Z" fill="#FBD3A8"/>
<path d="M27.767,66.927C25.052,66.355 23.867,59.828 27.237,60.257L29.162,60.47L29.162,67.164L27.767,66.925L27.767,66.927Z" fill="#FBBD89"/>
<path d="M29.075,60.743C28.641,60.587 28.2,60.451 27.75,60.376C27.304,60.311 26.84,60.294 26.426,60.444C26.014,60.59 25.669,60.913 25.48,61.332C25.288,61.75 25.209,62.221 25.178,62.69C25.161,62.221 25.189,61.74 25.345,61.278C25.495,60.817 25.846,60.398 26.313,60.18C26.78,59.957 27.301,59.926 27.795,59.95C28.291,59.983 28.774,60.08 29.249,60.198L29.074,60.743L29.075,60.743Z" fill="#603813"/>
<path d="M73.713,69.262C78.055,69.262 80.824,63.542 79.475,59.85C79.15,58.958 78.505,58.198 77.624,57.824C76.053,57.158 74.637,57.978 73.713,58.59L73.713,69.262Z" fill="#FBD3A8"/>
<path d="M75.222,66.927C77.937,66.355 79.12,59.828 75.752,60.257L73.826,60.47L73.826,67.164L75.222,66.925L75.222,66.927Z" fill="#FBBD89"/>
<path d="M73.738,60.198C74.213,60.08 74.696,59.981 75.192,59.949C75.686,59.927 76.207,59.958 76.674,60.18C77.141,60.399 77.492,60.818 77.642,61.278C77.799,61.738 77.826,62.219 77.809,62.689C77.778,62.22 77.699,61.749 77.507,61.332C77.318,60.913 76.974,60.589 76.561,60.444C76.147,60.294 75.683,60.31 75.237,60.376C74.787,60.45 74.346,60.588 73.912,60.742L73.736,60.198L73.738,60.198Z" fill="#603813"/>
<path d="M73.768,37.34L29.509,37.34C23.504,64.414 27.818,82.218 51.336,82.776L51.943,82.776C75.46,82.218 79.775,64.413 73.77,37.34L73.768,37.34Z" fill="#FBD3A8"/>
<path d="M51.187,66.565C51.283,66.583 51.377,66.562 51.469,66.535C53.18,66.038 53.428,67.936 52.051,68.109C50.737,68.228 50.046,67.788 49.622,67.224C49.391,66.916 49.571,66.457 49.956,66.408C50.301,66.364 50.751,66.478 51.187,66.564L51.187,66.565Z" fill="#F8A364"/>
<path d="M41.9,63.519C42.988,63.519 43.87,62.125 43.87,60.406C43.87,58.687 42.988,57.293 41.9,57.293C40.812,57.293 39.93,58.687 39.93,60.406C39.93,62.125 40.812,63.519 41.9,63.519Z" fill="#4D4E4E"/>
<path d="M42.101,60.249C42.588,60.249 42.982,59.766 42.982,59.17C42.982,58.575 42.588,58.092 42.101,58.092C41.615,58.092 41.221,58.575 41.221,59.17C41.221,59.766 41.615,60.249 42.101,60.249Z" fill="#FFFFFF"/>
<path d="M40.71,54.78C40.799,54.758 40.89,54.75 40.98,54.758C42.114,54.848 43.299,54.857 43.299,53.968C43.299,52.396 39.143,52.936 39.143,54.461C39.266,55.054 39.761,55.018 40.71,54.78Z" fill="#4D4E4E"/>
<path d="M39.721,56.818C39.912,57.187 39.878,57.581 39.648,57.697C39.418,57.814 39.076,57.61 38.886,57.241C38.695,56.872 38.728,56.478 38.958,56.361C39.19,56.244 39.531,56.448 39.721,56.818Z" fill="#EF8971"/>
<path d="M38.235,60.421C38.652,60.385 38.973,60.149 38.949,59.894C38.925,59.638 38.57,59.461 38.153,59.497C37.736,59.533 37.415,59.769 37.439,60.024C37.463,60.28 37.817,60.457 38.235,60.421Z" fill="#EF8971"/>
<path d="M38.53,57.968C38.928,58.094 39.189,58.394 39.109,58.638C39.029,58.882 38.644,58.978 38.244,58.852C37.846,58.726 37.585,58.426 37.665,58.182C37.743,57.937 38.13,57.842 38.53,57.968Z" fill="#EF8971"/>
<path d="M60.32,63.519C61.408,63.519 62.29,62.125 62.29,60.406C62.29,58.687 61.408,57.293 60.32,57.293C59.232,57.293 58.35,58.687 58.35,60.406C58.35,62.125 59.232,63.519 60.32,63.519Z" fill="#4D4E4E"/>
<path d="M59.238,59.17C59.238,59.766 59.632,60.249 60.119,60.249C60.606,60.249 61,59.766 61,59.17C61,58.575 60.606,58.092 60.119,58.092C59.632,58.092 59.238,58.575 59.238,59.17Z" fill="#FFFFFF"/>
<path d="M61.509,54.78C61.42,54.758 61.329,54.75 61.239,54.758C60.105,54.848 58.92,54.857 58.92,53.968C58.92,52.396 63.077,52.936 63.077,54.461C62.953,55.054 62.458,55.018 61.509,54.78Z" fill="#4D4E4E"/>
<path d="M62.499,56.818C62.308,57.187 62.342,57.581 62.572,57.697C62.802,57.814 63.144,57.61 63.335,57.241C63.525,56.872 63.492,56.478 63.262,56.361C63.03,56.244 62.69,56.448 62.499,56.818Z" fill="#EF8971"/>
<path d="M63.985,60.421C63.568,60.385 63.247,60.149 63.271,59.894C63.295,59.638 63.649,59.461 64.067,59.497C64.484,59.533 64.805,59.769 64.781,60.024C64.757,60.28 64.402,60.457 63.985,60.421Z" fill="#EF8971"/>
<path d="M63.689,57.968C63.291,58.094 63.031,58.394 63.11,58.638C63.188,58.882 63.575,58.978 63.975,58.852C64.373,58.726 64.633,58.426 64.554,58.182C64.476,57.937 64.089,57.842 63.689,57.968Z" fill="#EF8971"/>
<path d="M45.746,72.427C46.726,72.619 47.679,72.817 48.634,72.956C49.589,73.089 50.539,73.174 51.492,73.182C52.444,73.193 53.395,73.128 54.35,73.007C55.305,72.881 56.257,72.688 57.236,72.491C56.393,73.023 55.459,73.41 54.486,73.668C53.514,73.933 52.497,74.057 51.483,74.045C50.469,74.033 49.458,73.889 48.492,73.611C47.524,73.34 46.595,72.95 45.747,72.426L45.746,72.427Z" fill="#F8A364"/>
<path d="M48.796,75.081C49.282,75.097 49.749,75.136 50.212,75.165C50.676,75.195 51.135,75.215 51.594,75.227C52.052,75.238 52.512,75.242 52.976,75.237C53.44,75.231 53.909,75.217 54.395,75.229C53.962,75.451 53.498,75.592 53.023,75.684C52.547,75.775 52.062,75.817 51.577,75.802C51.091,75.789 50.609,75.723 50.139,75.606C49.671,75.49 49.214,75.324 48.793,75.08L48.796,75.081Z" fill="#F8A364"/>
<path d="M68.682,91.857C67.646,89.761 65.799,88.168 63.558,87.439L56.834,85.238C55.678,87.872 54.417,89.5 51.406,89.532C48.395,89.5 47.166,87.872 46.011,85.238L39.255,87.439C37.015,88.167 35.167,89.76 34.13,91.857L29.32,101.593L35.631,104.042L37.986,126.802L64.826,126.802L67.069,104.042L73.491,101.593L68.681,91.857L68.682,91.857Z" fill="#F15B67"/>
<path d="M38.102,72.35C39.997,72.35 41.532,70.83 41.532,68.955C41.532,67.08 39.997,65.561 38.102,65.561C36.208,65.561 34.672,67.08 34.672,68.955C34.672,70.83 36.208,72.35 38.102,72.35Z" fill="#EF8971"/>
<path d="M66.069,72.35C67.963,72.35 69.499,70.83 69.499,68.955C69.499,67.08 67.963,65.561 66.069,65.561C64.174,65.561 62.639,67.08 62.639,68.955C62.639,70.83 64.174,72.35 66.069,72.35Z" fill="#EF8971"/>
<path d="M40.567,38.597C34.401,43.858 29.365,53.465 28.543,62.539C28.495,63.063 28.042,63.462 27.511,63.462L25.416,58.17C24.103,54.855 23.241,51.38 22.891,47.837C21.196,30.69 29.833,24.199 43.351,20.535C50.636,18.56 58.419,19.129 65.223,22.374C73.507,26.325 78.169,31.879 79.347,41.574C80.125,47.984 79.192,54.486 76.771,60.482L75.567,63.462C75.013,63.462 74.549,63.067 74.444,62.529C73.265,56.503 66.218,49.838 58.708,45.546C59.43,47.891 60.353,50.264 61.853,52.711C55.286,51.878 51.686,48.729 48.176,42.685L49.236,49.236C42.947,45.834 41.084,44.202 40.568,38.595L40.567,38.597Z" fill="#333333"/>
<path d="M67.78,126.029C67.78,126.029 67.213,119.432 67.07,104.042C62.463,103.988 62.86,95.905 62.647,87.151L60.435,86.461C60.786,94.67 57.743,98.985 51.351,99.457C44.959,98.985 41.916,94.67 42.266,86.461L40.055,87.233C39.84,95.987 40.238,103.988 35.632,104.042C35.487,119.432 34.938,126.029 34.938,126.029C44.137,129.229 58.495,128.717 67.78,126.029Z" fill="#ECCF39"/>
<path d="M53.013,103.599C51.973,103.481 51.669,104.869 51.669,104.869C51.669,104.869 51.365,103.48 50.326,103.599C49.291,103.723 48.071,105.711 48.066,106.682C48.066,108.457 49.47,111.453 51.669,113.325C53.868,111.454 55.272,108.458 55.272,106.682C55.272,105.711 54.052,103.723 53.013,103.599Z" fill="#F15B67"/>
<path d="M42.738,109.056C42.3,109.995 43.543,110.71 43.543,110.71C43.543,110.71 42.112,110.569 41.905,111.585C41.703,112.598 43.238,114.362 44.168,114.663C45.875,115.214 49.189,114.813 51.668,113.324C50.55,110.678 48.107,108.429 46.395,107.883C45.465,107.582 43.174,108.115 42.738,109.056Z" fill="#F15B67"/>
<path d="M44.807,120.415C45.571,121.116 46.643,120.169 46.643,120.169C46.643,120.169 46.068,121.471 46.979,121.976C47.891,122.481 50.058,121.581 50.637,120.796C51.696,119.357 52.335,116.121 51.668,113.324C48.779,113.562 45.86,115.169 44.807,116.607C44.232,117.389 44.039,119.713 44.807,120.413L44.807,120.415Z" fill="#F15B67"/>
<path d="M56.362,121.977C57.274,121.472 56.693,120.17 56.693,120.17C56.693,120.17 57.766,121.116 58.534,120.415C59.303,119.715 59.105,117.391 58.53,116.608C57.477,115.168 54.56,113.562 51.67,113.326C51.008,116.123 51.647,119.359 52.705,120.798C53.28,121.581 55.452,122.483 56.362,121.978L56.362,121.977Z" fill="#F15B67"/>
<path d="M61.431,111.586C61.229,110.57 59.797,110.711 59.797,110.711C59.797,110.711 61.039,109.997 60.602,109.057C60.16,108.118 57.873,107.585 56.939,107.884C55.232,108.431 52.789,110.68 51.666,113.325C54.147,114.814 57.459,115.215 59.166,114.664C60.096,114.363 61.633,112.599 61.429,111.586L61.431,111.586Z" fill="#F15B67"/>
<path d="M53.138,113.324C53.138,114.127 52.48,114.778 51.67,114.778C50.859,114.778 50.207,114.127 50.207,113.324C50.207,112.522 50.861,111.877 51.67,111.877C52.479,111.877 53.138,112.524 53.138,113.324Z" fill="#912493"/>
<rect  x="51.547" y="108.457" width="0.247" height="4.867" fill="#912493"/>
<path d="M52.135,108.457C52.135,108.713 51.928,108.917 51.671,108.917C51.414,108.917 51.211,108.711 51.211,108.457C51.211,108.203 51.418,108.002 51.671,108.002C51.923,108.002 52.135,108.207 52.135,108.457Z" fill="#912493"/>
<path d="M51.564,113.384L49.107,109.17L49.319,109.047L51.776,113.263L51.564,113.384Z" fill="#912493"/>
<path d="M49.613,108.88C49.738,109.101 49.664,109.381 49.444,109.506C49.223,109.631 48.941,109.559 48.812,109.339C48.683,109.12 48.762,108.841 48.978,108.715C49.198,108.587 49.484,108.662 49.613,108.879L49.613,108.88Z" fill="#912493"/>
<path d="M51.61,113.428L47.35,110.997L47.474,110.787L51.731,113.219L51.61,113.428Z" fill="#912493"/>
<path d="M47.643,110.496C47.865,110.621 47.938,110.901 47.809,111.12C47.684,111.34 47.399,111.412 47.178,111.288C46.956,111.161 46.883,110.88 47.008,110.664C47.137,110.443 47.422,110.368 47.643,110.496Z" fill="#912493"/>
<rect  x="46.75" y="113.203" width="4.918" height="0.244" fill="#912493"/>
<path d="M46.751,112.869C47.009,112.869 47.215,113.075 47.215,113.324C47.215,113.574 47.008,113.782 46.751,113.782C46.494,113.782 46.291,113.58 46.291,113.324C46.291,113.069 46.499,112.869 46.751,112.869Z" fill="#912493"/>
<path d="M47.474,115.865L47.35,115.656L51.61,113.219L51.731,113.428L47.474,115.865Z" fill="#912493"/>
<path d="M47.179,115.365C47.4,115.237 47.686,115.312 47.81,115.532C47.939,115.751 47.865,116.03 47.645,116.158C47.425,116.281 47.139,116.207 47.01,115.99C46.885,115.772 46.959,115.491 47.179,115.365Z" fill="#912493"/>
<path d="M49.319,117.601L49.107,117.482L51.564,113.266L51.776,113.386L49.319,117.601Z" fill="#912493"/>
<path d="M48.812,117.314C48.941,117.095 49.222,117.018 49.443,117.146C49.665,117.274 49.738,117.551 49.613,117.77C49.484,117.988 49.199,118.065 48.982,117.938C48.762,117.811 48.683,117.533 48.812,117.314Z" fill="#912493"/>
<rect  x="51.545" y="113.324" width="0.247" height="4.867" fill="#912493"/>
<path d="M51.209,118.192C51.209,117.939 51.417,117.736 51.669,117.736C51.921,117.736 52.133,117.939 52.133,118.192C52.133,118.444 51.926,118.65 51.669,118.65C51.412,118.65 51.209,118.444 51.209,118.192Z" fill="#912493"/>
<path d="M54.026,117.601L51.564,113.386L51.776,113.266L54.237,117.482L54.026,117.601Z" fill="#912493"/>
<path d="M53.73,117.768C53.601,117.549 53.68,117.271 53.9,117.144C54.12,117.016 54.402,117.094 54.531,117.31C54.656,117.531 54.582,117.809 54.361,117.936C54.141,118.061 53.855,117.986 53.73,117.768Z" fill="#912493"/>
<path d="M55.871,115.865L51.609,113.428L51.73,113.219L55.99,115.656L55.871,115.865Z" fill="#912493"/>
<path d="M55.699,116.153C55.478,116.028 55.4,115.748 55.529,115.529C55.658,115.311 55.939,115.236 56.16,115.362C56.381,115.487 56.455,115.767 56.33,115.987C56.201,116.206 55.921,116.278 55.7,116.153L55.699,116.153Z" fill="#912493"/>
<rect  x="51.775" y="113.215" width="4.821" height="0.239" fill="#912493"/>
<path d="M56.596,113.782C56.348,113.782 56.145,113.583 56.145,113.334C56.145,113.084 56.348,112.887 56.596,112.887C56.844,112.887 57.048,113.088 57.048,113.334C57.048,113.579 56.844,113.782 56.596,113.782Z" fill="#912493"/>
<path d="M51.835,113.436L51.717,113.231L55.893,110.848L56.011,111.053L51.835,113.436Z" fill="#912493"/>
<path d="M56.177,111.335C55.961,111.457 55.685,111.387 55.559,111.173C55.433,110.959 55.51,110.684 55.726,110.561C55.942,110.436 56.218,110.51 56.344,110.723C56.466,110.937 56.393,111.212 56.177,111.335Z" fill="#912493"/>
<path d="M51.879,113.394L51.672,113.276L54.084,109.143L54.292,109.262L51.879,113.394Z" fill="#912493"/>
<path d="M54.577,109.427C54.455,109.641 54.18,109.713 53.964,109.589C53.748,109.467 53.671,109.192 53.797,108.976C53.919,108.764 54.198,108.69 54.416,108.815C54.632,108.937 54.705,109.212 54.578,109.427L54.577,109.427Z" fill="#912493"/>
</svg>
