<svg width="104" height="138" viewBox="0 0 104 138" fill="none" xmlns="http://www.w3.org/2000/svg" xmlns:xlink="http://www.w3.org/1999/xlink">
<path d="M64.508,20.327C69.384,18.836 75.91,21.451 83.711,27.249C83.906,27.394 84.18,27.224 84.133,26.987C83.039,21.418 80.214,16.924 74.578,14.174C76.227,13.115 78.284,14.045 80.468,15.597C80.698,15.759 80.993,15.504 80.859,15.258C77.98,10.026 73.705,7.106 67.602,7.214C67.685,6.005 69.065,5.2 70.99,4.566C71.272,4.473 71.213,4.064 70.917,4.051C60.864,3.62 55.516,8.617 54.033,18.071L64.511,20.327L64.508,20.327Z" fill="#333333"/>
<path d="M53.099,20.992C57.021,21.071 60.872,21.808 64.639,23.324L64.508,20.328C61.183,19.14 57.684,18.404 54.03,18.072L53.099,20.992Z" fill="#F15B67"/>
<path d="M31.718,129.065L30.937,125.78C30.931,124.817 30.991,123.854 31.115,122.899C32.102,115.27 33.763,108.028 36.312,101.294L31.133,98.285C29.278,105.02 27.759,118.301 27.299,122.589C27.204,123.479 27.159,124.372 27.164,125.265C26.906,127.979 26.052,130.384 26.205,132.016C26.237,132.357 26.397,132.678 26.654,132.924L27.676,133.908C27.87,134.747 28.345,135.24 29.341,135.089C29.729,135.692 30.091,136.197 30.445,136.345C30.55,136.388 30.666,136.314 30.652,136.209C30.526,135.22 29.931,130.498 30.14,130.473C30.844,130.391 30.903,133.107 31.461,133.039C31.917,132.983 31.848,130.575 31.806,129.686C31.796,129.476 31.767,129.269 31.719,129.064L31.718,129.065Z" fill="#FBD3A8"/>
<path d="M71.237,129.065L72.018,125.78C72.024,124.817 71.964,123.854 71.84,122.899C70.853,115.27 69.193,108.028 66.643,101.294L71.822,98.285C73.677,105.02 75.196,118.301 75.656,122.589C75.751,123.479 75.796,124.372 75.791,125.265C76.049,127.979 76.903,130.384 76.75,132.016C76.718,132.357 76.558,132.678 76.301,132.924L75.279,133.908C75.085,134.747 74.61,135.24 73.614,135.089C73.226,135.692 72.864,136.197 72.511,136.345C72.405,136.388 72.289,136.314 72.303,136.209C72.429,135.22 73.024,130.498 72.815,130.473C72.111,130.391 72.052,133.107 71.494,133.039C71.038,132.983 71.107,130.575 71.149,129.686C71.159,129.476 71.188,129.269 71.236,129.064L71.237,129.065Z" fill="#FBD3A8"/>
<path d="M56.461,79.706L46.384,79.706C46.468,83.755 45.899,86.304 45.299,87.899C45.073,88.5 45.251,89.176 45.735,89.603C47.936,91.55 54.512,92.249 57.188,89.392C57.589,88.964 57.711,88.349 57.51,87.799C56.924,86.199 56.379,83.672 56.461,79.705L56.461,79.706Z" fill="#FBD3A8"/>
<g opacity="0.35">
<path d="M46.708,80.25L56.212,80.314L56.373,83.055C54.864,85.253 47.558,85.16 46.435,82.952L46.708,80.251L46.708,80.25Z" fill="#F8A364"/>
</g>
<path d="M29.276,69.262C24.935,69.262 22.165,63.542 23.514,59.85C23.839,58.958 24.484,58.198 25.365,57.824C26.936,57.158 28.352,57.978 29.276,58.59L29.276,69.262Z" fill="#FBD3A8"/>
<path d="M27.767,66.927C25.052,66.355 23.867,59.828 27.237,60.257L29.163,60.47L29.163,67.164L27.767,66.925L27.767,66.927Z" fill="#FBBD89"/>
<path d="M29.076,60.743C28.641,60.587 28.201,60.451 27.751,60.376C27.305,60.311 26.84,60.294 26.427,60.444C26.014,60.59 25.669,60.913 25.48,61.332C25.288,61.75 25.209,62.221 25.179,62.69C25.162,62.221 25.19,61.74 25.345,61.278C25.496,60.817 25.846,60.398 26.313,60.18C26.78,59.957 27.302,59.926 27.795,59.95C28.292,59.983 28.774,60.08 29.25,60.198L29.074,60.743L29.076,60.743Z" fill="#603813"/>
<path d="M73.713,69.262C78.055,69.262 80.825,63.542 79.476,59.85C79.15,58.958 78.505,58.198 77.625,57.824C76.054,57.158 74.638,57.978 73.713,58.59L73.713,69.262Z" fill="#FBD3A8"/>
<path d="M75.222,66.927C77.937,66.355 79.121,59.828 75.752,60.257L73.827,60.47L73.827,67.164L75.222,66.925L75.222,66.927Z" fill="#FBBD89"/>
<path d="M73.738,60.198C74.214,60.08 74.696,59.981 75.192,59.949C75.686,59.927 76.208,59.958 76.675,60.18C77.142,60.399 77.492,60.818 77.642,61.278C77.799,61.738 77.826,62.219 77.809,62.689C77.778,62.22 77.7,61.749 77.508,61.332C77.318,60.913 76.975,60.589 76.561,60.444C76.147,60.294 75.683,60.31 75.237,60.376C74.787,60.45 74.347,60.588 73.912,60.742L73.737,60.198L73.738,60.198Z" fill="#603813"/>
<path d="M73.77,37.34L29.511,37.34C23.506,64.414 27.82,82.218 51.337,82.776L51.945,82.776C75.461,82.218 79.776,64.413 73.771,37.34L73.77,37.34Z" fill="#FBD3A8"/>
<path d="M51.188,66.565C51.284,66.583 51.378,66.562 51.47,66.535C53.181,66.038 53.429,67.936 52.052,68.109C50.738,68.228 50.047,67.788 49.623,67.224C49.392,66.916 49.571,66.457 49.957,66.408C50.302,66.364 50.752,66.478 51.188,66.564L51.188,66.565Z" fill="#F8A364"/>
<path d="M41.901,63.519C42.989,63.519 43.871,62.125 43.871,60.406C43.871,58.687 42.989,57.293 41.901,57.293C40.812,57.293 39.93,58.687 39.93,60.406C39.93,62.125 40.812,63.519 41.901,63.519Z" fill="#4D4E4E"/>
<path d="M42.102,60.249C42.589,60.249 42.983,59.766 42.983,59.17C42.983,58.575 42.589,58.092 42.102,58.092C41.616,58.092 41.222,58.575 41.222,59.17C41.222,59.766 41.616,60.249 42.102,60.249Z" fill="#FFFFFF"/>
<path d="M40.711,54.78C40.8,54.758 40.891,54.75 40.981,54.758C42.115,54.848 43.3,54.857 43.3,53.968C43.3,52.396 39.144,52.936 39.144,54.461C39.267,55.054 39.762,55.018 40.711,54.78Z" fill="#4D4E4E"/>
<path d="M39.721,56.818C39.912,57.187 39.878,57.581 39.648,57.697C39.418,57.814 39.076,57.61 38.886,57.241C38.695,56.872 38.728,56.478 38.958,56.361C39.19,56.244 39.531,56.448 39.721,56.818Z" fill="#EF8971"/>
<path d="M38.236,60.421C38.653,60.385 38.974,60.149 38.95,59.894C38.926,59.638 38.571,59.461 38.154,59.497C37.737,59.533 37.416,59.769 37.44,60.024C37.464,60.28 37.818,60.457 38.236,60.421Z" fill="#EF8971"/>
<path d="M38.531,57.968C38.929,58.094 39.19,58.394 39.11,58.638C39.03,58.882 38.644,58.978 38.244,58.852C37.846,58.726 37.585,58.426 37.665,58.182C37.744,57.937 38.131,57.842 38.531,57.968Z" fill="#EF8971"/>
<path d="M60.321,63.519C61.409,63.519 62.291,62.125 62.291,60.406C62.291,58.687 61.409,57.293 60.321,57.293C59.233,57.293 58.351,58.687 58.351,60.406C58.351,62.125 59.233,63.519 60.321,63.519Z" fill="#4D4E4E"/>
<path d="M59.238,59.17C59.238,59.766 59.632,60.249 60.119,60.249C60.606,60.249 61,59.766 61,59.17C61,58.575 60.606,58.092 60.119,58.092C59.632,58.092 59.238,58.575 59.238,59.17Z" fill="#FFFFFF"/>
<path d="M61.51,54.78C61.422,54.758 61.331,54.75 61.241,54.758C60.106,54.848 58.921,54.857 58.921,53.968C58.921,52.396 63.078,52.936 63.078,54.461C62.955,55.054 62.46,55.018 61.51,54.78Z" fill="#4D4E4E"/>
<path d="M62.5,56.818C62.31,57.187 62.343,57.581 62.573,57.697C62.803,57.814 63.145,57.61 63.336,57.241C63.527,56.872 63.493,56.478 63.263,56.361C63.032,56.244 62.691,56.448 62.5,56.818Z" fill="#EF8971"/>
<path d="M63.986,60.421C63.569,60.385 63.248,60.149 63.272,59.894C63.296,59.638 63.65,59.461 64.068,59.497C64.485,59.533 64.806,59.769 64.782,60.024C64.758,60.28 64.403,60.457 63.986,60.421Z" fill="#EF8971"/>
<path d="M63.691,57.968C63.293,58.094 63.033,58.394 63.112,58.638C63.19,58.882 63.577,58.978 63.977,58.852C64.375,58.726 64.635,58.426 64.556,58.182C64.478,57.937 64.091,57.842 63.691,57.968Z" fill="#EF8971"/>
<path d="M45.748,72.427C46.728,72.619 47.68,72.817 48.635,72.956C49.59,73.089 50.541,73.174 51.493,73.182C52.445,73.193 53.396,73.128 54.351,73.007C55.306,72.881 56.258,72.688 57.237,72.491C56.394,73.023 55.46,73.41 54.487,73.668C53.515,73.933 52.499,74.057 51.485,74.045C50.471,74.033 49.46,73.889 48.493,73.611C47.526,73.34 46.596,72.95 45.749,72.426L45.748,72.427Z" fill="#F8A364"/>
<path d="M48.796,75.081C49.283,75.097 49.75,75.136 50.213,75.165C50.677,75.195 51.135,75.215 51.594,75.227C52.053,75.238 52.513,75.242 52.977,75.237C53.441,75.231 53.909,75.217 54.396,75.229C53.963,75.451 53.498,75.592 53.023,75.684C52.548,75.775 52.062,75.817 51.577,75.802C51.092,75.789 50.61,75.723 50.14,75.606C49.671,75.49 49.214,75.324 48.793,75.08L48.796,75.081Z" fill="#F8A364"/>
<path d="M68.683,91.857C67.647,89.761 65.8,88.168 63.559,87.439L56.834,85.238C55.679,87.872 54.418,89.5 51.407,89.532C48.396,89.5 47.166,87.872 46.012,85.238L39.256,87.439C37.016,88.167 35.168,89.76 34.131,91.857L29.321,101.593L35.632,104.042L37.987,126.802L64.826,126.802L67.07,104.042L73.492,101.593L68.682,91.857L68.683,91.857Z" fill="#F15B67"/>
<path d="M38.103,72.35C39.998,72.35 41.533,70.83 41.533,68.955C41.533,67.08 39.998,65.561 38.103,65.561C36.209,65.561 34.673,67.08 34.673,68.955C34.673,70.83 36.209,72.35 38.103,72.35Z" fill="#EF8971"/>
<path d="M66.07,72.35C67.965,72.35 69.501,70.83 69.501,68.955C69.501,67.08 67.965,65.561 66.07,65.561C64.176,65.561 62.64,67.08 62.64,68.955C62.64,70.83 64.176,72.35 66.07,72.35Z" fill="#EF8971"/>
<path d="M40.568,38.597C34.402,43.858 29.366,53.465 28.544,62.539C28.497,63.063 28.044,63.462 27.512,63.462L25.417,58.17C24.105,54.855 23.242,51.38 22.893,47.837C21.197,30.69 29.835,24.199 43.352,20.535C50.638,18.56 58.421,19.129 65.225,22.374C73.509,26.325 78.17,31.879 79.348,41.574C80.127,47.984 79.194,54.486 76.772,60.482L75.569,63.462C75.015,63.462 74.551,63.067 74.446,62.529C73.266,56.503 66.219,49.838 58.71,45.546C59.432,47.891 60.355,50.264 61.855,52.711C55.288,51.878 51.688,48.729 48.178,42.685L49.238,49.236C42.948,45.834 41.086,44.202 40.57,38.595L40.568,38.597Z" fill="#333333"/>
<path d="M67.782,126.029C67.782,126.029 67.215,119.432 67.072,104.042C62.465,103.988 62.862,95.905 62.649,87.151L60.437,86.461C60.788,94.67 57.745,98.985 51.353,99.457C44.961,98.985 41.918,94.67 42.268,86.461L40.057,87.233C39.842,95.987 40.24,103.988 35.634,104.042C35.489,119.432 34.939,126.029 34.939,126.029C44.139,129.229 58.496,128.717 67.782,126.029Z" fill="#ECCF39"/>
<path d="M53.013,103.599C51.974,103.481 51.67,104.869 51.67,104.869C51.67,104.869 51.365,103.48 50.326,103.599C49.291,103.723 48.071,105.711 48.067,106.682C48.067,108.457 49.471,111.453 51.67,113.325C53.869,111.454 55.272,108.458 55.272,106.682C55.272,105.711 54.052,103.723 53.013,103.599Z" fill="#F15B67"/>
<path d="M42.739,109.056C42.302,109.995 43.544,110.71 43.544,110.71C43.544,110.71 42.114,110.569 41.906,111.585C41.704,112.598 43.24,114.362 44.17,114.663C45.876,115.214 49.19,114.813 51.67,113.324C50.552,110.678 48.109,108.429 46.397,107.883C45.467,107.582 43.175,108.115 42.739,109.056Z" fill="#F15B67"/>
<path d="M44.809,120.415C45.573,121.116 46.645,120.169 46.645,120.169C46.645,120.169 46.07,121.471 46.981,121.976C47.893,122.481 50.06,121.581 50.639,120.796C51.698,119.357 52.337,116.121 51.67,113.324C48.781,113.562 45.862,115.169 44.809,116.607C44.234,117.389 44.041,119.713 44.809,120.413L44.809,120.415Z" fill="#F15B67"/>
<path d="M56.364,121.977C57.275,121.472 56.694,120.17 56.694,120.17C56.694,120.17 57.767,121.116 58.536,120.415C59.304,119.715 59.107,117.391 58.532,116.608C57.478,115.168 54.561,113.562 51.671,113.326C51.009,116.123 51.649,119.359 52.706,120.798C53.281,121.581 55.453,122.483 56.364,121.978L56.364,121.977Z" fill="#F15B67"/>
<path d="M61.433,111.586C61.231,110.57 59.799,110.711 59.799,110.711C59.799,110.711 61.042,109.997 60.604,109.057C60.163,108.118 57.875,107.585 56.941,107.884C55.235,108.431 52.792,110.68 51.668,113.325C54.149,114.814 57.462,115.215 59.168,114.664C60.098,114.363 61.635,112.599 61.432,111.586L61.433,111.586Z" fill="#F15B67"/>
<path d="M53.138,113.324C53.138,114.127 52.48,114.778 51.67,114.778C50.859,114.778 50.207,114.127 50.207,113.324C50.207,112.522 50.861,111.877 51.67,111.877C52.479,111.877 53.138,112.524 53.138,113.324Z" fill="#912493"/>
<rect  x="51.546" y="108.457" width="0.247" height="4.867" fill="#912493"/>
<path d="M52.135,108.457C52.135,108.713 51.928,108.917 51.671,108.917C51.414,108.917 51.211,108.711 51.211,108.457C51.211,108.203 51.418,108.002 51.671,108.002C51.923,108.002 52.135,108.207 52.135,108.457Z" fill="#912493"/>
<path d="M51.564,113.384L49.107,109.17L49.319,109.047L51.776,113.263L51.564,113.384Z" fill="#912493"/>
<path d="M49.614,108.88C49.738,109.101 49.664,109.381 49.444,109.506C49.224,109.631 48.942,109.559 48.813,109.339C48.684,109.12 48.762,108.841 48.978,108.715C49.199,108.587 49.485,108.662 49.614,108.879L49.614,108.88Z" fill="#912493"/>
<path d="M51.609,113.428L47.349,110.997L47.473,110.787L51.73,113.219L51.609,113.428Z" fill="#912493"/>
<path d="M47.643,110.496C47.865,110.621 47.938,110.901 47.809,111.12C47.684,111.34 47.399,111.412 47.178,111.288C46.956,111.161 46.883,110.88 47.008,110.664C47.137,110.443 47.422,110.368 47.643,110.496Z" fill="#912493"/>
<rect  x="46.751" y="113.203" width="4.918" height="0.244" fill="#912493"/>
<path d="M46.751,112.869C47.01,112.869 47.216,113.075 47.216,113.324C47.216,113.574 47.008,113.782 46.751,113.782C46.495,113.782 46.292,113.58 46.292,113.324C46.292,113.069 46.499,112.869 46.751,112.869Z" fill="#912493"/>
<path d="M47.474,115.865L47.349,115.656L51.61,113.219L51.73,113.428L47.474,115.865Z" fill="#912493"/>
<path d="M47.179,115.365C47.4,115.237 47.686,115.312 47.81,115.532C47.939,115.751 47.865,116.03 47.645,116.158C47.425,116.281 47.139,116.207 47.01,115.99C46.885,115.772 46.959,115.491 47.179,115.365Z" fill="#912493"/>
<path d="M49.319,117.601L49.107,117.482L51.564,113.266L51.776,113.386L49.319,117.601Z" fill="#912493"/>
<path d="M48.813,117.314C48.942,117.095 49.222,117.018 49.444,117.146C49.665,117.274 49.738,117.551 49.614,117.77C49.485,117.988 49.2,118.065 48.982,117.938C48.762,117.811 48.684,117.533 48.813,117.314Z" fill="#912493"/>
<rect  x="51.546" y="113.324" width="0.247" height="4.867" fill="#912493"/>
<path d="M51.209,118.192C51.209,117.939 51.417,117.736 51.669,117.736C51.922,117.736 52.134,117.939 52.134,118.192C52.134,118.444 51.926,118.65 51.669,118.65C51.413,118.65 51.209,118.444 51.209,118.192Z" fill="#912493"/>
<path d="M54.026,117.601L51.564,113.386L51.776,113.266L54.237,117.482L54.026,117.601Z" fill="#912493"/>
<path d="M53.731,117.768C53.602,117.549 53.681,117.271 53.901,117.144C54.121,117.016 54.403,117.094 54.532,117.31C54.657,117.531 54.582,117.809 54.362,117.936C54.142,118.061 53.856,117.986 53.731,117.768Z" fill="#912493"/>
<path d="M55.871,115.865L51.609,113.428L51.73,113.219L55.99,115.656L55.871,115.865Z" fill="#912493"/>
<path d="M55.7,116.153C55.478,116.028 55.401,115.748 55.53,115.529C55.659,115.311 55.94,115.236 56.161,115.362C56.382,115.487 56.456,115.767 56.331,115.987C56.202,116.206 55.922,116.278 55.701,116.153L55.7,116.153Z" fill="#912493"/>
<rect  x="51.776" y="113.215" width="4.821" height="0.239" fill="#912493"/>
<path d="M56.598,113.782C56.349,113.782 56.146,113.583 56.146,113.334C56.146,113.084 56.349,112.887 56.598,112.887C56.846,112.887 57.049,113.088 57.049,113.334C57.049,113.579 56.846,113.782 56.598,113.782Z" fill="#912493"/>
<path d="M51.835,113.436L51.717,113.231L55.894,110.848L56.011,111.053L51.835,113.436Z" fill="#912493"/>
<path d="M56.178,111.335C55.962,111.457 55.686,111.387 55.56,111.173C55.434,110.959 55.511,110.684 55.727,110.561C55.943,110.436 56.219,110.51 56.345,110.723C56.467,110.937 56.394,111.212 56.178,111.335Z" fill="#912493"/>
<path d="M51.88,113.394L51.672,113.276L54.084,109.143L54.292,109.262L51.88,113.394Z" fill="#912493"/>
<path d="M54.576,109.427C54.454,109.641 54.18,109.713 53.964,109.589C53.748,109.467 53.67,109.192 53.797,108.976C53.919,108.764 54.198,108.69 54.415,108.815C54.631,108.937 54.704,109.212 54.578,109.427L54.576,109.427Z" fill="#912493"/>
</svg>
