<svg width="104" height="138" viewBox="0 0 104 138" fill="none" xmlns="http://www.w3.org/2000/svg" xmlns:xlink="http://www.w3.org/1999/xlink">
<path d="M64.508,20.327C69.384,18.836 75.91,21.451 83.711,27.249C83.906,27.394 84.18,27.224 84.133,26.987C83.039,21.418 80.214,16.924 74.578,14.174C76.227,13.115 78.284,14.045 80.468,15.597C80.698,15.759 80.993,15.504 80.859,15.258C77.98,10.026 73.705,7.106 67.602,7.214C67.685,6.005 69.065,5.2 70.99,4.566C71.272,4.473 71.213,4.064 70.917,4.051C60.864,3.62 55.516,8.617 54.033,18.071L64.511,20.327L64.508,20.327Z" fill="#333333"/>
<path d="M53.099,20.991C57.021,21.07 60.872,21.807 64.639,23.323L64.508,20.327C61.183,19.139 57.684,18.403 54.03,18.071L53.099,20.991Z" fill="#F15B67"/>
<path d="M31.718,129.064L30.937,125.779C30.931,124.816 30.991,123.853 31.115,122.898C32.102,115.269 33.763,108.027 36.312,101.293L31.133,98.284C29.278,105.019 27.759,118.3 27.299,122.588C27.204,123.478 27.159,124.371 27.164,125.264C26.906,127.978 26.052,130.383 26.205,132.015C26.237,132.356 26.397,132.677 26.654,132.923L27.676,133.907C27.87,134.746 28.345,135.239 29.341,135.088C29.729,135.691 30.091,136.196 30.445,136.344C30.55,136.387 30.666,136.313 30.652,136.208C30.526,135.219 29.931,130.497 30.14,130.472C30.844,130.39 30.903,133.106 31.461,133.038C31.917,132.982 31.848,130.574 31.806,129.685C31.796,129.475 31.767,129.268 31.719,129.063L31.718,129.064Z" fill="#FBD3A8"/>
<path d="M71.237,129.064L72.018,125.779C72.024,124.816 71.964,123.853 71.84,122.898C70.853,115.269 69.193,108.027 66.643,101.293L71.822,98.284C73.677,105.019 75.196,118.3 75.656,122.588C75.751,123.478 75.796,124.371 75.791,125.264C76.049,127.978 76.903,130.383 76.75,132.015C76.718,132.356 76.558,132.677 76.301,132.923L75.279,133.907C75.085,134.746 74.61,135.239 73.614,135.088C73.226,135.691 72.864,136.196 72.511,136.344C72.405,136.387 72.289,136.313 72.303,136.208C72.429,135.219 73.024,130.497 72.815,130.472C72.111,130.39 72.052,133.106 71.494,133.038C71.038,132.982 71.107,130.574 71.149,129.685C71.159,129.475 71.188,129.268 71.236,129.063L71.237,129.064Z" fill="#FBD3A8"/>
<path d="M56.461,79.706L46.384,79.706C46.468,83.755 45.899,86.304 45.299,87.899C45.073,88.5 45.251,89.176 45.735,89.603C47.936,91.55 54.512,92.249 57.188,89.392C57.589,88.964 57.711,88.349 57.51,87.799C56.924,86.199 56.379,83.672 56.461,79.705L56.461,79.706Z" fill="#FBD3A8"/>
<g opacity="0.35">
<path d="M46.708,80.25L56.212,80.314L56.373,83.055C54.864,85.253 47.558,85.16 46.435,82.952L46.708,80.251L46.708,80.25Z" fill="#F8A364"/>
</g>
<path d="M29.276,69.262C24.935,69.262 22.165,63.542 23.514,59.85C23.839,58.958 24.484,58.198 25.365,57.824C26.936,57.158 28.352,57.978 29.276,58.59L29.276,69.262Z" fill="#FBD3A8"/>
<path d="M27.767,66.928C25.052,66.356 23.867,59.829 27.237,60.258L29.163,60.471L29.163,67.165L27.767,66.926L27.767,66.928Z" fill="#FBBD89"/>
<path d="M29.076,60.743C28.641,60.587 28.201,60.451 27.751,60.376C27.305,60.311 26.84,60.294 26.427,60.444C26.014,60.59 25.669,60.913 25.48,61.332C25.288,61.75 25.209,62.221 25.179,62.69C25.162,62.221 25.19,61.74 25.345,61.278C25.496,60.817 25.846,60.398 26.313,60.18C26.78,59.957 27.302,59.926 27.795,59.95C28.292,59.983 28.774,60.08 29.25,60.198L29.074,60.743L29.076,60.743Z" fill="#603813"/>
<path d="M73.713,69.262C78.055,69.262 80.825,63.542 79.476,59.85C79.15,58.958 78.505,58.198 77.625,57.824C76.054,57.158 74.638,57.978 73.713,58.59L73.713,69.262Z" fill="#FBD3A8"/>
<path d="M75.222,66.928C77.937,66.356 79.121,59.829 75.752,60.258L73.827,60.471L73.827,67.165L75.222,66.926L75.222,66.928Z" fill="#FBBD89"/>
<path d="M73.738,60.199C74.214,60.081 74.696,59.982 75.192,59.95C75.686,59.928 76.208,59.959 76.675,60.181C77.142,60.4 77.492,60.819 77.642,61.279C77.799,61.739 77.826,62.22 77.809,62.69C77.778,62.221 77.7,61.75 77.508,61.333C77.318,60.914 76.975,60.59 76.561,60.444C76.147,60.295 75.683,60.311 75.237,60.376C74.787,60.451 74.347,60.589 73.912,60.743L73.737,60.199L73.738,60.199Z" fill="#603813"/>
<path d="M73.77,37.341L29.511,37.341C23.506,64.415 27.82,82.219 51.337,82.777L51.945,82.777C75.461,82.219 79.776,64.414 73.771,37.341L73.77,37.341Z" fill="#FBD3A8"/>
<path d="M51.188,66.565C51.284,66.583 51.378,66.562 51.47,66.535C53.181,66.038 53.429,67.936 52.052,68.109C50.738,68.228 50.047,67.788 49.623,67.224C49.392,66.916 49.571,66.457 49.957,66.408C50.302,66.364 50.752,66.478 51.188,66.564L51.188,66.565Z" fill="#F8A364"/>
<path d="M41.901,63.52C42.989,63.52 43.871,62.126 43.871,60.407C43.871,58.688 42.989,57.294 41.901,57.294C40.812,57.294 39.93,58.688 39.93,60.407C39.93,62.126 40.812,63.52 41.901,63.52Z" fill="#4D4E4E"/>
<path d="M42.102,60.249C42.589,60.249 42.983,59.766 42.983,59.17C42.983,58.575 42.589,58.092 42.102,58.092C41.616,58.092 41.222,58.575 41.222,59.17C41.222,59.766 41.616,60.249 42.102,60.249Z" fill="#FFFFFF"/>
<path d="M40.711,54.78C40.8,54.758 40.891,54.75 40.981,54.758C42.115,54.848 43.3,54.857 43.3,53.968C43.3,52.396 39.144,52.936 39.144,54.461C39.267,55.054 39.762,55.018 40.711,54.78Z" fill="#4D4E4E"/>
<path d="M39.721,56.818C39.912,57.187 39.878,57.581 39.648,57.697C39.418,57.814 39.076,57.61 38.886,57.241C38.695,56.872 38.728,56.478 38.958,56.361C39.19,56.244 39.531,56.448 39.721,56.818Z" fill="#EF8971"/>
<path d="M38.236,60.422C38.653,60.386 38.974,60.15 38.95,59.895C38.926,59.639 38.571,59.462 38.154,59.498C37.737,59.534 37.416,59.77 37.44,60.025C37.464,60.281 37.818,60.458 38.236,60.422Z" fill="#EF8971"/>
<path d="M38.531,57.968C38.929,58.094 39.19,58.394 39.11,58.638C39.03,58.882 38.644,58.978 38.244,58.852C37.846,58.726 37.585,58.426 37.665,58.182C37.744,57.937 38.131,57.842 38.531,57.968Z" fill="#EF8971"/>
<path d="M60.321,63.52C61.409,63.52 62.291,62.126 62.291,60.407C62.291,58.688 61.409,57.294 60.321,57.294C59.233,57.294 58.351,58.688 58.351,60.407C58.351,62.126 59.233,63.52 60.321,63.52Z" fill="#4D4E4E"/>
<path d="M59.238,59.17C59.238,59.766 59.632,60.249 60.119,60.249C60.606,60.249 61,59.766 61,59.17C61,58.575 60.606,58.092 60.119,58.092C59.632,58.092 59.238,58.575 59.238,59.17Z" fill="#FFFFFF"/>
<path d="M61.51,54.78C61.422,54.758 61.331,54.75 61.241,54.758C60.106,54.848 58.921,54.857 58.921,53.968C58.921,52.396 63.078,52.936 63.078,54.461C62.955,55.054 62.46,55.018 61.51,54.78Z" fill="#4D4E4E"/>
<path d="M62.5,56.818C62.31,57.187 62.343,57.581 62.573,57.697C62.803,57.814 63.145,57.61 63.336,57.241C63.527,56.872 63.493,56.478 63.263,56.361C63.032,56.244 62.691,56.448 62.5,56.818Z" fill="#EF8971"/>
<path d="M63.986,60.422C63.569,60.386 63.248,60.15 63.272,59.895C63.296,59.639 63.65,59.462 64.068,59.498C64.485,59.534 64.806,59.77 64.782,60.025C64.758,60.281 64.403,60.458 63.986,60.422Z" fill="#EF8971"/>
<path d="M63.691,57.968C63.293,58.094 63.033,58.394 63.112,58.638C63.19,58.882 63.577,58.978 63.977,58.852C64.375,58.726 64.635,58.426 64.556,58.182C64.478,57.937 64.091,57.842 63.691,57.968Z" fill="#EF8971"/>
<path d="M45.748,72.427C46.728,72.619 47.68,72.817 48.635,72.956C49.59,73.089 50.541,73.174 51.493,73.182C52.445,73.193 53.396,73.128 54.351,73.007C55.306,72.881 56.258,72.688 57.237,72.491C56.394,73.023 55.46,73.41 54.487,73.668C53.515,73.933 52.499,74.057 51.485,74.045C50.471,74.033 49.46,73.889 48.493,73.611C47.526,73.34 46.596,72.95 45.749,72.426L45.748,72.427Z" fill="#F8A364"/>
<path d="M48.796,75.08C49.283,75.096 49.75,75.135 50.213,75.164C50.677,75.194 51.135,75.214 51.594,75.226C52.053,75.237 52.513,75.241 52.977,75.236C53.441,75.23 53.909,75.217 54.396,75.228C53.963,75.45 53.498,75.591 53.023,75.683C52.548,75.774 52.062,75.816 51.577,75.801C51.092,75.788 50.61,75.722 50.14,75.605C49.671,75.489 49.214,75.323 48.793,75.079L48.796,75.08Z" fill="#F8A364"/>
<path d="M68.683,91.857C67.647,89.761 65.8,88.168 63.559,87.439L56.834,85.238C55.679,87.872 54.418,89.5 51.407,89.532C48.396,89.5 47.166,87.872 46.012,85.238L39.256,87.439C37.016,88.167 35.168,89.76 34.131,91.857L29.321,101.593L35.632,104.042L37.987,126.802L64.826,126.802L67.07,104.042L73.492,101.593L68.682,91.857L68.683,91.857Z" fill="#F15B67"/>
<path d="M38.103,72.351C39.998,72.351 41.533,70.831 41.533,68.956C41.533,67.081 39.998,65.562 38.103,65.562C36.209,65.562 34.673,67.081 34.673,68.956C34.673,70.831 36.209,72.351 38.103,72.351Z" fill="#EF8971"/>
<path d="M66.07,72.351C67.965,72.351 69.501,70.831 69.501,68.956C69.501,67.081 67.965,65.562 66.07,65.562C64.176,65.562 62.64,67.081 62.64,68.956C62.64,70.831 64.176,72.351 66.07,72.351Z" fill="#EF8971"/>
<path d="M40.568,38.597C34.402,43.858 29.366,53.465 28.544,62.539C28.497,63.063 28.044,63.462 27.512,63.462L25.417,58.17C24.105,54.855 23.242,51.38 22.893,47.837C21.197,30.69 29.835,24.199 43.352,20.535C50.638,18.56 58.421,19.129 65.225,22.374C73.509,26.325 78.17,31.879 79.348,41.574C80.127,47.984 79.194,54.486 76.772,60.482L75.569,63.462C75.015,63.462 74.551,63.067 74.446,62.529C73.266,56.503 66.219,49.838 58.71,45.546C59.432,47.891 60.355,50.264 61.855,52.711C55.288,51.878 51.688,48.729 48.178,42.685L49.238,49.236C42.948,45.834 41.086,44.202 40.57,38.595L40.568,38.597Z" fill="#333333"/>
<path d="M67.782,126.029C67.782,126.029 67.215,119.432 67.072,104.042C62.465,103.988 62.862,95.905 62.649,87.151L60.437,86.461C60.788,94.67 57.745,98.985 51.353,99.457C44.961,98.985 41.918,94.67 42.268,86.461L40.057,87.233C39.842,95.987 40.24,103.988 35.634,104.042C35.489,119.432 34.939,126.029 34.939,126.029C44.139,129.229 58.496,128.717 67.782,126.029Z" fill="#ECCF39"/>
<path d="M53.013,103.6C51.974,103.482 51.67,104.87 51.67,104.87C51.67,104.87 51.365,103.481 50.326,103.6C49.291,103.724 48.071,105.712 48.067,106.682C48.067,108.458 49.471,111.454 51.67,113.326C53.869,111.455 55.272,108.459 55.272,106.682C55.272,105.712 54.052,103.724 53.013,103.6Z" fill="#F15B67"/>
<path d="M42.739,109.057C42.302,109.996 43.544,110.711 43.544,110.711C43.544,110.711 42.114,110.57 41.906,111.585C41.704,112.599 43.24,114.363 44.17,114.664C45.876,115.215 49.19,114.814 51.67,113.324C50.552,110.679 48.109,108.429 46.397,107.884C45.467,107.583 43.175,108.116 42.739,109.057Z" fill="#F15B67"/>
<path d="M44.809,120.416C45.573,121.117 46.645,120.17 46.645,120.17C46.645,120.17 46.07,121.472 46.981,121.977C47.893,122.482 50.06,121.582 50.639,120.797C51.698,119.358 52.337,116.122 51.67,113.325C48.781,113.563 45.862,115.17 44.809,116.607C44.234,117.39 44.041,119.714 44.809,120.414L44.809,120.416Z" fill="#F15B67"/>
<path d="M56.364,121.978C57.275,121.473 56.694,120.171 56.694,120.171C56.694,120.171 57.767,121.117 58.536,120.416C59.304,119.715 59.107,117.392 58.532,116.609C57.478,115.169 54.561,113.563 51.671,113.327C51.009,116.124 51.649,119.36 52.706,120.799C53.281,121.582 55.453,122.484 56.364,121.979L56.364,121.978Z" fill="#F15B67"/>
<path d="M61.433,111.587C61.231,110.571 59.799,110.712 59.799,110.712C59.799,110.712 61.042,109.998 60.604,109.058C60.163,108.119 57.875,107.586 56.941,107.885C55.235,108.432 52.792,110.681 51.668,113.326C54.149,114.815 57.462,115.216 59.168,114.665C60.098,114.364 61.635,112.6 61.432,111.587L61.433,111.587Z" fill="#F15B67"/>
<path d="M53.138,113.326C53.138,114.129 52.48,114.78 51.67,114.78C50.859,114.78 50.207,114.129 50.207,113.326C50.207,112.524 50.861,111.879 51.67,111.879C52.479,111.879 53.138,112.526 53.138,113.326Z" fill="#912493"/>
<rect  x="51.546" y="108.459" width="0.247" height="4.867" fill="#912493"/>
<path d="M52.135,108.459C52.135,108.714 51.928,108.919 51.671,108.919C51.414,108.919 51.211,108.713 51.211,108.459C51.211,108.205 51.418,108.004 51.671,108.004C51.923,108.004 52.135,108.209 52.135,108.459Z" fill="#912493"/>
<path d="M51.564,113.388L49.107,109.174L49.319,109.051L51.776,113.267L51.564,113.388Z" fill="#912493"/>
<path d="M49.614,108.883C49.738,109.104 49.664,109.384 49.444,109.509C49.224,109.634 48.942,109.561 48.813,109.342C48.684,109.123 48.762,108.844 48.978,108.718C49.199,108.59 49.485,108.665 49.614,108.881L49.614,108.883Z" fill="#912493"/>
<path d="M51.609,113.43L47.349,110.999L47.473,110.789L51.73,113.221L51.609,113.43Z" fill="#912493"/>
<path d="M47.643,110.498C47.865,110.623 47.938,110.903 47.809,111.122C47.684,111.342 47.399,111.414 47.178,111.29C46.956,111.163 46.883,110.882 47.008,110.666C47.137,110.445 47.422,110.37 47.643,110.498Z" fill="#912493"/>
<rect  x="46.751" y="113.205" width="4.918" height="0.244" fill="#912493"/>
<path d="M46.751,112.871C47.01,112.871 47.216,113.076 47.216,113.326C47.216,113.576 47.008,113.784 46.751,113.784C46.495,113.784 46.292,113.582 46.292,113.326C46.292,113.071 46.499,112.871 46.751,112.871Z" fill="#912493"/>
<path d="M47.474,115.867L47.349,115.658L51.61,113.221L51.73,113.43L47.474,115.867Z" fill="#912493"/>
<path d="M47.179,115.366C47.4,115.238 47.686,115.313 47.81,115.533C47.939,115.752 47.865,116.031 47.645,116.158C47.425,116.282 47.139,116.208 47.01,115.991C46.885,115.773 46.959,115.492 47.179,115.366Z" fill="#912493"/>
<path d="M49.319,117.602L49.107,117.483L51.564,113.267L51.776,113.387L49.319,117.602Z" fill="#912493"/>
<path d="M48.813,117.315C48.942,117.096 49.222,117.019 49.444,117.147C49.665,117.275 49.738,117.552 49.614,117.771C49.485,117.989 49.2,118.066 48.982,117.939C48.762,117.812 48.684,117.534 48.813,117.315Z" fill="#912493"/>
<rect  x="51.546" y="113.326" width="0.247" height="4.867" fill="#912493"/>
<path d="M51.209,118.193C51.209,117.941 51.417,117.738 51.669,117.738C51.922,117.738 52.134,117.941 52.134,118.193C52.134,118.446 51.926,118.651 51.669,118.651C51.413,118.651 51.209,118.446 51.209,118.193Z" fill="#912493"/>
<path d="M54.026,117.602L51.564,113.387L51.776,113.267L54.237,117.483L54.026,117.602Z" fill="#912493"/>
<path d="M53.731,117.77C53.602,117.551 53.681,117.273 53.901,117.146C54.121,117.018 54.403,117.096 54.532,117.312C54.657,117.533 54.582,117.81 54.362,117.938C54.142,118.063 53.856,117.988 53.731,117.77Z" fill="#912493"/>
<path d="M55.871,115.867L51.609,113.43L51.73,113.221L55.99,115.658L55.871,115.867Z" fill="#912493"/>
<path d="M55.7,116.156C55.478,116.031 55.401,115.751 55.53,115.532C55.659,115.314 55.94,115.239 56.161,115.365C56.382,115.49 56.456,115.77 56.331,115.99C56.202,116.209 55.922,116.281 55.701,116.156L55.7,116.156Z" fill="#912493"/>
<rect  x="51.776" y="113.217" width="4.821" height="0.239" fill="#912493"/>
<path d="M56.598,113.785C56.349,113.785 56.146,113.586 56.146,113.337C56.146,113.087 56.349,112.89 56.598,112.89C56.846,112.89 57.049,113.091 57.049,113.337C57.049,113.582 56.846,113.785 56.598,113.785Z" fill="#912493"/>
<path d="M51.835,113.437L51.717,113.232L55.894,110.849L56.011,111.054L51.835,113.437Z" fill="#912493"/>
<path d="M56.178,111.337C55.962,111.459 55.686,111.389 55.56,111.175C55.434,110.961 55.511,110.686 55.727,110.563C55.943,110.438 56.219,110.512 56.345,110.725C56.467,110.939 56.394,111.214 56.178,111.337Z" fill="#912493"/>
<path d="M51.88,113.396L51.672,113.278L54.084,109.145L54.292,109.264L51.88,113.396Z" fill="#912493"/>
<path d="M54.576,109.429C54.454,109.643 54.18,109.715 53.964,109.591C53.748,109.469 53.67,109.194 53.797,108.978C53.919,108.765 54.198,108.692 54.415,108.817C54.631,108.939 54.704,109.214 54.578,109.429L54.576,109.429Z" fill="#912493"/>
</svg>
