<svg width="72" height="92" viewBox="0 0 72 92" fill="none" xmlns="http://www.w3.org/2000/svg" xmlns:xlink="http://www.w3.org/1999/xlink">
<g opacity="0.8">
</g>
<path d="M22.489,85.498L21.952,83.241C21.949,82.579 21.99,81.917 22.075,81.261C22.752,76.02 23.892,71.042 25.642,66.415L22.087,64.348C20.814,68.976 19.771,78.101 19.455,81.048C19.39,81.66 19.359,82.273 19.363,82.887C19.186,84.751 18.599,86.404 18.704,87.526C18.727,87.76 18.836,87.98 19.012,88.149L19.714,88.825C19.847,89.402 20.173,89.741 20.857,89.637C21.124,90.052 21.372,90.399 21.614,90.5C21.687,90.53 21.767,90.479 21.757,90.407C21.67,89.728 21.262,86.482 21.406,86.465C21.889,86.409 21.929,88.275 22.312,88.228C22.625,88.19 22.578,86.536 22.549,85.924C22.542,85.78 22.522,85.638 22.49,85.497L22.489,85.498Z" fill="#FBD3A8"/>
<path d="M49.616,85.498L50.152,83.241C50.156,82.579 50.115,81.917 50.03,81.261C49.352,76.02 48.213,71.042 46.462,66.415L50.018,64.348C51.291,68.976 52.334,78.101 52.649,81.048C52.715,81.66 52.746,82.273 52.742,82.887C52.919,84.751 53.505,86.404 53.4,87.526C53.378,87.76 53.268,87.98 53.092,88.149L52.39,88.825C52.258,89.402 51.931,89.741 51.248,89.637C50.981,90.052 50.733,90.399 50.49,90.5C50.418,90.53 50.338,90.479 50.348,90.407C50.434,89.728 50.843,86.482 50.699,86.465C50.216,86.409 50.175,88.275 49.792,88.228C49.479,88.19 49.527,86.536 49.555,85.924C49.562,85.78 49.582,85.638 49.615,85.497L49.616,85.498Z" fill="#FBD3A8"/>
<path d="M39.474,51.581L32.557,51.581C32.615,54.363 32.224,56.115 31.812,57.211C31.657,57.623 31.779,58.088 32.111,58.382C33.622,59.72 38.135,60.199 39.973,58.237C40.248,57.942 40.332,57.52 40.194,57.142C39.792,56.042 39.418,54.305 39.474,51.58L39.474,51.581Z" fill="#FBD3A8"/>
<g opacity="0.35">
<path d="M32.779,51.955L39.302,51.999L39.413,53.882C38.377,55.393 33.362,55.329 32.591,53.812L32.779,51.956L32.779,51.955Z" fill="#F8A364"/>
</g>
<path d="M20.812,44.405C17.832,44.405 15.931,40.475 16.857,37.938C17.08,37.325 17.523,36.802 18.128,36.545C19.206,36.088 20.178,36.651 20.812,37.072L20.812,44.405Z" fill="#FBD3A8"/>
<path d="M19.777,42.8C17.913,42.407 17.1,37.922 19.413,38.217L20.735,38.364L20.735,42.963L19.777,42.799L19.777,42.8Z" fill="#FBBD89"/>
<path d="M20.675,38.551C20.377,38.444 20.074,38.351 19.765,38.299C19.459,38.254 19.14,38.243 18.856,38.346C18.573,38.446 18.336,38.668 18.207,38.956C18.075,39.243 18.021,39.567 18,39.889C17.988,39.567 18.007,39.237 18.114,38.919C18.217,38.603 18.458,38.315 18.778,38.165C19.099,38.011 19.457,37.99 19.796,38.007C20.137,38.029 20.468,38.096 20.794,38.177L20.674,38.551L20.675,38.551Z" fill="#603813"/>
<path d="M51.317,44.405C54.298,44.405 56.199,40.475 55.273,37.938C55.05,37.325 54.607,36.802 54.002,36.545C52.924,36.088 51.952,36.651 51.317,37.072L51.317,44.405Z" fill="#FBD3A8"/>
<path d="M52.352,42.8C54.216,42.407 55.028,37.922 52.716,38.217L51.394,38.364L51.394,42.963L52.352,42.799L52.352,42.8Z" fill="#FBBD89"/>
<path d="M51.334,38.177C51.66,38.096 51.991,38.028 52.332,38.006C52.671,37.991 53.029,38.012 53.35,38.164C53.67,38.314 53.911,38.603 54.014,38.919C54.122,39.235 54.14,39.565 54.129,39.889C54.107,39.566 54.053,39.243 53.922,38.956C53.792,38.668 53.556,38.446 53.272,38.346C52.988,38.243 52.669,38.254 52.363,38.299C52.054,38.35 51.752,38.445 51.453,38.551L51.333,38.177L51.334,38.177Z" fill="#603813"/>
<path d="M51.356,22.47C41.141,13.815 31.015,13.856 20.974,22.47C16.852,41.074 19.813,53.308 35.957,53.691L36.374,53.691C52.517,53.308 55.479,41.073 51.357,22.47L51.356,22.47Z" fill="#FBD3A8"/>
<path d="M35.855,42.552C35.92,42.564 35.985,42.55 36.048,42.531C37.223,42.19 37.393,43.494 36.448,43.613C35.546,43.695 35.071,43.392 34.781,43.005C34.622,42.793 34.745,42.478 35.01,42.444C35.246,42.414 35.556,42.492 35.855,42.551L35.855,42.552Z" fill="#F8A364"/>
<path d="M29.773,40.46C30.52,40.46 31.125,39.502 31.125,38.321C31.125,37.139 30.52,36.182 29.773,36.182C29.026,36.182 28.42,37.139 28.42,38.321C28.42,39.502 29.026,40.46 29.773,40.46Z" fill="#4D4E4E"/>
<path d="M29.911,38.211C30.245,38.211 30.515,37.879 30.515,37.47C30.515,37.06 30.245,36.729 29.911,36.729C29.577,36.729 29.306,37.06 29.306,37.47C29.306,37.879 29.577,38.211 29.911,38.211Z" fill="#FFFFFF"/>
<path d="M42.123,40.46C42.87,40.46 43.476,39.502 43.476,38.321C43.476,37.139 42.87,36.182 42.123,36.182C41.376,36.182 40.771,37.139 40.771,38.321C40.771,39.502 41.376,40.46 42.123,40.46Z" fill="#4D4E4E"/>
<path d="M41.38,37.47C41.38,37.879 41.65,38.211 41.984,38.211C42.318,38.211 42.589,37.879 42.589,37.47C42.589,37.06 42.318,36.729 41.984,36.729C41.65,36.729 41.38,37.06 41.38,37.47Z" fill="#FFFFFF"/>
<path d="M32.119,46.579C32.792,46.711 33.445,46.847 34.101,46.942C34.756,47.034 35.409,47.092 36.063,47.098C36.716,47.106 37.369,47.061 38.025,46.978C38.68,46.891 39.334,46.758 40.006,46.623C39.427,46.988 38.786,47.254 38.118,47.432C37.451,47.614 36.753,47.699 36.057,47.691C35.361,47.682 34.667,47.583 34.004,47.393C33.339,47.207 32.701,46.939 32.12,46.578L32.119,46.579Z" fill="#F8A364"/>
<path d="M34.211,48.403C34.545,48.414 34.866,48.44 35.184,48.461C35.502,48.481 35.817,48.495 36.132,48.503C36.447,48.511 36.762,48.514 37.081,48.51C37.4,48.506 37.721,48.497 38.055,48.504C37.758,48.657 37.439,48.754 37.113,48.817C36.787,48.879 36.453,48.909 36.12,48.898C35.787,48.89 35.456,48.844 35.134,48.764C34.812,48.684 34.498,48.57 34.209,48.402L34.211,48.403Z" fill="#F8A364"/>
<path d="M47.863,59.931C47.152,58.491 45.884,57.396 44.346,56.895L39.73,55.383C38.936,57.193 38.071,58.312 36.004,58.333C33.937,58.312 33.093,57.193 32.301,55.383L27.663,56.895C26.125,57.395 24.857,58.49 24.145,59.931L20.843,66.621L25.175,68.304L26.792,83.943L45.216,83.943L46.756,68.304L51.164,66.621L47.862,59.931L47.863,59.931Z" fill="#255A9E"/>
<path d="M26.871,46.527C28.172,46.527 29.226,45.482 29.226,44.194C29.226,42.906 28.172,41.861 26.871,41.861C25.571,41.861 24.517,42.906 24.517,44.194C24.517,45.482 25.571,46.527 26.871,46.527Z" fill="#EF8971"/>
<path d="M46.07,46.527C47.37,46.527 48.425,45.482 48.425,44.194C48.425,42.906 47.37,41.861 46.07,41.861C44.77,41.861 43.715,42.906 43.715,44.194C43.715,45.482 44.77,46.527 46.07,46.527Z" fill="#EF8971"/>
<path d="M41.523,34.915C40.366,34.937 39.927,33.837 40.734,33.167C41.07,32.888 41.531,32.825 41.967,32.871C43.168,32.999 43.912,33.421 44.045,34.235C44.093,34.529 44.009,34.837 43.787,35.038C43.365,35.422 42.707,35.275 41.991,34.994C41.843,34.936 41.683,34.914 41.523,34.917L41.523,34.915Z" fill="#4D4E4E"/>
<path d="M29.961,34.915C31.119,34.937 31.558,33.837 30.751,33.167C30.415,32.888 29.954,32.825 29.518,32.871C28.316,32.999 27.572,33.421 27.439,34.235C27.391,34.529 27.476,34.837 27.697,35.038C28.12,35.422 28.777,35.275 29.494,34.994C29.642,34.936 29.802,34.914 29.961,34.917L29.961,34.915Z" fill="#4D4E4E"/>
<path d="M47.225,83.943C47.225,83.943 46.855,78.88 46.757,68.304C43.595,68.267 43.867,62.712 43.721,56.697L42.203,56.223C42.443,61.864 40.354,64.829 35.967,65.153C31.579,64.829 29.49,61.864 29.731,56.223L28.212,56.753C28.065,62.769 28.339,68.267 25.176,68.304C25.077,78.879 24.566,83.943 24.566,83.943C31.292,86.701 41.609,86.378 47.225,83.943Z" fill="#1A4C82"/>
<path d="M59.501,21.165C60.18,18.757 59.856,16.632 57.856,14.983C58.811,13.243 57.917,11.502 54.413,9.731C52.807,7.223 50.979,6.89 49.097,7.079C46.024,4.601 43.75,4.349 41.959,5.448L40.744,5.448C38.797,4.564 37.258,4.539 36.216,5.56C35.174,4.539 33.635,4.564 31.688,5.448L30.473,5.448C28.682,4.349 26.408,4.601 23.335,7.079C21.453,6.89 19.624,7.223 18.019,9.731C14.515,11.502 13.62,13.243 14.576,14.983C12.576,16.632 12.251,18.757 12.931,21.165C9.003,24.618 9.358,27.126 12.552,29.005C11.982,31.739 12.417,33.863 14.273,35.124C14.685,36.857 15.648,37.859 17.007,38.336C17.82,40.49 18.792,42.226 20.196,42.823C20.668,41.927 20.795,41.016 20.424,40.08C20.337,39.861 20.198,39.669 20.068,39.473C19.965,39.318 19.935,39.11 19.968,38.858C20.021,38.444 20.23,38.064 20.516,37.761C21.903,36.289 22.398,34.553 20.703,32.166C22.196,30.802 22.17,30.374 21.31,28.609C22.778,28.941 25.102,27.413 24.398,25.907C26.803,25.652 27.91,24.059 27.537,22.287C29.081,23.204 30.696,22.485 30.625,21.063C32.112,21.672 35.011,22.807 36.216,21.477C37.421,22.806 40.32,21.672 41.807,21.063C41.736,22.485 43.351,23.205 44.895,22.287C44.523,24.059 45.629,25.652 48.034,25.907C47.33,27.413 49.654,28.94 51.122,28.609C50.262,30.374 50.236,30.802 51.729,32.166C50.035,34.553 50.53,36.289 51.916,37.761C52.202,38.064 52.41,38.444 52.464,38.858C52.496,39.11 52.466,39.317 52.364,39.473C52.234,39.669 52.095,39.862 52.008,40.08C51.638,41.016 51.765,41.927 52.236,42.823C53.639,42.226 54.611,40.489 55.425,38.336C56.783,37.858 57.747,36.857 58.159,35.124C60.015,33.862 60.45,31.739 59.88,29.005C63.073,27.126 63.428,24.618 59.501,21.165Z" fill="#333333"/>
</svg>
