<svg width="72" height="92" viewBox="0 0 72 92" fill="none" xmlns="http://www.w3.org/2000/svg" xmlns:xlink="http://www.w3.org/1999/xlink">
<g opacity="0.8">
</g>
<path d="M21.478,85.498L20.945,83.241C20.941,82.579 20.982,81.917 21.066,81.261C21.74,76.02 22.874,71.043 24.615,66.415L21.079,64.348C19.812,68.976 18.775,78.102 18.461,81.049C18.396,81.66 18.365,82.273 18.369,82.887C18.193,84.752 17.609,86.404 17.714,87.526C17.736,87.761 17.845,87.981 18.02,88.15L18.718,88.826C18.85,89.403 19.175,89.741 19.855,89.637C20.12,90.052 20.367,90.399 20.608,90.5C20.68,90.53 20.76,90.48 20.75,90.407C20.664,89.728 20.258,86.483 20.401,86.466C20.881,86.409 20.922,88.276 21.303,88.229C21.614,88.191 21.567,86.536 21.538,85.925C21.531,85.781 21.511,85.639 21.479,85.498L21.478,85.498Z" fill="#FBD3A8"/>
<path d="M48.461,85.498L48.994,83.241C48.998,82.579 48.957,81.917 48.873,81.261C48.199,76.02 47.065,71.043 45.324,66.415L48.86,64.348C50.127,68.976 51.164,78.102 51.478,81.049C51.543,81.66 51.574,82.273 51.57,82.887C51.746,84.752 52.329,86.404 52.225,87.526C52.203,87.761 52.094,87.981 51.919,88.15L51.221,88.826C51.088,89.403 50.764,89.741 50.084,89.637C49.819,90.052 49.572,90.399 49.33,90.5C49.259,90.53 49.179,90.48 49.189,90.407C49.275,89.728 49.681,86.483 49.538,86.466C49.057,86.409 49.017,88.276 48.636,88.229C48.325,88.191 48.372,86.536 48.401,85.925C48.407,85.781 48.427,85.639 48.46,85.498L48.461,85.498Z" fill="#FBD3A8"/>
<path d="M38.374,51.582L31.493,51.582C31.55,54.364 31.161,56.116 30.752,57.212C30.597,57.625 30.719,58.089 31.049,58.383C32.553,59.721 37.042,60.2 38.87,58.238C39.143,57.943 39.227,57.521 39.09,57.143C38.689,56.043 38.317,54.306 38.374,51.581L38.374,51.582Z" fill="#FBD3A8"/>
<g opacity="0.35">
<path d="M31.713,51.956L38.202,52L38.312,53.883C37.282,55.394 32.293,55.33 31.526,53.813L31.713,51.957L31.713,51.956Z" fill="#F8A364"/>
</g>
<path d="M19.811,44.405C16.846,44.405 14.955,40.475 15.876,37.938C16.099,37.325 16.539,36.802 17.14,36.546C18.213,36.088 19.18,36.651 19.811,37.072L19.811,44.405Z" fill="#FBD3A8"/>
<path d="M18.78,42.801C16.927,42.408 16.118,37.923 18.419,38.217L19.733,38.364L19.733,42.964L18.78,42.8L18.78,42.801Z" fill="#FBBD89"/>
<path d="M19.674,38.552C19.378,38.445 19.076,38.352 18.769,38.3C18.465,38.255 18.148,38.244 17.865,38.347C17.584,38.447 17.348,38.669 17.219,38.957C17.088,39.244 17.034,39.568 17.013,39.89C17.001,39.568 17.021,39.238 17.127,38.92C17.229,38.604 17.469,38.316 17.788,38.166C18.106,38.012 18.463,37.991 18.8,38.008C19.139,38.03 19.468,38.097 19.793,38.178L19.673,38.552L19.674,38.552Z" fill="#603813"/>
<path d="M50.153,44.405C53.117,44.405 55.008,40.475 54.087,37.938C53.865,37.325 53.425,36.802 52.823,36.546C51.751,36.088 50.784,36.651 50.153,37.072L50.153,44.405Z" fill="#FBD3A8"/>
<path d="M51.182,42.801C53.036,42.408 53.844,37.923 51.544,38.217L50.229,38.364L50.229,42.964L51.182,42.8L51.182,42.801Z" fill="#FBBD89"/>
<path d="M50.169,38.177C50.494,38.096 50.823,38.029 51.162,38.007C51.499,37.991 51.855,38.012 52.174,38.165C52.493,38.315 52.733,38.604 52.835,38.919C52.942,39.236 52.96,39.566 52.949,39.889C52.928,39.567 52.874,39.244 52.743,38.956C52.614,38.668 52.379,38.446 52.097,38.346C51.814,38.243 51.497,38.255 51.193,38.299C50.886,38.351 50.585,38.445 50.288,38.551L50.168,38.177L50.169,38.177Z" fill="#603813"/>
<path d="M50.191,22.471C40.031,13.817 29.959,13.857 19.972,22.471C15.872,41.075 18.817,53.309 34.875,53.693L35.289,53.693C51.346,53.309 54.292,41.075 50.192,22.471L50.191,22.471Z" fill="#FBD3A8"/>
<path d="M34.773,42.553C34.838,42.565 34.902,42.551 34.966,42.532C36.134,42.19 36.303,43.495 35.363,43.613C34.466,43.695 33.994,43.393 33.705,43.006C33.547,42.794 33.669,42.478 33.932,42.445C34.168,42.414 34.475,42.493 34.773,42.552L34.773,42.553Z" fill="#F8A364"/>
<path d="M28.724,40.46C29.467,40.46 30.069,39.503 30.069,38.321C30.069,37.14 29.467,36.182 28.724,36.182C27.981,36.182 27.378,37.14 27.378,38.321C27.378,39.503 27.981,40.46 28.724,40.46Z" fill="#4D4E4E"/>
<path d="M28.861,38.212C29.193,38.212 29.462,37.88 29.462,37.471C29.462,37.061 29.193,36.73 28.861,36.73C28.528,36.73 28.259,37.061 28.259,37.471C28.259,37.88 28.528,38.212 28.861,38.212Z" fill="#FFFFFF"/>
<path d="M41.008,40.46C41.751,40.46 42.353,39.503 42.353,38.321C42.353,37.14 41.751,36.182 41.008,36.182C40.265,36.182 39.662,37.14 39.662,38.321C39.662,39.503 40.265,40.46 41.008,40.46Z" fill="#4D4E4E"/>
<path d="M40.268,37.471C40.268,37.88 40.537,38.212 40.87,38.212C41.202,38.212 41.471,37.88 41.471,37.471C41.471,37.062 41.202,36.73 40.87,36.73C40.537,36.73 40.268,37.062 40.268,37.471Z" fill="#FFFFFF"/>
<path d="M31.057,46.58C31.726,46.712 32.376,46.848 33.028,46.943C33.681,47.035 34.33,47.093 34.98,47.099C35.63,47.107 36.279,47.062 36.931,46.979C37.583,46.892 38.234,46.759 38.902,46.624C38.326,46.989 37.689,47.255 37.024,47.433C36.361,47.615 35.666,47.7 34.974,47.692C34.282,47.683 33.591,47.584 32.932,47.394C32.271,47.208 31.636,46.94 31.058,46.579L31.057,46.58Z" fill="#F8A364"/>
<path d="M33.139,48.404C33.471,48.414 33.79,48.441 34.106,48.461C34.423,48.482 34.736,48.495 35.049,48.504C35.362,48.511 35.676,48.514 35.993,48.51C36.31,48.507 36.63,48.497 36.962,48.505C36.666,48.657 36.349,48.754 36.025,48.817C35.7,48.879 35.369,48.909 35.037,48.898C34.706,48.89 34.377,48.844 34.056,48.764C33.736,48.684 33.424,48.57 33.137,48.403L33.139,48.404Z" fill="#F8A364"/>
<path d="M46.717,59.932C46.01,58.492 44.749,57.398 43.218,56.897L38.627,55.384C37.838,57.194 36.977,58.313 34.921,58.335C32.866,58.313 32.026,57.194 31.238,55.384L26.625,56.897C25.095,57.397 23.833,58.491 23.126,59.932L19.841,66.622L24.15,68.306L25.758,83.945L44.084,83.945L45.616,68.306L50.001,66.622L46.716,59.932L46.717,59.932Z" fill="#255A9E"/>
<path d="M25.837,46.528C27.131,46.528 28.18,45.483 28.18,44.195C28.18,42.907 27.131,41.862 25.837,41.862C24.544,41.862 23.495,42.907 23.495,44.195C23.495,45.483 24.544,46.528 25.837,46.528Z" fill="#EF8971"/>
<path d="M44.933,46.528C46.227,46.528 47.276,45.483 47.276,44.195C47.276,42.907 46.227,41.862 44.933,41.862C43.64,41.862 42.591,42.907 42.591,44.195C42.591,45.483 43.64,46.528 44.933,46.528Z" fill="#EF8971"/>
<path d="M40.411,34.916C39.26,34.938 38.823,33.837 39.626,33.168C39.96,32.888 40.419,32.825 40.852,32.872C42.047,33 42.788,33.421 42.92,34.236C42.968,34.53 42.883,34.838 42.663,35.039C42.243,35.422 41.589,35.275 40.876,34.995C40.729,34.937 40.57,34.915 40.411,34.918L40.411,34.916Z" fill="#4D4E4E"/>
<path d="M28.911,34.916C30.062,34.938 30.499,33.837 29.696,33.168C29.362,32.888 28.904,32.825 28.47,32.872C27.275,33 26.535,33.421 26.403,34.236C26.355,34.53 26.439,34.838 26.659,35.039C27.079,35.422 27.733,35.275 28.446,34.995C28.593,34.937 28.752,34.915 28.911,34.918L28.911,34.916Z" fill="#4D4E4E"/>
<path d="M46.082,83.944C46.082,83.944 45.715,78.881 45.617,68.305C42.472,68.268 42.743,62.713 42.597,56.698L41.087,56.224C41.326,61.865 39.249,64.83 34.884,65.154C30.52,64.83 28.442,61.865 28.681,56.224L27.171,56.754C27.025,62.77 27.297,68.268 24.151,68.305C24.053,78.88 23.544,83.944 23.544,83.944C30.234,86.702 40.496,86.379 46.082,83.944Z" fill="#1A4C82"/>
<path d="M58.293,21.166C58.969,18.758 58.646,16.633 56.656,14.983C57.607,13.244 56.718,11.502 53.232,9.731C51.635,7.224 49.817,6.89 47.945,7.08C44.888,4.601 42.626,4.35 40.845,5.448L39.636,5.448C37.699,4.564 36.168,4.539 35.132,5.561C34.096,4.539 32.565,4.564 30.628,5.448L29.419,5.448C27.639,4.35 25.377,4.601 22.32,7.08C20.448,6.89 18.629,7.224 17.032,9.731C13.547,11.502 12.657,13.244 13.608,14.983C11.618,16.633 11.296,18.758 11.972,21.166C8.065,24.619 8.417,27.126 11.594,29.006C11.027,31.74 11.46,33.864 13.306,35.125C13.716,36.857 14.674,37.86 16.026,38.337C16.835,40.491 17.801,42.227 19.198,42.824C19.667,41.928 19.794,41.016 19.424,40.081C19.338,39.861 19.2,39.67 19.071,39.473C18.968,39.319 18.938,39.111 18.971,38.858C19.024,38.444 19.231,38.065 19.516,37.761C20.896,36.29 21.388,34.553 19.702,32.166C21.187,30.803 21.161,30.374 20.306,28.61C21.766,28.942 24.078,27.413 23.378,25.907C25.769,25.653 26.871,24.059 26.499,22.287C28.035,23.205 29.642,22.486 29.571,21.064C31.05,21.672 33.933,22.808 35.132,21.478C36.331,22.807 39.214,21.672 40.693,21.064C40.623,22.486 42.229,23.206 43.765,22.287C43.395,24.059 44.495,25.653 46.887,25.907C46.187,27.413 48.498,28.941 49.958,28.61C49.103,30.374 49.077,30.803 50.563,32.166C48.877,34.553 49.37,36.29 50.748,37.761C51.033,38.065 51.24,38.444 51.293,38.858C51.326,39.111 51.295,39.318 51.194,39.473C51.064,39.67 50.926,39.862 50.84,40.081C50.472,41.016 50.598,41.928 51.066,42.824C52.462,42.227 53.429,40.49 54.239,38.337C55.59,37.859 56.548,36.857 56.958,35.125C58.804,33.863 59.237,31.74 58.67,29.006C61.846,27.126 62.199,24.619 58.293,21.166Z" fill="#0C0D0F"/>
</svg>
