<svg width="42" height="40" viewBox="0 0 42 40" fill="none" xmlns="http://www.w3.org/2000/svg" xmlns:xlink="http://www.w3.org/1999/xlink">
<path d="M27,0L7,0C3.686,0 1,2.686 1,6L1,34C1,37.314 3.686,40 7,40L37,40C34.791,40 33,38.209 33,36L33,12L33,6C33,2.686 30.314,0 27,0ZM7.5,10C7.5,9.172 8.172,8.5 9,8.5L25,8.5C25.828,8.5 26.5,9.172 26.5,10C26.5,10.828 25.828,11.5 25,11.5L9,11.5C8.172,11.5 7.5,10.828 7.5,10ZM9,18.5C8.172,18.5 7.5,19.172 7.5,20C7.5,20.828 8.172,21.5 9,21.5L25,21.5C25.828,21.5 26.5,20.828 26.5,20C26.5,19.172 25.828,18.5 25,18.5L9,18.5ZM7.5,30C7.5,29.172 8.172,28.5 9,28.5L17,28.5C17.828,28.5 18.5,29.172 18.5,30C18.5,30.828 17.828,31.5 17,31.5L9,31.5C8.172,31.5 7.5,30.828 7.5,30ZM41,34.5L41,16C41,13.791 39.209,12 37,12L36,12L36,34.5C36,35.881 37.119,37 38.5,37C39.881,37 41,35.881 41,34.5Z" clip-rule="evenodd" fill-rule="evenodd" fill="#C74953"/>
</svg>
