<svg width="40" height="40" viewBox="0 0 40 40" fill="none" xmlns="http://www.w3.org/2000/svg" xmlns:xlink="http://www.w3.org/1999/xlink">
<path d="M26,0L6,0C2.686,0 0,2.686 0,6L0,34C0,37.314 2.686,40 6,40L36,40C33.791,40 32,38.209 32,36L32,12L32,6C32,2.686 29.314,0 26,0ZM6.5,10C6.5,9.172 7.172,8.5 8,8.5L24,8.5C24.828,8.5 25.5,9.172 25.5,10C25.5,10.828 24.828,11.5 24,11.5L8,11.5C7.172,11.5 6.5,10.828 6.5,10ZM8,18.5C7.172,18.5 6.5,19.172 6.5,20C6.5,20.828 7.172,21.5 8,21.5L24,21.5C24.828,21.5 25.5,20.828 25.5,20C25.5,19.172 24.828,18.5 24,18.5L8,18.5ZM6.5,30C6.5,29.172 7.172,28.5 8,28.5L16,28.5C16.828,28.5 17.5,29.172 17.5,30C17.5,30.828 16.828,31.5 16,31.5L8,31.5C7.172,31.5 6.5,30.828 6.5,30ZM40,34.5L40,16C40,13.791 38.209,12 36,12L35,12L35,34.5C35,35.881 36.119,37 37.5,37C38.881,37 40,35.881 40,34.5Z" clip-rule="evenodd" fill-rule="evenodd" fill="#28303F"/>
</svg>
