<svg width="32" height="34" viewBox="0 0 32 34" fill="none" xmlns="http://www.w3.org/2000/svg" xmlns:xlink="http://www.w3.org/1999/xlink">
<path d="M24.234,7.103C21.208,9.759 16.132,9.621 16.132,9.621C16.132,9.621 15.971,5.173 19.008,2.517C22.034,-0.139 27.109,-0.001 27.109,-0.001C27.109,-0.001 27.27,4.447 24.234,7.103Z" fill="#184F78"/>
<path d="M25.789,1.15C25.789,1.15 25.371,1.694 24.652,2.441C23.944,3.188 22.946,4.148 21.905,5.065C20.864,5.982 19.769,6.846 18.911,7.476C18.063,8.105 17.441,8.468 17.441,8.468C17.441,8.468 17.859,7.924 18.578,7.177C19.287,6.43 20.285,5.47 21.325,4.553C22.366,3.636 23.461,2.772 24.319,2.153C25.167,1.524 25.789,1.161 25.789,1.161L25.789,1.15Z" fill="#467293"/>
<path d="M16.132,9.451C4.36,6.432 -1.027,14.155 1.152,22.56C2.858,29.173 8.814,35.157 16.132,33.312C23.461,35.157 29.406,29.173 31.112,22.56C33.28,14.155 27.904,6.432 16.132,9.451Z" fill="#FC611F"/>
<g opacity="0.3">
<path d="M9.543,32.865C9.479,32.203 9.447,31.521 9.447,30.838C9.447,20.982 15.606,12.566 24.309,9.163C22.077,8.598 19.351,8.619 16.143,9.441C4.371,6.422 -1.016,14.145 1.162,22.55C2.321,27.019 5.412,31.19 9.554,32.865L9.543,32.865Z" fill="#FFFFFF"/>
</g>
</svg>
