<svg width="322" height="322" viewBox="0 0 322 322" fill="none" xmlns="http://www.w3.org/2000/svg" xmlns:xlink="http://www.w3.org/1999/xlink">
<path d="M158.649,1.708C160.051,0.69 161.949,0.69 163.351,1.708L311.768,109.54C313.17,110.559 313.758,112.364 313.222,114.012L256.532,288.488C255.996,290.136 254.46,291.252 252.728,291.252L69.273,291.252C67.54,291.252 66.004,290.136 65.469,288.488L8.778,114.012C8.242,112.364 8.829,110.559 10.231,109.54L158.649,1.708Z" stroke="#E4E6EC" stroke-width="1.5" stroke-miterlimit="3.999327"/>
<path d="M159.649,33.708C161.051,32.69 162.949,32.69 164.351,33.708L283.286,120.12C284.688,121.138 285.274,122.944 284.74,124.592L239.31,264.408C238.774,266.056 237.238,267.172 235.506,267.172L88.494,267.172C86.761,267.172 85.225,266.056 84.69,264.408L39.261,124.592C38.725,122.944 39.312,121.138 40.714,120.12L159.649,33.708Z" stroke="#E4E6EC" stroke-width="1.5" stroke-miterlimit="3.999327"/>
<path d="M159.649,69.708C161.051,68.69 162.949,68.69 164.351,69.708L249.048,131.244C250.45,132.263 251.037,134.068 250.501,135.716L218.15,235.284C217.614,236.932 216.079,238.048 214.346,238.048L109.654,238.048C107.921,238.048 106.386,236.932 105.85,235.284L73.499,135.716C72.963,134.068 73.55,132.263 74.952,131.244L159.649,69.708Z" stroke="#E4E6EC" stroke-width="1.5" stroke-miterlimit="3.999327"/>
<path d="M158.649,103.708C160.051,102.69 161.949,102.69 163.351,103.708L214.761,141.06C216.163,142.078 216.75,143.884 216.214,145.532L196.577,205.968C196.042,207.616 194.506,208.732 192.773,208.732L129.227,208.732C127.494,208.732 125.958,207.616 125.423,205.968L105.786,145.532C105.25,143.884 105.837,142.078 107.239,141.06L158.649,103.708Z" stroke="#E4E6EC" stroke-width="1.5" stroke-miterlimit="3.999327"/>
<path d="M163,71L312,111L237,265L110,235L42,124L163,71Z" fill="#16B6C6" fill-opacity="0.2"/>
<path d="M76,134L161,3L215,144L196,204L87,262L76,134Z" fill="#6A64DD" fill-opacity="0.5"/>
</svg>
