<svg width="20" height="20" viewBox="0 0 20 20" fill="none" xmlns="http://www.w3.org/2000/svg" xmlns:xlink="http://www.w3.org/1999/xlink">
<path d="M14.49,4.18C12.71,5.742 9.725,5.66 9.725,5.66C9.725,5.66 9.63,3.044 11.416,1.482C13.196,-0.081 16.182,0.001 16.182,0.001C16.182,0.001 16.277,2.617 14.49,4.18Z" fill="#184F78"/>
<path d="M15.405,0.678C15.405,0.678 15.159,0.998 14.736,1.437C14.319,1.876 13.732,2.441 13.12,2.98C12.508,3.52 11.864,4.028 11.359,4.399C10.86,4.769 10.494,4.982 10.494,4.982C10.494,4.982 10.74,4.662 11.163,4.223C11.58,3.784 12.167,3.219 12.779,2.679C13.391,2.14 14.035,1.631 14.54,1.268C15.039,0.897 15.405,0.684 15.405,0.684L15.405,0.678Z" fill="#467293"/>
<path d="M9.725,5.561C2.8,3.785 -0.369,8.328 0.913,13.272C1.916,17.162 5.42,20.682 9.725,19.597C14.036,20.682 17.533,17.162 18.536,13.272C19.811,8.328 16.649,3.785 9.725,5.561Z" fill="#FC611F"/>
<g opacity="0.3">
<path d="M5.849,19.332C5.811,18.943 5.793,18.541 5.793,18.139C5.793,12.342 9.416,7.391 14.535,5.39C13.222,5.057 11.619,5.07 9.731,5.553C2.807,3.777 -0.362,8.32 0.919,13.264C1.601,15.893 3.419,18.346 5.856,19.332L5.849,19.332Z" fill="#FFFFFF"/>
</g>
</svg>
