<svg width="118" height="116" viewBox="0 0 118 116" fill="none" xmlns="http://www.w3.org/2000/svg" xmlns:xlink="http://www.w3.org/1999/xlink">
<path d="M117.351,58C117.351,90.033 91.244,116 59.04,116C26.835,116 0.729,90.033 0.729,58C0.729,25.967 26.835,0 59.04,0C91.244,0 117.351,25.967 117.351,58Z" fill="#D291BC" fill-opacity="0.08" stroke="#D291BC" stroke-opacity="0.16" stroke-width="2" stroke-miterlimit="3.999327"/>
<path d="M44.763,62.612C57.88,73.157 46.872,81.851 56.16,87.947C64.508,93.422 80.274,88.53 86.148,66.376C90.479,50.052 80.926,34.007 65.236,29.039C44.424,22.462 27.603,48.81 44.763,62.612ZM57.792,80.229C58.332,78.188 61.043,77.149 63.855,77.909C66.654,78.67 68.499,80.938 67.96,82.979C67.42,85.019 64.709,86.059 61.897,85.298C59.085,84.538 57.252,82.269 57.805,80.229L57.792,80.229Z" fill="#FDC00F"/>
<path d="M42.629,42.994C41.913,45.706 43.495,48.481 46.181,49.204C48.855,49.926 51.617,48.317 52.332,45.617C53.048,42.918 51.453,40.129 48.78,39.407C46.106,38.685 43.344,40.281 42.629,42.994Z" fill="#A2E2E8"/>
<path d="M52.997,35.883C52.282,38.583 53.863,41.371 56.549,42.093C59.223,42.816 61.985,41.219 62.7,38.507C63.416,35.807 61.822,33.019 59.148,32.297C56.462,31.574 53.713,33.171 52.997,35.883Z" fill="#184F78"/>
<path d="M65.336,39.888C64.621,42.601 66.202,45.376 68.888,46.098C71.562,46.821 74.324,45.224 75.039,42.512C75.755,39.812 74.16,37.024 71.487,36.302C68.813,35.579 66.052,37.189 65.336,39.888Z" fill="#FC611F"/>
<path d="M72.717,50.661C72.001,53.373 73.583,56.148 76.269,56.871C78.943,57.593 81.704,55.996 82.42,53.284C83.135,50.585 81.541,47.796 78.868,47.074C76.194,46.352 73.432,47.948 72.717,50.661Z" fill="#16B6C6"/>
<path d="M72.567,63.778C71.851,66.477 73.445,69.266 76.119,69.988C78.805,70.71 81.554,69.113 82.27,66.401C82.985,63.702 81.391,60.914 78.717,60.191C76.044,59.469 73.282,61.066 72.567,63.778Z" fill="#FFF2CF"/>
<g opacity="0.2">
<path d="M50.323,40.142C51.139,41.32 51.466,42.841 51.077,44.337C50.361,47.036 47.599,48.646 44.926,47.923C44.348,47.771 43.846,47.505 43.382,47.176C44.035,48.126 44.989,48.861 46.181,49.191C48.855,49.913 51.616,48.304 52.332,45.604C52.897,43.475 52.018,41.32 50.323,40.142Z" fill="#000000"/>
<path d="M81.164,52.016C80.449,54.716 77.687,56.325 75.014,55.603C74.436,55.451 73.934,55.185 73.47,54.868C74.122,55.818 75.076,56.554 76.269,56.87C78.943,57.593 81.704,55.996 82.42,53.284C82.985,51.154 82.106,49 80.411,47.821C81.227,49 81.566,50.521 81.164,52.016Z" fill="#000000"/>
<path d="M75.039,42.511C75.604,40.382 74.725,38.227 73.03,37.049C73.846,38.227 74.185,39.748 73.784,41.244C73.068,43.956 70.307,45.553 67.633,44.831C67.055,44.678 66.553,44.412 66.089,44.083C66.742,45.033 67.696,45.768 68.888,46.098C71.562,46.82 74.323,45.223 75.039,42.511Z" fill="#000000"/>
<path d="M60.692,33.044C61.507,34.223 61.834,35.743 61.445,37.239C60.729,39.938 57.968,41.548 55.294,40.826C54.717,40.674 54.214,40.407 53.75,40.078C54.403,41.028 55.357,41.763 56.549,42.093C59.223,42.815 61.984,41.219 62.7,38.506C63.265,36.377 62.386,34.223 60.692,33.044Z" fill="#000000"/>
<path d="M80.261,60.938C81.077,62.117 81.416,63.638 81.014,65.133C80.299,67.846 77.55,69.443 74.863,68.72C74.286,68.568 73.784,68.302 73.319,67.972C73.972,68.923 74.926,69.658 76.119,69.988C78.805,70.71 81.554,69.113 82.269,66.401C82.834,64.272 81.955,62.117 80.261,60.938Z" fill="#000000"/>
</g>
<path d="M42.779,66.199C38.198,74.222 36.064,81.648 38.022,82.789C39.98,83.93 45.29,78.353 49.872,70.331C54.453,62.308 56.587,54.881 54.629,53.741C52.671,52.6 47.361,58.177 42.779,66.186L42.779,66.199Z" fill="#184F78"/>
<path d="M35.574,81.876C36.076,81.547 36.603,81.204 37.068,81.255C42.88,82.015 39.478,91.28 33.641,89.848C33.126,89.721 32.9,89.518 32.9,89.531C32.9,89.531 33.151,89.341 33.402,88.986C33.666,88.631 33.767,88.124 33.716,87.605C33.691,87.085 33.578,86.477 33.578,85.754C33.578,85.07 33.654,84.145 34.306,83.169C34.695,82.649 35.135,82.193 35.587,81.863L35.574,81.876Z" fill="#FC611F"/>
<path d="M40.86,78.753L36.852,78.753L36.852,83.875L40.86,83.875L40.86,78.753Z" transform="rotate(-120.496 38.856 81.314)" fill="#A3B9C9"/>
<g opacity="0.3">
<path d="M33.578,89.823C33.716,89.696 33.867,89.557 34.005,89.443C34.068,89.405 34.131,89.367 34.193,89.316L34.118,89.266L37.219,83.841C38.336,78.936 41.173,72.067 45.277,64.894C47.574,60.876 49.984,57.264 52.294,54.248C49.759,55.87 46.081,60.382 42.767,66.174C40.143,70.762 38.336,75.147 37.62,78.277L35.637,81.737L35.687,81.763C35.687,81.763 35.599,81.813 35.562,81.839C35.11,82.181 34.67,82.625 34.281,83.144C33.629,84.12 33.553,85.045 33.553,85.73C33.553,86.452 33.666,87.06 33.691,87.58C33.742,88.1 33.641,88.607 33.378,88.961C33.139,89.316 32.863,89.494 32.875,89.506C32.875,89.494 33.089,89.671 33.553,89.798L33.578,89.823Z" fill="#FFFFFF"/>
</g>
</svg>
