<svg width="118" height="116" viewBox="0 0 118 116" fill="none" xmlns="http://www.w3.org/2000/svg" xmlns:xlink="http://www.w3.org/1999/xlink">
<path d="M117.351,58C117.351,90.033 91.244,116 59.04,116C26.835,116 0.729,90.033 0.729,58C0.729,25.967 26.835,0 59.04,0C91.244,0 117.351,25.967 117.351,58Z" fill="#D291BC" fill-opacity="0.08" stroke="#D291BC" stroke-opacity="0.16" stroke-width="2" stroke-miterlimit="3.999327"/>
<path d="M44.763,62.613C57.88,73.158 46.872,81.852 56.16,87.948C64.508,93.423 80.274,88.531 86.148,66.377C90.479,50.053 80.926,34.008 65.236,29.04C44.424,22.463 27.603,48.811 44.763,62.613ZM57.792,80.23C58.332,78.189 61.043,77.15 63.855,77.91C66.654,78.671 68.499,80.939 67.96,82.98C67.42,85.02 64.709,86.06 61.897,85.299C59.085,84.539 57.252,82.27 57.805,80.23L57.792,80.23Z" fill="#FDC00F"/>
<path d="M42.629,42.993C41.913,45.705 43.495,48.48 46.181,49.203C48.855,49.925 51.617,48.316 52.332,45.616C53.048,42.917 51.453,40.128 48.78,39.406C46.106,38.684 43.344,40.281 42.629,42.993Z" fill="#A2E2E8"/>
<path d="M52.998,35.883C52.283,38.583 53.864,41.371 56.55,42.093C59.224,42.816 61.986,41.219 62.701,38.507C63.417,35.807 61.823,33.019 59.149,32.297C56.463,31.574 53.714,33.171 52.998,35.883Z" fill="#184F78"/>
<path d="M65.336,39.888C64.621,42.601 66.202,45.376 68.888,46.098C71.562,46.821 74.324,45.224 75.039,42.512C75.755,39.812 74.16,37.024 71.487,36.302C68.813,35.579 66.052,37.189 65.336,39.888Z" fill="#FC611F"/>
<path d="M72.717,50.661C72.001,53.373 73.583,56.148 76.269,56.871C78.943,57.593 81.704,55.996 82.42,53.284C83.135,50.585 81.541,47.796 78.868,47.074C76.194,46.352 73.432,47.948 72.717,50.661Z" fill="#16B6C6"/>
<path d="M72.568,63.778C71.852,66.477 73.446,69.266 76.12,69.988C78.806,70.71 81.555,69.113 82.271,66.401C82.986,63.702 81.392,60.914 78.718,60.191C76.045,59.469 73.283,61.066 72.568,63.778Z" fill="#FFF2CF"/>
<g opacity="0.2">
<path d="M50.322,40.143C51.138,41.321 51.465,42.842 51.076,44.338C50.36,47.037 47.598,48.647 44.925,47.924C44.347,47.772 43.845,47.506 43.381,47.177C44.034,48.127 44.988,48.862 46.18,49.192C48.854,49.914 51.615,48.304 52.331,45.605C52.896,43.476 52.017,41.321 50.322,40.143Z" fill="#000000"/>
<path d="M81.163,52.017C80.448,54.717 77.686,56.326 75.013,55.604C74.435,55.452 73.933,55.186 73.469,54.869C74.121,55.819 75.075,56.554 76.268,56.871C78.942,57.594 81.703,55.997 82.419,53.285C82.984,51.155 82.105,49.001 80.41,47.822C81.226,49.001 81.565,50.522 81.163,52.017Z" fill="#000000"/>
<path d="M75.038,42.513C75.603,40.384 74.724,38.229 73.029,37.051C73.845,38.229 74.184,39.75 73.783,41.246C73.067,43.958 70.306,45.555 67.632,44.832C67.054,44.68 66.552,44.414 66.088,44.085C66.741,45.035 67.695,45.77 68.887,46.1C71.561,46.822 74.322,45.225 75.038,42.513Z" fill="#000000"/>
<path d="M60.692,33.045C61.507,34.224 61.834,35.744 61.445,37.24C60.729,39.939 57.968,41.549 55.294,40.827C54.717,40.675 54.214,40.408 53.75,40.079C54.403,41.029 55.357,41.764 56.549,42.094C59.223,42.816 61.984,41.22 62.7,38.507C63.265,36.378 62.386,34.224 60.692,33.045Z" fill="#000000"/>
<path d="M80.26,60.939C81.076,62.118 81.415,63.639 81.013,65.134C80.298,67.847 77.549,69.444 74.862,68.721C74.285,68.569 73.783,68.303 73.318,67.973C73.971,68.924 74.925,69.659 76.118,69.989C78.804,70.711 81.553,69.114 82.268,66.402C82.833,64.273 81.954,62.118 80.26,60.939Z" fill="#000000"/>
</g>
<path d="M42.779,66.198C38.198,74.221 36.064,81.647 38.022,82.788C39.98,83.929 45.29,78.352 49.872,70.33C54.453,62.307 56.587,54.88 54.629,53.74C52.671,52.599 47.361,58.176 42.779,66.185L42.779,66.198Z" fill="#184F78"/>
<path d="M35.574,81.876C36.076,81.547 36.603,81.204 37.068,81.255C42.88,82.015 39.478,91.28 33.641,89.848C33.126,89.721 32.9,89.518 32.9,89.531C32.9,89.531 33.151,89.341 33.402,88.986C33.666,88.631 33.767,88.124 33.716,87.605C33.691,87.085 33.578,86.477 33.578,85.754C33.578,85.07 33.654,84.145 34.306,83.169C34.695,82.649 35.135,82.193 35.587,81.863L35.574,81.876Z" fill="#FC611F"/>
<path d="M40.859,78.752L36.851,78.752L36.851,83.874L40.859,83.874L40.859,78.752Z" transform="rotate(-120.496 38.855 81.313)" fill="#A3B9C9"/>
<g opacity="0.3">
<path d="M33.578,89.821C33.716,89.694 33.867,89.555 34.005,89.441C34.068,89.403 34.131,89.365 34.193,89.314L34.118,89.264L37.219,83.839C38.336,78.934 41.173,72.065 45.277,64.892C47.574,60.874 49.984,57.262 52.294,54.246C49.759,55.868 46.081,60.38 42.767,66.172C40.143,70.76 38.336,75.145 37.62,78.275L35.637,81.735L35.687,81.761C35.687,81.761 35.599,81.811 35.562,81.837C35.11,82.179 34.67,82.623 34.281,83.142C33.629,84.118 33.553,85.043 33.553,85.728C33.553,86.45 33.666,87.058 33.691,87.578C33.742,88.098 33.641,88.605 33.378,88.959C33.139,89.314 32.863,89.492 32.875,89.504C32.875,89.492 33.089,89.669 33.553,89.796L33.578,89.821Z" fill="#FFFFFF"/>
</g>
</svg>
