<svg width="118" height="116" viewBox="0 0 118 116" fill="none" xmlns="http://www.w3.org/2000/svg" xmlns:xlink="http://www.w3.org/1999/xlink">
<path d="M117.351,58C117.351,90.033 91.244,116 59.04,116C26.835,116 0.729,90.033 0.729,58C0.729,25.967 26.835,0 59.04,0C91.244,0 117.351,25.967 117.351,58Z" fill="#F66967" fill-opacity="0.05" stroke="#F66967" stroke-opacity="0.05" stroke-width="2" stroke-miterlimit="3.999327"/>
<path d="M58.996,34.98C48.35,34.98 39.716,43.575 39.716,54.182C39.716,59.509 41.895,64.328 45.419,67.809C46.931,69.304 48.683,71.926 49.017,74.022L49.685,78.204L68.325,78.204L68.992,74.013C69.326,71.917 71.079,69.295 72.591,67.8C76.115,64.319 78.294,59.5 78.294,54.173C78.294,43.575 69.651,34.971 58.996,34.971L58.996,34.98Z" fill="#67E9F5"/>
<path d="M62.473,79.746C62.046,79.746 61.703,79.404 61.703,78.979C61.703,78.499 61.777,66.968 68.473,51.21C68.64,50.822 69.094,50.637 69.484,50.803C69.873,50.97 70.059,51.422 69.892,51.81C63.317,67.292 63.243,78.868 63.243,78.989C63.243,79.413 62.899,79.755 62.473,79.755L62.473,79.746Z" fill="#FDC00F"/>
<path d="M55.546,79.746C55.119,79.746 54.776,79.395 54.776,78.98C54.776,78.869 54.693,67.255 48.127,51.801C47.96,51.413 48.145,50.961 48.535,50.795C48.924,50.628 49.379,50.813 49.546,51.201C56.241,66.969 56.315,78.49 56.315,78.97C56.315,79.395 55.972,79.737 55.546,79.737L55.546,79.746Z" fill="#FDC00F"/>
<path d="M68.38,53.13C67.045,53.13 66.358,52.401 65.755,51.764C65.19,51.164 64.698,50.647 63.697,50.647C62.695,50.647 62.204,51.164 61.638,51.764C61.035,52.401 60.349,53.13 59.014,53.13C57.678,53.13 56.992,52.401 56.389,51.764C55.823,51.164 55.332,50.647 54.321,50.647C53.31,50.647 52.828,51.164 52.253,51.764C51.65,52.401 50.964,53.13 49.629,53.13C49.415,53.13 49.239,52.955 49.239,52.742C49.239,52.53 49.415,52.354 49.629,52.354C50.63,52.354 51.122,51.837 51.697,51.237C52.3,50.6 52.986,49.871 54.321,49.871C55.657,49.871 56.343,50.6 56.946,51.237C57.511,51.837 58.003,52.354 59.014,52.354C60.024,52.354 60.507,51.837 61.072,51.237C61.675,50.6 62.361,49.871 63.697,49.871C65.032,49.871 65.718,50.6 66.321,51.237C66.887,51.837 67.378,52.354 68.38,52.354C68.593,52.354 68.769,52.53 68.769,52.742C68.769,52.955 68.593,53.13 68.38,53.13Z" fill="#FDC00F"/>
<path d="M64.466,92.273L53.551,92.273C51.418,92.273 49.693,90.547 49.693,88.423L49.693,78.213L68.333,78.213L68.333,88.423C68.333,90.547 66.608,92.273 64.466,92.273Z" fill="#E1E1E1"/>
<path d="M49.685,86.642L49.685,88.423C49.685,88.783 49.749,89.125 49.842,89.457L68.167,89.457C68.26,89.125 68.324,88.783 68.324,88.423L68.324,86.642L49.685,86.642Z" fill="#F15B67"/>
<rect  x="49.685" y="81.02" width="18.64" height="2.816" fill="#F15B67"/>
<path d="M59.005,94C60.915,94 62.473,93.224 62.473,92.273L55.546,92.273C55.546,93.224 57.095,94 59.005,94Z" fill="#FDC00F"/>
<path d="M59.005,28.878C58.494,28.878 58.077,28.462 58.077,27.955L58.077,22.923C58.077,22.415 58.494,22 59.005,22C59.515,22 59.932,22.415 59.932,22.923L59.932,27.955C59.932,28.462 59.515,28.878 59.005,28.878Z" fill="#FDC00F"/>
<path d="M45.493,32.478C45.168,32.478 44.862,32.312 44.686,32.017L42.163,27.659C41.904,27.216 42.061,26.653 42.507,26.394C42.952,26.136 43.517,26.293 43.777,26.736L46.3,31.093C46.559,31.537 46.402,32.1 45.956,32.358C45.808,32.441 45.65,32.478 45.493,32.478Z" fill="#FDC00F"/>
<path d="M35.607,42.319C35.449,42.319 35.292,42.282 35.143,42.199L30.766,39.688C30.321,39.43 30.173,38.866 30.423,38.423C30.673,37.98 31.248,37.832 31.694,38.082L36.071,40.593C36.516,40.851 36.664,41.414 36.414,41.858C36.238,42.153 35.932,42.319 35.607,42.319Z" fill="#FDC00F"/>
<path d="M31.981,55.77L26.927,55.77C26.417,55.77 26,55.355 26,54.847C26,54.339 26.417,53.924 26.927,53.924L31.981,53.924C32.492,53.924 32.909,54.339 32.909,54.847C32.909,55.355 32.492,55.77 31.981,55.77Z" fill="#FDC00F"/>
<path d="M31.221,71.732C30.897,71.732 30.591,71.566 30.414,71.271C30.155,70.828 30.312,70.265 30.758,70.006L35.135,67.495C35.58,67.236 36.146,67.393 36.405,67.837C36.665,68.28 36.507,68.843 36.062,69.101L31.685,71.612C31.537,71.695 31.379,71.732 31.221,71.732Z" fill="#FDC00F"/>
<path d="M86.77,71.741C86.612,71.741 86.455,71.705 86.306,71.621L81.929,69.101C81.484,68.843 81.336,68.279 81.586,67.836C81.846,67.393 82.411,67.245 82.857,67.495L87.234,70.015C87.679,70.274 87.827,70.837 87.577,71.28C87.401,71.575 87.095,71.741 86.77,71.741Z" fill="#FDC00F"/>
<path d="M91.072,55.78L86.018,55.78C85.508,55.78 85.091,55.365 85.091,54.857C85.091,54.349 85.508,53.934 86.018,53.934L91.072,53.934C91.582,53.934 92,54.349 92,54.857C92,55.365 91.582,55.78 91.072,55.78Z" fill="#FDC00F"/>
<path d="M82.402,42.329C82.077,42.329 81.771,42.163 81.595,41.867C81.335,41.424 81.493,40.861 81.938,40.603L86.315,38.092C86.761,37.833 87.326,37.99 87.586,38.433C87.846,38.876 87.688,39.439 87.243,39.698L82.866,42.209C82.717,42.292 82.56,42.329 82.402,42.329Z" fill="#FDC00F"/>
<path d="M72.507,32.488C72.35,32.488 72.192,32.451 72.044,32.368C71.598,32.109 71.45,31.546 71.7,31.103L74.232,26.746C74.492,26.302 75.057,26.155 75.503,26.404C75.948,26.662 76.096,27.226 75.846,27.669L73.314,32.026C73.138,32.322 72.832,32.488 72.507,32.488Z" fill="#FDC00F"/>
<g opacity="0.3">
<path d="M44.009,54.09C47.078,57.146 52.68,56.528 56.519,52.696C60.358,48.874 60.989,43.298 57.919,40.242C54.85,37.187 49.248,37.814 45.409,41.636C41.57,45.458 40.939,51.035 44.009,54.09Z" fill="#FFFFFF"/>
</g>
<g opacity="0.3">
<path d="M57.456,59.297C58.605,60.442 60.701,60.211 62.139,58.78C63.576,57.349 63.808,55.263 62.658,54.118C61.508,52.974 59.412,53.204 57.975,54.635C56.537,56.066 56.306,58.153 57.456,59.297Z" fill="#FFFFFF"/>
</g>
<g opacity="0.2">
<path d="M50.612,78.979L67.397,78.979C67.907,78.979 68.324,78.638 68.324,78.213L49.685,78.213C49.685,78.213 50.102,78.979 50.612,78.979Z" fill="#000000"/>
</g>
<g opacity="0.2">
<path d="M55.926,93.04L62.093,93.04C62.325,92.809 62.473,92.55 62.473,92.273L55.546,92.273C55.546,92.55 55.694,92.809 55.926,93.04Z" fill="#000000"/>
</g>
</svg>
