<svg width="26" height="28" viewBox="0 0 26 28" fill="none" xmlns="http://www.w3.org/2000/svg" xmlns:xlink="http://www.w3.org/1999/xlink">
<path d="M18.187,6.483C15.766,8.608 11.706,8.497 11.706,8.497C11.706,8.497 11.577,4.938 14.007,2.814C16.427,0.689 20.488,0.8 20.488,0.8C20.488,0.8 20.617,4.358 18.187,6.483Z" fill="#184F78"/>
<path d="M19.432,1.722C19.432,1.722 19.097,2.157 18.522,2.754C17.955,3.352 17.157,4.12 16.324,4.853C15.492,5.587 14.616,6.278 13.929,6.782C13.251,7.285 12.753,7.576 12.753,7.576C12.753,7.576 13.088,7.14 13.663,6.543C14.23,5.946 15.028,5.178 15.861,4.444C16.694,3.71 17.569,3.019 18.256,2.524C18.934,2.02 19.432,1.73 19.432,1.73L19.432,1.722Z" fill="#467293"/>
<path d="M11.706,8.36C2.289,5.945 -2.021,12.123 -0.278,18.848C1.087,24.138 5.851,28.925 11.706,27.449C17.569,28.925 22.325,24.138 23.69,18.848C25.424,12.123 21.123,5.945 11.706,8.36Z" fill="#FC611F"/>
<g opacity="0.3">
<path d="M6.435,27.091C6.383,26.562 6.358,26.016 6.358,25.47C6.358,17.585 11.285,10.852 18.247,8.13C16.462,7.678 14.281,7.695 11.714,8.352C2.297,5.937 -2.012,12.115 -0.27,18.84C0.657,22.415 3.13,25.752 6.443,27.091L6.435,27.091Z" fill="#FFFFFF"/>
</g>
</svg>
