<svg width="32" height="34" viewBox="0 0 32 34" fill="none" xmlns="http://www.w3.org/2000/svg" xmlns:xlink="http://www.w3.org/1999/xlink">
<path d="M24.234,7.103C21.208,9.759 16.132,9.621 16.132,9.621C16.132,9.621 15.971,5.173 19.008,2.517C22.034,-0.139 27.11,-0.001 27.11,-0.001C27.11,-0.001 27.271,4.447 24.234,7.103Z" fill="#184F78"/>
<path d="M25.79,1.15C25.79,1.15 25.371,1.694 24.653,2.441C23.944,3.188 22.946,4.148 21.905,5.065C20.865,5.982 19.77,6.846 18.912,7.476C18.064,8.105 17.441,8.468 17.441,8.468C17.441,8.468 17.86,7.924 18.579,7.177C19.287,6.43 20.285,5.47 21.326,4.553C22.367,3.636 23.461,2.772 24.32,2.153C25.168,1.524 25.79,1.161 25.79,1.161L25.79,1.15Z" fill="#467293"/>
<path d="M16.132,9.451C4.36,6.432 -1.027,14.155 1.152,22.56C2.858,29.173 8.814,35.157 16.132,33.312C23.461,35.157 29.406,29.173 31.112,22.56C33.28,14.155 27.904,6.432 16.132,9.451Z" fill="#FC611F"/>
<g opacity="0.3">
<path d="M9.544,32.865C9.48,32.203 9.448,31.521 9.448,30.838C9.448,20.982 15.607,12.566 24.31,9.163C22.078,8.598 19.352,8.619 16.144,9.441C4.372,6.422 -1.015,14.145 1.163,22.55C2.322,27.019 5.413,31.19 9.555,32.865L9.544,32.865Z" fill="#FFFFFF"/>
</g>
</svg>
