<svg width="20" height="18" viewBox="0 0 20 18" fill="none" xmlns="http://www.w3.org/2000/svg" xmlns:xlink="http://www.w3.org/1999/xlink">
<path d="M13.978,3.235C12.274,4.693 9.415,4.617 9.415,4.617C9.415,4.617 9.324,2.175 11.035,0.717C12.739,-0.741 15.598,-0.665 15.598,-0.665C15.598,-0.665 15.688,1.777 13.978,3.235Z" fill="#184F78"/>
<path d="M14.854,-0.033C14.854,-0.033 14.619,0.265 14.214,0.675C13.815,1.085 13.253,1.612 12.667,2.116C12.08,2.62 11.464,3.094 10.98,3.44C10.503,3.785 10.152,3.984 10.152,3.984C10.152,3.984 10.388,3.685 10.793,3.276C11.192,2.866 11.754,2.339 12.34,1.835C12.926,1.331 13.543,0.857 14.026,0.517C14.504,0.172 14.854,-0.027 14.854,-0.027L14.854,-0.033Z" fill="#467293"/>
<path d="M9.415,4.523C2.785,2.865 -0.249,7.105 0.978,11.72C1.939,15.351 5.293,18.636 9.415,17.623C13.543,18.636 16.891,15.351 17.852,11.72C19.073,7.105 16.045,2.865 9.415,4.523Z" fill="#FC611F"/>
<g opacity="0.3">
<path d="M5.704,17.377C5.668,17.014 5.65,16.639 5.65,16.264C5.65,10.853 9.119,6.233 14.02,4.365C12.763,4.054 11.228,4.066 9.421,4.517C2.791,2.859 -0.243,7.099 0.984,11.714C1.637,14.168 3.377,16.458 5.71,17.377L5.704,17.377Z" fill="#FFFFFF"/>
</g>
</svg>
