<svg width="118" height="116" viewBox="0 0 118 116" fill="none" xmlns="http://www.w3.org/2000/svg" xmlns:xlink="http://www.w3.org/1999/xlink">
<path d="M117.351,58C117.351,90.033 91.244,116 59.04,116C26.836,116 0.729,90.033 0.729,58C0.729,25.967 26.836,0 59.04,0C91.244,0 117.351,25.967 117.351,58Z" fill="#D291BC" fill-opacity="0.08" stroke="#D291BC" stroke-opacity="0.16" stroke-width="2" stroke-miterlimit="3.999327"/>
<path d="M44.763,62.613C57.88,73.158 46.872,81.852 56.161,87.948C64.508,93.423 80.274,88.531 86.149,66.377C90.479,50.053 80.927,34.008 65.236,29.04C44.424,22.463 27.604,48.811 44.763,62.613ZM57.793,80.23C58.332,78.189 61.044,77.15 63.855,77.91C66.655,78.671 68.5,80.939 67.96,82.98C67.42,85.02 64.709,86.06 61.897,85.299C59.085,84.539 57.253,82.27 57.805,80.23L57.793,80.23Z" fill="#FDC00F"/>
<path d="M42.629,42.993C41.913,45.705 43.495,48.48 46.181,49.203C48.855,49.925 51.617,48.316 52.332,45.616C53.048,42.917 51.453,40.128 48.78,39.406C46.106,38.684 43.344,40.281 42.629,42.993Z" fill="#A2E2E8"/>
<path d="M52.997,35.883C52.282,38.583 53.863,41.371 56.549,42.093C59.223,42.816 61.985,41.219 62.7,38.507C63.416,35.807 61.822,33.019 59.148,32.297C56.462,31.574 53.713,33.171 52.997,35.883Z" fill="#184F78"/>
<path d="M65.336,39.888C64.621,42.601 66.203,45.376 68.889,46.098C71.563,46.821 74.324,45.224 75.04,42.512C75.755,39.812 74.161,37.024 71.487,36.302C68.814,35.579 66.052,37.189 65.336,39.888Z" fill="#FC611F"/>
<path d="M72.717,50.661C72.002,53.373 73.583,56.148 76.27,56.871C78.943,57.593 81.705,55.996 82.42,53.284C83.136,50.585 81.542,47.796 78.868,47.074C76.194,46.352 73.433,47.948 72.717,50.661Z" fill="#16B6C6"/>
<path d="M72.567,63.778C71.851,66.477 73.445,69.266 76.119,69.988C78.805,70.71 81.554,69.113 82.27,66.401C82.985,63.702 81.391,60.914 78.717,60.191C76.044,59.469 73.282,61.066 72.567,63.778Z" fill="#FFF2CF"/>
<g opacity="0.2">
<path d="M50.324,40.143C51.14,41.321 51.466,42.842 51.077,44.338C50.362,47.037 47.6,48.647 44.926,47.924C44.349,47.772 43.847,47.506 43.382,47.177C44.035,48.127 44.989,48.862 46.182,49.192C48.855,49.914 51.617,48.304 52.332,45.605C52.897,43.476 52.018,41.321 50.324,40.143Z" fill="#000000"/>
<path d="M81.165,52.017C80.45,54.717 77.688,56.326 75.015,55.604C74.437,55.452 73.935,55.186 73.471,54.869C74.123,55.819 75.077,56.554 76.27,56.871C78.944,57.594 81.705,55.997 82.421,53.285C82.986,51.155 82.107,49.001 80.412,47.822C81.228,49.001 81.567,50.522 81.165,52.017Z" fill="#000000"/>
<path d="M75.04,42.513C75.605,40.384 74.726,38.229 73.031,37.051C73.847,38.229 74.186,39.75 73.785,41.246C73.069,43.958 70.307,45.555 67.634,44.832C67.056,44.68 66.554,44.414 66.09,44.085C66.743,45.035 67.697,45.77 68.889,46.1C71.563,46.822 74.324,45.225 75.04,42.513Z" fill="#000000"/>
<path d="M60.692,33.045C61.508,34.224 61.834,35.744 61.445,37.24C60.73,39.939 57.968,41.549 55.294,40.827C54.717,40.675 54.215,40.408 53.75,40.079C54.403,41.029 55.357,41.764 56.55,42.094C59.223,42.816 61.985,41.22 62.7,38.507C63.265,36.378 62.387,34.224 60.692,33.045Z" fill="#000000"/>
<path d="M80.261,60.939C81.077,62.118 81.416,63.639 81.015,65.134C80.299,67.847 77.55,69.444 74.864,68.721C74.286,68.569 73.784,68.303 73.32,67.973C73.973,68.924 74.927,69.659 76.119,69.989C78.805,70.711 81.554,69.114 82.27,66.402C82.835,64.273 81.956,62.118 80.261,60.939Z" fill="#000000"/>
</g>
<path d="M42.78,66.198C38.198,74.221 36.064,81.647 38.023,82.788C39.981,83.929 45.29,78.352 49.872,70.33C54.454,62.307 56.588,54.88 54.629,53.74C52.671,52.599 47.362,58.176 42.78,66.185L42.78,66.198Z" fill="#184F78"/>
<path d="M35.575,81.876C36.077,81.547 36.604,81.204 37.068,81.255C42.88,82.015 39.478,91.28 33.641,89.848C33.127,89.721 32.901,89.518 32.901,89.531C32.901,89.531 33.152,89.341 33.403,88.986C33.667,88.631 33.767,88.124 33.717,87.605C33.692,87.085 33.579,86.477 33.579,85.754C33.579,85.07 33.654,84.145 34.307,83.169C34.696,82.649 35.135,82.193 35.587,81.863L35.575,81.876Z" fill="#FC611F"/>
<path d="M40.861,78.752L36.853,78.752L36.853,83.874L40.861,83.874L40.861,78.752Z" transform="rotate(-120.496 38.857 81.313)" fill="#A3B9C9"/>
<g opacity="0.3">
<path d="M33.579,89.821C33.717,89.694 33.868,89.555 34.006,89.441C34.068,89.403 34.131,89.365 34.194,89.314L34.119,89.264L37.219,83.839C38.336,78.934 41.173,72.065 45.278,64.892C47.575,60.874 49.985,57.262 52.295,54.246C49.759,55.868 46.081,60.38 42.767,66.172C40.144,70.76 38.336,75.145 37.621,78.275L35.637,81.735L35.688,81.761C35.688,81.761 35.6,81.811 35.562,81.837C35.11,82.179 34.671,82.623 34.282,83.142C33.629,84.118 33.554,85.043 33.554,85.728C33.554,86.45 33.667,87.058 33.692,87.578C33.742,88.098 33.642,88.605 33.378,88.959C33.14,89.314 32.863,89.492 32.876,89.504C32.876,89.492 33.089,89.669 33.554,89.796L33.579,89.821Z" fill="#FFFFFF"/>
</g>
</svg>
