<svg width="152" height="166" viewBox="0 0 152 166" fill="none" xmlns="http://www.w3.org/2000/svg" xmlns:xlink="http://www.w3.org/1999/xlink">
<g opacity="0.2">
<circle cx="76" cy="76" r="76" fill="#FFFFFF"/>
<circle cx="76" cy="76" r="76" fill="#FFFFFF"/>
</g>
<circle cx="76" cy="76" r="64" fill="#FFFFFF" fill-opacity="0.2"/>
<circle cx="76" cy="76" r="54" fill="#FFFFFF"/>
<path d="M90.447,48.327C95.297,46.836 101.787,49.451 109.547,55.249C109.741,55.394 110.013,55.224 109.967,54.987C108.879,49.418 106.068,44.924 100.462,42.174C102.102,41.115 104.149,42.045 106.321,43.597C106.549,43.759 106.844,43.504 106.71,43.258C103.846,38.026 99.594,35.106 93.524,35.214C93.606,34.005 94.979,33.2 96.894,32.566C97.174,32.473 97.116,32.064 96.821,32.051C86.821,31.62 81.503,36.617 80.027,46.071L90.449,48.327L90.447,48.327Z" fill="#0C0D0F"/>
<path d="M79.098,48.991C82.999,49.071 86.83,49.808 90.576,51.323L90.447,48.327C87.139,47.139 83.659,46.403 80.024,46.071L79.098,48.991Z" fill="#6927FF"/>
<path d="M57.831,157.064L57.054,153.779C57.049,152.816 57.109,151.853 57.232,150.898C58.214,143.269 59.865,136.027 62.401,129.293L57.25,126.284C55.404,133.02 53.894,146.3 53.436,150.589C53.341,151.478 53.297,152.371 53.302,153.264C53.045,155.978 52.196,158.383 52.348,160.015C52.38,160.356 52.539,160.677 52.794,160.923L53.811,161.907C54.004,162.746 54.477,163.239 55.467,163.088C55.853,163.692 56.213,164.197 56.565,164.344C56.669,164.387 56.785,164.313 56.771,164.208C56.646,163.22 56.054,158.497 56.262,158.472C56.962,158.39 57.021,161.106 57.576,161.038C58.029,160.982 57.961,158.574 57.919,157.685C57.909,157.475 57.88,157.268 57.833,157.063L57.831,157.064Z" fill="#FBD3A8"/>
<path d="M97.14,157.064L97.917,153.779C97.922,152.816 97.862,151.853 97.739,150.898C96.757,143.269 95.106,136.027 92.57,129.293L97.721,126.284C99.567,133.02 101.077,146.3 101.535,150.589C101.63,151.478 101.674,152.371 101.669,153.264C101.925,155.978 102.775,158.383 102.623,160.015C102.591,160.356 102.432,160.677 102.177,160.923L101.16,161.907C100.967,162.746 100.494,163.239 99.504,163.088C99.118,163.692 98.758,164.197 98.406,164.344C98.302,164.387 98.186,164.313 98.2,164.208C98.325,163.22 98.917,158.497 98.709,158.472C98.009,158.39 97.95,161.106 97.395,161.038C96.942,160.982 97.01,158.574 97.052,157.685C97.062,157.475 97.091,157.268 97.138,157.063L97.14,157.064Z" fill="#FBD3A8"/>
<path d="M82.443,107.706L72.419,107.706C72.503,111.755 71.937,114.304 71.34,115.899C71.115,116.5 71.292,117.176 71.773,117.603C73.963,119.55 80.504,120.249 83.165,117.392C83.564,116.963 83.686,116.349 83.486,115.799C82.903,114.199 82.361,111.672 82.443,107.705L82.443,107.706Z" fill="#FBD3A8"/>
<g opacity="0.35">
<path d="M72.741,108.25L82.195,108.314L82.355,111.055C80.854,113.254 73.587,113.161 72.469,110.953L72.741,108.252L72.741,108.25Z" fill="#F8A364"/>
</g>
<path d="M55.403,97.261C51.084,97.261 48.329,91.542 49.671,87.85C49.995,86.958 50.637,86.197 51.513,85.824C53.075,85.158 54.484,85.978 55.403,86.59L55.403,97.261Z" fill="#FBD3A8"/>
<path d="M53.902,94.927C51.202,94.355 50.023,87.828 53.375,88.257L55.29,88.471L55.29,95.164L53.902,94.926L53.902,94.927Z" fill="#FBBD89"/>
<path d="M55.203,88.743C54.771,88.587 54.333,88.451 53.885,88.376C53.442,88.311 52.98,88.294 52.568,88.444C52.158,88.59 51.815,88.913 51.627,89.333C51.436,89.75 51.358,90.221 51.327,90.69C51.31,90.221 51.338,89.741 51.493,89.278C51.642,88.818 51.991,88.398 52.455,88.181C52.92,87.957 53.439,87.927 53.93,87.95C54.424,87.984 54.904,88.081 55.376,88.199L55.202,88.743L55.203,88.743Z" fill="#603813"/>
<path d="M99.603,97.261C103.922,97.261 106.676,91.542 105.335,87.85C105.011,86.958 104.369,86.197 103.493,85.824C101.931,85.158 100.522,85.978 99.603,86.59L99.603,97.261Z" fill="#FBD3A8"/>
<path d="M101.104,94.927C103.804,94.355 104.982,87.828 101.631,88.257L99.716,88.471L99.716,95.164L101.104,94.926L101.104,94.927Z" fill="#FBBD89"/>
<path d="M99.628,88.199C100.101,88.081 100.581,87.982 101.074,87.95C101.565,87.928 102.084,87.959 102.549,88.181C103.013,88.4 103.362,88.819 103.511,89.278C103.668,89.739 103.694,90.219 103.677,90.69C103.647,90.221 103.569,89.75 103.377,89.333C103.189,88.913 102.847,88.59 102.436,88.444C102.024,88.294 101.563,88.311 101.119,88.376C100.671,88.451 100.233,88.589 99.801,88.743L99.627,88.199L99.628,88.199Z" fill="#603813"/>
<path d="M99.659,65.341L55.636,65.341C49.663,92.415 53.954,110.219 77.346,110.777L77.95,110.777C101.341,110.219 105.633,92.414 99.66,65.341L99.659,65.341Z" fill="#FBD3A8"/>
<path d="M77.198,94.565C77.293,94.583 77.387,94.562 77.479,94.534C79.18,94.037 79.427,95.936 78.057,96.108C76.75,96.227 76.063,95.787 75.641,95.224C75.411,94.916 75.59,94.457 75.973,94.408C76.317,94.364 76.764,94.477 77.198,94.563L77.198,94.565Z" fill="#F8A364"/>
<path d="M67.96,91.52C69.042,91.52 69.92,90.126 69.92,88.407C69.92,86.688 69.042,85.294 67.96,85.294C66.877,85.294 66,86.688 66,88.407C66,90.126 66.877,91.52 67.96,91.52Z" fill="#4D4E4E"/>
<path d="M68.16,88.249C68.644,88.249 69.036,87.766 69.036,87.17C69.036,86.575 68.644,86.092 68.16,86.092C67.677,86.092 67.284,86.575 67.284,87.17C67.284,87.766 67.677,88.249 68.16,88.249Z" fill="#FFFFFF"/>
<path d="M66.777,82.78C66.865,82.758 66.955,82.75 67.045,82.758C68.173,82.848 69.352,82.857 69.352,81.969C69.352,80.396 65.217,80.936 65.217,82.461C65.34,83.054 65.833,83.018 66.777,82.78Z" fill="#4D4E4E"/>
<path d="M65.792,84.818C65.982,85.187 65.948,85.581 65.72,85.698C65.491,85.814 65.15,85.61 64.961,85.241C64.771,84.872 64.804,84.478 65.033,84.361C65.263,84.245 65.602,84.449 65.792,84.818Z" fill="#EF8971"/>
<path d="M64.315,88.422C64.729,88.386 65.049,88.15 65.025,87.895C65.001,87.639 64.648,87.462 64.233,87.498C63.818,87.534 63.499,87.77 63.523,88.025C63.546,88.281 63.899,88.458 64.315,88.422Z" fill="#EF8971"/>
<path d="M64.608,85.968C65.004,86.095 65.263,86.394 65.184,86.639C65.104,86.883 64.721,86.979 64.323,86.852C63.927,86.726 63.668,86.426 63.747,86.182C63.825,85.938 64.21,85.842 64.608,85.968Z" fill="#EF8971"/>
<path d="M86.282,91.52C87.364,91.52 88.241,90.126 88.241,88.407C88.241,86.688 87.364,85.294 86.282,85.294C85.199,85.294 84.322,86.688 84.322,88.407C84.322,90.126 85.199,91.52 86.282,91.52Z" fill="#4D4E4E"/>
<path d="M85.205,87.17C85.205,87.766 85.597,88.249 86.081,88.249C86.565,88.249 86.957,87.766 86.957,87.17C86.957,86.575 86.565,86.092 86.081,86.092C85.597,86.092 85.205,86.575 85.205,87.17Z" fill="#FFFFFF"/>
<path d="M87.465,82.78C87.377,82.758 87.286,82.75 87.197,82.758C86.068,82.848 84.89,82.857 84.89,81.969C84.89,80.396 89.024,80.936 89.024,82.461C88.901,83.054 88.409,83.018 87.465,82.78Z" fill="#4D4E4E"/>
<path d="M88.449,84.818C88.26,85.187 88.293,85.581 88.522,85.698C88.751,85.814 89.091,85.61 89.281,85.241C89.47,84.872 89.437,84.478 89.208,84.361C88.978,84.245 88.639,84.449 88.449,84.818Z" fill="#EF8971"/>
<path d="M89.927,88.422C89.512,88.386 89.193,88.15 89.217,87.895C89.24,87.639 89.593,87.462 90.009,87.498C90.423,87.534 90.743,87.77 90.719,88.025C90.695,88.281 90.342,88.458 89.927,88.422Z" fill="#EF8971"/>
<path d="M89.634,85.968C89.237,86.095 88.979,86.394 89.058,86.639C89.136,86.883 89.521,86.979 89.918,86.852C90.314,86.726 90.572,86.426 90.494,86.182C90.416,85.938 90.031,85.842 89.634,85.968Z" fill="#EF8971"/>
<path d="M71.786,100.427C72.761,100.619 73.708,100.817 74.658,100.956C75.608,101.089 76.554,101.174 77.501,101.182C78.448,101.193 79.394,101.128 80.344,101.007C81.294,100.881 82.241,100.688 83.214,100.491C82.376,101.023 81.447,101.41 80.479,101.668C79.512,101.933 78.501,102.056 77.493,102.045C76.484,102.033 75.478,101.889 74.517,101.611C73.555,101.34 72.63,100.95 71.787,100.426L71.786,100.427Z" fill="#F8A364"/>
<path d="M74.819,103.081C75.303,103.096 75.767,103.135 76.227,103.164C76.689,103.195 77.145,103.214 77.601,103.226C78.058,103.238 78.515,103.242 78.977,103.236C79.438,103.231 79.904,103.217 80.388,103.228C79.957,103.45 79.496,103.591 79.023,103.683C78.55,103.775 78.067,103.816 77.585,103.801C77.102,103.789 76.622,103.722 76.155,103.605C75.689,103.489 75.234,103.324 74.816,103.079L74.819,103.081Z" fill="#F8A364"/>
<path d="M94.599,119.857C93.569,117.762 91.732,116.168 89.503,115.44L82.814,113.238C81.665,115.873 80.411,117.501 77.416,117.533C74.421,117.501 73.198,115.873 72.05,113.238L65.329,115.44C63.101,116.167 61.263,117.76 60.232,119.857L55.448,129.593L61.725,132.043L64.067,154.802L90.764,154.802L92.995,132.043L99.383,129.593L94.598,119.857L94.599,119.857Z" fill="#6927FF"/>
<path d="M64.182,100.351C66.067,100.351 67.594,98.831 67.594,96.956C67.594,95.081 66.067,93.561 64.182,93.561C62.298,93.561 60.771,95.081 60.771,96.956C60.771,98.831 62.298,100.351 64.182,100.351Z" fill="#EF8971"/>
<path d="M92.001,100.351C93.885,100.351 95.413,98.831 95.413,96.956C95.413,95.081 93.885,93.561 92.001,93.561C90.116,93.561 88.589,95.081 88.589,96.956C88.589,98.831 90.116,100.351 92.001,100.351Z" fill="#EF8971"/>
<path d="M66.635,66.597C60.501,71.858 55.492,81.465 54.675,90.539C54.627,91.063 54.177,91.462 53.648,91.462L51.564,86.17C50.259,82.855 49.401,79.38 49.053,75.837C47.367,58.69 55.958,52.199 69.404,48.535C76.65,46.56 84.392,47.129 91.16,50.374C99.399,54.325 104.036,59.879 105.208,69.574C105.982,75.984 105.054,82.486 102.645,88.482L101.448,91.462C100.897,91.462 100.436,91.067 100.331,90.529C99.158,84.503 92.149,77.838 84.679,73.546C85.397,75.891 86.315,78.264 87.808,80.711C81.275,79.878 77.695,76.729 74.203,70.685L75.258,77.236C69.002,73.834 67.149,72.202 66.636,66.595L66.635,66.597Z" fill="#0C0D0F"/>
<path d="M93.703,154.029C93.703,154.029 93.139,147.433 92.997,132.043C88.415,131.989 88.809,123.906 88.597,115.151L86.398,114.461C86.746,122.67 83.719,126.985 77.361,127.457C71.003,126.985 67.977,122.67 68.325,114.461L66.125,115.233C65.912,123.987 66.308,131.989 61.726,132.043C61.582,147.433 61.036,154.029 61.036,154.029C70.186,157.23 84.467,156.718 93.703,154.029Z" fill="#ECCF39"/>
<path d="M79.013,131.6C77.979,131.482 77.677,132.87 77.677,132.87C77.677,132.87 77.374,131.481 76.34,131.6C75.311,131.723 74.097,133.712 74.093,134.682C74.093,136.457 75.489,139.454 77.677,141.326C79.864,139.455 81.26,136.459 81.26,134.682C81.26,133.712 80.046,131.723 79.013,131.6Z" fill="#6927FF"/>
<path d="M68.794,137.057C68.359,137.997 69.595,138.711 69.595,138.711C69.595,138.711 68.172,138.57 67.965,139.586C67.764,140.599 69.292,142.363 70.217,142.664C71.914,143.215 75.21,142.814 77.677,141.325C76.565,138.679 74.135,136.43 72.432,135.884C71.507,135.583 69.228,136.116 68.794,137.057Z" fill="#6927FF"/>
<path d="M70.853,148.415C71.613,149.116 72.679,148.17 72.679,148.17C72.679,148.17 72.107,149.471 73.014,149.977C73.92,150.482 76.075,149.581 76.651,148.797C77.705,147.358 78.341,144.121 77.677,141.325C74.803,141.562 71.9,143.169 70.853,144.607C70.281,145.39 70.088,147.713 70.853,148.414L70.853,148.415Z" fill="#6927FF"/>
<path d="M82.345,149.978C83.252,149.473 82.675,148.171 82.675,148.171C82.675,148.171 83.742,149.118 84.506,148.417C85.27,147.716 85.074,145.393 84.502,144.61C83.454,143.169 80.553,141.563 77.678,141.327C77.02,144.124 77.656,147.361 78.707,148.8C79.279,149.583 81.44,150.485 82.345,149.979L82.345,149.978Z" fill="#6927FF"/>
<path d="M87.388,139.587C87.187,138.571 85.763,138.713 85.763,138.713C85.763,138.713 86.999,137.998 86.564,137.058C86.124,136.119 83.849,135.586 82.92,135.886C81.223,136.432 78.793,138.681 77.675,141.326C80.143,142.815 83.438,143.216 85.135,142.665C86.06,142.364 87.589,140.6 87.387,139.587L87.388,139.587Z" fill="#6927FF"/>
<path d="M79.137,141.326C79.137,142.128 78.483,142.779 77.677,142.779C76.87,142.779 76.222,142.128 76.222,141.326C76.222,140.524 76.872,139.879 77.677,139.879C78.481,139.879 79.137,140.525 79.137,141.326Z" fill="#912493"/>
<rect  x="77.554" y="136.459" width="0.247" height="4.867" fill="#912493"/>
<path d="M78.14,136.459C78.14,136.714 77.933,136.918 77.678,136.918C77.423,136.918 77.221,136.713 77.221,136.459C77.221,136.205 77.427,136.004 77.678,136.004C77.929,136.004 78.14,136.209 78.14,136.459Z" fill="#912493"/>
<path d="M77.572,141.387L75.128,137.174L75.339,137.05L77.783,141.266L77.572,141.387Z" fill="#912493"/>
<path d="M75.632,136.882C75.756,137.103 75.682,137.383 75.463,137.508C75.244,137.633 74.963,137.561 74.835,137.342C74.707,137.122 74.785,136.843 75,136.717C75.219,136.589 75.503,136.664 75.632,136.881L75.632,136.882Z" fill="#912493"/>
<path d="M77.617,141.43L73.379,138.999L73.503,138.789L77.737,141.221L77.617,141.43Z" fill="#912493"/>
<path d="M73.672,138.498C73.892,138.622 73.965,138.903 73.836,139.122C73.712,139.341 73.429,139.414 73.209,139.29C72.988,139.162 72.916,138.882 73.04,138.666C73.168,138.445 73.451,138.37 73.672,138.498Z" fill="#912493"/>
<rect  x="72.785" y="141.205" width="4.892" height="0.244" fill="#912493"/>
<path d="M72.785,140.871C73.041,140.871 73.246,141.076 73.246,141.326C73.246,141.576 73.04,141.784 72.785,141.784C72.529,141.784 72.327,141.581 72.327,141.326C72.327,141.071 72.534,140.871 72.785,140.871Z" fill="#912493"/>
<path d="M73.503,143.867L73.379,143.658L77.617,141.221L77.736,141.43L73.503,143.867Z" fill="#912493"/>
<path d="M73.21,143.366C73.429,143.239 73.714,143.313 73.838,143.533C73.966,143.752 73.892,144.031 73.673,144.159C73.454,144.282 73.17,144.209 73.041,143.991C72.917,143.773 72.991,143.493 73.21,143.366Z" fill="#912493"/>
<path d="M75.339,145.602L75.128,145.483L77.572,141.266L77.783,141.387L75.339,145.602Z" fill="#912493"/>
<path d="M74.835,145.315C74.963,145.095 75.242,145.019 75.463,145.147C75.683,145.275 75.756,145.552 75.632,145.771C75.503,145.989 75.22,146.066 75.004,145.939C74.785,145.812 74.707,145.534 74.835,145.315Z" fill="#912493"/>
<rect  x="77.554" y="141.326" width="0.247" height="4.867" fill="#912493"/>
<path d="M77.219,146.193C77.219,145.941 77.425,145.738 77.677,145.738C77.928,145.738 78.138,145.941 78.138,146.193C78.138,146.446 77.932,146.651 77.677,146.651C77.421,146.651 77.219,146.446 77.219,146.193Z" fill="#912493"/>
<path d="M80.02,145.602L77.572,141.387L77.783,141.266L80.231,145.483L80.02,145.602Z" fill="#912493"/>
<path d="M79.727,145.77C79.599,145.551 79.677,145.273 79.896,145.145C80.115,145.018 80.395,145.096 80.524,145.312C80.648,145.533 80.574,145.81 80.355,145.938C80.136,146.063 79.851,145.988 79.727,145.77Z" fill="#912493"/>
<path d="M81.856,143.867L77.617,141.43L77.737,141.221L81.974,143.658L81.856,143.867Z" fill="#912493"/>
<path d="M81.686,144.156C81.465,144.031 81.388,143.751 81.517,143.531C81.645,143.313 81.924,143.239 82.144,143.365C82.363,143.49 82.437,143.77 82.313,143.989C82.185,144.209 81.906,144.281 81.687,144.156L81.686,144.156Z" fill="#912493"/>
<rect  x="77.783" y="141.216" width="4.796" height="0.239" fill="#912493"/>
<path d="M82.578,141.784C82.331,141.784 82.129,141.586 82.129,141.336C82.129,141.086 82.331,140.889 82.578,140.889C82.825,140.889 83.027,141.09 83.027,141.336C83.027,141.581 82.825,141.784 82.578,141.784Z" fill="#912493"/>
<path d="M77.841,141.437L77.724,141.232L81.878,138.849L81.995,139.054L77.841,141.437Z" fill="#912493"/>
<path d="M82.161,139.337C81.946,139.459 81.672,139.389 81.546,139.175C81.421,138.961 81.497,138.686 81.712,138.563C81.927,138.438 82.202,138.511 82.327,138.725C82.449,138.939 82.376,139.214 82.161,139.337Z" fill="#912493"/>
<path d="M77.886,141.395L77.679,141.277L80.079,137.144L80.285,137.264L77.886,141.395Z" fill="#912493"/>
<path d="M80.568,137.429C80.447,137.643 80.173,137.715 79.959,137.591C79.744,137.469 79.667,137.194 79.793,136.978C79.914,136.766 80.192,136.692 80.408,136.817C80.623,136.939 80.695,137.214 80.57,137.429L80.568,137.429Z" fill="#912493"/>
</svg>
