<svg width="20" height="18" viewBox="0 0 20 18" fill="none" xmlns="http://www.w3.org/2000/svg" xmlns:xlink="http://www.w3.org/1999/xlink">
<path d="M13.978,3.233C12.274,4.691 9.415,4.615 9.415,4.615C9.415,4.615 9.325,2.173 11.035,0.715C12.739,-0.743 15.598,-0.667 15.598,-0.667C15.598,-0.667 15.689,1.775 13.978,3.233Z" fill="#184F78"/>
<path d="M14.855,-0.035C14.855,-0.035 14.619,0.264 14.214,0.673C13.815,1.083 13.253,1.61 12.667,2.114C12.081,2.618 11.464,3.092 10.981,3.438C10.503,3.783 10.153,3.982 10.153,3.982C10.153,3.982 10.389,3.684 10.793,3.274C11.192,2.864 11.754,2.337 12.341,1.833C12.927,1.329 13.543,0.855 14.027,0.515C14.504,0.17 14.855,-0.029 14.855,-0.029L14.855,-0.035Z" fill="#467293"/>
<path d="M9.416,4.522C2.785,2.864 -0.248,7.104 0.978,11.719C1.939,15.35 5.294,18.635 9.416,17.622C13.543,18.635 16.892,15.35 17.853,11.719C19.074,7.104 16.046,2.864 9.416,4.522Z" fill="#FC611F"/>
<g opacity="0.3">
<path d="M5.704,17.376C5.668,17.013 5.65,16.638 5.65,16.263C5.65,10.852 9.119,6.232 14.021,4.364C12.764,4.053 11.228,4.065 9.421,4.516C2.791,2.858 -0.243,7.098 0.984,11.713C1.637,14.167 3.378,16.457 5.711,17.376L5.704,17.376Z" fill="#FFFFFF"/>
</g>
</svg>
