<svg width="20" height="18" viewBox="0 0 20 18" fill="none" xmlns="http://www.w3.org/2000/svg" xmlns:xlink="http://www.w3.org/1999/xlink">
<path d="M13.98,3.235C12.276,4.693 9.417,4.617 9.417,4.617C9.417,4.617 9.326,2.175 11.037,0.717C12.741,-0.741 15.6,-0.665 15.6,-0.665C15.6,-0.665 15.69,1.777 13.98,3.235Z" fill="#184F78"/>
<path d="M14.856,-0.033C14.856,-0.033 14.621,0.265 14.216,0.675C13.817,1.085 13.255,1.612 12.669,2.116C12.082,2.62 11.466,3.094 10.982,3.44C10.505,3.785 10.154,3.984 10.154,3.984C10.154,3.984 10.39,3.685 10.795,3.276C11.194,2.866 11.756,2.339 12.342,1.835C12.928,1.331 13.545,0.857 14.028,0.517C14.506,0.172 14.856,-0.027 14.856,-0.027L14.856,-0.033Z" fill="#467293"/>
<path d="M9.417,4.523C2.787,2.865 -0.247,7.105 0.98,11.72C1.941,15.351 5.295,18.636 9.417,17.623C13.545,18.636 16.893,15.351 17.854,11.72C19.075,7.105 16.047,2.865 9.417,4.523Z" fill="#FC611F"/>
<g opacity="0.3">
<path d="M5.706,17.377C5.67,17.014 5.652,16.639 5.652,16.264C5.652,10.853 9.121,6.233 14.022,4.365C12.765,4.054 11.23,4.066 9.423,4.517C2.793,2.859 -0.241,7.099 0.986,11.714C1.638,14.168 3.379,16.458 5.712,17.377L5.706,17.377Z" fill="#FFFFFF"/>
</g>
</svg>
