<svg width="20" height="18" viewBox="0 0 20 18" fill="none" xmlns="http://www.w3.org/2000/svg" xmlns:xlink="http://www.w3.org/1999/xlink">
<path d="M13.978,3.233C12.274,4.692 9.415,4.615 9.415,4.615C9.415,4.615 9.325,2.173 11.035,0.715C12.74,-0.743 15.598,-0.667 15.598,-0.667C15.598,-0.667 15.689,1.775 13.978,3.233Z" fill="#184F78"/>
<path d="M14.855,-0.034C14.855,-0.034 14.619,0.264 14.214,0.674C13.815,1.084 13.253,1.611 12.667,2.115C12.081,2.619 11.464,3.093 10.981,3.439C10.503,3.784 10.153,3.983 10.153,3.983C10.153,3.983 10.388,3.685 10.793,3.275C11.192,2.865 11.754,2.338 12.341,1.834C12.927,1.33 13.543,0.856 14.027,0.516C14.504,0.171 14.855,-0.028 14.855,-0.028L14.855,-0.034Z" fill="#467293"/>
<path d="M9.415,4.522C2.785,2.864 -0.249,7.104 0.978,11.719C1.939,15.35 5.294,18.635 9.415,17.622C13.543,18.635 16.892,15.35 17.853,11.719C19.073,7.104 16.045,2.864 9.415,4.522Z" fill="#FC611F"/>
<g opacity="0.3">
<path d="M5.705,17.377C5.668,17.013 5.65,16.639 5.65,16.264C5.65,10.853 9.119,6.232 14.021,4.364C12.764,4.054 11.229,4.065 9.421,4.516C2.791,2.859 -0.243,7.099 0.984,11.714C1.637,14.167 3.378,16.457 5.711,17.377L5.705,17.377Z" fill="#FFFFFF"/>
</g>
</svg>
