<svg width="118" height="116" viewBox="0 0 118 116" fill="none" xmlns="http://www.w3.org/2000/svg" xmlns:xlink="http://www.w3.org/1999/xlink">
<path d="M117.351,58C117.351,90.033 91.244,116 59.04,116C26.835,116 0.729,90.033 0.729,58C0.729,25.967 26.835,0 59.04,0C91.244,0 117.351,25.967 117.351,58Z" fill="#F66967" fill-opacity="0.05" stroke="#F66967" stroke-opacity="0.05" stroke-width="2" stroke-miterlimit="3.999327"/>
<path d="M58.995,34.98C48.349,34.98 39.715,43.575 39.715,54.182C39.715,59.509 41.894,64.328 45.418,67.809C46.93,69.304 48.682,71.926 49.016,74.022L49.684,78.204L68.324,78.204L68.991,74.013C69.325,71.917 71.078,69.295 72.59,67.8C76.114,64.319 78.293,59.5 78.293,54.173C78.293,43.575 69.65,34.971 58.995,34.971L58.995,34.98Z" fill="#67E9F5"/>
<path d="M62.473,79.746C62.046,79.746 61.703,79.404 61.703,78.979C61.703,78.499 61.777,66.968 68.473,51.21C68.64,50.822 69.094,50.637 69.484,50.803C69.873,50.97 70.059,51.422 69.892,51.81C63.317,67.292 63.243,78.868 63.243,78.989C63.243,79.413 62.899,79.755 62.473,79.755L62.473,79.746Z" fill="#FDC00F"/>
<path d="M55.545,79.745C55.118,79.745 54.775,79.394 54.775,78.979C54.775,78.868 54.692,67.254 48.126,51.8C47.959,51.412 48.144,50.96 48.534,50.794C48.923,50.627 49.378,50.812 49.545,51.2C56.24,66.968 56.314,78.489 56.314,78.969C56.314,79.394 55.971,79.736 55.545,79.736L55.545,79.745Z" fill="#FDC00F"/>
<path d="M68.379,53.13C67.044,53.13 66.357,52.401 65.755,51.764C65.189,51.164 64.697,50.647 63.696,50.647C62.694,50.647 62.203,51.164 61.637,51.764C61.034,52.401 60.348,53.13 59.013,53.13C57.677,53.13 56.991,52.401 56.388,51.764C55.823,51.164 55.331,50.647 54.32,50.647C53.309,50.647 52.827,51.164 52.252,51.764C51.649,52.401 50.963,53.13 49.628,53.13C49.414,53.13 49.238,52.955 49.238,52.742C49.238,52.53 49.414,52.354 49.628,52.354C50.629,52.354 51.121,51.837 51.696,51.237C52.299,50.6 52.985,49.871 54.32,49.871C55.656,49.871 56.342,50.6 56.945,51.237C57.51,51.837 58.002,52.354 59.013,52.354C60.023,52.354 60.506,51.837 61.071,51.237C61.674,50.6 62.36,49.871 63.696,49.871C65.031,49.871 65.717,50.6 66.32,51.237C66.886,51.837 67.377,52.354 68.379,52.354C68.592,52.354 68.768,52.53 68.768,52.742C68.768,52.955 68.592,53.13 68.379,53.13Z" fill="#FDC00F"/>
<path d="M64.466,92.273L53.551,92.273C51.418,92.273 49.693,90.547 49.693,88.423L49.693,78.213L68.333,78.213L68.333,88.423C68.333,90.547 66.608,92.273 64.466,92.273Z" fill="#E1E1E1"/>
<path d="M49.684,86.643L49.684,88.424C49.684,88.784 49.749,89.126 49.841,89.458L68.166,89.458C68.259,89.126 68.323,88.784 68.323,88.424L68.323,86.643L49.684,86.643Z" fill="#F15B67"/>
<rect  x="49.684" y="81.02" width="18.64" height="2.816" fill="#F15B67"/>
<path d="M59.004,94C60.914,94 62.472,93.224 62.472,92.273L55.545,92.273C55.545,93.224 57.094,94 59.004,94Z" fill="#FDC00F"/>
<path d="M59.005,28.878C58.495,28.878 58.078,28.462 58.078,27.955L58.078,22.923C58.078,22.415 58.495,22 59.005,22C59.516,22 59.933,22.415 59.933,22.923L59.933,27.955C59.933,28.462 59.516,28.878 59.005,28.878Z" fill="#FDC00F"/>
<path d="M45.494,32.478C45.169,32.478 44.863,32.312 44.687,32.017L42.164,27.659C41.905,27.216 42.062,26.653 42.508,26.394C42.953,26.136 43.518,26.293 43.778,26.736L46.3,31.093C46.56,31.537 46.402,32.1 45.957,32.358C45.809,32.441 45.651,32.478 45.494,32.478Z" fill="#FDC00F"/>
<path d="M35.608,42.319C35.45,42.319 35.293,42.282 35.144,42.199L30.767,39.688C30.322,39.43 30.174,38.866 30.424,38.423C30.674,37.98 31.249,37.832 31.694,38.082L36.072,40.593C36.517,40.851 36.665,41.414 36.415,41.858C36.239,42.153 35.933,42.319 35.608,42.319Z" fill="#FDC00F"/>
<path d="M31.981,55.77L26.927,55.77C26.417,55.77 26,55.355 26,54.847C26,54.339 26.417,53.924 26.927,53.924L31.981,53.924C32.492,53.924 32.909,54.339 32.909,54.847C32.909,55.355 32.492,55.77 31.981,55.77Z" fill="#FDC00F"/>
<path d="M31.221,71.733C30.897,71.733 30.591,71.567 30.414,71.272C30.155,70.829 30.312,70.266 30.758,70.007L35.135,67.496C35.58,67.237 36.146,67.394 36.405,67.838C36.665,68.281 36.507,68.844 36.062,69.102L31.685,71.613C31.537,71.696 31.379,71.733 31.221,71.733Z" fill="#FDC00F"/>
<path d="M86.77,71.742C86.612,71.742 86.455,71.706 86.306,71.622L81.929,69.102C81.484,68.844 81.336,68.28 81.586,67.837C81.846,67.394 82.411,67.246 82.857,67.496L87.234,70.016C87.679,70.275 87.827,70.838 87.577,71.281C87.401,71.576 87.095,71.742 86.77,71.742Z" fill="#FDC00F"/>
<path d="M91.073,55.78L86.019,55.78C85.509,55.78 85.092,55.365 85.092,54.857C85.092,54.349 85.509,53.934 86.019,53.934L91.073,53.934C91.583,53.934 92.001,54.349 92.001,54.857C92.001,55.365 91.583,55.78 91.073,55.78Z" fill="#FDC00F"/>
<path d="M82.401,42.329C82.076,42.329 81.77,42.163 81.594,41.867C81.334,41.424 81.492,40.861 81.937,40.603L86.314,38.092C86.76,37.833 87.325,37.99 87.585,38.433C87.845,38.876 87.687,39.439 87.242,39.698L82.865,42.209C82.716,42.292 82.559,42.329 82.401,42.329Z" fill="#FDC00F"/>
<path d="M72.506,32.488C72.349,32.488 72.191,32.451 72.043,32.368C71.597,32.109 71.449,31.546 71.699,31.103L74.231,26.746C74.491,26.302 75.056,26.155 75.502,26.404C75.947,26.662 76.095,27.226 75.845,27.669L73.313,32.026C73.137,32.322 72.831,32.488 72.506,32.488Z" fill="#FDC00F"/>
<g opacity="0.3">
<path d="M44.009,54.09C47.078,57.146 52.68,56.528 56.519,52.696C60.358,48.874 60.989,43.298 57.919,40.242C54.85,37.187 49.249,37.814 45.409,41.636C41.57,45.458 40.939,51.035 44.009,54.09Z" fill="#FFFFFF"/>
</g>
<g opacity="0.3">
<path d="M57.456,59.297C58.605,60.442 60.701,60.211 62.139,58.78C63.576,57.349 63.808,55.263 62.658,54.118C61.508,52.974 59.412,53.204 57.975,54.635C56.537,56.066 56.306,58.153 57.456,59.297Z" fill="#FFFFFF"/>
</g>
<g opacity="0.2">
<path d="M50.613,78.979L67.398,78.979C67.908,78.979 68.325,78.638 68.325,78.213L49.686,78.213C49.686,78.213 50.103,78.979 50.613,78.979Z" fill="#000000"/>
</g>
<g opacity="0.2">
<path d="M55.925,93.04L62.092,93.04C62.324,92.809 62.472,92.55 62.472,92.273L55.545,92.273C55.545,92.55 55.693,92.809 55.925,93.04Z" fill="#000000"/>
</g>
</svg>
