<svg width="750" height="378" viewBox="0 0 750 378" fill="none" xmlns="http://www.w3.org/2000/svg" xmlns:xlink="http://www.w3.org/1999/xlink">
<path d="M750,341.198C465.448,407.85 131.436,368.97 0,341.198L0,0L750,0L750,341.198Z" fill="url(#pf_0_154_3183)"/>
<g opacity="0.2">
<path d="M369.53,234L369.53,233L369.53,234ZM124,200C123.778,200.975 123.778,200.975 123.778,200.975C123.778,200.975 123.778,200.975 123.778,200.975C123.778,200.975 123.778,200.975 123.778,200.975C123.778,200.975 123.778,200.975 123.779,200.975C123.779,200.975 123.78,200.976 123.782,200.976C123.784,200.976 123.788,200.977 123.793,200.979C123.804,200.981 123.819,200.984 123.84,200.989C123.881,200.998 123.942,201.012 124.023,201.031C124.186,201.068 124.428,201.122 124.747,201.194C125.386,201.337 126.333,201.549 127.567,201.821L127.998,199.868C126.766,199.596 125.822,199.385 125.186,199.242C124.867,199.171 124.626,199.117 124.465,199.08C124.384,199.062 124.324,199.048 124.283,199.039C124.263,199.034 124.247,199.031 124.237,199.028C124.232,199.027 124.229,199.026 124.226,199.026C124.225,199.026 124.224,199.025 124.223,199.025C124.223,199.025 124.223,199.025 124.223,199.025C124.223,199.025 124.222,199.025 124.222,199.025C124.222,199.025 124.222,199.025 124.222,199.025C124.222,199.025 124.222,199.025 124,200ZM135.089,203.456C137.34,203.938 139.898,204.481 142.735,205.075L143.144,203.117C140.311,202.524 137.757,201.982 135.508,201.5L135.089,203.456ZM150.296,206.641C152.696,207.132 155.233,207.647 157.897,208.182L158.291,206.221C155.63,205.687 153.095,205.172 150.698,204.681L150.296,206.641ZM165.518,209.695C167.978,210.179 170.522,210.674 173.144,211.178L173.522,209.215C170.902,208.71 168.361,208.216 165.904,207.733L165.518,209.695ZM180.772,212.631C183.26,213.1 185.806,213.575 188.406,214.054L188.768,212.088C186.171,211.609 183.628,211.134 181.142,210.666L180.772,212.631ZM196.048,215.448C198.558,215.9 201.11,216.355 203.701,216.811L204.047,214.842C201.46,214.386 198.91,213.932 196.403,213.48L196.048,215.448ZM211.365,218.144C213.888,218.577 216.442,219.01 219.023,219.442L219.353,217.469C216.775,217.038 214.224,216.606 211.704,216.173L211.365,218.144ZM226.669,220.704C229.203,221.116 231.758,221.526 234.334,221.932L234.646,219.957C232.073,219.551 229.521,219.141 226.991,218.73L226.669,220.704ZM242.012,223.126C244.561,223.516 247.125,223.902 249.702,224.283L249.994,222.305C247.42,221.924 244.86,221.539 242.315,221.149L242.012,223.126ZM257.38,225.398C259.933,225.761 262.497,226.119 265.069,226.471L265.34,224.489C262.772,224.138 260.212,223.781 257.662,223.418L257.38,225.398ZM272.769,227.501C275.334,227.836 277.903,228.164 280.475,228.484L280.722,226.5C278.154,226.18 275.589,225.853 273.028,225.518L272.769,227.501ZM288.185,229.418C290.759,229.721 293.333,230.015 295.904,230.299L296.124,228.311C293.558,228.027 290.988,227.734 288.418,227.431L288.185,229.418ZM303.629,231.123C306.21,231.388 308.786,231.642 311.353,231.885L311.541,229.894C308.98,229.652 306.41,229.398 303.834,229.133L303.629,231.123ZM319.096,232.583C321.692,232.805 324.276,233.014 326.848,233.209L327,231.214C324.434,231.02 321.856,230.811 319.266,230.59L319.096,232.583ZM334.6,233.756C337.202,233.925 339.784,234.079 342.348,234.216L342.454,232.219C339.9,232.082 337.324,231.929 334.73,231.76L334.6,233.756ZM350.106,234.582C352.728,234.688 355.324,234.775 357.892,234.841L357.944,232.842C355.386,232.776 352.8,232.689 350.186,232.583L350.106,234.582ZM365.676,234.981C366.97,234.993 368.254,234.999 369.53,235L369.53,233C368.26,232.999 366.982,232.993 365.696,232.981L365.676,234.981ZM369.53,235C370.81,235.001 372.098,234.995 373.396,234.984L373.38,232.984C372.088,232.995 370.804,233.001 369.53,233L369.53,235ZM381.21,234.852C383.788,234.788 386.394,234.703 389.026,234.599L388.946,232.6C386.324,232.704 383.728,232.789 381.16,232.853L381.21,234.852ZM396.814,234.239C399.386,234.103 401.98,233.951 404.59,233.783L404.462,231.787C401.858,231.954 399.274,232.106 396.708,232.241L396.814,234.239ZM412.372,233.24C414.954,233.046 417.548,232.838 420.154,232.617L419.986,230.624C417.386,230.845 414.798,231.052 412.222,231.245L412.372,233.24ZM427.926,231.922C430.504,231.68 433.09,231.427 435.68,231.162L435.478,229.173C432.892,229.437 430.312,229.69 427.74,229.931L427.926,231.922ZM443.434,230.34C446.016,230.056 448.6,229.763 451.184,229.46L450.952,227.474C448.372,227.776 445.792,228.069 443.216,228.352L443.434,230.34ZM458.924,228.528C461.506,228.208 464.084,227.881 466.66,227.545L466.4,225.562C463.83,225.897 461.256,226.224 458.678,226.543L458.924,228.528ZM474.39,226.515C476.97,226.164 479.544,225.806 482.108,225.442L481.826,223.462C479.266,223.825 476.696,224.183 474.12,224.534L474.39,226.515ZM489.816,224.327C492.402,223.946 494.976,223.56 497.534,223.17L497.232,221.193C494.678,221.582 492.108,221.968 489.524,222.349L489.816,224.327ZM505.242,221.975C507.828,221.568 510.394,221.157 512.936,220.745L512.616,218.77C510.076,219.183 507.514,219.592 504.932,219.999L505.242,221.975ZM520.612,219.482C523.202,219.049 525.766,218.615 528.298,218.182L527.962,216.21C525.432,216.644 522.87,217.077 520.282,217.509L520.612,219.482ZM535.992,216.847C538.594,216.39 541.156,215.934 543.676,215.481L543.322,213.513C540.804,213.966 538.244,214.421 535.646,214.877L535.992,216.847ZM551.346,214.085C553.956,213.605 556.512,213.129 559.01,212.66L558.64,210.694C556.144,211.163 553.592,211.639 550.984,212.118L551.346,214.085ZM566.668,211.204C569.3,210.698 571.854,210.202 574.322,209.717L573.936,207.755C571.47,208.238 568.92,208.734 566.29,209.24L566.668,211.204ZM581.972,208.2C584.646,207.664 587.194,207.148 589.602,206.655L589.202,204.696C586.794,205.188 584.25,205.704 581.58,206.239L581.972,208.2ZM597.192,205.086C600.04,204.49 602.608,203.946 604.868,203.462L604.45,201.507C602.192,201.99 599.628,202.533 596.784,203.128L597.192,205.086ZM612.418,201.823C613.658,201.55 614.608,201.338 615.248,201.195C615.57,201.123 615.812,201.068 615.976,201.031C616.056,201.013 616.118,200.999 616.16,200.989C616.18,200.985 616.196,200.981 616.206,200.979C616.212,200.977 616.216,200.977 616.218,200.976C616.22,200.976 616.22,200.975 616.222,200.975C616.222,200.975 616.222,200.975 616.222,200.975C616.222,200.975 616.222,200.975 616.222,200.975C616.222,200.975 616.222,200.975 616.222,200.975C616.222,200.975 616.222,200.975 616,200C615.778,199.025 615.778,199.025 615.778,199.025C615.778,199.025 615.778,199.025 615.778,199.025C615.778,199.025 615.778,199.025 615.778,199.025C615.778,199.025 615.778,199.025 615.776,199.025C615.776,199.025 615.776,199.026 615.774,199.026C615.772,199.026 615.768,199.027 615.762,199.028C615.752,199.031 615.738,199.034 615.716,199.039C615.676,199.048 615.616,199.062 615.534,199.08C615.372,199.117 615.13,199.171 614.81,199.243C614.172,199.386 613.224,199.598 611.988,199.87L612.418,201.823Z" fill="#FFFFFF"/>
</g>
<defs>
<linearGradient id="pf_0_154_3183" x1="14.075" y1="0" x2="730.898" y2="378" gradientUnits="userSpaceOnUse">
<stop stop-color="#F15B67"/>
<stop offset="1" stop-color="#9E3840"/>
</linearGradient>
</defs>
</svg>
