<svg width="18" height="20" viewBox="0 0 18 20" fill="none" xmlns="http://www.w3.org/2000/svg" xmlns:xlink="http://www.w3.org/1999/xlink">
<path d="M13.534,3.901C11.83,5.359 8.971,5.283 8.971,5.283C8.971,5.283 8.88,2.841 10.591,1.383C12.295,-0.075 15.154,0.001 15.154,0.001C15.154,0.001 15.244,2.443 13.534,3.901Z" fill="#184F78"/>
<path d="M14.411,0.633C14.411,0.633 14.175,0.931 13.77,1.341C13.371,1.751 12.809,2.278 12.223,2.782C11.636,3.286 11.02,3.76 10.536,4.106C10.059,4.451 9.708,4.65 9.708,4.65C9.708,4.65 9.944,4.352 10.349,3.942C10.748,3.532 11.31,3.005 11.896,2.501C12.483,1.997 13.099,1.523 13.583,1.183C14.06,0.838 14.411,0.639 14.411,0.639L14.411,0.633Z" fill="#467293"/>
<path d="M8.971,5.189C2.341,3.531 -0.693,7.771 0.534,12.386C1.495,16.017 4.849,19.302 8.971,18.289C13.099,19.302 16.447,16.017 17.408,12.386C18.629,7.771 15.601,3.531 8.971,5.189Z" fill="#FC611F"/>
<g opacity="0.3">
<path d="M5.26,18.043C5.224,17.68 5.206,17.305 5.206,16.93C5.206,11.519 8.675,6.899 13.576,5.031C12.319,4.72 10.784,4.732 8.977,5.183C2.347,3.525 -0.687,7.765 0.54,12.38C1.193,14.834 2.933,17.124 5.266,18.043L5.26,18.043Z" fill="#FFFFFF"/>
</g>
</svg>
