<svg width="260" height="260" viewBox="0 0 260 260" fill="none" xmlns="http://www.w3.org/2000/svg" xmlns:xlink="http://www.w3.org/1999/xlink">
<path d="M127.649,1.708C129.051,0.69 130.949,0.69 132.351,1.708L251.286,88.12C252.688,89.138 253.274,90.944 252.74,92.592L207.31,232.408C206.774,234.056 205.238,235.172 203.506,235.172L56.494,235.172C54.761,235.172 53.225,234.056 52.69,232.408L7.261,92.592C6.725,90.944 7.312,89.138 8.714,88.12L127.649,1.708Z" stroke="#E4E6EC" stroke-width="1.5" stroke-miterlimit="3.999327"/>
<path d="M127.649,37.708C129.051,36.69 130.949,36.69 132.351,37.708L217.048,99.244C218.45,100.263 219.037,102.068 218.501,103.716L186.15,203.284C185.614,204.932 184.079,206.048 182.346,206.048L77.654,206.048C75.921,206.048 74.386,204.932 73.85,203.284L41.499,103.716C40.963,102.068 41.55,100.263 42.952,99.244L127.649,37.708Z" stroke="#E4E6EC" stroke-width="1.5" stroke-miterlimit="3.999327"/>
<path d="M126.649,71.708C128.051,70.69 129.949,70.69 131.351,71.708L182.761,109.06C184.163,110.078 184.75,111.884 184.214,113.532L164.577,173.968C164.042,175.616 162.506,176.732 160.773,176.732L97.227,176.732C95.494,176.732 93.958,175.616 93.423,173.968L73.786,113.532C73.25,111.884 73.837,110.078 75.239,109.06L126.649,71.708Z" stroke="#E4E6EC" stroke-width="1.5" stroke-miterlimit="3.999327"/>
</svg>
