<svg width="118" height="116" viewBox="0 0 118 116" fill="none" xmlns="http://www.w3.org/2000/svg" xmlns:xlink="http://www.w3.org/1999/xlink">
<path d="M117.351,58C117.351,90.033 91.244,116 59.04,116C26.836,116 0.729,90.033 0.729,58C0.729,25.967 26.836,0 59.04,0C91.244,0 117.351,25.967 117.351,58Z" fill="#D291BC" fill-opacity="0.08" stroke="#D291BC" stroke-opacity="0.16" stroke-width="2" stroke-miterlimit="3.999327"/>
<path d="M44.763,62.612C57.88,73.157 46.872,81.851 56.161,87.947C64.508,93.422 80.274,88.53 86.148,66.376C90.479,50.052 80.927,34.007 65.236,29.039C44.424,22.462 27.604,48.81 44.763,62.612ZM57.792,80.229C58.332,78.188 61.043,77.149 63.855,77.909C66.654,78.67 68.5,80.938 67.96,82.979C67.42,85.019 64.709,86.059 61.897,85.298C59.085,84.538 57.253,82.269 57.805,80.229L57.792,80.229Z" fill="#FDC00F"/>
<path d="M42.629,42.993C41.914,45.705 43.495,48.481 46.181,49.203C48.855,49.925 51.617,48.316 52.332,45.616C53.048,42.917 51.453,40.129 48.78,39.406C46.106,38.684 43.345,40.281 42.629,42.993Z" fill="#A2E2E8"/>
<path d="M52.997,35.883C52.282,38.583 53.864,41.371 56.55,42.093C59.223,42.816 61.985,41.219 62.7,38.507C63.416,35.807 61.822,33.019 59.148,32.296C56.462,31.574 53.713,33.171 52.997,35.883Z" fill="#184F78"/>
<path d="M65.336,39.888C64.621,42.6 66.203,45.376 68.889,46.098C71.563,46.821 74.324,45.224 75.04,42.512C75.755,39.812 74.161,37.024 71.487,36.301C68.814,35.579 66.052,37.189 65.336,39.888Z" fill="#FC611F"/>
<path d="M72.717,50.661C72.002,53.373 73.583,56.148 76.27,56.871C78.943,57.593 81.705,55.996 82.42,53.284C83.136,50.585 81.542,47.796 78.868,47.074C76.194,46.352 73.433,47.948 72.717,50.661Z" fill="#16B6C6"/>
<path d="M72.567,63.778C71.851,66.478 73.445,69.266 76.119,69.988C78.805,70.711 81.554,69.114 82.27,66.402C82.985,63.702 81.391,60.914 78.717,60.191C76.044,59.469 73.282,61.066 72.567,63.778Z" fill="#FFF2CF"/>
<g opacity="0.2">
<path d="M50.324,40.142C51.14,41.32 51.466,42.841 51.077,44.337C50.361,47.036 47.6,48.646 44.926,47.923C44.349,47.771 43.847,47.505 43.382,47.176C44.035,48.126 44.989,48.861 46.181,49.191C48.855,49.913 51.617,48.304 52.332,45.604C52.897,43.475 52.018,41.32 50.324,40.142Z" fill="#000000"/>
<path d="M81.165,52.017C80.45,54.716 77.688,56.326 75.014,55.603C74.437,55.451 73.935,55.185 73.471,54.868C74.123,55.819 75.077,56.554 76.27,56.871C78.943,57.593 81.705,55.996 82.42,53.284C82.985,51.155 82.107,49 80.412,47.822C81.228,49 81.567,50.521 81.165,52.017Z" fill="#000000"/>
<path d="M75.04,42.511C75.604,40.382 74.726,38.228 73.031,37.049C73.847,38.228 74.186,39.749 73.784,41.244C73.069,43.956 70.307,45.553 67.634,44.831C67.056,44.679 66.554,44.413 66.09,44.083C66.742,45.034 67.696,45.769 68.889,46.098C71.563,46.821 74.324,45.224 75.04,42.511Z" fill="#000000"/>
<path d="M60.692,33.044C61.508,34.223 61.834,35.744 61.445,37.239C60.73,39.939 57.968,41.548 55.295,40.826C54.717,40.674 54.215,40.408 53.751,40.078C54.403,41.029 55.357,41.764 56.55,42.093C59.223,42.816 61.985,41.219 62.7,38.507C63.265,36.377 62.387,34.223 60.692,33.044Z" fill="#000000"/>
<path d="M80.261,60.939C81.077,62.118 81.416,63.639 81.015,65.134C80.299,67.846 77.55,69.443 74.864,68.721C74.286,68.569 73.784,68.303 73.32,67.973C73.973,68.924 74.927,69.659 76.119,69.988C78.805,70.711 81.554,69.114 82.27,66.402C82.835,64.272 81.956,62.118 80.261,60.939Z" fill="#000000"/>
</g>
<path d="M42.78,66.199C38.198,74.221 36.064,81.648 38.022,82.788C39.98,83.929 45.29,78.353 49.872,70.33C54.453,62.308 56.587,54.881 54.629,53.74C52.671,52.6 47.361,58.176 42.78,66.186L42.78,66.199Z" fill="#184F78"/>
<path d="M35.575,81.876C36.077,81.547 36.604,81.204 37.068,81.255C42.88,82.015 39.478,91.28 33.641,89.848C33.127,89.721 32.901,89.518 32.901,89.531C32.901,89.531 33.152,89.341 33.403,88.986C33.667,88.631 33.767,88.124 33.717,87.605C33.692,87.085 33.579,86.477 33.579,85.754C33.579,85.07 33.654,84.145 34.307,83.169C34.696,82.649 35.135,82.193 35.587,81.863L35.575,81.876Z" fill="#FC611F"/>
<path d="M40.861,78.753L36.853,78.753L36.853,83.875L40.861,83.875L40.861,78.753Z" transform="rotate(-120.496 38.857 81.314)" fill="#A3B9C9"/>
<g opacity="0.3">
<path d="M33.579,89.823C33.717,89.696 33.868,89.556 34.006,89.442C34.068,89.404 34.131,89.366 34.194,89.316L34.119,89.265L37.219,83.841C38.336,78.936 41.173,72.067 45.278,64.893C47.575,60.876 49.985,57.264 52.295,54.247C49.759,55.87 46.081,60.381 42.767,66.173C40.144,70.761 38.336,75.146 37.621,78.277L35.637,81.737L35.688,81.762C35.688,81.762 35.6,81.813 35.562,81.838C35.11,82.18 34.671,82.624 34.282,83.144C33.629,84.119 33.554,85.045 33.554,85.729C33.554,86.451 33.667,87.06 33.692,87.579C33.742,88.099 33.642,88.606 33.378,88.961C33.14,89.316 32.863,89.493 32.876,89.506C32.876,89.493 33.089,89.671 33.554,89.797L33.579,89.823Z" fill="#FFFFFF"/>
</g>
</svg>
