<svg width="32" height="34" viewBox="0 0 32 34" fill="none" xmlns="http://www.w3.org/2000/svg" xmlns:xlink="http://www.w3.org/1999/xlink">
<path d="M24.234,7.104C21.208,9.76 16.132,9.621 16.132,9.621C16.132,9.621 15.971,5.173 19.008,2.517C22.034,-0.139 27.11,0 27.11,0C27.11,0 27.271,4.448 24.234,7.104Z" fill="#184F78"/>
<path d="M25.79,1.152C25.79,1.152 25.371,1.696 24.652,2.443C23.944,3.189 22.946,4.149 21.905,5.067C20.864,5.984 19.77,6.848 18.911,7.477C18.064,8.107 17.441,8.469 17.441,8.469C17.441,8.469 17.86,7.925 18.579,7.179C19.287,6.432 20.285,5.472 21.326,4.555C22.367,3.637 23.461,2.773 24.32,2.155C25.167,1.525 25.79,1.163 25.79,1.163L25.79,1.152Z" fill="#467293"/>
<path d="M16.132,9.451C4.36,6.432 -1.026,14.155 1.152,22.56C2.858,29.173 8.814,35.157 16.132,33.312C23.461,35.157 29.406,29.173 31.112,22.56C33.28,14.155 27.904,6.432 16.132,9.451Z" fill="#FC611F"/>
<g opacity="0.3">
<path d="M9.544,32.864C9.479,32.203 9.447,31.52 9.447,30.837C9.447,20.981 15.606,12.565 24.309,9.163C22.077,8.597 19.351,8.619 16.143,9.44C4.371,6.421 -1.016,14.144 1.163,22.549C2.322,27.019 5.412,31.189 9.554,32.864L9.544,32.864Z" fill="#FFFFFF"/>
</g>
</svg>
