<svg width="118" height="116" viewBox="0 0 118 116" fill="none" xmlns="http://www.w3.org/2000/svg" xmlns:xlink="http://www.w3.org/1999/xlink">
<path d="M117.351,58C117.351,90.033 91.244,116 59.04,116C26.836,116 0.729,90.033 0.729,58C0.729,25.967 26.836,0 59.04,0C91.244,0 117.351,25.967 117.351,58Z" fill="#F66967" fill-opacity="0.05" stroke="#F66967" stroke-opacity="0.05" stroke-width="2" stroke-miterlimit="3.999327"/>
<path d="M58.995,34.98C48.349,34.98 39.716,43.575 39.716,54.183C39.716,59.51 41.895,64.329 45.419,67.809C46.93,69.305 48.683,71.927 49.017,74.022L49.685,78.204L68.325,78.204L68.992,74.013C69.326,71.917 71.079,69.295 72.59,67.8C76.114,64.319 78.294,59.5 78.294,54.173C78.294,43.575 69.651,34.971 58.995,34.971L58.995,34.98Z" fill="#67E9F5"/>
<path d="M62.473,79.746C62.046,79.746 61.703,79.404 61.703,78.98C61.703,78.5 61.777,66.969 68.473,51.21C68.64,50.822 69.094,50.638 69.484,50.804C69.873,50.97 70.059,51.422 69.892,51.81C63.317,67.292 63.243,78.869 63.243,78.989C63.243,79.414 62.9,79.755 62.473,79.755L62.473,79.746Z" fill="#FDC00F"/>
<path d="M55.546,79.746C55.119,79.746 54.776,79.395 54.776,78.98C54.776,78.869 54.692,67.255 48.127,51.801C47.96,51.413 48.145,50.961 48.535,50.795C48.924,50.628 49.379,50.813 49.546,51.201C56.241,66.969 56.315,78.49 56.315,78.97C56.315,79.395 55.972,79.737 55.546,79.737L55.546,79.746Z" fill="#FDC00F"/>
<path d="M68.38,53.13C67.045,53.13 66.359,52.401 65.756,51.764C65.19,51.164 64.699,50.647 63.697,50.647C62.696,50.647 62.204,51.164 61.638,51.764C61.036,52.401 60.349,53.13 59.014,53.13C57.679,53.13 56.992,52.401 56.389,51.764C55.824,51.164 55.332,50.647 54.321,50.647C53.311,50.647 52.828,51.164 52.253,51.764C51.651,52.401 50.964,53.13 49.629,53.13C49.416,53.13 49.24,52.955 49.24,52.742C49.24,52.53 49.416,52.355 49.629,52.355C50.631,52.355 51.122,51.838 51.697,51.238C52.3,50.601 52.986,49.871 54.321,49.871C55.657,49.871 56.343,50.601 56.946,51.238C57.512,51.838 58.003,52.355 59.014,52.355C60.025,52.355 60.507,51.838 61.073,51.238C61.675,50.601 62.362,49.871 63.697,49.871C65.032,49.871 65.719,50.601 66.321,51.238C66.887,51.838 67.379,52.355 68.38,52.355C68.594,52.355 68.77,52.53 68.77,52.742C68.77,52.955 68.594,53.13 68.38,53.13Z" fill="#FDC00F"/>
<path d="M64.467,92.274L53.552,92.274C51.419,92.274 49.694,90.547 49.694,88.424L49.694,78.213L68.334,78.213L68.334,88.424C68.334,90.547 66.609,92.274 64.467,92.274Z" fill="#E1E1E1"/>
<path d="M49.685,86.642L49.685,88.424C49.685,88.784 49.75,89.125 49.842,89.458L68.167,89.458C68.26,89.125 68.325,88.784 68.325,88.424L68.325,86.642L49.685,86.642Z" fill="#F15B67"/>
<rect  x="49.685" y="81.02" width="18.64" height="2.816" fill="#F15B67"/>
<path d="M59.005,94C60.915,94 62.473,93.225 62.473,92.274L55.546,92.274C55.546,93.225 57.094,94 59.005,94Z" fill="#FDC00F"/>
<path d="M59.005,28.878C58.495,28.878 58.077,28.462 58.077,27.955L58.077,22.923C58.077,22.415 58.495,22 59.005,22C59.515,22 59.932,22.415 59.932,22.923L59.932,27.955C59.932,28.462 59.515,28.878 59.005,28.878Z" fill="#FDC00F"/>
<path d="M45.493,32.478C45.168,32.478 44.862,32.312 44.686,32.017L42.164,27.659C41.904,27.216 42.062,26.653 42.507,26.394C42.952,26.136 43.518,26.293 43.777,26.736L46.3,31.093C46.56,31.537 46.402,32.1 45.957,32.358C45.808,32.441 45.651,32.478 45.493,32.478Z" fill="#FDC00F"/>
<path d="M35.607,42.32C35.45,42.32 35.292,42.283 35.144,42.2L30.767,39.689C30.321,39.43 30.173,38.867 30.423,38.424C30.674,37.981 31.249,37.833 31.694,38.082L36.071,40.593C36.516,40.852 36.665,41.415 36.414,41.858C36.238,42.153 35.932,42.32 35.607,42.32Z" fill="#FDC00F"/>
<path d="M31.981,55.77L26.927,55.77C26.417,55.77 26,55.355 26,54.847C26,54.34 26.417,53.924 26.927,53.924L31.981,53.924C32.491,53.924 32.909,54.34 32.909,54.847C32.909,55.355 32.491,55.77 31.981,55.77Z" fill="#FDC00F"/>
<path d="M31.221,71.732C30.896,71.732 30.59,71.566 30.414,71.271C30.155,70.828 30.312,70.265 30.757,70.006L35.134,67.495C35.58,67.236 36.145,67.393 36.405,67.837C36.665,68.28 36.507,68.843 36.062,69.101L31.685,71.612C31.536,71.695 31.379,71.732 31.221,71.732Z" fill="#FDC00F"/>
<path d="M86.77,71.742C86.612,71.742 86.454,71.705 86.306,71.622L81.929,69.101C81.484,68.843 81.335,68.28 81.586,67.837C81.845,67.393 82.411,67.246 82.856,67.495L87.233,70.015C87.678,70.274 87.827,70.837 87.576,71.28C87.4,71.576 87.094,71.742 86.77,71.742Z" fill="#FDC00F"/>
<path d="M91.073,55.78L86.019,55.78C85.508,55.78 85.091,55.364 85.091,54.857C85.091,54.349 85.508,53.933 86.019,53.933L91.073,53.933C91.583,53.933 92,54.349 92,54.857C92,55.364 91.583,55.78 91.073,55.78Z" fill="#FDC00F"/>
<path d="M82.402,42.329C82.077,42.329 81.771,42.163 81.595,41.867C81.335,41.424 81.493,40.861 81.938,40.602L86.315,38.091C86.76,37.833 87.326,37.99 87.586,38.433C87.845,38.876 87.688,39.439 87.243,39.698L82.866,42.209C82.717,42.292 82.56,42.329 82.402,42.329Z" fill="#FDC00F"/>
<path d="M72.507,32.488C72.349,32.488 72.192,32.451 72.043,32.368C71.598,32.109 71.45,31.546 71.7,31.103L74.232,26.745C74.491,26.302 75.057,26.154 75.502,26.404C75.947,26.662 76.096,27.225 75.845,27.668L73.314,32.026C73.138,32.321 72.832,32.488 72.507,32.488Z" fill="#FDC00F"/>
<g opacity="0.3">
<path d="M44.009,54.09C47.079,57.146 52.68,56.528 56.519,52.696C60.359,48.874 60.989,43.298 57.92,40.242C54.85,37.187 49.249,37.814 45.41,41.636C41.57,45.458 40.94,51.035 44.009,54.09Z" fill="#FFFFFF"/>
</g>
<g opacity="0.3">
<path d="M57.456,59.297C58.606,60.442 60.702,60.211 62.139,58.78C63.576,57.349 63.808,55.263 62.658,54.118C61.508,52.973 59.413,53.204 57.975,54.635C56.538,56.066 56.306,58.152 57.456,59.297Z" fill="#FFFFFF"/>
</g>
<g opacity="0.2">
<path d="M50.612,78.98L67.397,78.98C67.907,78.98 68.325,78.638 68.325,78.213L49.685,78.213C49.685,78.213 50.102,78.98 50.612,78.98Z" fill="#000000"/>
</g>
<g opacity="0.2">
<path d="M55.926,93.04L62.093,93.04C62.325,92.809 62.473,92.551 62.473,92.274L55.546,92.274C55.546,92.551 55.694,92.809 55.926,93.04Z" fill="#000000"/>
</g>
</svg>
