<svg width="22" height="22" viewBox="0 0 22 22" fill="none" xmlns="http://www.w3.org/2000/svg" xmlns:xlink="http://www.w3.org/1999/xlink">
<path d="M18.7,2.692C18.7,3.461 18.077,4.085 17.308,4.085L17.308,5.685C18.96,5.685 20.3,4.345 20.3,2.692L18.7,2.692ZM17.308,4.085C16.539,4.085 15.915,3.461 15.915,2.692L14.315,2.692C14.315,4.345 15.655,5.685 17.308,5.685L17.308,4.085ZM15.915,2.692C15.915,1.923 16.539,1.3 17.308,1.3L17.308,-0.3C15.655,-0.3 14.315,1.04 14.315,2.692L15.915,2.692ZM17.308,1.3C18.077,1.3 18.7,1.923 18.7,2.692L20.3,2.692C20.3,1.04 18.96,-0.3 17.308,-0.3L17.308,1.3ZM18.7,17.308C18.7,18.077 18.077,18.7 17.308,18.7L17.308,20.3C18.96,20.3 20.3,18.96 20.3,17.308L18.7,17.308ZM17.308,18.7C16.539,18.7 15.915,18.077 15.915,17.308L14.315,17.308C14.315,18.96 15.655,20.3 17.308,20.3L17.308,18.7ZM15.915,17.308C15.915,16.539 16.539,15.915 17.308,15.915L17.308,14.315C15.655,14.315 14.315,15.655 14.315,17.308L15.915,17.308ZM17.308,15.915C18.077,15.915 18.7,16.539 18.7,17.308L20.3,17.308C20.3,15.655 18.96,14.315 17.308,14.315L17.308,15.915ZM4.085,2.692C4.085,3.461 3.461,4.085 2.692,4.085L2.692,5.685C4.345,5.685 5.685,4.345 5.685,2.692L4.085,2.692ZM2.692,4.085C1.923,4.085 1.3,3.461 1.3,2.692L-0.3,2.692C-0.3,4.345 1.04,5.685 2.692,5.685L2.692,4.085ZM1.3,2.692C1.3,1.923 1.923,1.3 2.692,1.3L2.692,-0.3C1.04,-0.3 -0.3,1.04 -0.3,2.692L1.3,2.692ZM2.692,1.3C3.461,1.3 4.085,1.923 4.085,2.692L5.685,2.692C5.685,1.04 4.345,-0.3 2.692,-0.3L2.692,1.3ZM4.085,17.308C4.085,18.077 3.461,18.7 2.692,18.7L2.692,20.3C4.345,20.3 5.685,18.96 5.685,17.308L4.085,17.308ZM2.692,18.7C1.923,18.7 1.3,18.077 1.3,17.308L-0.3,17.308C-0.3,18.96 1.04,20.3 2.692,20.3L2.692,18.7ZM1.3,17.308C1.3,16.539 1.923,15.915 2.692,15.915L2.692,14.315C1.04,14.315 -0.3,15.655 -0.3,17.308L1.3,17.308ZM2.692,15.915C3.461,15.915 4.085,16.539 4.085,17.308L5.685,17.308C5.685,15.655 4.345,14.315 2.692,14.315L2.692,15.915ZM4.885,18.108L15.115,18.108L15.115,16.508L4.885,16.508L4.885,18.108ZM4.885,3.492L15.115,3.492L15.115,1.892L4.885,1.892L4.885,3.492ZM1.892,4.885L1.892,15.115L3.492,15.115L3.492,4.885L1.892,4.885ZM16.508,4.885L16.508,15.115L18.108,15.115L18.108,4.885L16.508,4.885Z" fill="#9E3840"/>
</svg>
