<svg width="32" height="32" viewBox="0 0 32 32" fill="none" xmlns="http://www.w3.org/2000/svg" xmlns:xlink="http://www.w3.org/1999/xlink">
<path d="M29.25,5.038C29.25,6.302 28.225,7.327 26.962,7.327L26.962,9.327C29.33,9.327 31.25,7.407 31.25,5.038L29.25,5.038ZM26.962,7.327C25.698,7.327 24.673,6.302 24.673,5.038L22.673,5.038C22.673,7.407 24.593,9.327 26.962,9.327L26.962,7.327ZM24.673,5.038C24.673,3.775 25.698,2.75 26.962,2.75L26.962,0.75C24.593,0.75 22.673,2.67 22.673,5.038L24.673,5.038ZM26.962,2.75C28.225,2.75 29.25,3.775 29.25,5.038L31.25,5.038C31.25,2.67 29.33,0.75 26.962,0.75L26.962,2.75ZM29.25,26.962C29.25,28.225 28.225,29.25 26.962,29.25L26.962,31.25C29.33,31.25 31.25,29.33 31.25,26.962L29.25,26.962ZM26.962,29.25C25.698,29.25 24.673,28.225 24.673,26.962L22.673,26.962C22.673,29.33 24.593,31.25 26.962,31.25L26.962,29.25ZM24.673,26.962C24.673,25.698 25.698,24.673 26.962,24.673L26.962,22.673C24.593,22.673 22.673,24.593 22.673,26.962L24.673,26.962ZM26.962,24.673C28.225,24.673 29.25,25.698 29.25,26.962L31.25,26.962C31.25,24.593 29.33,22.673 26.962,22.673L26.962,24.673ZM7.327,5.038C7.327,6.302 6.302,7.327 5.038,7.327L5.038,9.327C7.407,9.327 9.327,7.407 9.327,5.038L7.327,5.038ZM5.038,7.327C3.775,7.327 2.75,6.302 2.75,5.038L0.75,5.038C0.75,7.407 2.67,9.327 5.038,9.327L5.038,7.327ZM2.75,5.038C2.75,3.775 3.775,2.75 5.038,2.75L5.038,0.75C2.67,0.75 0.75,2.67 0.75,5.038L2.75,5.038ZM5.038,2.75C6.302,2.75 7.327,3.775 7.327,5.038L9.327,5.038C9.327,2.67 7.407,0.75 5.038,0.75L5.038,2.75ZM7.327,26.962C7.327,28.225 6.302,29.25 5.038,29.25L5.038,31.25C7.407,31.25 9.327,29.33 9.327,26.962L7.327,26.962ZM5.038,29.25C3.775,29.25 2.75,28.225 2.75,26.962L0.75,26.962C0.75,29.33 2.67,31.25 5.038,31.25L5.038,29.25ZM2.75,26.962C2.75,25.698 3.775,24.673 5.038,24.673L5.038,22.673C2.67,22.673 0.75,24.593 0.75,26.962L2.75,26.962ZM5.038,24.673C6.302,24.673 7.327,25.698 7.327,26.962L9.327,26.962C9.327,24.593 7.407,22.673 5.038,22.673L5.038,24.673ZM8.327,27.962L23.673,27.962L23.673,25.962L8.327,25.962L8.327,27.962ZM8.327,6.038L23.673,6.038L23.673,4.038L8.327,4.038L8.327,6.038ZM4.038,8.327L4.038,23.673L6.038,23.673L6.038,8.327L4.038,8.327ZM25.962,8.327L25.962,23.673L27.962,23.673L27.962,8.327L25.962,8.327Z" fill="#FFFFFF"/>
</svg>
