<svg width="22" height="22" viewBox="0 0 22 22" fill="none" xmlns="http://www.w3.org/2000/svg" xmlns:xlink="http://www.w3.org/1999/xlink">
<path d="M18.5,2.692C18.5,3.351 17.966,3.885 17.308,3.885L17.308,5.885C19.071,5.885 20.5,4.455 20.5,2.692L18.5,2.692ZM17.308,3.885C16.649,3.885 16.115,3.351 16.115,2.692L14.115,2.692C14.115,4.455 15.545,5.885 17.308,5.885L17.308,3.885ZM16.115,2.692C16.115,2.034 16.649,1.5 17.308,1.5L17.308,-0.5C15.545,-0.5 14.115,0.929 14.115,2.692L16.115,2.692ZM17.308,1.5C17.966,1.5 18.5,2.034 18.5,2.692L20.5,2.692C20.5,0.929 19.071,-0.5 17.308,-0.5L17.308,1.5ZM18.5,17.308C18.5,17.966 17.966,18.5 17.308,18.5L17.308,20.5C19.071,20.5 20.5,19.071 20.5,17.308L18.5,17.308ZM17.308,18.5C16.649,18.5 16.115,17.966 16.115,17.308L14.115,17.308C14.115,19.071 15.545,20.5 17.308,20.5L17.308,18.5ZM16.115,17.308C16.115,16.649 16.649,16.115 17.308,16.115L17.308,14.115C15.545,14.115 14.115,15.545 14.115,17.308L16.115,17.308ZM17.308,16.115C17.966,16.115 18.5,16.649 18.5,17.308L20.5,17.308C20.5,15.545 19.071,14.115 17.308,14.115L17.308,16.115ZM3.885,2.692C3.885,3.351 3.351,3.885 2.692,3.885L2.692,5.885C4.455,5.885 5.885,4.455 5.885,2.692L3.885,2.692ZM2.692,3.885C2.034,3.885 1.5,3.351 1.5,2.692L-0.5,2.692C-0.5,4.455 0.929,5.885 2.692,5.885L2.692,3.885ZM1.5,2.692C1.5,2.034 2.034,1.5 2.692,1.5L2.692,-0.5C0.929,-0.5 -0.5,0.929 -0.5,2.692L1.5,2.692ZM2.692,1.5C3.351,1.5 3.885,2.034 3.885,2.692L5.885,2.692C5.885,0.929 4.455,-0.5 2.692,-0.5L2.692,1.5ZM3.885,17.308C3.885,17.966 3.351,18.5 2.692,18.5L2.692,20.5C4.455,20.5 5.885,19.071 5.885,17.308L3.885,17.308ZM2.692,18.5C2.034,18.5 1.5,17.966 1.5,17.308L-0.5,17.308C-0.5,19.071 0.929,20.5 2.692,20.5L2.692,18.5ZM1.5,17.308C1.5,16.649 2.034,16.115 2.692,16.115L2.692,14.115C0.929,14.115 -0.5,15.545 -0.5,17.308L1.5,17.308ZM2.692,16.115C3.351,16.115 3.885,16.649 3.885,17.308L5.885,17.308C5.885,15.545 4.455,14.115 2.692,14.115L2.692,16.115ZM4.885,18.308L15.115,18.308L15.115,16.308L4.885,16.308L4.885,18.308ZM4.885,3.692L15.115,3.692L15.115,1.692L4.885,1.692L4.885,3.692ZM1.692,4.885L1.692,15.115L3.692,15.115L3.692,4.885L1.692,4.885ZM16.308,4.885L16.308,15.115L18.308,15.115L18.308,4.885L16.308,4.885Z" fill="#FFFFFF"/>
</svg>
