<svg width="32" height="40" viewBox="0 0 32 40" fill="none" xmlns="http://www.w3.org/2000/svg" xmlns:xlink="http://www.w3.org/1999/xlink">
<path d="M-0.8,29.337L2.789,39.461C2.916,39.822 3.319,40.056 3.692,39.988L14.166,38.06L16.584,33.834L1.617,25.104L-0.8,29.329L-0.8,29.337Z" fill="#FEDFD2"/>
<path d="M5.683,35.445C4.363,34.676 2.759,34.737 1.371,35.46L2.789,39.46C2.915,39.821 3.318,40.055 3.691,39.987L7.825,39.226C7.75,37.652 7.011,36.221 5.683,35.452L5.683,35.445Z" fill="#6927FF"/>
<path d="M5.407,28.606L-0.8,29.337L12.234,6.543L16.576,9.074L5.407,28.606Z" fill="#FDC00F"/>
<path d="M11.69,32.267L6.684,33.699L5.408,28.606L16.577,9.074L22.859,12.735L11.69,32.267Z" fill="#FD814C"/>
<path d="M14.166,38.059L11.689,32.267L22.858,12.734L27.2,15.265L14.166,38.059Z" fill="#FDA079"/>
<path d="M21.606,1.14L19.081,1.14L19.081,18.469L21.606,18.469L21.606,1.14Z" transform="rotate(-120.475 20.343 9.804)" fill="#D1DCE4"/>
<path d="M29.968,7.417L17.583,0.201C16.867,-0.214 15.957,0.035 15.546,0.751L13.487,4.351L28.453,13.074L30.513,9.473C30.923,8.75 30.677,7.831 29.968,7.417Z" fill="#6927FF"/>
</svg>
