<svg width="52" height="68" viewBox="0 0 52 68" fill="none" xmlns="http://www.w3.org/2000/svg" xmlns:xlink="http://www.w3.org/1999/xlink">
<path d="M0,48.413L5.921,65.118C6.131,65.714 6.795,66.1 7.411,65.988L24.695,62.806L28.684,55.833L3.989,41.427L0,48.4L0,48.413Z" fill="#FEDFD2"/>
<path d="M10.698,58.493C8.519,57.225 5.872,57.324 3.583,58.518L5.922,65.118C6.131,65.714 6.796,66.1 7.411,65.988L14.231,64.732C14.108,62.135 12.889,59.773 10.698,58.505L10.698,58.493Z" fill="#6927FF"/>
<path d="M10.242,47.207L0,48.413L21.507,10.801L28.671,14.978L10.242,47.207Z" fill="#FDC00F"/>
<path d="M20.608,53.248L12.347,55.609L10.242,47.207L28.671,14.978L39.037,21.018L20.608,53.248Z" fill="#FD814C"/>
<path d="M24.695,62.806L20.608,53.247L39.037,21.018L46.202,25.194L24.695,62.806Z" fill="#FDA079"/>
<path d="M36.971,1.886L32.805,1.886L32.805,30.479L36.971,30.479L36.971,1.886Z" transform="rotate(-120.475 34.888 16.182)" fill="#D1DCE4"/>
<path d="M50.769,12.243L30.333,0.336C29.151,-0.348 27.65,0.062 26.972,1.243L23.575,7.184L48.27,21.577L51.668,15.636C52.345,14.443 51.938,12.927 50.769,12.243Z" fill="#6927FF"/>
</svg>
