<svg width="116" height="116" viewBox="0 0 116 116" fill="none" xmlns="http://www.w3.org/2000/svg" xmlns:xlink="http://www.w3.org/1999/xlink">
<path d="M115.732,58C115.732,90.033 89.625,116 57.421,116C25.217,116 -0.89,90.033 -0.89,58C-0.89,25.967 25.217,0 57.421,0C89.625,0 115.732,25.967 115.732,58Z" fill="#82B5CA" fill-opacity="0.08" stroke="#82B5CA" stroke-opacity="0.16" stroke-width="2" stroke-miterlimit="3.999327"/>
<rect  x="38.274" y="84.232" width="44.828" height="5.767" fill="#D1DCE4"/>
<path d="M31.281,72.411L37.234,89.116C37.445,89.713 38.113,90.098 38.732,89.986L56.109,86.804L60.119,79.831L35.291,65.426L31.281,72.399L31.281,72.411Z" fill="#FEDFD2"/>
<path d="M42.036,82.491C39.846,81.223 37.185,81.323 34.883,82.516L37.234,89.116C37.445,89.713 38.113,90.098 38.732,89.986L45.589,88.731C45.465,86.133 44.24,83.771 42.036,82.504L42.036,82.491Z" fill="#F15B67"/>
<path d="M41.579,71.206L31.281,72.412L52.903,34.801L60.106,38.977L41.579,71.206Z" fill="#FDC00F"/>
<path d="M52,77.247L43.695,79.608L41.579,71.206L60.106,38.977L70.528,45.017L52,77.247Z" fill="#FD814C"/>
<path d="M56.109,86.805L52,77.247L70.527,45.018L77.731,49.194L56.109,86.805Z" fill="#FDA079"/>
<path d="M68.442,25.827L64.27,25.827L64.27,54.534L68.442,54.534L68.442,25.827Z" transform="rotate(-120.211 66.356 40.18)" fill="#D1DCE4"/>
<path d="M82.322,36.242L61.777,24.335C60.589,23.651 59.079,24.062 58.398,25.242L54.982,31.184L79.81,45.577L83.226,39.636C83.907,38.442 83.498,36.926 82.322,36.242Z" fill="#F15B67"/>
</svg>
