<svg width="326" height="326" viewBox="0 0 326 326" fill="none" xmlns="http://www.w3.org/2000/svg" xmlns:xlink="http://www.w3.org/1999/xlink">
<path d="M158,2.887C161.094,1.1 164.906,1.1 168,2.887L299.162,78.613C302.256,80.4 304.162,83.701 304.162,87.274L304.162,238.726C304.162,242.3 302.256,245.6 299.162,247.386L168,323.114C164.906,324.9 161.094,324.9 158,323.114L26.838,247.386C23.744,245.6 21.838,242.3 21.838,238.726L21.838,87.273C21.838,83.701 23.744,80.4 26.838,78.613L158,2.887Z" stroke="#DFDFDF" stroke-width="2" stroke-miterlimit="3.999327"/>
<path d="M159,30.748C162.094,28.962 165.906,28.962 169,30.748L273.316,90.975C276.41,92.761 278.316,96.062 278.316,99.635L278.316,220.088C278.316,223.661 276.41,226.962 273.316,228.747L169,288.975C165.906,290.761 162.094,290.761 159,288.975L54.685,228.747C51.591,226.962 49.685,223.661 49.685,220.088L49.685,99.635C49.685,96.062 51.591,92.761 54.685,90.975L159,30.748Z" stroke="#DFDFDF" stroke-width="2" stroke-miterlimit="3.999327"/>
<path d="M159,68.748C162.094,66.962 165.906,66.962 169,68.748L242.138,110.975C245.232,112.761 247.138,116.062 247.138,119.635L247.138,204.088C247.138,207.661 245.232,210.962 242.138,212.748L169,254.975C165.906,256.761 162.094,256.761 159,254.975L85.862,212.748C82.768,210.962 80.862,207.661 80.862,204.088L80.862,119.635C80.862,116.062 82.768,112.761 85.862,110.975L159,68.748Z" stroke="#DFDFDF" stroke-width="2" stroke-miterlimit="3.999327"/>
<path d="M159,108.749C162.094,106.963 165.906,106.963 169,108.749L210.962,132.976C214.056,134.762 215.962,138.063 215.962,141.636L215.962,190.089C215.962,193.662 214.056,196.963 210.962,198.749L169,222.976C165.906,224.762 162.094,224.762 159,222.976L117.038,198.749C113.944,196.963 112.038,193.662 112.038,190.089L112.038,141.636C112.038,138.063 113.944,134.762 117.038,132.976L159,108.749Z" stroke="#DFDFDF" stroke-width="2" stroke-miterlimit="3.999327"/>
<line x1="164" y1="1.861" x2="164" y2="323.861" stroke="#DFDFDF" stroke-width="2" stroke-miterlimit="3.999327"/>
<line x1="23.005" y1="84.967" x2="301.378" y2="245.127" stroke="#DFDFDF" stroke-width="2" stroke-miterlimit="3.999327"/>
<line x1="21.086" y1="243.732" x2="299.458" y2="83.572" stroke="#DFDFDF" stroke-width="2" stroke-miterlimit="3.999327"/>
</svg>
