<svg width="84" height="76" viewBox="0 0 84 76" fill="none" xmlns="http://www.w3.org/2000/svg" xmlns:xlink="http://www.w3.org/1999/xlink">
<path d="M46.711,18.28C47.303,7.6 56.064,-0.58 66.258,0.04C76.47,0.66 84.277,9.82 83.685,20.52C83.093,31.22 74.332,39.4 64.139,38.78C53.927,38.16 46.119,28.98 46.711,18.3Z" fill="#EF85B4"/>
<path d="M4.603,31.26C4.908,25.56 9.585,21.18 15.044,21.5C20.484,21.82 24.665,26.72 24.34,32.44C24.035,38.14 19.358,42.52 13.918,42.18C8.459,41.84 4.297,36.96 4.603,31.24Z" fill="#EF85B4"/>
<path d="M-0.131,70.02C0.022,67.22 2.331,65.06 5.004,65.22C7.695,65.38 9.738,67.8 9.585,70.6C9.432,73.42 7.122,75.56 4.431,75.4C1.74,75.24 -0.303,72.82 -0.15,70.02Z" fill="#EF85B4"/>
</svg>
