<svg width="40" height="84" viewBox="0 0 40 84" fill="none" xmlns="http://www.w3.org/2000/svg" xmlns:xlink="http://www.w3.org/1999/xlink">
<path d="M26.439,10.819C29.482,9.879 33.554,11.528 38.423,15.185C38.545,15.276 38.716,15.169 38.687,15.02C38.004,11.507 36.24,8.673 32.723,6.939C33.752,6.272 35.036,6.858 36.399,7.837C36.542,7.939 36.727,7.778 36.643,7.623C34.846,4.323 32.178,2.482 28.369,2.55C28.421,1.788 29.282,1.28 30.484,0.88C30.66,0.821 30.623,0.563 30.438,0.555C24.164,0.283 20.826,3.435 19.9,9.397L26.44,10.819L26.439,10.819Z" fill="#353842"/>
<path d="M19.317,11.238C21.765,11.288 24.169,11.753 26.52,12.708L26.438,10.819C24.363,10.07 22.179,9.606 19.899,9.396L19.317,11.238Z" fill="#6927FF"/>
<path d="M5.973,79.394L5.486,77.322C5.482,76.715 5.52,76.107 5.597,75.505C6.213,70.694 7.25,66.127 8.841,61.88L5.608,59.982C4.451,64.23 3.503,72.605 3.216,75.31C3.156,75.871 3.128,76.434 3.132,76.997C2.97,78.708 2.437,80.225 2.533,81.254C2.553,81.47 2.653,81.672 2.813,81.827L3.451,82.447C3.572,82.977 3.868,83.288 4.49,83.192C4.732,83.573 4.958,83.892 5.179,83.984C5.244,84.012 5.317,83.965 5.308,83.899C5.229,83.275 4.858,80.297 4.989,80.281C5.428,80.23 5.465,81.942 5.813,81.9C6.098,81.865 6.055,80.346 6.029,79.785C6.022,79.653 6.004,79.522 5.974,79.393L5.973,79.394Z" fill="#FBD3A8"/>
<path d="M30.638,79.394L31.125,77.322C31.129,76.715 31.091,76.107 31.014,75.505C30.398,70.694 29.362,66.127 27.771,61.88L31.003,59.982C32.161,64.23 33.109,72.605 33.396,75.31C33.455,75.871 33.483,76.434 33.48,76.997C33.641,78.708 34.174,80.225 34.078,81.254C34.058,81.47 33.959,81.672 33.798,81.827L33.16,82.447C33.04,82.977 32.743,83.288 32.121,83.192C31.879,83.573 31.653,83.892 31.433,83.984C31.367,84.012 31.294,83.965 31.303,83.899C31.382,83.275 31.753,80.297 31.622,80.281C31.183,80.23 31.146,81.942 30.798,81.9C30.514,81.865 30.556,80.346 30.583,79.785C30.589,79.653 30.607,79.522 30.637,79.393L30.638,79.394Z" fill="#FBD3A8"/>
<path d="M21.416,48.267L15.127,48.267C15.179,50.82 14.824,52.427 14.449,53.433C14.308,53.812 14.419,54.238 14.721,54.508C16.096,55.736 20.2,56.176 21.87,54.375C22.12,54.104 22.196,53.717 22.071,53.37C21.705,52.361 21.365,50.767 21.416,48.266L21.416,48.267Z" fill="#FBD3A8"/>
<g opacity="0.35">
<path d="M15.33,48.609L21.261,48.65L21.362,50.378C20.42,51.765 15.86,51.706 15.159,50.313L15.33,48.61L15.33,48.609Z" fill="#F8A364"/>
</g>
<path d="M4.449,41.68C1.74,41.68 0.011,38.073 0.853,35.745C1.056,35.182 1.459,34.702 2.008,34.467C2.989,34.047 3.873,34.564 4.449,34.95L4.449,41.68Z" fill="#FBD3A8"/>
<path d="M3.508,40.207C1.813,39.847 1.074,35.731 3.177,36.001L4.379,36.136L4.379,40.357L3.508,40.207L3.508,40.207Z" fill="#FBBD89"/>
<path d="M4.325,36.307C4.053,36.209 3.778,36.123 3.498,36.076C3.219,36.035 2.929,36.024 2.671,36.119C2.414,36.21 2.199,36.414 2.081,36.679C1.961,36.942 1.912,37.239 1.892,37.535C1.882,37.239 1.899,36.936 1.996,36.645C2.09,36.354 2.309,36.09 2.6,35.952C2.892,35.811 3.217,35.792 3.526,35.807C3.835,35.828 4.136,35.889 4.433,35.964L4.324,36.307L4.325,36.307Z" fill="#603813"/>
<path d="M32.184,41.68C34.893,41.68 36.622,38.073 35.78,35.745C35.577,35.182 35.174,34.702 34.625,34.467C33.644,34.047 32.76,34.564 32.184,34.95L32.184,41.68Z" fill="#FBD3A8"/>
<path d="M33.126,40.207C34.82,39.847 35.559,35.731 33.457,36.001L32.255,36.136L32.255,40.357L33.126,40.207L33.126,40.207Z" fill="#FBBD89"/>
<path d="M32.199,35.965C32.496,35.891 32.797,35.829 33.107,35.809C33.415,35.795 33.74,35.814 34.032,35.954C34.323,36.092 34.542,36.356 34.636,36.646C34.734,36.937 34.75,37.24 34.74,37.536C34.721,37.24 34.672,36.944 34.552,36.68C34.434,36.416 34.219,36.212 33.961,36.12C33.703,36.026 33.413,36.036 33.135,36.077C32.854,36.124 32.579,36.211 32.308,36.308L32.198,35.965L32.199,35.965Z" fill="#603813"/>
<path d="M32.219,21.549L4.596,21.549C0.848,38.623 3.54,49.851 18.218,50.203L18.597,50.203C33.274,49.851 35.968,38.622 32.22,21.549L32.219,21.549Z" fill="#FBD3A8"/>
<path d="M18.126,39.98C18.185,39.992 18.244,39.978 18.302,39.961C19.37,39.648 19.525,40.845 18.665,40.953C17.845,41.029 17.413,40.751 17.149,40.396C17.005,40.202 17.117,39.912 17.357,39.881C17.573,39.853 17.854,39.925 18.126,39.979L18.126,39.98Z" fill="#F8A364"/>
<path d="M12.328,38.057C13.008,38.057 13.558,37.178 13.558,36.094C13.558,35.01 13.008,34.131 12.328,34.131C11.649,34.131 11.099,35.01 11.099,36.094C11.099,37.178 11.649,38.057 12.328,38.057Z" fill="#4D4E4E"/>
<path d="M12.454,35.995C12.758,35.995 13.004,35.69 13.004,35.315C13.004,34.939 12.758,34.635 12.454,34.635C12.15,34.635 11.904,34.939 11.904,35.315C11.904,35.69 12.15,35.995 12.454,35.995Z" fill="#FFFFFF"/>
<path d="M11.587,32.547C11.642,32.533 11.699,32.527 11.755,32.533C12.463,32.59 13.203,32.595 13.203,32.035C13.203,31.043 10.608,31.383 10.608,32.345C10.685,32.719 10.994,32.696 11.587,32.547Z" fill="#4D4E4E"/>
<path d="M10.969,33.832C11.088,34.065 11.067,34.313 10.924,34.387C10.78,34.461 10.566,34.332 10.447,34.099C10.328,33.866 10.349,33.618 10.493,33.544C10.637,33.471 10.85,33.599 10.969,33.832Z" fill="#EF8971"/>
<path d="M10.042,36.105C10.302,36.083 10.502,35.934 10.487,35.773C10.472,35.612 10.251,35.5 9.99,35.522C9.73,35.545 9.53,35.694 9.545,35.855C9.56,36.016 9.781,36.128 10.042,36.105Z" fill="#EF8971"/>
<path d="M10.226,34.557C10.474,34.636 10.637,34.825 10.587,34.979C10.537,35.133 10.297,35.194 10.047,35.114C9.799,35.034 9.636,34.845 9.686,34.691C9.735,34.537 9.976,34.477 10.226,34.557Z" fill="#EF8971"/>
<path d="M23.825,38.057C24.505,38.057 25.055,37.178 25.055,36.094C25.055,35.01 24.505,34.131 23.825,34.131C23.146,34.131 22.596,35.01 22.596,36.094C22.596,37.178 23.146,38.057 23.825,38.057Z" fill="#4D4E4E"/>
<path d="M23.149,35.315C23.149,35.69 23.395,35.995 23.699,35.995C24.003,35.995 24.249,35.69 24.249,35.315C24.249,34.939 24.003,34.635 23.699,34.635C23.395,34.635 23.149,34.939 23.149,35.315Z" fill="#FFFFFF"/>
<path d="M24.567,32.547C24.512,32.533 24.455,32.527 24.399,32.533C23.691,32.59 22.951,32.595 22.951,32.035C22.951,31.043 25.545,31.383 25.545,32.345C25.468,32.719 25.159,32.696 24.567,32.547Z" fill="#4D4E4E"/>
<path d="M25.186,33.832C25.067,34.065 25.088,34.313 25.231,34.387C25.375,34.461 25.588,34.332 25.707,34.099C25.826,33.866 25.805,33.618 25.662,33.544C25.517,33.471 25.305,33.599 25.186,33.832Z" fill="#EF8971"/>
<path d="M26.112,36.105C25.852,36.083 25.652,35.934 25.667,35.773C25.682,35.612 25.903,35.5 26.164,35.522C26.424,35.545 26.624,35.694 26.609,35.855C26.595,36.016 26.373,36.128 26.112,36.105Z" fill="#EF8971"/>
<path d="M25.929,34.557C25.68,34.636 25.518,34.825 25.567,34.979C25.616,35.133 25.858,35.194 26.107,35.114C26.356,35.034 26.518,34.845 26.469,34.691C26.42,34.537 26.178,34.477 25.929,34.557Z" fill="#EF8971"/>
<path d="M14.729,43.677C15.341,43.797 15.936,43.923 16.532,44.01C17.128,44.094 17.721,44.148 18.315,44.153C18.91,44.16 19.503,44.119 20.099,44.043C20.695,43.963 21.289,43.841 21.9,43.717C21.374,44.052 20.791,44.296 20.184,44.459C19.577,44.626 18.943,44.704 18.31,44.697C17.677,44.689 17.046,44.598 16.443,44.423C15.839,44.253 15.259,44.007 14.73,43.676L14.729,43.677Z" fill="#F8A364"/>
<path d="M16.633,45.35C16.936,45.36 17.228,45.385 17.517,45.403C17.806,45.422 18.093,45.435 18.379,45.442C18.665,45.449 18.952,45.452 19.242,45.449C19.531,45.445 19.824,45.436 20.127,45.443C19.857,45.583 19.567,45.673 19.271,45.73C18.974,45.788 18.671,45.814 18.368,45.805C18.065,45.797 17.764,45.755 17.471,45.681C17.179,45.608 16.893,45.504 16.631,45.35L16.633,45.35Z" fill="#F8A364"/>
<path d="M29.044,55.93C28.397,54.608 27.245,53.604 25.846,53.144L21.649,51.756C20.928,53.417 20.141,54.444 18.262,54.464C16.383,54.444 15.615,53.417 14.895,51.756L10.678,53.144C9.28,53.603 8.126,54.607 7.48,55.93L4.478,62.07L8.416,63.615L9.886,77.968L26.637,77.968L28.038,63.615L32.045,62.07L29.043,55.93L29.044,55.93Z" fill="#6927FF"/>
<path d="M9.958,43.627C11.141,43.627 12.099,42.669 12.099,41.487C12.099,40.304 11.141,39.346 9.958,39.346C8.776,39.346 7.817,40.304 7.817,41.487C7.817,42.669 8.776,43.627 9.958,43.627Z" fill="#EF8971"/>
<path d="M27.413,43.627C28.596,43.627 29.554,42.669 29.554,41.487C29.554,40.304 28.596,39.346 27.413,39.346C26.231,39.346 25.272,40.304 25.272,41.487C25.272,42.669 26.231,43.627 27.413,43.627Z" fill="#EF8971"/>
<path d="M11.497,22.341C7.648,25.659 4.505,31.718 3.992,37.44C3.963,37.771 3.68,38.022 3.348,38.022L2.041,34.685C1.221,32.595 0.683,30.403 0.465,28.169C-0.593,17.355 4.798,13.262 13.234,10.951C17.781,9.705 22.639,10.064 26.885,12.111C32.056,14.602 34.965,18.105 35.7,24.219C36.186,28.262 35.604,32.362 34.092,36.143L33.341,38.022C32.996,38.022 32.706,37.774 32.64,37.434C31.904,33.634 27.506,29.431 22.819,26.724C23.27,28.203 23.846,29.7 24.782,31.243C20.683,30.717 18.437,28.732 16.246,24.92L16.908,29.051C12.982,26.906 11.82,25.876 11.498,22.34L11.497,22.341Z" fill="#353842"/>
<path d="M28.481,77.481C28.481,77.481 28.127,73.321 28.038,63.615C25.163,63.581 25.41,58.483 25.277,52.962L23.897,52.527C24.116,57.704 22.217,60.426 18.227,60.723C14.238,60.426 12.339,57.704 12.557,52.527L11.177,53.014C11.043,58.535 11.292,63.581 8.417,63.615C8.326,73.321 7.983,77.481 7.983,77.481C13.725,79.499 22.686,79.176 28.481,77.481Z" fill="#ECCF39"/>
<path d="M19.264,63.335C18.615,63.26 18.425,64.136 18.425,64.136C18.425,64.136 18.235,63.259 17.587,63.335C16.941,63.413 16.179,64.667 16.177,65.279C16.177,66.398 17.053,68.288 18.425,69.468C19.798,68.289 20.674,66.399 20.674,65.279C20.674,64.667 19.912,63.413 19.264,63.335Z" fill="#6927FF"/>
<path d="M12.852,66.775C12.578,67.368 13.354,67.818 13.354,67.818C13.354,67.818 12.461,67.729 12.332,68.37C12.206,69.009 13.164,70.121 13.744,70.311C14.809,70.659 16.878,70.406 18.425,69.467C17.728,67.798 16.203,66.38 15.134,66.036C14.554,65.846 13.124,66.182 12.852,66.775Z" fill="#6927FF"/>
<path d="M14.143,73.938C14.62,74.38 15.289,73.784 15.289,73.784C15.289,73.784 14.93,74.605 15.499,74.923C16.068,75.242 17.42,74.674 17.782,74.179C18.442,73.272 18.842,71.23 18.425,69.467C16.622,69.616 14.801,70.63 14.143,71.537C13.784,72.03 13.664,73.496 14.143,73.938L14.143,73.938Z" fill="#6927FF"/>
<path d="M21.354,74.924C21.923,74.606 21.561,73.785 21.561,73.785C21.561,73.785 22.231,74.382 22.71,73.94C23.19,73.498 23.066,72.032 22.708,71.539C22.05,70.63 20.23,69.618 18.426,69.469C18.013,71.232 18.412,73.273 19.072,74.181C19.431,74.675 20.786,75.244 21.354,74.925L21.354,74.924Z" fill="#6927FF"/>
<path d="M24.518,68.371C24.392,67.731 23.499,67.82 23.499,67.82C23.499,67.82 24.274,67.369 24.001,66.777C23.725,66.184 22.298,65.848 21.715,66.037C20.65,66.382 19.125,67.8 18.424,69.468C19.972,70.407 22.039,70.66 23.105,70.313C23.685,70.123 24.644,69.01 24.517,68.371L24.518,68.371Z" fill="#6927FF"/>
<path d="M19.342,69.468C19.342,69.973 18.931,70.384 18.426,70.384C17.92,70.384 17.513,69.973 17.513,69.468C17.513,68.962 17.921,68.555 18.426,68.555C18.931,68.555 19.342,68.963 19.342,69.468Z" fill="#912493"/>
<rect  x="18.349" y="66.398" width="0.156" height="3.07" fill="#912493"/>
<path d="M18.716,66.398C18.716,66.559 18.587,66.688 18.427,66.688C18.267,66.688 18.14,66.559 18.14,66.398C18.14,66.238 18.269,66.111 18.427,66.111C18.584,66.111 18.716,66.241 18.716,66.398Z" fill="#912493"/>
<path d="M18.36,69.507L16.826,66.849L16.958,66.771L18.492,69.43L18.36,69.507Z" fill="#912493"/>
<path d="M17.142,66.665C17.22,66.804 17.174,66.981 17.036,67.06C16.899,67.139 16.723,67.093 16.642,66.955C16.562,66.816 16.611,66.64 16.746,66.561C16.883,66.48 17.062,66.528 17.142,66.664L17.142,66.665Z" fill="#912493"/>
<path d="M18.388,69.533L15.729,67.999L15.807,67.867L18.464,69.401L18.388,69.533Z" fill="#912493"/>
<path d="M15.913,67.684C16.051,67.763 16.097,67.939 16.016,68.078C15.938,68.216 15.761,68.261 15.622,68.184C15.484,68.103 15.439,67.926 15.516,67.79C15.597,67.651 15.775,67.603 15.913,67.684Z" fill="#912493"/>
<rect  x="15.356" y="69.393" width="3.07" height="0.154" fill="#912493"/>
<path d="M15.355,69.182C15.516,69.182 15.645,69.311 15.645,69.469C15.645,69.626 15.516,69.758 15.355,69.758C15.195,69.758 15.068,69.63 15.068,69.469C15.068,69.308 15.198,69.182 15.355,69.182Z" fill="#912493"/>
<path d="M15.806,71.071L15.729,70.939L18.388,69.402L18.463,69.535L15.806,71.071Z" fill="#912493"/>
<path d="M15.623,70.756C15.761,70.676 15.939,70.723 16.017,70.861C16.097,70.999 16.051,71.175 15.914,71.256C15.776,71.334 15.598,71.287 15.517,71.15C15.439,71.013 15.486,70.836 15.623,70.756Z" fill="#912493"/>
<path d="M16.958,72.164L16.826,72.089L18.36,69.43L18.492,69.506L16.958,72.164Z" fill="#912493"/>
<path d="M16.642,71.983C16.723,71.845 16.898,71.796 17.036,71.877C17.175,71.957 17.22,72.133 17.142,72.271C17.062,72.408 16.884,72.456 16.748,72.377C16.611,72.296 16.562,72.121 16.642,71.983Z" fill="#912493"/>
<rect  x="18.348" y="69.469" width="0.156" height="3.07" fill="#912493"/>
<path d="M18.139,72.539C18.139,72.38 18.268,72.252 18.426,72.252C18.583,72.252 18.715,72.38 18.715,72.539C18.715,72.698 18.586,72.828 18.426,72.828C18.266,72.828 18.139,72.698 18.139,72.539Z" fill="#912493"/>
<path d="M19.896,72.164L18.36,69.506L18.493,69.43L20.029,72.089L19.896,72.164Z" fill="#912493"/>
<path d="M19.713,72.271C19.632,72.132 19.681,71.957 19.819,71.877C19.956,71.796 20.132,71.845 20.212,71.982C20.29,72.121 20.244,72.296 20.107,72.377C19.969,72.455 19.791,72.408 19.713,72.271Z" fill="#912493"/>
<path d="M21.049,71.071L18.389,69.535L18.464,69.402L21.123,70.939L21.049,71.071Z" fill="#912493"/>
<path d="M20.942,71.254C20.804,71.176 20.755,70.999 20.836,70.861C20.916,70.723 21.092,70.676 21.23,70.756C21.367,70.834 21.414,71.011 21.336,71.149C21.255,71.288 21.08,71.333 20.943,71.254L20.942,71.254Z" fill="#912493"/>
<rect  x="18.492" y="69.398" width="3.009" height="0.151" fill="#912493"/>
<path d="M21.501,69.756C21.346,69.756 21.219,69.631 21.219,69.473C21.219,69.316 21.346,69.191 21.501,69.191C21.655,69.191 21.782,69.318 21.782,69.473C21.782,69.628 21.655,69.756 21.501,69.756Z" fill="#912493"/>
<path d="M18.529,69.539L18.455,69.409L21.062,67.906L21.135,68.036L18.529,69.539Z" fill="#912493"/>
<path d="M21.239,68.214C21.105,68.291 20.932,68.247 20.853,68.112C20.775,67.977 20.823,67.804 20.958,67.726C21.092,67.647 21.265,67.694 21.344,67.828C21.42,67.963 21.374,68.136 21.239,68.214Z" fill="#912493"/>
<path d="M18.556,69.513L18.427,69.439L19.932,66.832L20.062,66.907L18.556,69.513Z" fill="#912493"/>
<path d="M20.239,67.01C20.163,67.145 19.992,67.191 19.857,67.113C19.722,67.036 19.674,66.862 19.753,66.726C19.829,66.592 20.003,66.546 20.139,66.624C20.274,66.701 20.319,66.875 20.24,67.01L20.239,67.01Z" fill="#912493"/>
</svg>
