<svg width="30" height="38" viewBox="0 0 30 38" fill="none" xmlns="http://www.w3.org/2000/svg" xmlns:xlink="http://www.w3.org/1999/xlink">
<path d="M0,26.407L3.23,35.519C3.344,35.844 3.707,36.054 4.042,35.993L13.47,34.258L15.646,30.454L2.176,22.597L0,26.4L0,26.407Z" fill="#FEDFD2"/>
<path d="M5.835,31.905C4.647,31.214 3.203,31.268 1.954,31.919L3.23,35.519C3.344,35.844 3.707,36.054 4.042,35.993L7.762,35.309C7.695,33.892 7.031,32.603 5.835,31.912L5.835,31.905Z" fill="#F15B67"/>
<path d="M5.587,25.749L0,26.407L11.731,5.892L15.639,8.17L5.587,25.749Z" fill="#FDC00F"/>
<path d="M11.241,29.045L6.735,30.333L5.587,25.75L15.639,8.17L21.293,11.465L11.241,29.045Z" fill="#FD814C"/>
<path d="M13.47,34.258L11.24,29.045L21.292,11.465L25.2,13.743L13.47,34.258Z" fill="#FDA079"/>
<path d="M20.166,1.029L17.893,1.029L17.893,16.625L20.166,16.625L20.166,1.029Z" transform="rotate(-120.475 19.03 8.827)" fill="#D1DCE4"/>
<path d="M27.693,6.678L16.546,0.184C15.901,-0.189 15.082,0.034 14.713,0.678L12.859,3.919L26.329,11.77L28.183,8.529C28.552,7.878 28.33,7.051 27.693,6.678Z" fill="#F15B67"/>
</svg>
