<svg width="42" height="54" viewBox="0 0 42 54" fill="none" xmlns="http://www.w3.org/2000/svg" xmlns:xlink="http://www.w3.org/1999/xlink">
<path d="M-0.8,39.13L3.937,52.494C4.105,52.972 4.637,53.28 5.129,53.19L18.956,50.645L22.147,45.067L2.391,33.542L-0.8,39.12L-0.8,39.13Z" fill="#FEDFD2"/>
<path d="M7.759,47.195C6.016,46.18 3.898,46.26 2.066,47.215L3.938,52.495C4.105,52.972 4.637,53.28 5.129,53.191L10.585,52.186C10.487,50.108 9.512,48.219 7.759,47.205L7.759,47.195Z" fill="#6927FF"/>
<path d="M7.394,38.166L-0.8,39.13L16.405,9.041L22.137,12.382L7.394,38.166Z" fill="#FDC00F"/>
<path d="M15.687,42.998L9.079,44.887L7.395,38.165L22.138,12.382L30.43,17.214L15.687,42.998Z" fill="#FD814C"/>
<path d="M18.956,50.645L15.687,42.998L30.43,17.215L36.162,20.556L18.956,50.645Z" fill="#FDA079"/>
<path d="M28.777,1.909L25.444,1.909L25.444,24.783L28.777,24.783L28.777,1.909Z" transform="rotate(-120.475 27.111 13.346)" fill="#D1DCE4"/>
<path d="M39.815,10.195L23.466,0.669C22.521,0.122 21.319,0.45 20.778,1.395L18.06,6.148L37.816,17.663L40.534,12.91C41.076,11.955 40.751,10.742 39.815,10.195Z" fill="#6927FF"/>
</svg>
