<svg width="122" height="128" viewBox="0 0 122 128" fill="none" xmlns="http://www.w3.org/2000/svg" xmlns:xlink="http://www.w3.org/1999/xlink">
<path d="M121.903,64C121.903,99.346 94.556,128 60.821,128C27.086,128 -0.262,99.346 -0.262,64C-0.262,28.654 27.086,0 60.821,0C94.556,0 121.903,28.654 121.903,64Z" fill="#FFFFFF" stroke="#FCEAF4" stroke-width="2" stroke-miterlimit="3.999327"/>
<path d="M55.395,81.979C56.896,84.286 58.641,86.31 60.758,88.106C60.431,88.364 60.141,88.628 59.818,88.837C58.017,90 56.149,91.047 54.114,91.744C52.922,92.151 51.715,92.538 50.482,92.796C49.272,93.049 48.028,93.146 46.791,93.273C46.063,93.347 45.324,93.373 44.589,93.362C42.81,93.332 41.054,93.086 39.316,92.706C37.088,92.222 34.945,91.461 32.955,90.369C31.428,89.534 30.006,88.498 28.599,87.462C27.715,86.813 26.894,86.06 26.14,85.262C24.666,83.693 23.363,81.982 22.304,80.092C21.283,78.27 20.418,76.376 19.876,74.352C19.549,73.13 19.255,71.888 19.096,70.636C18.914,69.205 18.843,67.755 18.821,66.308C18.795,64.586 19.088,62.89 19.449,61.209C19.965,58.798 20.819,56.498 22.037,54.362C22.835,52.96 23.786,51.637 24.751,50.34C25.416,49.446 26.218,48.648 26.972,47.824C27.21,47.563 27.507,47.362 27.759,47.112C34.678,40.187 41.589,33.25 48.496,26.306C48.711,26.089 48.919,26 49.227,26C52.792,26.011 56.357,26.007 59.922,26.007L60.29,26.007C55.529,30.872 50.742,35.758 45.974,40.63C53.271,40.954 59.514,43.798 64.475,49.214C69.232,54.407 71.512,60.661 71.364,67.706C71.271,72.157 70.086,76.369 67.717,80.338C66.826,79.407 65.923,78.575 65.147,77.636C63.948,76.182 63.22,74.453 62.451,72.749C62.188,72.164 62.496,71.695 62.626,71.203C62.841,70.375 63.038,69.559 63.027,68.698C63.019,68.019 63.097,67.337 63.105,66.659C63.116,65.242 63.016,63.833 62.555,62.488C62.061,61.045 61.575,59.588 60.936,58.209C60.531,57.336 59.904,56.546 59.287,55.797C58.641,55.007 57.898,54.295 57.178,53.572C55.336,51.716 53.145,50.467 50.616,49.807C49.677,49.561 48.745,49.278 47.798,49.077C47.237,48.957 46.646,48.927 46.071,48.927C44.934,48.927 43.798,48.931 42.669,49.024C41.953,49.084 41.221,49.237 40.545,49.479C39.056,50.005 37.567,50.553 36.133,51.216C35.368,51.57 34.696,52.152 34.02,52.685C33.419,53.158 32.828,53.658 32.316,54.22C30.968,55.696 29.52,57.109 28.855,59.088C28.502,60.136 28.064,61.153 27.722,62.205C27.321,63.449 27.046,64.721 27.098,66.044C27.147,67.259 27.15,68.478 27.199,69.693C27.213,70.081 27.343,70.386 27.733,70.647C29.731,71.974 32.787,71.702 34.466,69.92C35.413,68.914 36.839,69.406 37.136,70.487C37.322,71.169 37.013,71.736 36.527,72.127C35.814,72.701 35.071,73.286 34.251,73.655C33.404,74.035 32.45,74.181 31.54,74.408C30.585,74.643 29.653,74.397 28.721,74.237C28.68,74.229 28.636,74.244 28.543,74.255C29.026,75.362 29.427,76.492 30.225,77.405C31.061,78.359 31.87,79.343 32.78,80.219C33.887,81.285 35.027,82.34 36.445,82.996C38.309,83.853 40.244,84.509 42.246,84.953C42.688,85.05 43.152,85.061 43.609,85.054C44.972,85.039 46.346,85.106 47.69,84.938C48.845,84.793 49.989,84.435 51.091,84.051C52.209,83.66 53.286,83.134 54.367,82.638C54.72,82.478 55.028,82.225 55.395,81.99L55.395,81.979Z" fill="#EB4578"/>
<path d="M95.091,74.252C94.281,74.338 93.561,74.498 92.848,74.479C90.957,74.424 89.212,73.883 87.719,72.664C87.411,72.414 87.121,72.139 86.832,71.867C86.39,71.449 86.36,70.909 86.516,70.39C86.691,69.82 87.092,69.477 87.745,69.377C88.54,69.257 88.956,69.794 89.446,70.204C90.36,70.972 91.407,71.371 92.591,71.453C93.832,71.538 94.976,71.251 95.997,70.547C96.164,70.431 96.335,70.189 96.342,69.999C96.402,68.665 96.465,67.326 96.435,65.992C96.398,64.471 96.387,62.943 95.663,61.527C95.131,60.483 94.734,59.372 94.188,58.336C93.731,57.467 93.226,56.603 92.606,55.85C91.867,54.955 90.991,54.169 90.148,53.367C89.665,52.909 89.168,52.439 88.603,52.104C87.01,51.157 85.38,50.288 83.608,49.688C82.539,49.327 81.469,49.133 80.359,49.096C79.252,49.058 78.138,48.969 77.035,49.021C75.179,49.103 73.374,49.472 71.699,50.341C70.555,50.933 69.389,51.489 68.168,52.096C66.797,49.8 64.959,47.813 62.854,45.935C63.559,45.469 64.183,44.988 64.866,44.626C66.266,43.888 67.674,43.158 69.122,42.528C70.559,41.902 72.089,41.544 73.626,41.227C75.331,40.877 77.054,40.787 78.785,40.787C80.734,40.787 82.65,41.059 84.552,41.503C86.397,41.935 88.165,42.584 89.869,43.389C91.581,44.198 93.234,45.156 94.66,46.397C96.067,47.623 97.36,48.991 98.63,50.367C99.376,51.172 100.041,52.07 100.627,53.002C101.244,53.978 101.723,55.041 102.254,56.07C102.466,56.483 102.674,56.901 102.833,57.337C103.164,58.25 103.472,59.167 103.762,60.095C103.94,60.662 104.096,61.243 104.204,61.829C104.356,62.663 104.493,63.502 104.56,64.345C104.66,65.593 104.783,66.853 104.727,68.102C104.642,69.969 104.438,71.833 103.892,73.637C103.58,74.666 103.327,75.717 102.948,76.72C102.596,77.651 102.12,78.539 101.671,79.433C100.928,80.906 100.082,82.329 98.979,83.548C97.72,84.942 96.361,86.247 95.005,87.548C93.787,88.718 92.32,89.557 90.854,90.366C88.915,91.436 86.843,92.207 84.7,92.74C82.09,93.389 79.427,93.642 76.746,93.452C75.446,93.359 74.154,93.072 72.865,92.841C71.391,92.58 69.987,92.069 68.598,91.518C66.805,90.806 65.123,89.881 63.544,88.789C61.881,87.641 60.321,86.336 59.018,84.786C57.941,83.504 56.968,82.128 56.043,80.727C54.97,79.101 54.19,77.312 53.592,75.456C53.317,74.599 53.017,73.741 52.838,72.862C52.615,71.758 52.382,70.636 52.37,69.518C52.296,63.696 52.289,57.874 52.263,52.051C52.263,51.966 52.281,51.884 52.292,51.779C53.228,51.999 54.027,52.432 54.721,53.047C55.668,53.889 56.626,54.72 57.528,55.611C58.074,56.148 58.527,56.782 59.021,57.374C60.031,58.586 60.496,60.062 61.019,61.508C61.071,61.653 61.116,61.84 61.071,61.981C60.384,64.162 60.403,66.41 60.481,68.646C60.54,70.312 60.811,71.96 61.558,73.488C62.018,74.427 62.464,75.374 62.935,76.31C63.801,78.017 65.119,79.359 66.474,80.667C67.926,82.068 69.661,83.034 71.506,83.809C72.349,84.163 73.192,84.525 74.065,84.79C74.711,84.987 75.402,85.095 76.077,85.14C77.258,85.218 78.443,85.263 79.624,85.229C81.503,85.181 83.334,84.883 85.034,84.003C85.729,83.645 86.479,83.384 87.159,83.004C88.172,82.434 89.22,81.912 90.037,81.032C90.59,80.436 91.299,79.981 91.826,79.362C92.547,78.516 93.204,77.607 93.813,76.675C94.3,75.926 94.675,75.102 95.124,74.263L95.091,74.252Z" fill="#EB4578"/>
<path d="M84.986,58.391C86.215,58.25 87.363,59.558 87.363,60.699C87.363,61.783 86.308,63.196 84.852,63.066C83.541,62.95 82.624,62.048 82.628,60.602C82.628,59.405 83.712,58.391 84.986,58.391Z" fill="#EB4578"/>
<path d="M40.918,60.732C40.918,62.197 40.016,63.043 38.456,63.043C37.201,63.043 36.317,62.051 36.276,60.695C36.239,59.476 37.331,58.283 38.742,58.376C40.005,58.458 40.922,59.375 40.922,60.732L40.918,60.732Z" fill="#EB4578"/>
</svg>
