<svg width="220" height="436" viewBox="0 0 220 436" fill="none" xmlns="http://www.w3.org/2000/svg" xmlns:xlink="http://www.w3.org/1999/xlink">
<path d="M79.136,167.089C79.136,218.792 111.104,228.022 144.852,228.022C178.6,228.022 210.568,219.235 210.568,167.531C210.568,115.827 169.387,76.103 144.118,73.757C119.765,71.488 79.117,115.366 79.117,167.07Z" fill="#B0D49B"/>
<path d="M90.348,178.761C90.348,217.12 114.058,223.965 139.089,223.965C164.12,223.965 187.83,217.447 187.83,179.107C187.83,140.767 157.293,111.29 138.557,109.56C120.499,107.887 90.348,140.42 90.348,178.78Z" fill="#9CCB8C"/>
<path d="M163.314,150.707C157.735,150.707 157.735,159.763 163.314,159.763C168.893,159.763 168.893,150.707 163.314,150.707Z" fill="#C7E1BC"/>
<path d="M113.103,154.283C111.635,154.322 110.148,154.341 108.68,154.341C108.203,154.341 107.726,154.341 107.23,154.341L107.23,160.205C107.799,160.513 108.46,160.686 109.249,160.686C112.828,160.686 114.112,156.975 113.103,154.283Z" fill="#C7E1BC"/>
<path d="M111.856,199.181C106.277,199.181 106.277,208.237 111.856,208.237C117.435,208.237 117.435,199.181 111.856,199.181Z" fill="#C7E1BC"/>
<path d="M183.243,203.392C181.977,206.045 180.49,208.372 178.802,210.429C179.095,210.487 179.407,210.525 179.756,210.525C183.665,210.525 184.839,206.064 183.261,203.411Z" fill="#D3E6C6"/>
<path d="M179.737,201.45C174.488,201.45 174.176,209.449 178.782,210.41C180.471,208.372 181.976,206.046 183.223,203.392C182.563,202.258 181.388,201.45 179.718,201.45Z" fill="#C7E1BC"/>
<path d="M183.627,128.058C178.049,128.058 178.049,137.114 183.627,137.114C189.206,137.114 189.206,128.058 183.627,128.058Z" fill="#D3E6C6"/>
<path d="M184.931,104.061C182.142,104.061 182.142,108.598 184.931,108.598C187.72,108.598 187.72,104.061 184.931,104.061Z" fill="#D3E6C6"/>
<path d="M198.327,147.554C195.538,147.554 195.538,152.091 198.327,152.091C201.117,152.091 201.117,147.554 198.327,147.554Z" fill="#D3E6C6"/>
<path d="M181.041,167.936C178.252,167.936 178.252,172.473 181.041,172.473C183.831,172.473 183.831,167.936 181.041,167.936Z" fill="#C7E1BC"/>
<path d="M130.004,157.514C127.215,157.514 127.215,162.051 130.004,162.051C132.794,162.051 132.794,157.514 130.004,157.514Z" fill="#C7E1BC"/>
<path d="M94.99,181.529C92.2,181.529 92.2,186.067 94.99,186.067C97.779,186.067 97.779,181.529 94.99,181.529Z" fill="#C7E1BC"/>
<path d="M155.954,181.529C153.165,181.529 153.165,186.067 155.954,186.067C158.744,186.067 158.744,181.529 155.954,181.529Z" fill="#C7E1BC"/>
<path d="M170.653,200.085C167.863,200.085 167.863,204.623 170.653,204.623C173.442,204.623 173.442,200.085 170.653,200.085Z" fill="#C7E1BC"/>
<path d="M202.218,187.413C199.429,187.413 199.429,191.951 202.218,191.951C205.007,191.951 205.007,187.413 202.218,187.413Z" fill="#D3E6C6"/>
<path d="M157.679,216.851C154.89,216.851 154.89,221.388 157.679,221.388C160.468,221.388 160.468,216.851 157.679,216.851Z" fill="#C7E1BC"/>
<path d="M132.281,223.772C132.538,224.119 132.887,224.369 133.346,224.503L133.346,223.849C132.997,223.849 132.63,223.811 132.281,223.792Z" fill="#D3E6C6"/>
<path d="M133.344,220.1C131.766,220.503 131.399,222.599 132.279,223.772C132.628,223.791 132.995,223.811 133.344,223.83L133.344,220.1Z" fill="#C7E1BC"/>
<path d="M102.918,174.146C101.67,174.992 101.67,177.184 102.918,178.01L102.918,174.146Z" fill="#C7E1BC"/>
<path d="M185.793,152.072C183.004,152.072 183.004,156.61 185.793,156.61C188.583,156.61 188.583,152.072 185.793,152.072Z" fill="#D3E6C6"/>
<path d="M42.964,93.408C42.964,145.112 74.932,154.341 108.68,154.341C142.428,154.341 174.396,145.554 174.396,93.851C174.396,42.147 133.234,2.441 107.964,0.076C83.612,-2.192 42.964,41.685 42.964,93.389Z" fill="#CCCF7A"/>
<path d="M54.178,105.059C54.178,143.419 77.888,150.264 102.919,150.264C127.95,150.264 151.66,143.746 151.66,105.406C151.66,67.065 121.123,37.589 102.387,35.859C84.329,34.186 54.178,66.719 54.178,105.079Z" fill="#BABA68"/>
<path d="M129.729,15.863C124.15,15.863 124.15,24.92 129.729,24.92C135.308,24.92 135.308,15.863 129.729,15.863Z" fill="#E3E5B0"/>
<path d="M98.587,29.918C94.769,29.918 93.577,34.148 94.971,36.821C97.082,36.148 99.1,35.802 101.009,35.802C101.468,35.802 101.926,35.821 102.385,35.859C102.459,35.859 102.514,35.859 102.587,35.879C103.303,33.244 101.982,29.918 98.605,29.918Z" fill="#E3E5B0"/>
<path d="M101.011,35.782C99.103,35.782 97.066,36.128 94.974,36.821C95.616,38.07 96.827,38.974 98.589,38.974C100.773,38.974 102.112,37.57 102.571,35.878C102.498,35.878 102.443,35.878 102.369,35.859C101.929,35.821 101.47,35.801 101.011,35.801Z" fill="#D9D9A3"/>
<path d="M127.124,77.026C121.545,77.026 121.545,86.083 127.124,86.083C132.702,86.083 132.702,77.026 127.124,77.026Z" fill="#D9D9A3"/>
<path d="M73.08,77.93C67.501,77.93 67.501,86.986 73.08,86.986C78.658,86.986 78.658,77.93 73.08,77.93Z" fill="#D9D9A3"/>
<path d="M76.914,125.673C77.758,127.961 78.492,130.345 79.08,132.787C80.603,130.441 79.887,126.519 76.914,125.673Z" fill="#D9D9A3"/>
<path d="M147.053,129.69C145.787,132.344 144.3,134.69 142.594,136.728C142.887,136.786 143.199,136.824 143.548,136.824C147.457,136.824 148.631,132.363 147.053,129.71Z" fill="#E3E5B0"/>
<path d="M143.566,127.769C138.336,127.769 138.006,135.767 142.612,136.729C144.3,134.691 145.805,132.364 147.053,129.711C146.392,128.576 145.218,127.769 143.548,127.769Z" fill="#D9D9A3"/>
<path d="M74.823,50.742C71.557,50.742 70.199,53.857 70.768,56.434C72.254,54.434 73.814,52.55 75.411,50.781C75.227,50.761 75.025,50.742 74.842,50.742Z" fill="#E3E5B0"/>
<path d="M75.392,50.779C73.795,52.529 72.254,54.433 70.749,56.432C71.153,58.259 72.492,59.816 74.805,59.816C80.182,59.816 80.365,51.395 75.392,50.799Z" fill="#D9D9A3"/>
<path d="M147.457,54.376C141.878,54.376 141.878,63.432 147.457,63.432C153.035,63.432 153.035,54.376 147.457,54.376Z" fill="#E3E5B0"/>
<path d="M107.671,16.324C104.882,16.324 104.882,20.862 107.671,20.862C110.461,20.862 110.461,16.324 107.671,16.324Z" fill="#E3E5B0"/>
<path d="M125.399,36.705C122.609,36.705 122.609,41.243 125.399,41.243C128.188,41.243 128.188,36.705 125.399,36.705Z" fill="#E3E5B0"/>
<path d="M78.714,26.745C75.925,26.745 75.925,31.283 78.714,31.283C81.504,31.283 81.504,26.745 78.714,26.745Z" fill="#E3E5B0"/>
<path d="M108.534,58.895C105.745,58.895 105.745,63.432 108.534,63.432C111.324,63.432 111.324,58.895 108.534,58.895Z" fill="#D9D9A3"/>
<path d="M148.741,30.36C145.952,30.36 145.952,34.898 148.741,34.898C151.531,34.898 151.531,30.36 148.741,30.36Z" fill="#E3E5B0"/>
<path d="M162.157,73.853C159.367,73.853 159.367,78.39 162.157,78.39C164.946,78.39 164.946,73.853 162.157,73.853Z" fill="#E3E5B0"/>
<path d="M144.853,94.235C142.063,94.235 142.063,98.773 144.853,98.773C147.642,98.773 147.642,94.235 144.853,94.235Z" fill="#D9D9A3"/>
<path d="M93.834,83.813C91.045,83.813 91.045,88.351 93.834,88.351C96.624,88.351 96.624,83.813 93.834,83.813Z" fill="#D9D9A3"/>
<path d="M51.903,71.585C49.113,71.585 49.113,76.123 51.903,76.123C54.692,76.123 54.692,71.585 51.903,71.585Z" fill="#E3E5B0"/>
<path d="M103.359,3.191C100.569,3.191 100.569,7.729 103.359,7.729C106.148,7.729 106.148,3.191 103.359,3.191Z" fill="#E3E5B0"/>
<path d="M119.783,107.83C116.994,107.83 116.994,112.368 119.783,112.368C122.573,112.368 122.573,107.83 119.783,107.83Z" fill="#D9D9A3"/>
<path d="M134.483,126.402C131.693,126.402 131.693,130.94 134.483,130.94C137.272,130.94 137.272,126.402 134.483,126.402Z" fill="#D9D9A3"/>
<path d="M166.048,113.714C163.259,113.714 163.259,118.252 166.048,118.252C168.838,118.252 168.838,113.714 166.048,113.714Z" fill="#E3E5B0"/>
<path d="M121.508,143.17C118.719,143.17 118.719,147.708 121.508,147.708C124.297,147.708 124.297,143.17 121.508,143.17Z" fill="#D9D9A3"/>
<path d="M96.092,150.073C96.44,150.535 96.973,150.862 97.725,150.862C98.386,150.862 98.9,150.612 99.248,150.208C98.184,150.169 97.138,150.131 96.092,150.073Z" fill="#E3E5B0"/>
<path d="M97.726,146.343C95.671,146.343 95.139,148.785 96.093,150.092C97.139,150.15 98.185,150.208 99.249,150.227C100.351,148.977 99.855,146.343 97.726,146.343Z" fill="#D9D9A3"/>
<path d="M67.905,100.119C65.115,100.119 65.115,104.657 67.905,104.657C70.694,104.657 70.694,100.119 67.905,100.119Z" fill="#D9D9A3"/>
<path d="M95.56,62.989C92.77,62.989 92.77,67.527 95.56,67.527C98.349,67.527 98.349,62.989 95.56,62.989Z" fill="#D9D9A3"/>
<path d="M149.623,78.392C146.834,78.392 146.834,82.929 149.623,82.929C152.413,82.929 152.413,78.392 149.623,78.392Z" fill="#E3E5B0"/>
<path d="M-0.729,146.881C-0.729,178.953 19.108,184.683 40.047,184.683C60.986,184.683 80.824,179.242 80.824,147.15C80.824,115.059 55.279,90.428 39.607,88.967C24.504,87.563 -0.711,114.79 -0.711,146.862Z" fill="#1C968A"/>
<path d="M6.226,154.129C6.226,177.914 20.943,182.183 36.469,182.183C51.994,182.183 66.712,178.145 66.712,154.341C66.712,130.537 47.773,112.27 36.138,111.194C24.926,110.155 6.226,130.345 6.226,154.129Z" fill="#098A78"/>
<path d="M53.094,98.792C49.644,98.792 49.644,104.407 53.094,104.407C56.544,104.407 56.544,98.792 53.094,98.792Z" fill="#5ABDB7"/>
<path d="M33.789,107.502C31.422,107.502 30.669,110.117 31.55,111.79C32.853,111.367 34.119,111.155 35.294,111.155C35.587,111.155 35.863,111.155 36.138,111.194C36.175,111.194 36.23,111.194 36.266,111.194C36.707,109.559 35.899,107.502 33.789,107.502Z" fill="#5ABDB7"/>
<path d="M35.293,111.155C34.101,111.155 32.853,111.367 31.55,111.79C31.954,112.559 32.706,113.117 33.789,113.117C35.147,113.117 35.972,112.251 36.266,111.194C36.229,111.194 36.174,111.194 36.138,111.194C35.862,111.175 35.569,111.155 35.293,111.155Z" fill="#2CB4AA"/>
<path d="M51.479,136.729C48.011,136.729 48.011,142.343 51.479,142.343C54.948,142.343 54.929,136.729 51.479,136.729Z" fill="#2CB4AA"/>
<path d="M17.951,137.286C14.501,137.286 14.501,142.901 17.951,142.901C21.401,142.901 21.419,137.286 17.951,137.286Z" fill="#2CB4AA"/>
<path d="M19.567,166.801C16.099,166.801 16.099,172.415 19.567,172.415C23.036,172.415 23.036,166.801 19.567,166.801Z" fill="#2CB4AA"/>
<path d="M63.849,169.416C63.06,171.07 62.143,172.512 61.097,173.781C61.28,173.819 61.482,173.838 61.684,173.838C64.106,173.838 64.84,171.07 63.849,169.416Z" fill="#5ABDB7"/>
<path d="M61.683,168.204C58.435,168.204 58.233,173.165 61.095,173.761C62.141,172.492 63.077,171.05 63.848,169.396C63.426,168.684 62.71,168.185 61.683,168.185Z" fill="#2CB4AA"/>
<path d="M19.035,120.424C17.016,120.424 16.172,122.347 16.521,123.943C17.457,122.693 18.411,121.52 19.402,120.443C19.292,120.443 19.163,120.424 19.053,120.424Z" fill="#5ABDB7"/>
<path d="M19.383,120.443C18.392,121.539 17.438,122.712 16.502,123.943C16.741,125.077 17.585,126.039 19.016,126.039C22.356,126.039 22.466,120.809 19.383,120.443Z" fill="#2CB4AA"/>
<path d="M64.087,122.673C60.618,122.673 60.618,128.307 64.087,128.307C67.555,128.307 67.537,122.673 64.087,122.673Z" fill="#5ABDB7"/>
<path d="M39.423,99.062C37.698,99.062 37.698,101.869 39.423,101.869C41.148,101.869 41.148,99.062 39.423,99.062Z" fill="#5ABDB7"/>
<path d="M50.416,111.714C48.691,111.714 48.691,114.521 50.416,114.521C52.141,114.521 52.141,111.714 50.416,111.714Z" fill="#5ABDB7"/>
<path d="M21.438,105.541C19.713,105.541 19.713,108.348 21.438,108.348C23.163,108.348 23.163,105.541 21.438,105.541Z" fill="#5ABDB7"/>
<path d="M39.955,125.479C38.23,125.479 38.23,128.287 39.955,128.287C41.68,128.287 41.68,125.479 39.955,125.479Z" fill="#2CB4AA"/>
<path d="M64.893,107.791C63.168,107.791 63.168,110.598 64.893,110.598C66.618,110.598 66.618,107.791 64.893,107.791Z" fill="#5ABDB7"/>
<path d="M73.208,134.768C71.483,134.768 71.483,137.575 73.208,137.575C74.933,137.575 74.933,134.768 73.208,134.768Z" fill="#5ABDB7"/>
<path d="M62.491,147.4C60.766,147.4 60.766,150.208 62.491,150.208C64.216,150.208 64.216,147.4 62.491,147.4Z" fill="#2CB4AA"/>
<path d="M30.835,140.938C29.11,140.938 29.11,143.746 30.835,143.746C32.56,143.746 32.56,140.938 30.835,140.938Z" fill="#2CB4AA"/>
<path d="M9.107,155.841C7.382,155.841 7.382,158.648 9.107,158.648C10.832,158.648 10.832,155.841 9.107,155.841Z" fill="#2CB4AA"/>
<path d="M4.813,133.363C3.088,133.363 3.088,136.171 4.813,136.171C6.538,136.171 6.538,133.363 4.813,133.363Z" fill="#5ABDB7"/>
<path d="M36.725,90.928C35,90.928 35,93.735 36.725,93.735C38.45,93.735 38.45,90.928 36.725,90.928Z" fill="#5ABDB7"/>
<path d="M46.929,155.841C45.204,155.841 45.204,158.648 46.929,158.648C48.654,158.648 48.654,155.841 46.929,155.841Z" fill="#2CB4AA"/>
<path d="M56.05,167.358C54.325,167.358 54.325,170.166 56.05,170.166C57.775,170.166 57.775,167.358 56.05,167.358Z" fill="#2CB4AA"/>
<path d="M75.631,159.494C73.906,159.494 73.906,162.301 75.631,162.301C77.356,162.301 77.356,159.494 75.631,159.494Z" fill="#5ABDB7"/>
<path d="M47.993,177.76C46.268,177.76 46.268,180.567 47.993,180.567C49.718,180.567 49.718,177.76 47.993,177.76Z" fill="#2CB4AA"/>
<path d="M32.229,182.049C32.449,182.337 32.779,182.53 33.238,182.53C33.348,182.53 33.44,182.53 33.531,182.491L33.531,182.107C33.091,182.107 32.651,182.068 32.229,182.049Z" fill="#5ABDB7"/>
<path d="M33.239,179.722C31.973,179.722 31.624,181.241 32.23,182.049C32.67,182.068 33.111,182.087 33.533,182.107L33.533,179.742C33.441,179.722 33.349,179.703 33.239,179.703Z" fill="#2CB4AA"/>
<path d="M14.739,151.054C13.014,151.054 13.014,153.861 14.739,153.861C16.464,153.861 16.464,151.054 14.739,151.054Z" fill="#2CB4AA"/>
<path d="M31.899,128.019C30.174,128.019 30.174,130.826 31.899,130.826C33.624,130.826 33.624,128.019 31.899,128.019Z" fill="#2CB4AA"/>
<path d="M65.427,137.574C63.702,137.574 63.702,140.381 65.427,140.381C67.152,140.381 67.152,137.574 65.427,137.574Z" fill="#5ABDB7"/>
<path d="M33.55,435.451L33.55,153.591C33.55,151.61 36.468,151.61 36.468,153.591L36.468,435.451L33.55,435.451Z" fill="#676150"/>
<path d="M25.292,158.687C28.944,167.205 32.596,175.723 36.248,184.241C37.018,186.029 34.504,187.587 33.715,185.779C30.063,177.261 26.411,168.743 22.759,160.225C21.989,158.437 24.503,156.88 25.292,158.687Z" fill="#676150"/>
<path d="M62.949,175.242C53.975,186.759 45.002,198.258 36.028,209.775C34.835,211.313 32.78,209.121 33.954,207.602C42.928,196.085 51.902,184.586 60.876,173.069C62.068,171.531 64.124,173.723 62.949,175.223Z" fill="#676150"/>
<path d="M133.345,435.451L133.345,153.591C133.345,151.61 136.263,151.61 136.263,153.591L136.263,435.451L133.345,435.451Z" fill="#676150"/>
<path d="M125.088,158.687C128.74,167.205 132.392,175.723 136.044,184.241C136.814,186.029 134.282,187.587 133.53,185.779C129.878,177.261 126.226,168.743 122.574,160.225C121.803,158.437 124.317,156.88 125.088,158.687Z" fill="#676150"/>
<path d="M162.762,175.242C153.788,186.759 144.814,198.258 135.84,209.775C134.647,211.313 132.592,209.121 133.767,207.602C142.74,196.085 151.714,184.586 160.688,173.069C161.881,171.531 163.936,173.723 162.762,175.223Z" fill="#676150"/>
<path d="M102.919,435.453L102.919,100.119C102.919,97.196 107.25,97.196 107.25,100.119L107.25,435.453L102.919,435.453Z" fill="#676150"/>
<path d="M131.969,101.273C123.619,119.693 115.287,138.132 106.956,156.553C105.763,159.187 102.038,156.899 103.231,154.265C111.562,135.844 119.912,117.405 128.243,98.985C129.436,96.35 133.162,98.638 131.969,101.273Z" fill="#676150"/>
<path d="M94.349,109.06C97.964,113.925 101.597,118.809 105.213,123.673C106.901,125.942 103.873,129.172 102.166,126.884C98.551,122.02 94.917,117.136 91.302,112.271C89.614,110.002 92.642,106.753 94.367,109.06Z" fill="#676150"/>
<path d="M67.738,305.144C67.738,328.583 83.943,332.775 101.046,332.775C118.149,332.775 134.354,328.795 134.354,305.356C134.354,281.917 113.488,263.901 100.679,262.843C88.328,261.824 67.738,281.706 67.738,305.164Z" fill="#B0D49B"/>
<path d="M73.429,310.432C73.429,327.814 85.449,330.929 98.129,330.929C110.81,330.929 122.83,327.968 122.83,310.586C122.83,293.204 107.36,279.841 97.854,279.052C88.697,278.283 73.41,293.05 73.41,310.432Z" fill="#9CCB8C"/>
<path d="M110.407,297.724C107.581,297.724 107.581,301.838 110.407,301.838C113.233,301.838 113.233,297.724 110.407,297.724Z" fill="#C7E1BC"/>
<path d="M84.952,299.338C84.2,299.338 83.466,299.357 82.713,299.357C82.163,299.357 81.594,299.357 81.043,299.357C80.548,300.568 81.19,302.241 83.007,302.241C84.824,302.241 85.466,300.549 84.952,299.338Z" fill="#C7E1BC"/>
<path d="M84.33,319.701C81.503,319.701 81.503,323.816 84.33,323.816C87.156,323.816 87.156,319.701 84.33,319.701Z" fill="#C7E1BC"/>
<path d="M120.499,321.604C119.857,322.815 119.105,323.872 118.242,324.795C118.389,324.815 118.554,324.834 118.719,324.834C120.701,324.834 121.289,322.815 120.499,321.604Z" fill="#D3E6C6"/>
<path d="M118.738,320.719C116.077,320.719 115.93,324.353 118.261,324.777C119.123,323.854 119.876,322.796 120.518,321.585C120.188,321.066 119.582,320.7 118.738,320.7Z" fill="#C7E1BC"/>
<path d="M120.701,287.456C117.875,287.456 117.875,291.571 120.701,291.571C123.527,291.571 123.527,287.456 120.701,287.456Z" fill="#D3E6C6"/>
<path d="M121.361,276.572C119.948,276.572 119.948,278.63 121.361,278.63C122.774,278.63 122.774,276.572 121.361,276.572Z" fill="#D3E6C6"/>
<path d="M128.152,296.28C126.739,296.28 126.739,298.338 128.152,298.338C129.565,298.338 129.565,296.28 128.152,296.28Z" fill="#D3E6C6"/>
<path d="M119.379,305.529C117.966,305.529 117.966,307.587 119.379,307.587C120.792,307.587 120.792,305.529 119.379,305.529Z" fill="#C7E1BC"/>
<path d="M93.522,300.8C92.109,300.8 92.109,302.857 93.522,302.857C94.935,302.857 94.935,300.8 93.522,300.8Z" fill="#C7E1BC"/>
<path d="M75.777,311.684C74.364,311.684 74.364,313.741 75.777,313.741C77.19,313.741 77.19,311.684 75.777,311.684Z" fill="#C7E1BC"/>
<path d="M106.68,311.684C105.267,311.684 105.267,313.741 106.68,313.741C108.093,313.741 108.093,311.684 106.68,311.684Z" fill="#C7E1BC"/>
<path d="M114.131,320.104C112.718,320.104 112.718,322.162 114.131,322.162C115.544,322.162 115.544,320.104 114.131,320.104Z" fill="#C7E1BC"/>
<path d="M130.133,314.354C128.72,314.354 128.72,316.412 130.133,316.412C131.546,316.412 131.546,314.354 130.133,314.354Z" fill="#D3E6C6"/>
<path d="M107.562,327.699C106.149,327.699 106.149,329.757 107.562,329.757C108.975,329.757 108.975,327.699 107.562,327.699Z" fill="#C7E1BC"/>
<path d="M94.68,330.834C94.863,331.045 95.138,331.199 95.506,331.199C95.836,331.199 96.093,331.084 96.276,330.911C95.744,330.911 95.212,330.872 94.68,330.853Z" fill="#D3E6C6"/>
<path d="M95.504,329.141C94.458,329.141 94.183,330.257 94.678,330.833C95.211,330.853 95.743,330.872 96.275,330.891C96.844,330.314 96.587,329.122 95.504,329.122Z" fill="#C7E1BC"/>
<path d="M80.383,308.203C78.97,308.203 78.97,310.261 80.383,310.261C81.796,310.261 81.796,308.203 80.383,308.203Z" fill="#C7E1BC"/>
<path d="M121.802,298.339C120.389,298.339 120.389,300.396 121.802,300.396C123.215,300.396 123.215,298.339 121.802,298.339Z" fill="#D3E6C6"/>
<path d="M49.407,271.727C49.407,295.166 65.611,299.358 82.715,299.358C99.818,299.358 116.023,295.378 116.023,271.939C116.023,248.5 95.157,230.484 82.348,229.426C69.997,228.407 49.407,248.289 49.407,271.727Z" fill="#CCCF7A"/>
<path d="M55.078,277.015C55.078,294.397 67.098,297.512 79.779,297.512C92.46,297.512 104.48,294.551 104.48,277.169C104.48,259.787 89.01,246.424 79.504,245.635C70.346,244.866 55.06,259.633 55.06,277.015Z" fill="#BABA68"/>
<path d="M93.375,236.578C90.549,236.578 90.549,240.693 93.375,240.693C96.202,240.693 96.202,236.578 93.375,236.578Z" fill="#E3E5B0"/>
<path d="M77.594,242.943C75.667,242.943 75.043,244.866 75.759,246.077C76.824,245.77 77.851,245.616 78.824,245.616C79.062,245.616 79.283,245.616 79.521,245.635C79.558,245.635 79.595,245.635 79.631,245.635C79.998,244.443 79.319,242.924 77.613,242.924Z" fill="#E3E5B0"/>
<path d="M78.822,245.615C77.85,245.615 76.822,245.769 75.758,246.077C76.088,246.634 76.694,247.057 77.593,247.057C78.694,247.057 79.373,246.423 79.612,245.654C79.575,245.654 79.538,245.654 79.501,245.654C79.281,245.634 79.043,245.615 78.804,245.615Z" fill="#D9D9A3"/>
<path d="M92.074,264.305C89.248,264.305 89.248,268.419 92.074,268.419C94.9,268.419 94.9,264.305 92.074,264.305Z" fill="#D9D9A3"/>
<path d="M64.675,264.709C61.849,264.709 61.849,268.824 64.675,268.824C67.501,268.824 67.501,264.709 64.675,264.709Z" fill="#D9D9A3"/>
<path d="M66.62,286.359C67.042,287.398 67.409,288.474 67.721,289.59C68.492,288.532 68.125,286.744 66.62,286.359Z" fill="#D9D9A3"/>
<path d="M102.166,288.186C101.524,289.397 100.772,290.454 99.909,291.377C100.056,291.397 100.221,291.416 100.386,291.416C102.368,291.416 102.956,289.397 102.166,288.186Z" fill="#E3E5B0"/>
<path d="M100.386,287.302C97.725,287.302 97.579,290.936 99.909,291.378C100.772,290.455 101.524,289.398 102.166,288.186C101.818,287.667 101.23,287.302 100.386,287.302Z" fill="#D9D9A3"/>
<path d="M65.556,252.403C63.905,252.403 63.207,253.807 63.501,254.98C64.253,254.076 65.042,253.211 65.85,252.423C65.758,252.423 65.648,252.423 65.556,252.423Z" fill="#E3E5B0"/>
<path d="M65.831,252.403C65.024,253.192 64.235,254.057 63.482,254.961C63.684,255.787 64.363,256.499 65.538,256.499C68.272,256.499 68.364,252.673 65.831,252.403Z" fill="#D9D9A3"/>
<path d="M102.369,254.038C99.542,254.038 99.542,258.153 102.369,258.153C105.195,258.153 105.195,254.038 102.369,254.038Z" fill="#E3E5B0"/>
<path d="M82.199,236.79C80.786,236.79 80.786,238.847 82.199,238.847C83.612,238.847 83.612,236.79 82.199,236.79Z" fill="#E3E5B0"/>
<path d="M91.193,246.02C89.78,246.02 89.78,248.077 91.193,248.077C92.606,248.077 92.606,246.02 91.193,246.02Z" fill="#E3E5B0"/>
<path d="M67.519,241.501C66.106,241.501 66.106,243.558 67.519,243.558C68.932,243.558 68.932,241.501 67.519,241.501Z" fill="#E3E5B0"/>
<path d="M82.641,256.095C81.228,256.095 81.228,258.152 82.641,258.152C84.054,258.152 84.054,256.095 82.641,256.095Z" fill="#D9D9A3"/>
<path d="M103.03,243.154C101.616,243.154 101.616,245.212 103.03,245.212C104.443,245.212 104.443,243.154 103.03,243.154Z" fill="#E3E5B0"/>
<path d="M109.818,262.863C108.405,262.863 108.405,264.921 109.818,264.921C111.231,264.921 111.231,262.863 109.818,262.863Z" fill="#E3E5B0"/>
<path d="M101.047,272.111C99.634,272.111 99.634,274.169 101.047,274.169C102.46,274.169 102.46,272.111 101.047,272.111Z" fill="#D9D9A3"/>
<path d="M75.191,267.382C73.778,267.382 73.778,269.439 75.191,269.439C76.604,269.439 76.604,267.382 75.191,267.382Z" fill="#D9D9A3"/>
<path d="M53.94,261.844C52.527,261.844 52.527,263.901 53.94,263.901C55.353,263.901 55.353,261.844 53.94,261.844Z" fill="#E3E5B0"/>
<path d="M80.017,230.829C78.604,230.829 78.604,232.886 80.017,232.886C81.43,232.886 81.43,230.829 80.017,230.829Z" fill="#E3E5B0"/>
<path d="M88.349,278.284C86.936,278.284 86.936,280.342 88.349,280.342C89.762,280.342 89.762,278.284 88.349,278.284Z" fill="#D9D9A3"/>
<path d="M95.798,286.687C94.385,286.687 94.385,288.744 95.798,288.744C97.211,288.744 97.211,286.687 95.798,286.687Z" fill="#D9D9A3"/>
<path d="M111.782,280.938C110.369,280.938 110.369,282.995 111.782,282.995C113.195,282.995 113.195,280.938 111.782,280.938Z" fill="#E3E5B0"/>
<path d="M89.21,294.301C87.797,294.301 87.797,296.358 89.21,296.358C90.623,296.358 90.623,294.301 89.21,294.301Z" fill="#D9D9A3"/>
<path d="M76.328,297.435C76.512,297.646 76.787,297.8 77.154,297.8C77.484,297.8 77.741,297.685 77.925,297.511C77.393,297.511 76.86,297.473 76.328,297.454Z" fill="#E3E5B0"/>
<path d="M77.153,295.723C76.107,295.723 75.831,296.839 76.327,297.415C76.859,297.435 77.391,297.473 77.923,297.473C78.492,296.915 78.235,295.704 77.153,295.704Z" fill="#D9D9A3"/>
<path d="M62.031,274.785C60.618,274.785 60.618,276.843 62.031,276.843C63.445,276.843 63.445,274.785 62.031,274.785Z" fill="#D9D9A3"/>
<path d="M76.071,257.94C74.657,257.94 74.657,259.998 76.071,259.998C77.484,259.998 77.484,257.94 76.071,257.94Z" fill="#D9D9A3"/>
<path d="M103.469,264.92C102.056,264.92 102.056,266.977 103.469,266.977C104.882,266.977 104.882,264.92 103.469,264.92Z" fill="#E3E5B0"/>
<path d="M27.257,295.992C27.257,310.528 37.313,313.143 47.92,313.143C58.527,313.143 68.584,310.682 68.584,296.127C68.584,281.571 55.628,270.419 47.682,269.746C40.029,269.112 27.238,281.456 27.238,295.992Z" fill="#1C968A"/>
<path d="M30.779,299.261C30.779,310.048 38.23,311.971 46.103,311.971C53.975,311.971 61.426,310.144 61.426,299.357C61.426,288.57 51.828,280.283 45.937,279.783C40.249,279.322 30.779,288.474 30.779,299.261Z" fill="#098A78"/>
<path d="M54.545,274.169C52.783,274.169 52.783,276.726 54.545,276.726C56.307,276.726 56.288,274.169 54.545,274.169Z" fill="#5ABDB7"/>
<path d="M44.744,278.131C43.551,278.131 43.166,279.323 43.606,280.073C44.267,279.88 44.909,279.784 45.515,279.784C45.662,279.784 45.808,279.784 45.937,279.784C45.955,279.784 45.974,279.784 46.01,279.784C46.23,279.053 45.827,278.111 44.762,278.111Z" fill="#5ABDB7"/>
<path d="M45.516,279.783C44.91,279.783 44.268,279.879 43.607,280.072C43.809,280.418 44.195,280.668 44.745,280.668C45.443,280.668 45.846,280.283 45.993,279.802C45.975,279.802 45.956,279.802 45.938,279.802C45.791,279.802 45.644,279.802 45.516,279.802Z" fill="#2CB4AA"/>
<path d="M53.719,291.378C51.957,291.378 51.957,293.935 53.719,293.935C55.48,293.935 55.462,291.378 53.719,291.378Z" fill="#2CB4AA"/>
<path d="M36.725,291.628C34.981,291.628 34.981,294.185 36.725,294.185C38.468,294.185 38.486,291.628 36.725,291.628Z" fill="#2CB4AA"/>
<path d="M37.532,305.01C35.771,305.01 35.771,307.567 37.532,307.567C39.294,307.567 39.294,305.01 37.532,305.01Z" fill="#2CB4AA"/>
<path d="M59.994,306.203C59.591,306.953 59.132,307.607 58.6,308.184C58.691,308.184 58.783,308.203 58.893,308.203C60.123,308.203 60.49,306.953 59.994,306.203Z" fill="#5ABDB7"/>
<path d="M58.893,305.645C57.242,305.645 57.15,307.894 58.6,308.163C59.132,307.587 59.609,306.933 59.995,306.183C59.774,305.856 59.426,305.645 58.893,305.645Z" fill="#2CB4AA"/>
<path d="M37.276,283.994C36.249,283.994 35.827,284.879 35.992,285.59C36.469,285.032 36.946,284.494 37.442,283.994C37.387,283.994 37.313,283.994 37.258,283.994Z" fill="#5ABDB7"/>
<path d="M37.441,283.994C36.945,284.494 36.45,285.013 35.973,285.59C36.101,286.109 36.523,286.551 37.257,286.551C38.946,286.551 39.001,284.186 37.441,284.013Z" fill="#2CB4AA"/>
<path d="M60.104,285.014C58.343,285.014 58.343,287.571 60.104,287.571C61.866,287.571 61.848,285.014 60.104,285.014Z" fill="#5ABDB7"/>
<path d="M47.609,274.304C46.728,274.304 46.728,275.573 47.609,275.573C48.49,275.573 48.49,274.304 47.609,274.304Z" fill="#5ABDB7"/>
<path d="M53.167,280.034C52.287,280.034 52.287,281.303 53.167,281.303C54.048,281.303 54.048,280.034 53.167,280.034Z" fill="#5ABDB7"/>
<path d="M38.487,277.226C37.606,277.226 37.606,278.495 38.487,278.495C39.368,278.495 39.368,277.226 38.487,277.226Z" fill="#5ABDB7"/>
<path d="M47.865,286.283C46.984,286.283 46.984,287.552 47.865,287.552C48.746,287.552 48.746,286.283 47.865,286.283Z" fill="#2CB4AA"/>
<path d="M60.526,278.245C59.645,278.245 59.645,279.514 60.526,279.514C61.407,279.514 61.407,278.245 60.526,278.245Z" fill="#5ABDB7"/>
<path d="M64.729,290.494C63.848,290.494 63.848,291.763 64.729,291.763C65.61,291.763 65.61,290.494 64.729,290.494Z" fill="#5ABDB7"/>
<path d="M59.296,296.224C58.416,296.224 58.416,297.493 59.296,297.493C60.177,297.493 60.177,296.224 59.296,296.224Z" fill="#2CB4AA"/>
<path d="M43.259,293.281C42.378,293.281 42.378,294.55 43.259,294.55C44.14,294.55 44.14,293.281 43.259,293.281Z" fill="#2CB4AA"/>
<path d="M32.228,300.05C31.347,300.05 31.347,301.319 32.228,301.319C33.109,301.319 33.109,300.05 32.228,300.05Z" fill="#2CB4AA"/>
<path d="M30.064,289.84C29.183,289.84 29.183,291.109 30.064,291.109C30.945,291.109 30.945,289.84 30.064,289.84Z" fill="#5ABDB7"/>
<path d="M46.25,270.611C45.37,270.611 45.37,271.88 46.25,271.88C47.131,271.88 47.131,270.611 46.25,270.611Z" fill="#5ABDB7"/>
<path d="M51.406,300.05C50.525,300.05 50.525,301.319 51.406,301.319C52.287,301.319 52.287,300.05 51.406,300.05Z" fill="#2CB4AA"/>
<path d="M56.032,305.26C55.151,305.26 55.151,306.529 56.032,306.529C56.913,306.529 56.913,305.26 56.032,305.26Z" fill="#2CB4AA"/>
<path d="M65.959,301.703C65.079,301.703 65.079,302.972 65.959,302.972C66.84,302.972 66.84,301.703 65.959,301.703Z" fill="#5ABDB7"/>
<path d="M51.956,309.99C51.075,309.99 51.075,311.259 51.956,311.259C52.836,311.259 52.836,309.99 51.956,309.99Z" fill="#2CB4AA"/>
<path d="M43.955,311.933C44.065,312.067 44.23,312.163 44.469,312.163C44.671,312.163 44.836,312.086 44.946,311.971C44.616,311.971 44.285,311.952 43.955,311.933Z" fill="#5ABDB7"/>
<path d="M44.47,310.874C43.828,310.874 43.644,311.566 43.956,311.932C44.286,311.932 44.617,311.951 44.947,311.97C45.296,311.624 45.131,310.874 44.47,310.874Z" fill="#2CB4AA"/>
<path d="M35.092,297.877C34.211,297.877 34.211,299.146 35.092,299.146C35.973,299.146 35.973,297.877 35.092,297.877Z" fill="#2CB4AA"/>
<path d="M43.792,287.436C42.911,287.436 42.911,288.705 43.792,288.705C44.672,288.705 44.672,287.436 43.792,287.436Z" fill="#2CB4AA"/>
<path d="M60.784,291.762C59.903,291.762 59.903,293.031 60.784,293.031C61.665,293.031 61.665,291.762 60.784,291.762Z" fill="#5ABDB7"/>
<path d="M44.635,426.819L44.635,299.031C44.635,298.128 46.121,298.128 46.121,299.031L46.121,426.819L44.635,426.819Z" fill="#676150"/>
<path d="M40.432,301.338C42.285,305.202 44.139,309.067 45.992,312.932C46.378,313.74 45.111,314.451 44.708,313.643C42.854,309.779 41.001,305.914 39.147,302.049C38.762,301.241 40.028,300.53 40.432,301.357Z" fill="#676150"/>
<path d="M59.535,308.836C54.984,314.047 50.433,319.277 45.9,324.488C45.295,325.18 44.249,324.199 44.854,323.507C49.405,318.296 53.957,313.066 58.489,307.856C59.095,307.163 60.141,308.144 59.535,308.836Z" fill="#676150"/>
<path d="M95.211,426.819L95.211,299.031C95.211,298.128 96.697,298.128 96.697,299.031L96.697,426.819L95.211,426.819Z" fill="#676150"/>
<path d="M91.027,301.338C92.88,305.202 94.734,309.067 96.569,312.932C96.954,313.74 95.688,314.451 95.284,313.643C93.431,309.779 91.577,305.914 89.742,302.049C89.357,301.241 90.623,300.53 91.027,301.357Z" fill="#676150"/>
<path d="M110.13,308.836C105.579,314.047 101.028,319.277 96.495,324.488C95.889,325.18 94.843,324.199 95.449,323.507C100,318.296 104.551,313.066 109.084,307.856C109.69,307.163 110.736,308.144 110.13,308.836Z" fill="#676150"/>
<path d="M79.795,426.819L79.795,274.785C79.795,273.458 81.979,273.458 81.979,274.785L81.979,426.819L79.795,426.819Z" fill="#676150"/>
<path d="M94.514,275.304C90.293,283.668 86.054,292.013 81.833,300.377C81.228,301.569 79.338,300.531 79.943,299.339C84.164,290.975 88.403,282.63 92.624,274.266C93.23,273.074 95.12,274.112 94.514,275.304Z" fill="#676150"/>
<path d="M75.446,278.842C77.281,281.053 79.116,283.264 80.951,285.475C81.814,286.514 80.272,287.975 79.41,286.937C77.574,284.725 75.739,282.514 73.904,280.322C73.042,279.284 74.583,277.823 75.464,278.861Z" fill="#676150"/>
<path d="M165.497,326.391C165.497,345.426 178.435,348.83 192.106,348.83C205.778,348.83 218.716,345.599 218.716,326.564C218.716,307.528 202.053,292.915 191.813,292.05C181.958,291.223 165.497,307.375 165.497,326.391Z" fill="#B0D49B"/>
<path d="M170.047,330.68C170.047,344.793 179.645,347.312 189.775,347.312C199.904,347.312 209.502,344.909 209.502,330.796C209.502,316.682 197.133,305.838 189.554,305.203C182.232,304.588 170.047,316.567 170.047,330.68Z" fill="#9CCB8C"/>
<path d="M199.575,320.354C197.318,320.354 197.318,323.681 199.575,323.681C201.832,323.681 201.832,320.354 199.575,320.354Z" fill="#C7E1BC"/>
<path d="M179.26,321.662C178.673,321.662 178.068,321.681 177.462,321.681C177.022,321.681 176.581,321.681 176.141,321.681C175.737,322.662 176.269,324.027 177.701,324.027C179.132,324.027 179.664,322.662 179.26,321.681Z" fill="#C7E1BC"/>
<path d="M178.748,338.198C176.49,338.198 176.49,341.525 178.748,341.525C181.005,341.525 181.005,338.198 178.748,338.198Z" fill="#C7E1BC"/>
<path d="M207.65,339.736C207.136,340.717 206.531,341.582 205.852,342.332C205.98,342.351 206.09,342.371 206.237,342.371C207.815,342.371 208.292,340.736 207.65,339.756Z" fill="#D3E6C6"/>
<path d="M206.218,339.024C204.089,339.024 203.96,341.966 205.832,342.332C206.511,341.582 207.117,340.716 207.631,339.736C207.355,339.313 206.878,339.024 206.218,339.024Z" fill="#C7E1BC"/>
<path d="M207.795,312.028C205.538,312.028 205.538,315.355 207.795,315.355C210.053,315.355 210.053,312.028 207.795,312.028Z" fill="#D3E6C6"/>
<path d="M208.329,303.184C207.191,303.184 207.191,304.856 208.329,304.856C209.467,304.856 209.448,303.184 208.329,303.184Z" fill="#D3E6C6"/>
<path d="M213.761,319.182C212.623,319.182 212.623,320.854 213.761,320.854C214.898,320.854 214.88,319.182 213.761,319.182Z" fill="#D3E6C6"/>
<path d="M206.75,326.7C205.612,326.7 205.612,328.373 206.75,328.373C207.888,328.373 207.869,326.7 206.75,326.7Z" fill="#C7E1BC"/>
<path d="M186.104,322.854C184.967,322.854 184.967,324.526 186.104,324.526C187.242,324.526 187.224,322.854 186.104,322.854Z" fill="#C7E1BC"/>
<path d="M171.92,331.698C170.782,331.698 170.782,333.371 171.92,333.371C173.058,333.371 173.039,331.698 171.92,331.698Z" fill="#C7E1BC"/>
<path d="M196.603,331.698C195.466,331.698 195.466,333.371 196.603,333.371C197.741,333.371 197.723,331.698 196.603,331.698Z" fill="#C7E1BC"/>
<path d="M202.548,338.524C201.41,338.524 201.41,340.197 202.548,340.197C203.685,340.197 203.667,338.524 202.548,338.524Z" fill="#C7E1BC"/>
<path d="M215.319,333.853C214.181,333.853 214.181,335.525 215.319,335.525C216.457,335.525 216.439,333.853 215.319,333.853Z" fill="#D3E6C6"/>
<path d="M197.3,344.697C196.162,344.697 196.162,346.37 197.3,346.37C198.437,346.37 198.419,344.697 197.3,344.697Z" fill="#C7E1BC"/>
<path d="M187.004,347.234C187.151,347.407 187.371,347.523 187.665,347.523C187.94,347.523 188.142,347.427 188.288,347.292C187.866,347.292 187.444,347.273 187.022,347.234Z" fill="#D3E6C6"/>
<path d="M187.666,345.87C186.84,345.87 186.62,346.774 187.005,347.255C187.427,347.274 187.849,347.293 188.271,347.312C188.712,346.851 188.51,345.889 187.666,345.889Z" fill="#C7E1BC"/>
<path d="M175.591,328.853C174.453,328.853 174.453,330.525 175.591,330.525C176.728,330.525 176.71,328.853 175.591,328.853Z" fill="#C7E1BC"/>
<path d="M208.677,320.854C207.539,320.854 207.539,322.527 208.677,322.527C209.814,322.527 209.796,320.854 208.677,320.854Z" fill="#D3E6C6"/>
<path d="M150.852,299.261C150.852,318.296 163.789,321.7 177.461,321.7C191.133,321.7 204.07,318.469 204.07,299.434C204.07,280.398 187.407,265.785 177.167,264.92C167.313,264.093 150.852,280.245 150.852,299.261Z" fill="#CCCF7A"/>
<path d="M155.403,303.548C155.403,317.662 165.001,320.18 175.131,320.18C185.261,320.18 194.859,317.777 194.859,303.664C194.859,289.551 182.49,278.706 174.911,278.072C167.607,277.456 155.403,289.435 155.403,303.548Z" fill="#BABA68"/>
<path d="M185.977,270.728C183.72,270.728 183.72,274.073 185.977,274.073C188.234,274.073 188.234,270.728 185.977,270.728Z" fill="#E3E5B0"/>
<path d="M173.387,275.9C171.845,275.9 171.35,277.458 171.919,278.438C172.763,278.188 173.589,278.054 174.36,278.054C174.543,278.054 174.727,278.054 174.91,278.073C174.928,278.073 174.965,278.073 174.983,278.073C175.277,277.111 174.745,275.881 173.369,275.881Z" fill="#E3E5B0"/>
<path d="M174.361,278.053C173.59,278.053 172.764,278.187 171.92,278.437C172.177,278.899 172.672,279.226 173.388,279.226C174.269,279.226 174.819,278.706 175.003,278.091C174.985,278.091 174.948,278.091 174.93,278.091C174.746,278.091 174.563,278.072 174.379,278.072Z" fill="#D9D9A3"/>
<path d="M184.93,293.224C182.673,293.224 182.673,296.55 184.93,296.55C187.187,296.55 187.187,293.224 184.93,293.224Z" fill="#D9D9A3"/>
<path d="M163.055,293.569C160.798,293.569 160.798,296.915 163.055,296.915C165.312,296.915 165.312,293.569 163.055,293.569Z" fill="#D9D9A3"/>
<path d="M164.597,311.144C164.945,311.99 165.239,312.855 165.478,313.759C166.102,312.893 165.808,311.451 164.597,311.144Z" fill="#D9D9A3"/>
<path d="M193.005,312.624C192.491,313.605 191.885,314.47 191.206,315.22C191.316,315.239 191.463,315.258 191.591,315.258C193.17,315.258 193.647,313.624 193.005,312.643Z" fill="#E3E5B0"/>
<path d="M191.574,311.912C189.445,311.912 189.335,314.854 191.188,315.219C191.867,314.469 192.473,313.604 192.987,312.624C192.711,312.201 192.234,311.912 191.574,311.912Z" fill="#D9D9A3"/>
<path d="M163.753,283.572C162.431,283.572 161.881,284.726 162.101,285.668C162.706,284.937 163.33,284.226 163.973,283.592C163.899,283.592 163.826,283.592 163.734,283.592Z" fill="#E3E5B0"/>
<path d="M163.993,283.572C163.351,284.226 162.727,284.918 162.121,285.649C162.286,286.322 162.837,286.899 163.773,286.899C165.957,286.899 166.03,283.803 164.011,283.572Z" fill="#D9D9A3"/>
<path d="M193.152,284.898C190.895,284.898 190.895,288.225 193.152,288.225C195.409,288.225 195.409,284.898 193.152,284.898Z" fill="#E3E5B0"/>
<path d="M177.058,270.881C175.921,270.881 175.921,272.554 177.058,272.554C178.196,272.554 178.178,270.881 177.058,270.881Z" fill="#E3E5B0"/>
<path d="M184.233,278.399C183.095,278.399 183.095,280.072 184.233,280.072C185.371,280.072 185.353,278.399 184.233,278.399Z" fill="#E3E5B0"/>
<path d="M165.332,274.727C164.194,274.727 164.194,276.399 165.332,276.399C166.47,276.399 166.451,274.727 165.332,274.727Z" fill="#E3E5B0"/>
<path d="M177.407,286.571C176.269,286.571 176.269,288.244 177.407,288.244C178.545,288.244 178.526,286.571 177.407,286.571Z" fill="#D9D9A3"/>
<path d="M193.684,276.053C192.547,276.053 192.547,277.726 193.684,277.726C194.822,277.726 194.804,276.053 193.684,276.053Z" fill="#E3E5B0"/>
<path d="M199.115,292.07C197.977,292.07 197.977,293.743 199.115,293.743C200.253,293.743 200.234,292.07 199.115,292.07Z" fill="#E3E5B0"/>
<path d="M192.106,299.568C190.968,299.568 190.968,301.241 192.106,301.241C193.244,301.241 193.226,299.568 192.106,299.568Z" fill="#D9D9A3"/>
<path d="M171.462,295.743C170.324,295.743 170.324,297.416 171.462,297.416C172.6,297.416 172.581,295.743 171.462,295.743Z" fill="#D9D9A3"/>
<path d="M154.469,291.225C153.331,291.225 153.331,292.897 154.469,292.897C155.606,292.897 155.588,291.225 154.469,291.225Z" fill="#E3E5B0"/>
<path d="M175.297,266.055C174.159,266.055 174.159,267.728 175.297,267.728C176.434,267.728 176.416,266.055 175.297,266.055Z" fill="#E3E5B0"/>
<path d="M181.958,304.568C180.82,304.568 180.82,306.241 181.958,306.241C183.096,306.241 183.096,304.568 181.958,304.568Z" fill="#D9D9A3"/>
<path d="M187.904,311.413C186.766,311.413 186.766,313.086 187.904,313.086C189.042,313.086 189.024,311.413 187.904,311.413Z" fill="#D9D9A3"/>
<path d="M200.677,306.74C199.539,306.74 199.539,308.413 200.677,308.413C201.814,308.413 201.796,306.74 200.677,306.74Z" fill="#E3E5B0"/>
<path d="M182.655,317.567C181.517,317.567 181.517,319.24 182.655,319.24C183.793,319.24 183.775,317.567 182.655,317.567Z" fill="#D9D9A3"/>
<path d="M172.36,320.123C172.507,320.296 172.727,320.411 173.021,320.411C173.296,320.411 173.498,320.315 173.645,320.181C173.223,320.181 172.801,320.162 172.379,320.123Z" fill="#E3E5B0"/>
<path d="M173.02,318.739C172.195,318.739 171.974,319.643 172.36,320.124C172.782,320.143 173.204,320.162 173.626,320.181C174.066,319.72 173.865,318.758 173.02,318.758Z" fill="#D9D9A3"/>
<path d="M160.945,301.741C159.807,301.741 159.807,303.414 160.945,303.414C162.083,303.414 162.065,301.741 160.945,301.741Z" fill="#D9D9A3"/>
<path d="M172.158,288.07C171.02,288.07 171.02,289.743 172.158,289.743C173.296,289.743 173.296,288.07 172.158,288.07Z" fill="#D9D9A3"/>
<path d="M194.033,293.724C192.895,293.724 192.895,295.396 194.033,295.396C195.171,295.396 195.152,293.724 194.033,293.724Z" fill="#E3E5B0"/>
<path d="M133.162,318.951C133.162,330.757 141.2,332.872 149.66,332.872C158.12,332.872 166.158,330.872 166.158,319.066C166.158,307.26 155.808,298.185 149.476,297.646C143.365,297.127 133.144,307.145 133.144,318.951Z" fill="#1C968A"/>
<path d="M135.987,321.605C135.987,330.353 141.951,331.93 148.228,331.93C154.504,331.93 160.468,330.45 160.468,321.682C160.468,312.914 152.797,306.203 148.099,305.799C143.566,305.415 135.987,312.856 135.987,321.605Z" fill="#098A78"/>
<path d="M154.962,301.241C153.567,301.241 153.567,303.318 154.962,303.318C156.357,303.318 156.357,301.241 154.962,301.241Z" fill="#5ABDB7"/>
<path d="M147.146,304.453C146.191,304.453 145.88,305.414 146.228,306.03C146.76,305.876 147.274,305.799 147.751,305.799C147.861,305.799 147.99,305.799 148.1,305.799C148.1,305.799 148.137,305.799 148.155,305.799C148.339,305.203 148.008,304.434 147.146,304.434Z" fill="#5ABDB7"/>
<path d="M147.751,305.799C147.274,305.799 146.76,305.876 146.228,306.03C146.393,306.318 146.686,306.529 147.145,306.529C147.696,306.529 148.026,306.203 148.154,305.818C148.154,305.818 148.118,305.818 148.099,305.818C147.989,305.818 147.879,305.818 147.751,305.818Z" fill="#2CB4AA"/>
<path d="M154.303,315.2C152.908,315.2 152.908,317.277 154.303,317.277C155.698,317.277 155.698,315.2 154.303,315.2Z" fill="#2CB4AA"/>
<path d="M140.739,315.413C139.345,315.413 139.345,317.49 140.739,317.49C142.134,317.49 142.134,315.413 140.739,315.413Z" fill="#2CB4AA"/>
<path d="M141.383,326.276C139.988,326.276 139.988,328.353 141.383,328.353C142.778,328.353 142.778,326.276 141.383,326.276Z" fill="#2CB4AA"/>
<path d="M159.312,327.237C159,327.853 158.614,328.372 158.192,328.852C158.266,328.852 158.339,328.872 158.431,328.872C159.422,328.872 159.697,327.853 159.312,327.237Z" fill="#5ABDB7"/>
<path d="M158.431,326.796C157.11,326.796 157.036,328.623 158.192,328.853C158.614,328.392 159,327.853 159.312,327.257C159.147,327.007 158.853,326.815 158.431,326.815Z" fill="#2CB4AA"/>
<path d="M141.162,309.202C140.336,309.202 140.006,309.914 140.134,310.51C140.501,310.048 140.905,309.625 141.29,309.221C141.235,309.221 141.199,309.221 141.144,309.221Z" fill="#5ABDB7"/>
<path d="M141.309,309.222C140.906,309.625 140.52,310.048 140.135,310.51C140.227,310.933 140.575,311.279 141.162,311.279C142.52,311.279 142.557,309.356 141.309,309.222Z" fill="#2CB4AA"/>
<path d="M159.405,310.028C158.011,310.028 158.011,312.105 159.405,312.105C160.8,312.105 160.8,310.028 159.405,310.028Z" fill="#5ABDB7"/>
<path d="M149.421,301.338C148.724,301.338 148.724,302.376 149.421,302.376C150.119,302.376 150.119,301.338 149.421,301.338Z" fill="#5ABDB7"/>
<path d="M153.88,306.011C153.183,306.011 153.183,307.049 153.88,307.049C154.578,307.049 154.578,306.011 153.88,306.011Z" fill="#5ABDB7"/>
<path d="M142.154,303.722C141.457,303.722 141.457,304.76 142.154,304.76C142.851,304.76 142.851,303.722 142.154,303.722Z" fill="#5ABDB7"/>
<path d="M149.641,311.066C148.944,311.066 148.944,312.105 149.641,312.105C150.339,312.105 150.339,311.066 149.641,311.066Z" fill="#2CB4AA"/>
<path d="M159.735,304.549C159.038,304.549 159.038,305.587 159.735,305.587C160.432,305.587 160.432,304.549 159.735,304.549Z" fill="#5ABDB7"/>
<path d="M163.111,314.49C162.414,314.49 162.414,315.529 163.111,315.529C163.808,315.529 163.808,314.49 163.111,314.49Z" fill="#5ABDB7"/>
<path d="M158.761,319.143C158.064,319.143 158.064,320.181 158.761,320.181C159.459,320.181 159.459,319.143 158.761,319.143Z" fill="#2CB4AA"/>
<path d="M145.952,316.758C145.254,316.758 145.254,317.796 145.952,317.796C146.649,317.796 146.649,316.758 145.952,316.758Z" fill="#2CB4AA"/>
<path d="M137.143,322.238C136.446,322.238 136.446,323.277 137.143,323.277C137.84,323.277 137.84,322.238 137.143,322.238Z" fill="#2CB4AA"/>
<path d="M135.419,313.971C134.722,313.971 134.722,315.009 135.419,315.009C136.117,315.009 136.117,313.971 135.419,313.971Z" fill="#5ABDB7"/>
<path d="M148.338,298.339C147.641,298.339 147.641,299.377 148.338,299.377C149.036,299.377 149.036,298.339 148.338,298.339Z" fill="#5ABDB7"/>
<path d="M152.468,322.238C151.771,322.238 151.771,323.277 152.468,323.277C153.166,323.277 153.166,322.238 152.468,322.238Z" fill="#2CB4AA"/>
<path d="M156.156,326.488C155.458,326.488 155.458,327.527 156.156,327.527C156.853,327.527 156.853,326.488 156.156,326.488Z" fill="#2CB4AA"/>
<path d="M164.085,323.585C163.387,323.585 163.387,324.623 164.085,324.623C164.782,324.623 164.782,323.585 164.085,323.585Z" fill="#5ABDB7"/>
<path d="M152.888,330.314C152.191,330.314 152.191,331.353 152.888,331.353C153.586,331.353 153.586,330.314 152.888,330.314Z" fill="#2CB4AA"/>
<path d="M146.522,331.891C146.614,332.007 146.743,332.064 146.926,332.064C147.091,332.064 147.22,332.007 147.312,331.911C147.055,331.911 146.779,331.911 146.522,331.872Z" fill="#5ABDB7"/>
<path d="M146.926,331.026C146.412,331.026 146.265,331.584 146.522,331.892C146.779,331.892 147.054,331.911 147.311,331.93C147.587,331.642 147.458,331.046 146.926,331.046Z" fill="#2CB4AA"/>
<path d="M139.437,320.488C138.74,320.488 138.74,321.527 139.437,321.527C140.134,321.527 140.134,320.488 139.437,320.488Z" fill="#2CB4AA"/>
<path d="M146.375,312.01C145.677,312.01 145.677,313.048 146.375,313.048C147.072,313.048 147.072,312.01 146.375,312.01Z" fill="#2CB4AA"/>
<path d="M159.956,315.509C159.258,315.509 159.258,316.547 159.956,316.547C160.653,316.547 160.653,315.509 159.956,315.509Z" fill="#5ABDB7"/>
<path d="M147.054,425.145L147.054,321.411C147.054,320.681 148.228,320.681 148.228,321.411L148.228,425.145L147.054,425.145Z" fill="#676150"/>
<path d="M143.695,323.296C145.182,326.431 146.65,329.565 148.136,332.699C148.448,333.353 147.421,333.929 147.109,333.276C145.622,330.141 144.154,327.007 142.668,323.873C142.356,323.219 143.383,322.643 143.695,323.296Z" fill="#676150"/>
<path d="M158.946,329.391C155.312,333.621 151.679,337.871 148.045,342.101C147.568,342.658 146.724,341.87 147.201,341.312C150.835,337.082 154.468,332.833 158.102,328.603C158.579,328.045 159.423,328.834 158.946,329.391Z" fill="#676150"/>
<path d="M187.445,425.145L187.445,321.411C187.445,320.681 188.62,320.681 188.62,321.411L188.62,425.145L187.445,425.145Z" fill="#676150"/>
<path d="M184.104,323.296C185.573,326.431 187.059,329.565 188.546,332.699C188.857,333.353 187.83,333.929 187.518,333.276C186.031,330.141 184.563,327.007 183.077,323.873C182.765,323.219 183.793,322.643 184.104,323.296Z" fill="#676150"/>
<path d="M199.355,329.391C195.721,333.621 192.088,337.871 188.454,342.101C187.977,342.658 187.133,341.87 187.61,341.312C191.244,337.082 194.877,332.833 198.511,328.603C198.988,328.045 199.832,328.834 199.355,329.391Z" fill="#676150"/>
<path d="M175.131,425.146L175.131,301.723C175.131,300.646 176.874,300.646 176.874,301.723L176.874,425.146L175.131,425.146Z" fill="#676150"/>
<path d="M186.894,302.165C183.517,308.952 180.14,315.74 176.764,322.508C176.287,323.489 174.764,322.643 175.259,321.662C178.636,314.875 182.012,308.106 185.389,301.319C185.866,300.358 187.371,301.204 186.894,302.165Z" fill="#676150"/>
<path d="M171.663,305.03C173.131,306.818 174.599,308.626 176.067,310.414C176.746,311.26 175.517,312.433 174.838,311.587C173.37,309.799 171.901,308.01 170.433,306.203C169.754,305.357 170.984,304.184 171.681,305.03Z" fill="#676150"/>
</svg>
