<svg width="30" height="38" viewBox="0 0 30 38" fill="none" xmlns="http://www.w3.org/2000/svg" xmlns:xlink="http://www.w3.org/1999/xlink">
<path d="M0,26.406L3.23,35.518C3.344,35.843 3.707,36.053 4.042,35.992L13.47,34.257L15.646,30.453L2.176,22.596L0,26.399L0,26.406Z" fill="#FEDFD2"/>
<path d="M5.834,31.905C4.646,31.214 3.202,31.268 1.953,31.919L3.229,35.519C3.343,35.844 3.706,36.054 4.041,35.993L7.761,35.309C7.694,33.892 7.03,32.603 5.834,31.912L5.834,31.905Z" fill="#F15B67"/>
<path d="M5.587,25.748L0,26.406L11.731,5.891L15.639,8.169L5.587,25.748Z" fill="#FDC00F"/>
<path d="M11.24,29.043L6.734,30.331L5.586,25.748L15.638,8.168L21.292,11.463L11.24,29.043Z" fill="#FD814C"/>
<path d="M13.47,34.256L11.24,29.043L21.292,11.463L25.2,13.741L13.47,34.256Z" fill="#FDA079"/>
<path d="M20.166,1.027L17.893,1.027L17.893,16.624L20.166,16.624L20.166,1.027Z" transform="rotate(-120.475 19.03 8.825)" fill="#D1DCE4"/>
<path d="M27.693,6.677L16.546,0.183C15.901,-0.19 15.082,0.033 14.713,0.677L12.859,3.918L26.329,11.769L28.183,8.528C28.552,7.877 28.33,7.05 27.693,6.677Z" fill="#F15B67"/>
</svg>
