<svg width="116" height="116" viewBox="0 0 116 116" fill="none" xmlns="http://www.w3.org/2000/svg" xmlns:xlink="http://www.w3.org/1999/xlink">
<path d="M115.732,58C115.732,90.033 89.625,116 57.421,116C25.217,116 -0.89,90.033 -0.89,58C-0.89,25.967 25.217,0 57.421,0C89.625,0 115.732,25.967 115.732,58Z" fill="#82B5CA" fill-opacity="0.08" stroke="#82B5CA" stroke-opacity="0.16" stroke-width="2" stroke-miterlimit="3.999327"/>
<rect  x="38.274" y="84.232" width="44.828" height="5.767" fill="#D1DCE4"/>
<path d="M31.281,72.412L37.234,89.117C37.445,89.714 38.113,90.099 38.732,89.987L56.109,86.805L60.119,79.832L35.291,65.427L31.281,72.4L31.281,72.412Z" fill="#FEDFD2"/>
<path d="M42.036,82.493C39.846,81.225 37.185,81.325 34.883,82.518L37.234,89.118C37.445,89.715 38.113,90.1 38.732,89.988L45.589,88.733C45.465,86.135 44.24,83.773 42.036,82.505L42.036,82.493Z" fill="#F15B67"/>
<path d="M41.579,71.206L31.281,72.412L52.903,34.801L60.106,38.977L41.579,71.206Z" fill="#FDC00F"/>
<path d="M52,77.248L43.695,79.609L41.579,71.207L60.106,38.978L70.528,45.018L52,77.248Z" fill="#FD814C"/>
<path d="M56.109,86.806L52,77.248L70.527,45.019L77.731,49.195L56.109,86.806Z" fill="#FDA079"/>
<path d="M68.442,25.829L64.27,25.829L64.27,54.536L68.442,54.536L68.442,25.829Z" transform="rotate(-120.211 66.356 40.182)" fill="#D1DCE4"/>
<path d="M82.322,36.243L61.777,24.336C60.589,23.652 59.079,24.062 58.398,25.243L54.982,31.185L79.81,45.578L83.226,39.637C83.907,38.443 83.498,36.927 82.322,36.243Z" fill="#F15B67"/>
</svg>
