<svg width="30" height="44" viewBox="0 0 30 44" fill="none" xmlns="http://www.w3.org/2000/svg" xmlns:xlink="http://www.w3.org/1999/xlink">
<path d="M0,31.453L3.23,42.546C3.344,42.942 3.707,43.198 4.042,43.123L13.47,41.01L15.646,36.38L2.176,26.814L0,31.445L0,31.453Z" fill="#FEDFD2"/>
<path d="M5.835,38.146C4.647,37.304 3.203,37.37 1.954,38.162L3.23,42.545C3.344,42.941 3.707,43.197 4.042,43.123L7.762,42.289C7.695,40.564 7.031,38.996 5.835,38.154L5.835,38.146Z" fill="#F15B67"/>
<path d="M5.587,30.653L0,31.454L11.731,6.479L15.639,9.252L5.587,30.653Z" fill="#FDC00F"/>
<path d="M11.241,34.663L6.735,36.231L5.587,30.651L15.639,9.25L21.293,13.261L11.241,34.663Z" fill="#FD814C"/>
<path d="M13.47,41.01L11.241,34.663L21.293,13.262L25.201,16.035L13.47,41.01Z" fill="#FDA079"/>
<path d="M20.357,1.79L17.703,1.79L17.703,18.312L20.357,18.312L20.357,1.79Z" transform="rotate(-129.679 19.03 10.051)" fill="#D1DCE4"/>
<path d="M27.692,7.435L16.545,-0.472C15.901,-0.926 15.082,-0.653 14.712,0.131L12.859,4.076L26.329,13.634L28.182,9.688C28.552,8.896 28.33,7.889 27.692,7.435Z" fill="#F15B67"/>
</svg>
