<svg width="670" height="754" viewBox="0 0 670 754" fill="none" xmlns="http://www.w3.org/2000/svg" xmlns:xlink="http://www.w3.org/1999/xlink">
<path d="M570.754,644.341C571.374,643.601 571.976,642.843 572.56,642.103L571.994,642.843L570.754,644.341ZM619.486,566.515C619.876,565.635 620.282,564.775 620.672,563.897L620.618,564.155L620.548,564.275L620.512,564.315L620.512,564.375C620.512,564.375 620.442,564.495 620.424,564.535C620.122,565.195 619.822,565.855 619.504,566.515M619.61,550.705C619.45,550.765 619.274,550.825 619.114,550.865C619.114,550.865 619.114,550.845 619.114,550.825C619.292,550.785 619.45,550.745 619.628,550.705M0.775,466.123C1.801,476.395 3.411,486.389 5.517,495.763C9.835,514.949 16.063,533.237 24.096,550.105C32.13,566.993 41.809,583.063 52.868,597.853C73.712,625.753 100.113,651.337 131.308,673.861C162.964,696.745 196.195,714.893 230.15,727.885C248.906,735.039 268.052,740.835 287.074,745.073C307.104,749.529 326.782,752.327 345.52,753.367C351.872,753.727 358.26,753.907 364.488,753.907C379.936,753.907 394.94,752.827 409.38,750.669C409.45,750.389 409.504,750.109 409.556,749.829C409.592,749.829 409.628,749.829 409.662,749.829C409.734,749.869 409.822,749.889 409.91,749.909C410.406,750.029 410.848,750.049 411.308,749.989C411.272,750.129 411.256,750.269 411.22,750.409C428.278,747.751 444.556,743.613 459.95,737.997C469.152,734.639 477.256,731.223 484.706,727.585C492.262,723.887 499.516,719.909 506.24,715.753C520.448,706.959 533.844,696.965 546.036,685.993C570.56,663.987 592.094,637.425 610.09,607.067C621.06,588.519 630.634,568.933 638.702,548.527C638.454,548.567 638.206,548.627 637.96,548.667C637.96,548.647 637.976,548.607 637.994,548.587C638.26,547.947 638.384,547.347 638.278,546.647C638.454,546.607 638.614,546.567 638.79,546.527C639.038,546.467 639.286,546.427 639.534,546.387C644.222,534.337 648.382,522.005 652.008,509.433C662.184,474.177 668.094,438.121 669.598,402.345C670.376,383.999 670.022,365.671 668.57,347.903C666.82,326.517 664.164,309.409 660.148,294.099C655.336,275.671 648.736,257.823 640.524,241.055C632.102,223.867 622.176,207.258 610.974,191.688C600.04,176.439 587.512,161.489 573.762,147.259C560.332,133.368 546.124,120.497 531.544,109.065C516.786,97.492 501.428,87.08 485.926,78.086C471.434,69.671 456.872,62.576 442.664,57C429.216,50.185 415.608,44.149 402.178,39.072C382.006,31.397 361.958,25.681 342.6,22.044C328.922,19.486 317.756,18.166 307.458,17.927C305.6,17.887 303.708,17.847 301.832,17.847C295.144,17.847 287.976,18.107 279.96,18.666C269.858,19.366 259.47,20.465 249.066,21.984C225.55,25.402 202.742,30.438 181.313,36.954C155.939,44.648 134.67,53.422 116.268,63.735C105.881,69.571 96.91,75.547 88.859,82.003C80.401,88.798 73.358,95.874 67.271,103.628C61.114,111.523 56.389,119.957 53.204,128.631C49.86,137.825 48.161,147.638 48.32,157.012C48.391,162.788 48.904,167.965 49.842,172.861C50.939,178.477 52.461,184.074 54.39,189.41C56.425,195.106 58.92,200.682 61.751,206.039C63.573,209.456 65.343,212.574 67.165,215.572C67.979,216.911 68.811,218.231 69.642,219.569C71.164,222.009 72.686,224.467 74.137,226.965C78.419,234.659 81.356,241.335 83.356,247.931C84.453,252.047 85.143,255.905 85.426,259.743C85.55,263.321 85.302,266.777 84.701,270.315C83.851,274.213 82.577,278.071 80.808,282.147C75.34,293.579 67.767,303.333 59.804,313.127C57.663,315.745 55.487,318.343 53.31,320.941C48.02,327.237 42.552,333.753 37.651,340.627C30.484,350.681 24.38,360.933 19.496,371.107C14.311,381.859 10.401,391.733 7.57,401.267C4.296,412.279 2.084,423.031 0.987,433.245C-0.234,444.497 -0.322,455.529 0.722,466.083Z" fill="#FCEAF4"/>
<path d="M503.038,88.439C517.955,92.436 533.084,100.47 550.637,113.642C556.83,118.298 562.864,123.275 568.792,128.412C569.623,129.271 570.437,130.13 571.269,130.99C575.498,135.547 579.656,140.203 583.726,144.96C585.955,147.998 588.114,151.116 590.202,154.274C587.548,152.915 584.841,151.656 582.098,150.497C573.622,146.959 564.828,144.401 555.928,142.682C548.779,141.303 541.595,140.463 534.376,140.044C532.305,139.824 530.146,139.604 527.899,139.404L526.749,139.304C523.016,138.944 519.158,138.585 515.336,138.465L515.619,138.425L511.567,138.425C508.187,138.425 504.808,138.525 501.446,138.585L496.261,138.705C493.943,138.744 491.625,138.784 489.307,138.784C483.38,138.784 478.177,138.585 473.453,138.185C465.296,137.465 458.448,135.926 452.52,133.468C449.494,132.209 446.646,130.51 443.991,128.412C441.337,126.313 438.948,123.435 437.073,120.137C436.117,118.418 435.374,116.699 434.932,115.001C434.684,114.121 434.525,113.222 434.418,112.302C434.295,111.303 434.33,110.284 434.365,109.284C434.436,107.945 434.755,106.486 435.374,104.808C435.887,103.448 436.683,102.009 437.78,100.57C439.532,98.232 441.886,96.133 444.982,94.175C447.778,92.396 450.839,90.917 454.343,89.618C461.067,87.1 468.605,85.661 476.726,85.361C477.753,85.321 478.797,85.301 479.823,85.301C487.538,85.301 495.377,86.36 503.091,88.459Z" fill="#F5B2D1"/>
<path d="M444.539,133.788C477.009,133.788 503.321,104.068 503.321,67.393C503.321,30.718 477.009,0.998 444.539,0.998C412.07,0.998 385.758,30.718 385.758,67.393C385.758,104.068 412.07,133.788 444.539,133.788Z" fill="#FFFFFF"/>
</svg>
