<svg width="40" height="84" viewBox="0 0 40 84" fill="none" xmlns="http://www.w3.org/2000/svg" xmlns:xlink="http://www.w3.org/1999/xlink">
<path d="M26.439,10.819C29.482,9.879 33.554,11.528 38.423,15.185C38.545,15.276 38.716,15.169 38.687,15.02C38.004,11.507 36.24,8.673 32.723,6.939C33.752,6.272 35.036,6.858 36.399,7.837C36.542,7.939 36.727,7.778 36.643,7.623C34.846,4.323 32.178,2.482 28.369,2.55C28.421,1.788 29.282,1.28 30.484,0.88C30.66,0.821 30.623,0.563 30.438,0.555C24.164,0.283 20.826,3.435 19.9,9.397L26.44,10.819L26.439,10.819Z" fill="#353842"/>
<path d="M19.317,11.239C21.765,11.289 24.169,11.754 26.52,12.709L26.438,10.82C24.363,10.071 22.179,9.607 19.899,9.397L19.317,11.239Z" fill="#6927FF"/>
<path d="M5.973,79.395L5.486,77.323C5.482,76.716 5.52,76.108 5.597,75.506C6.213,70.695 7.25,66.128 8.841,61.881L5.608,59.983C4.451,64.231 3.503,72.606 3.216,75.311C3.156,75.872 3.128,76.435 3.132,76.998C2.97,78.709 2.437,80.226 2.533,81.255C2.553,81.471 2.653,81.673 2.813,81.828L3.451,82.448C3.572,82.978 3.868,83.289 4.49,83.193C4.732,83.574 4.958,83.893 5.179,83.985C5.244,84.013 5.317,83.966 5.308,83.9C5.229,83.276 4.858,80.298 4.989,80.282C5.428,80.231 5.465,81.943 5.813,81.901C6.098,81.866 6.055,80.347 6.029,79.786C6.022,79.654 6.004,79.523 5.974,79.394L5.973,79.395Z" fill="#FBD3A8"/>
<path d="M30.638,79.395L31.125,77.323C31.129,76.716 31.091,76.108 31.014,75.506C30.398,70.695 29.362,66.128 27.771,61.881L31.003,59.983C32.161,64.231 33.109,72.606 33.396,75.311C33.455,75.872 33.483,76.435 33.48,76.998C33.641,78.709 34.174,80.226 34.078,81.255C34.058,81.471 33.959,81.673 33.798,81.828L33.16,82.448C33.04,82.978 32.743,83.289 32.121,83.193C31.879,83.574 31.653,83.893 31.433,83.985C31.367,84.013 31.294,83.966 31.303,83.9C31.382,83.276 31.753,80.298 31.622,80.282C31.183,80.231 31.146,81.943 30.798,81.901C30.514,81.866 30.556,80.347 30.583,79.786C30.589,79.654 30.607,79.523 30.637,79.394L30.638,79.395Z" fill="#FBD3A8"/>
<path d="M21.416,48.267L15.127,48.267C15.179,50.82 14.824,52.427 14.449,53.433C14.308,53.812 14.419,54.238 14.721,54.508C16.096,55.736 20.2,56.176 21.87,54.375C22.12,54.104 22.196,53.717 22.071,53.37C21.705,52.361 21.365,50.767 21.416,48.266L21.416,48.267Z" fill="#FBD3A8"/>
<g opacity="0.35">
<path d="M15.33,48.61L21.261,48.651L21.362,50.379C20.42,51.766 15.86,51.707 15.159,50.314L15.33,48.611L15.33,48.61Z" fill="#F8A364"/>
</g>
<path d="M4.449,41.68C1.74,41.68 0.011,38.073 0.853,35.745C1.056,35.182 1.459,34.702 2.008,34.467C2.989,34.047 3.873,34.564 4.449,34.95L4.449,41.68Z" fill="#FBD3A8"/>
<path d="M3.508,40.207C1.813,39.847 1.074,35.731 3.177,36.001L4.379,36.136L4.379,40.357L3.508,40.207L3.508,40.207Z" fill="#FBBD89"/>
<path d="M4.325,36.308C4.053,36.21 3.778,36.124 3.498,36.077C3.219,36.035 2.929,36.025 2.671,36.12C2.414,36.211 2.199,36.415 2.081,36.68C1.961,36.943 1.912,37.24 1.892,37.536C1.882,37.24 1.899,36.937 1.996,36.646C2.09,36.355 2.309,36.091 2.6,35.953C2.892,35.812 3.217,35.793 3.526,35.808C3.835,35.829 4.136,35.89 4.433,35.965L4.324,36.308L4.325,36.308Z" fill="#603813"/>
<path d="M32.184,41.68C34.893,41.68 36.622,38.073 35.78,35.745C35.577,35.182 35.174,34.702 34.625,34.467C33.644,34.047 32.76,34.564 32.184,34.95L32.184,41.68Z" fill="#FBD3A8"/>
<path d="M33.126,40.207C34.82,39.847 35.559,35.731 33.457,36.001L32.255,36.136L32.255,40.357L33.126,40.207L33.126,40.207Z" fill="#FBBD89"/>
<path d="M32.199,35.964C32.496,35.89 32.797,35.828 33.107,35.808C33.415,35.794 33.74,35.813 34.032,35.953C34.323,36.091 34.542,36.355 34.636,36.645C34.734,36.936 34.75,37.239 34.74,37.535C34.721,37.239 34.672,36.943 34.552,36.679C34.434,36.415 34.219,36.211 33.961,36.119C33.703,36.025 33.413,36.035 33.135,36.076C32.854,36.124 32.579,36.21 32.308,36.307L32.198,35.964L32.199,35.964Z" fill="#603813"/>
<path d="M32.219,21.549L4.596,21.549C0.848,38.623 3.54,49.851 18.218,50.203L18.597,50.203C33.274,49.851 35.968,38.622 32.22,21.549L32.219,21.549Z" fill="#FBD3A8"/>
<path d="M18.126,39.979C18.185,39.991 18.244,39.977 18.302,39.96C19.37,39.647 19.525,40.844 18.665,40.952C17.845,41.028 17.413,40.75 17.149,40.395C17.005,40.201 17.117,39.911 17.357,39.88C17.573,39.852 17.854,39.924 18.126,39.978L18.126,39.979Z" fill="#F8A364"/>
<path d="M12.328,38.059C13.008,38.059 13.558,37.18 13.558,36.096C13.558,35.012 13.008,34.133 12.328,34.133C11.649,34.133 11.099,35.012 11.099,36.096C11.099,37.18 11.649,38.059 12.328,38.059Z" fill="#4D4E4E"/>
<path d="M12.454,35.996C12.758,35.996 13.004,35.691 13.004,35.316C13.004,34.94 12.758,34.636 12.454,34.636C12.15,34.636 11.904,34.94 11.904,35.316C11.904,35.691 12.15,35.996 12.454,35.996Z" fill="#FFFFFF"/>
<path d="M11.587,32.548C11.642,32.534 11.699,32.528 11.755,32.534C12.463,32.591 13.203,32.596 13.203,32.036C13.203,31.044 10.608,31.384 10.608,32.346C10.685,32.72 10.994,32.697 11.587,32.548Z" fill="#4D4E4E"/>
<path d="M10.969,33.832C11.088,34.065 11.067,34.313 10.924,34.387C10.78,34.461 10.566,34.332 10.447,34.099C10.328,33.866 10.349,33.618 10.493,33.544C10.637,33.471 10.85,33.599 10.969,33.832Z" fill="#EF8971"/>
<path d="M10.042,36.105C10.302,36.083 10.502,35.934 10.487,35.773C10.472,35.612 10.251,35.5 9.99,35.522C9.73,35.545 9.53,35.694 9.545,35.855C9.56,36.016 9.781,36.128 10.042,36.105Z" fill="#EF8971"/>
<path d="M10.226,34.559C10.474,34.638 10.637,34.827 10.587,34.981C10.537,35.135 10.297,35.196 10.047,35.116C9.799,35.036 9.636,34.847 9.686,34.693C9.735,34.539 9.976,34.479 10.226,34.559Z" fill="#EF8971"/>
<path d="M23.825,38.059C24.505,38.059 25.055,37.18 25.055,36.096C25.055,35.012 24.505,34.133 23.825,34.133C23.146,34.133 22.596,35.012 22.596,36.096C22.596,37.18 23.146,38.059 23.825,38.059Z" fill="#4D4E4E"/>
<path d="M23.149,35.316C23.149,35.691 23.395,35.996 23.699,35.996C24.003,35.996 24.249,35.691 24.249,35.316C24.249,34.94 24.003,34.636 23.699,34.636C23.395,34.636 23.149,34.94 23.149,35.316Z" fill="#FFFFFF"/>
<path d="M24.567,32.548C24.512,32.534 24.455,32.528 24.399,32.534C23.691,32.591 22.951,32.596 22.951,32.036C22.951,31.044 25.545,31.384 25.545,32.346C25.468,32.72 25.159,32.697 24.567,32.548Z" fill="#4D4E4E"/>
<path d="M25.186,33.832C25.067,34.065 25.088,34.313 25.231,34.387C25.375,34.461 25.588,34.332 25.707,34.099C25.826,33.866 25.805,33.618 25.662,33.544C25.517,33.471 25.305,33.599 25.186,33.832Z" fill="#EF8971"/>
<path d="M26.112,36.105C25.852,36.083 25.652,35.934 25.667,35.773C25.682,35.612 25.903,35.5 26.164,35.522C26.424,35.545 26.624,35.694 26.609,35.855C26.595,36.016 26.373,36.128 26.112,36.105Z" fill="#EF8971"/>
<path d="M25.929,34.559C25.68,34.638 25.518,34.827 25.567,34.981C25.616,35.135 25.858,35.196 26.107,35.116C26.356,35.036 26.518,34.847 26.469,34.693C26.42,34.539 26.178,34.479 25.929,34.559Z" fill="#EF8971"/>
<path d="M14.729,43.677C15.341,43.797 15.936,43.923 16.532,44.01C17.128,44.094 17.721,44.148 18.315,44.153C18.91,44.16 19.503,44.119 20.099,44.043C20.695,43.963 21.289,43.841 21.9,43.717C21.374,44.052 20.791,44.296 20.184,44.459C19.577,44.626 18.943,44.704 18.31,44.697C17.677,44.689 17.046,44.598 16.443,44.423C15.839,44.253 15.259,44.007 14.73,43.676L14.729,43.677Z" fill="#F8A364"/>
<path d="M16.633,45.35C16.936,45.36 17.228,45.385 17.517,45.403C17.806,45.422 18.093,45.435 18.379,45.442C18.665,45.449 18.952,45.452 19.242,45.449C19.531,45.445 19.824,45.436 20.127,45.443C19.857,45.583 19.567,45.673 19.271,45.73C18.974,45.788 18.671,45.814 18.368,45.805C18.065,45.797 17.764,45.755 17.471,45.681C17.179,45.608 16.893,45.504 16.631,45.35L16.633,45.35Z" fill="#F8A364"/>
<path d="M29.044,55.93C28.397,54.608 27.245,53.604 25.846,53.144L21.649,51.756C20.928,53.417 20.141,54.444 18.262,54.464C16.383,54.444 15.615,53.417 14.895,51.756L10.678,53.144C9.28,53.603 8.126,54.607 7.48,55.93L4.478,62.07L8.416,63.615L9.886,77.968L26.637,77.968L28.038,63.615L32.045,62.07L29.043,55.93L29.044,55.93Z" fill="#6927FF"/>
<path d="M9.958,43.628C11.141,43.628 12.099,42.67 12.099,41.488C12.099,40.305 11.141,39.347 9.958,39.347C8.776,39.347 7.817,40.305 7.817,41.488C7.817,42.67 8.776,43.628 9.958,43.628Z" fill="#EF8971"/>
<path d="M27.413,43.628C28.596,43.628 29.554,42.67 29.554,41.488C29.554,40.305 28.596,39.347 27.413,39.347C26.231,39.347 25.272,40.305 25.272,41.488C25.272,42.67 26.231,43.628 27.413,43.628Z" fill="#EF8971"/>
<path d="M11.497,22.341C7.648,25.659 4.505,31.718 3.992,37.44C3.963,37.771 3.68,38.022 3.348,38.022L2.041,34.685C1.221,32.595 0.683,30.403 0.465,28.169C-0.593,17.355 4.798,13.262 13.234,10.951C17.781,9.705 22.639,10.064 26.885,12.111C32.056,14.602 34.965,18.105 35.7,24.219C36.186,28.262 35.604,32.362 34.092,36.143L33.341,38.022C32.996,38.022 32.706,37.774 32.64,37.434C31.904,33.634 27.506,29.431 22.819,26.724C23.27,28.203 23.846,29.7 24.782,31.243C20.683,30.717 18.437,28.732 16.246,24.92L16.908,29.051C12.982,26.906 11.82,25.876 11.498,22.34L11.497,22.341Z" fill="#353842"/>
<path d="M28.481,77.48C28.481,77.48 28.127,73.32 28.038,63.614C25.163,63.58 25.41,58.482 25.277,52.961L23.897,52.526C24.116,57.703 22.217,60.425 18.227,60.722C14.238,60.425 12.339,57.703 12.557,52.526L11.177,53.013C11.043,58.534 11.292,63.58 8.417,63.614C8.326,73.32 7.983,77.48 7.983,77.48C13.725,79.498 22.686,79.175 28.481,77.48Z" fill="#ECCF39"/>
<path d="M19.264,63.336C18.615,63.261 18.425,64.136 18.425,64.136C18.425,64.136 18.235,63.26 17.587,63.336C16.941,63.414 16.179,64.668 16.177,65.28C16.177,66.399 17.053,68.289 18.425,69.469C19.798,68.29 20.674,66.4 20.674,65.28C20.674,64.668 19.912,63.414 19.264,63.336Z" fill="#6927FF"/>
<path d="M12.852,66.777C12.578,67.37 13.354,67.82 13.354,67.82C13.354,67.82 12.461,67.731 12.332,68.372C12.206,69.011 13.164,70.123 13.744,70.313C14.809,70.661 16.878,70.408 18.425,69.468C17.728,67.8 16.203,66.381 15.134,66.038C14.554,65.848 13.124,66.184 12.852,66.777Z" fill="#6927FF"/>
<path d="M14.143,73.94C14.62,74.382 15.289,73.785 15.289,73.785C15.289,73.785 14.93,74.606 15.499,74.925C16.068,75.244 17.42,74.676 17.782,74.181C18.442,73.273 18.842,71.232 18.425,69.469C16.622,69.618 14.801,70.632 14.143,71.539C13.784,72.032 13.664,73.498 14.143,73.94L14.143,73.94Z" fill="#6927FF"/>
<path d="M21.354,74.926C21.923,74.608 21.561,73.787 21.561,73.787C21.561,73.787 22.231,74.383 22.71,73.941C23.19,73.499 23.066,72.034 22.708,71.541C22.05,70.632 20.23,69.619 18.426,69.471C18.013,71.234 18.412,73.275 19.072,74.183C19.431,74.677 20.786,75.246 21.354,74.927L21.354,74.926Z" fill="#6927FF"/>
<path d="M24.518,68.372C24.392,67.732 23.499,67.821 23.499,67.821C23.499,67.821 24.274,67.37 24.001,66.778C23.725,66.185 22.298,65.849 21.715,66.038C20.65,66.383 19.125,67.801 18.424,69.469C19.972,70.408 22.039,70.661 23.105,70.314C23.685,70.124 24.644,69.011 24.517,68.372L24.518,68.372Z" fill="#6927FF"/>
<path d="M19.342,69.47C19.342,69.975 18.931,70.386 18.426,70.386C17.92,70.386 17.513,69.975 17.513,69.47C17.513,68.964 17.921,68.557 18.426,68.557C18.931,68.557 19.342,68.965 19.342,69.47Z" fill="#912493"/>
<rect  x="18.349" y="66.4" width="0.156" height="3.07" fill="#912493"/>
<path d="M18.716,66.4C18.716,66.561 18.587,66.69 18.427,66.69C18.267,66.69 18.14,66.561 18.14,66.4C18.14,66.24 18.269,66.113 18.427,66.113C18.584,66.113 18.716,66.243 18.716,66.4Z" fill="#912493"/>
<path d="M18.36,69.509L16.826,66.851L16.958,66.773L18.492,69.432L18.36,69.509Z" fill="#912493"/>
<path d="M17.142,66.667C17.22,66.806 17.174,66.983 17.036,67.062C16.899,67.14 16.723,67.095 16.642,66.957C16.562,66.818 16.611,66.642 16.746,66.563C16.883,66.482 17.062,66.53 17.142,66.666L17.142,66.667Z" fill="#912493"/>
<path d="M18.388,69.536L15.729,68.002L15.807,67.87L18.464,69.404L18.388,69.536Z" fill="#912493"/>
<path d="M15.913,67.686C16.051,67.765 16.097,67.941 16.016,68.08C15.938,68.218 15.761,68.263 15.622,68.186C15.484,68.105 15.439,67.928 15.516,67.792C15.597,67.652 15.775,67.605 15.913,67.686Z" fill="#912493"/>
<rect  x="15.356" y="69.394" width="3.07" height="0.154" fill="#912493"/>
<path d="M15.355,69.183C15.516,69.183 15.645,69.312 15.645,69.47C15.645,69.627 15.516,69.759 15.355,69.759C15.195,69.759 15.068,69.631 15.068,69.47C15.068,69.309 15.198,69.183 15.355,69.183Z" fill="#912493"/>
<path d="M15.806,71.072L15.729,70.94L18.388,69.403L18.463,69.535L15.806,71.072Z" fill="#912493"/>
<path d="M15.623,70.756C15.761,70.676 15.939,70.723 16.017,70.861C16.097,70.999 16.051,71.175 15.914,71.256C15.776,71.334 15.598,71.287 15.517,71.15C15.439,71.013 15.486,70.836 15.623,70.756Z" fill="#912493"/>
<path d="M16.958,72.167L16.826,72.092L18.36,69.433L18.492,69.509L16.958,72.167Z" fill="#912493"/>
<path d="M16.642,71.986C16.723,71.848 16.898,71.799 17.036,71.88C17.175,71.96 17.22,72.135 17.142,72.274C17.062,72.411 16.884,72.459 16.748,72.38C16.611,72.299 16.562,72.124 16.642,71.986Z" fill="#912493"/>
<rect  x="18.348" y="69.47" width="0.156" height="3.07" fill="#912493"/>
<path d="M18.139,72.539C18.139,72.38 18.268,72.252 18.426,72.252C18.583,72.252 18.715,72.38 18.715,72.539C18.715,72.698 18.586,72.828 18.426,72.828C18.266,72.828 18.139,72.698 18.139,72.539Z" fill="#912493"/>
<path d="M19.896,72.167L18.36,69.509L18.493,69.433L20.029,72.092L19.896,72.167Z" fill="#912493"/>
<path d="M19.713,72.273C19.632,72.134 19.681,71.959 19.819,71.879C19.956,71.798 20.132,71.847 20.212,71.984C20.29,72.123 20.244,72.298 20.107,72.379C19.969,72.457 19.791,72.41 19.713,72.273Z" fill="#912493"/>
<path d="M21.049,71.072L18.389,69.535L18.464,69.403L21.123,70.94L21.049,71.072Z" fill="#912493"/>
<path d="M20.942,71.254C20.804,71.176 20.755,70.999 20.836,70.861C20.916,70.723 21.092,70.676 21.23,70.756C21.367,70.834 21.414,71.011 21.336,71.149C21.255,71.288 21.08,71.333 20.943,71.254L20.942,71.254Z" fill="#912493"/>
<rect  x="18.492" y="69.401" width="3.009" height="0.151" fill="#912493"/>
<path d="M21.501,69.759C21.346,69.759 21.219,69.634 21.219,69.476C21.219,69.319 21.346,69.194 21.501,69.194C21.655,69.194 21.782,69.321 21.782,69.476C21.782,69.631 21.655,69.759 21.501,69.759Z" fill="#912493"/>
<path d="M18.529,69.54L18.455,69.41L21.062,67.907L21.135,68.037L18.529,69.54Z" fill="#912493"/>
<path d="M21.239,68.215C21.105,68.292 20.932,68.248 20.853,68.113C20.775,67.978 20.823,67.805 20.958,67.727C21.092,67.648 21.265,67.695 21.344,67.829C21.42,67.964 21.374,68.137 21.239,68.215Z" fill="#912493"/>
<path d="M18.556,69.514L18.427,69.44L19.932,66.833L20.062,66.908L18.556,69.514Z" fill="#912493"/>
<path d="M20.239,67.012C20.163,67.147 19.992,67.193 19.857,67.115C19.722,67.038 19.674,66.864 19.753,66.728C19.829,66.594 20.003,66.548 20.139,66.626C20.274,66.703 20.319,66.877 20.24,67.012L20.239,67.012Z" fill="#912493"/>
</svg>
