<svg width="48" height="48" viewBox="0 0 48 48" fill="none" xmlns="http://www.w3.org/2000/svg" xmlns:xlink="http://www.w3.org/1999/xlink">
<path d="M12,7.5L36,7.5L36,4.5L12,4.5L12,7.5ZM42.5,14L42.5,34L45.5,34L45.5,14L42.5,14ZM36,40.5L12,40.5L12,43.5L36,43.5L36,40.5ZM5.5,34L5.5,14L2.5,14L2.5,34L5.5,34ZM12,40.5C8.41,40.5 5.5,37.59 5.5,34L2.5,34C2.5,39.247 6.753,43.5 12,43.5L12,40.5ZM42.5,34C42.5,37.59 39.59,40.5 36,40.5L36,43.5C41.247,43.5 45.5,39.247 45.5,34L42.5,34ZM36,7.5C39.59,7.5 42.5,10.41 42.5,14L45.5,14C45.5,8.753 41.247,4.5 36,4.5L36,7.5ZM12,4.5C6.753,4.5 2.5,8.753 2.5,14L5.5,14C5.5,10.41 8.41,7.5 12,7.5L12,4.5Z" fill="#696F82"/>
<path d="M44,18L45.5,18C45.5,17.602 45.342,17.221 45.061,16.939C44.779,16.658 44.398,16.5 44,16.5L44,18ZM44,30L44,31.5C44.828,31.5 45.5,30.828 45.5,30L44,30ZM36,18L36,19.5L36,18ZM36,30L36,31.5L36,31.5L36,30ZM42.5,18L42.5,30L45.5,30L45.5,18L42.5,18ZM44,28.5L36,28.5L36,31.5L44,31.5L44,28.5ZM36,19.5L44,19.5L44,16.5L36,16.5L36,19.5ZM31.5,24C31.5,21.515 33.515,19.5 36,19.5L36,16.5C31.858,16.5 28.5,19.858 28.5,24L31.5,24ZM36,28.5C33.515,28.5 31.5,26.485 31.5,24L28.5,24C28.5,28.142 31.858,31.5 36,31.5L36,28.5Z" fill="#696F82"/>
</svg>
