<svg width="36" height="36" viewBox="0 0 36 36" fill="none" xmlns="http://www.w3.org/2000/svg" xmlns:xlink="http://www.w3.org/1999/xlink">
<path d="M24,3C23.172,3 22.5,3.672 22.5,4.5C22.5,5.328 23.172,6 24,6L24,3ZM31.5,4.5L33,4.5C33,3.672 32.328,3 31.5,3L31.5,4.5ZM30,12C30,12.828 30.672,13.5 31.5,13.5C32.328,13.5 33,12.828 33,12L30,12ZM13.939,19.939C13.354,20.525 13.354,21.475 13.939,22.061C14.525,22.646 15.475,22.646 16.061,22.061L13.939,19.939ZM24,6L31.5,6L31.5,3L24,3L24,6ZM30,4.5L30,12L33,12L33,4.5L30,4.5ZM30.439,3.439L13.939,19.939L16.061,22.061L32.561,5.561L30.439,3.439Z" fill="#6927FF"/>
<path d="M30,19.5C30,18.672 29.328,18 28.5,18C27.672,18 27,18.672 27,19.5L30,19.5ZM16.5,9C17.328,9 18,8.328 18,7.5C18,6.672 17.328,6 16.5,6L16.5,9ZM27,19.5C27,25.299 22.299,30 16.5,30L16.5,33C23.956,33 30,26.956 30,19.5L27,19.5ZM16.5,30C10.701,30 6,25.299 6,19.5L3,19.5C3,26.956 9.044,33 16.5,33L16.5,30ZM6,19.5C6,13.701 10.701,9 16.5,9L16.5,6C9.044,6 3,12.044 3,19.5L6,19.5Z" fill="#6927FF"/>
</svg>
