<svg width="48" height="48" viewBox="0 0 48 48" fill="none" xmlns="http://www.w3.org/2000/svg" xmlns:xlink="http://www.w3.org/1999/xlink">
<path d="M24,24L23.379,25.366C23.774,25.545 24.226,25.545 24.621,25.366L24,24ZM35.621,20.366C36.375,20.023 36.708,19.133 36.366,18.379C36.023,17.625 35.133,17.292 34.379,17.634L35.621,20.366ZM13.621,17.634C12.867,17.292 11.977,17.625 11.634,18.379C11.292,19.133 11.625,20.023 12.379,20.366L13.621,17.634ZM34.379,17.634L23.379,22.634L24.621,25.366L35.621,20.366L34.379,17.634ZM24.621,22.634L13.621,17.634L12.379,20.366L23.379,25.366L24.621,22.634Z" fill="#696F82"/>
<path d="M14.34,33.594L13.717,34.958L14.34,33.594ZM25.66,37.243L26.283,38.608L25.66,37.243ZM22.34,37.243L21.717,38.608L22.34,37.243ZM33.66,33.594L33.038,32.229L33.66,33.594ZM33.66,16.406L33.038,17.771L33.66,16.406ZM25.038,14.122L33.038,17.771L34.283,15.042L26.283,11.392L25.038,14.122ZM14.962,17.771L22.962,14.122L21.717,11.392L13.717,15.042L14.962,17.771ZM33.038,32.229L25.038,35.878L26.283,38.608L34.283,34.958L33.038,32.229ZM22.962,35.878L14.962,32.229L13.717,34.958L21.717,38.608L22.962,35.878ZM37.5,29.954L37.5,20.046L34.5,20.046L34.5,29.954L37.5,29.954ZM13.5,29.954L13.5,20.046L10.5,20.046L10.5,29.954L13.5,29.954ZM14.962,32.229C14.072,31.823 13.5,30.934 13.5,29.954L10.5,29.954C10.5,32.109 11.758,34.064 13.717,34.958L14.962,32.229ZM25.038,35.878C24.379,36.179 23.621,36.179 22.962,35.878L21.717,38.608C23.167,39.269 24.833,39.269 26.283,38.608L25.038,35.878ZM34.283,34.958C36.242,34.064 37.5,32.109 37.5,29.954L34.5,29.954C34.5,30.934 33.928,31.823 33.038,32.229L34.283,34.958ZM13.717,15.042C11.758,15.936 10.5,17.891 10.5,20.046L13.5,20.046C13.5,19.066 14.072,18.177 14.962,17.771L13.717,15.042ZM33.038,17.771C33.928,18.177 34.5,19.066 34.5,20.046L37.5,20.046C37.5,17.891 36.242,15.936 34.283,15.042L33.038,17.771ZM26.283,11.392C24.833,10.731 23.167,10.731 21.717,11.392L22.962,14.122C23.621,13.821 24.379,13.821 25.038,14.122L26.283,11.392Z" fill="#696F82"/>
<line x1="22.5" y1="24" x2="22.5" y2="36" stroke="#696F82" stroke-width="1.5" stroke-miterlimit="3.999327" stroke-linecap="round" stroke-linejoin="round"/>
<line x1="22.5" y1="4" x2="22.5" y2="6" stroke="#696F82" stroke-width="1.5" stroke-miterlimit="3.999327" stroke-linecap="round" stroke-linejoin="round"/>
<line x1="22.5" y1="42" x2="22.5" y2="44" stroke="#696F82" stroke-width="1.5" stroke-miterlimit="3.999327" stroke-linecap="round" stroke-linejoin="round"/>
<path d="M40.935,7.565C40.935,6.736 40.264,6.065 39.435,6.065C38.607,6.065 37.935,6.736 37.935,7.565L40.935,7.565ZM37.935,9.565C37.935,10.393 38.607,11.065 39.435,11.065C40.264,11.065 40.935,10.393 40.935,9.565L37.935,9.565ZM37.935,7.565L37.935,9.565L40.935,9.565L40.935,7.565L37.935,7.565Z" transform="rotate(90 39.435 8.565)" fill="#696F82"/>
<path d="M10.064,38.436C10.064,37.607 9.393,36.936 8.564,36.936C7.736,36.936 7.064,37.607 7.064,38.436L10.064,38.436ZM7.064,40.436C7.064,41.264 7.736,41.936 8.564,41.936C9.393,41.936 10.064,41.264 10.064,40.436L7.064,40.436ZM7.064,38.436L7.064,40.436L10.064,40.436L10.064,38.436L7.064,38.436Z" transform="rotate(90 8.564 39.436)" fill="#696F82"/>
<line x1="44" y1="22.5" x2="42" y2="22.5" stroke="#696F82" stroke-width="1.5" stroke-miterlimit="3.999327" stroke-linecap="round" stroke-linejoin="round"/>
<line x1="6" y1="22.5" x2="4" y2="22.5" stroke="#696F82" stroke-width="1.5" stroke-miterlimit="3.999327" stroke-linecap="round" stroke-linejoin="round"/>
<path d="M40.935,38.435C40.935,37.607 40.264,36.935 39.435,36.935C38.607,36.935 37.935,37.607 37.935,38.435L40.935,38.435ZM37.935,40.435C37.935,41.264 38.607,41.935 39.435,41.935C40.264,41.935 40.935,41.264 40.935,40.435L37.935,40.435ZM37.935,38.435L37.935,40.435L40.935,40.435L40.935,38.435L37.935,38.435Z" transform="rotate(270 39.435 39.435)" fill="#696F82"/>
<path d="M10.064,7.564C10.064,6.736 9.393,6.064 8.564,6.064C7.736,6.064 7.064,6.736 7.064,7.564L10.064,7.564ZM7.064,9.564C7.064,10.393 7.736,11.064 8.564,11.064C9.393,11.064 10.064,10.393 10.064,9.564L7.064,9.564ZM7.064,7.564L7.064,9.564L10.064,9.564L10.064,7.564L7.064,7.564Z" transform="rotate(270 8.564 8.564)" fill="#696F82"/>
</svg>
