<svg width="48" height="48" viewBox="0 0 48 48" fill="none" xmlns="http://www.w3.org/2000/svg" xmlns:xlink="http://www.w3.org/1999/xlink">
<path d="M10.157,10.879L10.921,12.169L10.157,10.879ZM10.157,37.121L10.921,35.831L10.157,37.121ZM28.157,42.858L28.921,44.148L28.157,42.858ZM19.843,42.858L19.079,44.148L19.079,44.148L19.843,42.858ZM37.843,37.121L38.607,38.412L38.607,38.412L37.843,37.121ZM37.843,10.879L37.079,12.169L37.843,10.879ZM28.157,5.142L27.393,6.433L28.157,5.142ZM19.843,5.142L19.079,3.852L19.843,5.142ZM27.393,6.433L37.079,12.169L38.607,9.588L28.921,3.852L27.393,6.433ZM40.5,18.264L40.5,29.736L43.5,29.736L43.5,18.264L40.5,18.264ZM7.5,29.736L7.5,18.264L4.5,18.264L4.5,29.736L7.5,29.736ZM10.921,12.169L20.607,6.433L19.079,3.852L9.393,9.588L10.921,12.169ZM7.5,18.264C7.5,15.735 8.816,13.416 10.921,12.169L9.393,9.588C6.354,11.388 4.5,14.7 4.5,18.264L7.5,18.264ZM10.921,35.831C8.816,34.584 7.5,32.265 7.5,29.736L4.5,29.736C4.5,33.3 6.354,36.612 9.393,38.412L10.921,35.831ZM27.393,41.567C25.292,42.811 22.708,42.811 20.607,41.567L19.079,44.148C22.122,45.951 25.878,45.951 28.921,44.148L27.393,41.567ZM40.5,29.736C40.5,32.265 39.184,34.584 37.079,35.831L38.607,38.412C41.646,36.612 43.5,33.3 43.5,29.736L40.5,29.736ZM37.079,12.169C39.184,13.416 40.5,15.735 40.5,18.264L43.5,18.264C43.5,14.7 41.646,11.388 38.607,9.588L37.079,12.169ZM28.921,3.852C25.878,2.049 22.122,2.049 19.079,3.852L20.607,6.433C22.708,5.189 25.292,5.189 27.393,6.433L28.921,3.852ZM37.079,35.831L35.838,36.566L37.366,39.147L38.607,38.412L37.079,35.831ZM35.838,36.566L27.393,41.567L28.921,44.148L37.366,39.147L35.838,36.566ZM24,31.896C28.809,31.896 33.028,34.574 35.296,38.593L37.909,37.119C35.144,32.219 29.961,28.896 24,28.896L24,31.896ZM20.607,41.567L12.162,36.566L10.634,39.147L19.079,44.148L20.607,41.567ZM12.162,36.566L10.921,35.831L9.393,38.412L10.634,39.147L12.162,36.566ZM12.704,38.593C14.972,34.574 19.191,31.896 24,31.896L24,28.896C18.039,28.896 12.856,32.219 10.091,37.119L12.704,38.593Z" fill="#696F82"/>
<circle cx="24" cy="18" r="6" transform="rotate(0 24 18)" stroke="#696F82" stroke-width="1.5" stroke-miterlimit="3.999327" stroke-linejoin="round"/>
</svg>
