<svg width="48" height="50" viewBox="0 0 48 50" fill="none" xmlns="http://www.w3.org/2000/svg" xmlns:xlink="http://www.w3.org/1999/xlink">
<path d="M14,9.045L34,9.045L34,6.045L14,6.045L14,9.045ZM40.5,15.545L40.5,37.194L43.5,37.194L43.5,15.545L40.5,15.545ZM34,43.694L14,43.694L14,46.694L34,46.694L34,43.694ZM7.5,37.194L7.5,15.545L4.5,15.545L4.5,37.194L7.5,37.194ZM14,43.694C10.41,43.694 7.5,40.784 7.5,37.194L4.5,37.194C4.5,42.441 8.753,46.694 14,46.694L14,43.694ZM40.5,37.194C40.5,40.784 37.59,43.694 34,43.694L34,46.694C39.247,46.694 43.5,42.441 43.5,37.194L40.5,37.194ZM34,9.045C37.59,9.045 40.5,11.955 40.5,15.545L43.5,15.545C43.5,10.298 39.247,6.045 34,6.045L34,9.045ZM14,6.045C8.753,6.045 4.5,10.298 4.5,15.545L7.5,15.545C7.5,11.955 10.41,9.045 14,9.045L14,6.045Z" fill="#9E3840"/>
<line x1="6" y1="17.238" x2="42" y2="17.238" stroke="#9E3840" stroke-width="1.5" stroke-miterlimit="3.999327" stroke-linecap="round"/>
<line x1="14.5" y1="4.492" x2="14.5" y2="10.597" stroke="#9E3840" stroke-width="1.5" stroke-miterlimit="3.999327" stroke-linecap="round" stroke-linejoin="round"/>
<line x1="30.5" y1="4.492" x2="30.5" y2="10.597" stroke="#9E3840" stroke-width="1.5" stroke-miterlimit="3.999327" stroke-linecap="round" stroke-linejoin="round"/>
<path d="M26,30.949C26,32.073 25.105,32.984 24,32.984C22.895,32.984 22,32.073 22,30.949C22,29.825 22.895,28.914 24,28.914C25.105,28.914 26,29.825 26,30.949Z" fill="#9E3840"/>
<path d="M34,30.949C34,32.073 33.105,32.984 32,32.984C30.895,32.984 30,32.073 30,30.949C30,29.825 30.895,28.914 32,28.914C33.105,28.914 34,29.825 34,30.949Z" fill="#9E3840"/>
<path d="M18,30.949C18,32.073 17.105,32.984 16,32.984C14.895,32.984 14,32.073 14,30.949C14,29.825 14.895,28.914 16,28.914C17.105,28.914 18,29.825 18,30.949Z" fill="#9E3840"/>
</svg>
