<svg width="48" height="48" viewBox="0 0 48 48" fill="none" xmlns="http://www.w3.org/2000/svg" xmlns:xlink="http://www.w3.org/1999/xlink">
<path d="M35.061,20.939C34.475,20.354 33.525,20.354 32.939,20.939C32.354,21.525 32.354,22.475 32.939,23.061L35.061,20.939ZM43.061,23.061C43.646,22.475 43.646,21.525 43.061,20.939C42.475,20.354 41.525,20.354 40.939,20.939L43.061,23.061ZM32.939,23.061L35.525,25.646L37.646,23.525L35.061,20.939L32.939,23.061ZM40.475,25.646L43.061,23.061L40.939,20.939L38.354,23.525L40.475,25.646ZM35.525,25.646C36.892,27.013 39.108,27.013 40.475,25.646L38.354,23.525C38.158,23.72 37.842,23.72 37.646,23.525L35.525,25.646Z" transform="rotate(-180 38 24)" fill="#FF1438"/>
<path d="M38,25.5C38.828,25.5 39.5,24.828 39.5,24C39.5,23.172 38.828,22.5 38,22.5L38,25.5ZM26,22.5C25.172,22.5 24.5,23.172 24.5,24C24.5,24.828 25.172,25.5 26,25.5L26,22.5ZM6.5,34.533C6.5,35.361 7.172,36.033 8,36.033C8.828,36.033 9.5,35.361 9.5,34.533L6.5,34.533ZM33.5,34.533C33.5,33.704 32.828,33.033 32,33.033C31.172,33.033 30.5,33.704 30.5,34.533L33.5,34.533ZM30.5,14.533C30.5,15.361 31.172,16.033 32,16.033C32.828,16.033 33.5,15.361 33.5,14.533L30.5,14.533ZM9.5,14.533C9.5,13.704 8.828,13.033 8,13.033C7.172,13.033 6.5,13.704 6.5,14.533L9.5,14.533ZM9.781,39.72L10.613,38.472L10.613,38.472L9.781,39.72ZM13.781,42.387L12.949,43.635L12.949,43.635L13.781,42.387ZM13.781,6.679L12.949,5.43L12.949,5.43L13.781,6.679ZM9.781,9.345L8.949,8.097L9.781,9.345ZM20,9.033C19.172,9.033 18.5,9.704 18.5,10.533C18.5,11.361 19.172,12.033 20,12.033L20,9.033ZM20,37.033C19.172,37.033 18.5,37.704 18.5,38.533C18.5,39.361 19.172,40.033 20,40.033L20,37.033ZM38,22.5L26,22.5L26,25.5L38,25.5L38,22.5ZM9.5,34.533L9.5,14.533L6.5,14.533L6.5,34.533L9.5,34.533ZM30.5,34.533C30.5,35.913 29.381,37.033 28,37.033L28,40.033C31.038,40.033 33.5,37.57 33.5,34.533L30.5,34.533ZM28,12.033C29.381,12.033 30.5,13.152 30.5,14.533L33.5,14.533C33.5,11.495 31.038,9.033 28,9.033L28,12.033ZM10.613,10.593L14.613,7.927L12.949,5.43L8.949,8.097L10.613,10.593ZM18.5,10.007L18.5,39.059L21.5,39.059L21.5,10.007L18.5,10.007ZM14.613,41.139L10.613,38.472L8.949,40.968L12.949,43.635L14.613,41.139ZM9.5,36.392L9.5,12.673L6.5,12.673L6.5,36.392L9.5,36.392ZM10.613,38.472C9.918,38.008 9.5,37.228 9.5,36.392L6.5,36.392C6.5,38.231 7.419,39.948 8.949,40.968L10.613,38.472ZM18.5,39.059C18.5,41.055 16.275,42.246 14.613,41.139L12.949,43.635C16.604,46.072 21.5,43.451 21.5,39.059L18.5,39.059ZM14.613,7.927C16.275,6.819 18.5,8.01 18.5,10.007L21.5,10.007C21.5,5.614 16.604,2.994 12.949,5.43L14.613,7.927ZM8.949,8.097C7.419,9.117 6.5,10.834 6.5,12.673L9.5,12.673C9.5,11.838 9.918,11.057 10.613,10.593L8.949,8.097ZM20,12.033L28,12.033L28,9.033L20,9.033L20,12.033ZM28,37.033L20,37.033L20,40.033L28,40.033L28,37.033Z" fill="#FF1438"/>
</svg>
