<svg width="408" height="408" viewBox="0 0 408 408" fill="none" xmlns="http://www.w3.org/2000/svg" xmlns:xlink="http://www.w3.org/1999/xlink">
<path d="M360.984,228.309C362.202,225.804 363.28,223.172 364.214,220.414C374.912,188.839 358.736,151.022 324.668,141.895C320.982,95.636 288.478,63.905 251.77,58.491C209.753,52.298 171.259,78.989 158.451,121.413C143.013,115.946 127.97,116.611 113.796,124.893C107.366,127.868 101.482,132.258 96.203,138.031C88.451,146.505 83.416,157.207 81.364,168.488C78.324,168.965 75.338,169.447 72.523,170.455C56.109,176.342 45.75,188.46 42.91,206.71C41.139,218.072 44.709,229.411 46.7,233.993C54.563,252.091 72.796,262.358 91.319,259.64C92.241,259.506 93.58,259.922 94.375,260.586C95.354,289.518 109.402,315.104 130.475,329.718C164.286,353.17 207.787,345.944 235.229,313.786C246.988,325.814 260.982,331.656 277.424,329.534C293.77,327.424 306.462,318.404 315.724,303.74C320,304.892 324.06,306.552 328.254,307.008C344.676,308.804 358.012,302.272 367.796,287.506C371.542,281.856 375.084,274.528 375.084,261.688C375.084,248.452 369.828,236.396 360.984,228.309Z" fill="#E4E6EC"/>
<path d="M313.589,201.675C313.589,201.675 361.093,201.675 361.382,201.675C372.354,201.675 381.244,192.781 381.244,181.809C381.244,172.238 374.475,164.253 365.462,162.368C365.564,161.532 365.638,160.683 365.638,159.818C365.638,148.455 356.429,139.247 345.066,139.247C338.359,139.247 332.419,142.474 328.665,147.44C327.706,134.792 316.409,125.036 303.189,126.652C293.524,127.835 285.531,135.306 283.752,144.877C283.181,147.945 283.242,150.928 283.809,153.723C281.219,150.932 277.53,149.174 273.422,149.174C265.902,149.174 259.766,155.028 259.28,162.425C255.865,161.671 252.153,161.72 248.24,163.188C240.765,165.995 235.441,173.033 235.127,181.014C234.686,192.348 243.74,201.675 254.972,201.675C255.825,201.675 258.823,201.675 259.517,201.675L300.762,201.675Z" fill="#FDFCEF"/>
<path d="M361.381,203.71L313.588,203.71C312.462,203.71 311.548,202.796 311.548,201.67C311.548,200.544 312.462,199.63 313.588,199.63L361.381,199.63C371.206,199.63 379.203,191.634 379.203,181.805C379.203,173.412 373.25,166.076 365.045,164.363C364.009,164.147 363.307,163.171 363.438,162.115C363.527,161.36 363.593,160.593 363.593,159.814C363.593,149.593 355.282,141.282 345.061,141.282C339.219,141.282 333.833,143.975 330.283,148.671C329.773,149.348 328.884,149.634 328.084,149.397C327.268,149.157 326.689,148.443 326.624,147.598C326.199,142 323.462,136.749 319.108,133.179C314.714,129.577 309.153,127.986 303.429,128.675C294.632,129.752 287.362,136.566 285.75,145.248C285.248,147.957 285.265,150.67 285.803,153.318C285.983,154.216 285.55,155.122 284.734,155.538C283.927,155.962 282.927,155.783 282.307,155.113C279.977,152.6 276.815,151.217 273.412,151.217C267.039,151.217 261.727,156.199 261.307,162.559C261.266,163.155 260.972,163.702 260.495,164.057C260.022,164.412 259.41,164.546 258.83,164.416C255.415,163.657 252.184,163.881 248.953,165.097C242.172,167.639 237.435,174.065 237.162,181.091C236.97,185.995 238.732,190.634 242.123,194.159C245.513,197.688 250.075,199.63 254.967,199.63L300.756,199.63C301.883,199.63 302.796,200.544 302.796,201.67C302.796,202.796 301.883,203.71 300.756,203.71L254.975,203.71C248.961,203.71 243.355,201.324 239.189,196.991C235.024,192.658 232.853,186.958 233.09,180.932C233.428,172.286 239.23,164.387 247.525,161.278C250.781,160.058 254.151,159.654 257.545,160.062C259.083,152.657 265.664,147.137 273.42,147.137C276.199,147.137 278.916,147.863 281.315,149.202C281.311,147.639 281.458,146.068 281.748,144.505C283.682,134.089 292.392,125.917 302.939,124.628C309.773,123.779 316.436,125.705 321.703,130.026C325.779,133.367 328.672,137.945 329.982,142.992C334.094,139.275 339.406,137.206 345.065,137.206C357.534,137.206 367.677,147.349 367.677,159.818C367.677,160.156 367.668,160.491 367.648,160.821C376.808,163.559 383.283,172.111 383.283,181.813C383.283,193.886 373.458,203.71 361.381,203.71Z" fill="#74262C"/>
<path d="M296.252,162.926C288.904,162.445 282.58,167.52 282.127,174.26C282.07,175.097 282.107,175.921 282.229,176.725C280.814,175.125 278.712,174.036 276.305,173.881C271.899,173.591 268.092,176.504 267.537,180.462C266.734,180.242 265.901,180.095 265.032,180.038C258.602,179.617 253.07,184.057 252.674,189.956Z" fill="#FDFCEF"/>
<path d="M252.675,190.972C252.65,190.972 252.63,190.972 252.606,190.972C252.042,190.935 251.618,190.449 251.659,189.886C252.091,183.44 258.114,178.548 265.103,179.017C265.657,179.054 266.208,179.123 266.759,179.234C267.873,175.305 271.875,172.608 276.371,172.861C278.069,172.971 279.705,173.522 281.092,174.419C281.096,174.342 281.1,174.268 281.108,174.191C281.598,166.9 288.363,161.396 296.319,161.906C296.882,161.943 297.306,162.428 297.265,162.991C297.233,163.55 296.825,163.999 296.18,163.942C289.374,163.489 283.552,168.156 283.14,174.325C283.091,175.08 283.124,175.835 283.234,176.565C283.303,177.01 283.071,177.451 282.659,177.642C282.243,177.834 281.757,177.732 281.459,177.398C280.17,175.941 278.265,175.027 276.233,174.892C272.385,174.648 269.019,177.149 268.546,180.592C268.501,180.882 268.342,181.143 268.097,181.302C267.857,181.465 267.563,181.518 267.269,181.437C266.486,181.225 265.727,181.098 264.964,181.045C259.08,180.649 254.05,184.684 253.687,190.013C253.654,190.56 253.209,190.972 252.675,190.972Z" fill="#74262C"/>
<path d="M369.423,164.698C362.52,161.442 354.535,163.748 351.589,169.843C351.222,170.602 350.953,171.381 350.773,172.173Z" fill="#FDFCEF"/>
<path d="M350.773,173.192C350.7,173.192 350.627,173.184 350.549,173.168C349.998,173.045 349.652,172.498 349.778,171.948C349.978,171.074 350.276,170.218 350.671,169.398C353.85,162.804 362.455,160.279 369.86,163.775C370.37,164.016 370.59,164.624 370.349,165.134C370.105,165.648 369.493,165.856 368.991,165.624C362.601,162.613 355.2,164.697 352.512,170.291C352.181,170.968 351.932,171.678 351.769,172.405C351.663,172.874 351.239,173.192 350.773,173.192Z" fill="#74262C"/>
<path d="M75.19,195.958L34.435,195.958C33.308,195.958 32.395,195.044 32.395,193.918C32.395,192.792 33.308,191.878 34.435,191.878L75.19,191.878C76.316,191.878 77.23,192.792 77.23,193.918C77.23,195.044 76.32,195.958 75.19,195.958ZM86.899,195.958L81.024,195.958C79.898,195.958 78.984,195.044 78.984,193.918C78.984,192.792 79.898,191.878 81.024,191.878L86.899,191.878C88.025,191.878 88.939,192.792 88.939,193.918C88.939,195.044 88.029,195.958 86.899,195.958ZM103.37,195.958L93.027,195.958C91.901,195.958 90.987,195.044 90.987,193.918C90.987,192.792 91.901,191.878 93.027,191.878L103.37,191.878C104.496,191.878 105.41,192.792 105.41,193.918C105.41,195.044 104.5,195.958 103.37,195.958ZM103.37,203.534L64.3,203.534C63.174,203.534 62.26,202.621 62.26,201.494C62.26,200.368 63.174,199.454 64.3,199.454L103.37,199.454C104.496,199.454 105.41,200.368 105.41,201.494C105.41,202.621 104.5,203.534 103.37,203.534ZM57.266,203.534L54.908,203.534C53.782,203.534 52.868,202.621 52.868,201.494C52.868,200.368 53.782,199.454 54.908,199.454L57.266,199.454C58.392,199.454 59.306,200.368 59.306,201.494C59.306,202.621 58.392,203.534 57.266,203.534ZM47.605,203.534L41.689,203.534C40.563,203.534 39.649,202.621 39.649,201.494C39.649,200.368 40.563,199.454 41.689,199.454L47.605,199.454C48.731,199.454 49.645,200.368 49.645,201.494C49.645,202.621 48.735,203.534 47.605,203.534ZM84.729,188.381L64.3,188.381C63.174,188.381 62.26,187.467 62.26,186.341C62.26,185.215 63.174,184.301 64.3,184.301L84.729,184.301C85.855,184.301 86.769,185.215 86.769,186.341C86.769,187.467 85.855,188.381 84.729,188.381ZM84.729,180.805L79.621,180.805C78.495,180.805 77.581,179.891 77.581,178.765C77.581,177.639 78.495,176.725 79.621,176.725L84.729,176.725C85.855,176.725 86.769,177.639 86.769,178.765C86.769,179.891 85.855,180.805 84.729,180.805ZM71.444,211.111L64.3,211.111C63.174,211.111 62.26,210.197 62.26,209.071C62.26,207.945 63.174,207.031 64.3,207.031L71.444,207.031C72.57,207.031 73.484,207.945 73.484,209.071C73.484,210.197 72.574,211.111 71.444,211.111ZM291.267,89.188L250.511,89.188C249.385,89.188 248.471,88.274 248.471,87.148C248.471,86.022 249.385,85.108 250.511,85.108L291.267,85.108C292.393,85.108 293.307,86.022 293.307,87.148C293.307,88.274 292.397,89.188 291.267,89.188ZM302.977,89.188L297.101,89.188C295.975,89.188 295.061,88.274 295.061,87.148C295.061,86.022 295.975,85.108 297.101,85.108L302.977,85.108C304.103,85.108 305.017,86.022 305.017,87.148C305.017,88.274 304.107,89.188 302.977,89.188ZM319.447,89.188L309.105,89.188C307.979,89.188 307.065,88.274 307.065,87.148C307.065,86.022 307.979,85.108 309.105,85.108L319.447,85.108C320.573,85.108 321.487,86.022 321.487,87.148C321.487,88.274 320.577,89.188 319.447,89.188ZM311.219,74.031L272.149,74.031C271.021,74.031 270.109,73.117 270.109,71.991C270.109,70.865 271.021,69.951 272.149,69.951L311.219,69.951C312.345,69.951 313.259,70.865 313.259,71.991C313.259,73.117 312.345,74.031 311.219,74.031ZM265.111,74.031L262.751,74.031C261.625,74.031 260.711,73.117 260.711,71.991C260.711,70.865 261.625,69.951 262.751,69.951L265.111,69.951C266.237,69.951 267.151,70.865 267.151,71.991C267.151,73.117 266.237,74.031 265.111,74.031ZM255.453,74.031L249.537,74.031C248.411,74.031 247.497,73.117 247.497,71.991C247.497,70.865 248.411,69.951 249.537,69.951L255.453,69.951C256.579,69.951 257.493,70.865 257.493,71.991C257.493,73.117 256.579,74.031 255.453,74.031ZM300.805,81.612L280.377,81.612C279.251,81.612 278.337,80.698 278.337,79.572C278.337,78.446 279.251,77.532 280.377,77.532L300.805,77.532C301.933,77.532 302.845,78.446 302.845,79.572C302.845,80.698 301.933,81.612 300.805,81.612Z" fill="#FFFFFF"/>
<path d="M300.806,74.031L295.694,74.031C294.568,74.031 293.654,73.117 293.654,71.991C293.654,70.865 294.568,69.951 295.694,69.951L300.806,69.951C301.932,69.951 302.846,70.865 302.846,71.991C302.846,73.117 301.932,74.031 300.806,74.031ZM274.466,81.612L267.317,81.612C266.191,81.612 265.277,80.698 265.277,79.572C265.277,78.446 266.191,77.532 267.317,77.532L274.466,77.532C275.592,77.532 276.506,78.446 276.506,79.572C276.506,80.698 275.592,81.612 274.466,81.612Z" fill="#FFFFFF"/>
<path d="M238.088,160.402C234.824,160.402 232.181,157.97 232.181,154.967L232.181,149.875C232.181,142.307 225.412,136.109 217.142,136.109L151.209,136.109C142.939,136.109 136.17,142.303 136.17,149.875L136.17,160.846L136.17,163.829L136.427,275.086C148.177,275.609 149.165,279.636 165.044,279.636L280.182,279.636C296.024,279.636 308.987,267.73 308.987,253.181L308.987,165.836C308.987,162.833 306.343,160.402 303.079,160.402L238.088,160.402Z" fill="#BBBEC9"/>
<path d="M280.186,282.49L165.048,282.49C155.779,282.49 151.172,281.123 147.113,279.92C144.045,279.01 141.152,278.153 136.305,277.937C134.783,277.868 133.579,276.615 133.575,275.089L133.322,149.874C133.322,140.71 141.352,133.252 151.217,133.252L217.15,133.252C227.019,133.252 235.049,140.71 235.049,149.874L235.049,154.966C235.049,156.39 236.416,157.544 238.097,157.544L303.091,157.544C307.926,157.544 311.855,161.265 311.855,165.835L311.855,253.18C311.847,269.34 297.644,282.49 280.186,282.49ZM139.275,272.425C143.273,272.825 146.04,273.645 148.728,274.444C152.596,275.591 156.603,276.778 165.044,276.778L280.186,276.778C294.494,276.778 306.131,266.195 306.131,253.18L306.131,165.835C306.131,164.411 304.76,163.256 303.079,163.256L238.084,163.256C233.254,163.256 229.325,159.535 229.325,154.966L229.325,149.874C229.325,143.86 223.857,138.968 217.142,138.968L151.209,138.968C144.493,138.968 139.03,143.86 139.03,149.874L139.03,163.823L139.275,272.425Z" fill="#74262C"/>
<path d="M302.284,282.035L143.755,282.035C139.708,282.035 136.428,278.746 136.428,274.687L159.627,176.424L332.174,176.424L308.979,275.327C308.979,279.032 305.98,282.035 302.284,282.035Z" fill="#FDFCEE"/>
<path d="M302.282,284.89L143.758,284.89C138.14,284.89 133.57,280.312 133.57,274.69C133.57,274.47 133.599,274.249 133.648,274.033L156.851,175.77C157.157,174.481 158.307,173.567 159.633,173.567L332.181,173.567C333.054,173.567 333.878,173.967 334.42,174.652C334.962,175.334 335.162,176.227 334.962,177.076L311.826,275.685C311.638,280.794 307.431,284.89 302.282,284.89ZM139.29,274.984C139.441,277.321 141.388,279.178 143.758,279.178L302.282,279.178C304.4,279.178 306.118,277.452 306.118,275.326C306.118,275.106 306.146,274.89 306.195,274.674L328.57,179.283L161.886,179.283L139.29,274.984ZM201.878,149.83L195.231,149.83C194.387,149.83 193.701,149.144 193.701,148.3C193.701,147.455 194.387,146.77 195.231,146.77L201.878,146.77C202.722,146.77 203.408,147.455 203.408,148.3C203.408,149.144 202.722,149.83 201.878,149.83ZM188.863,149.83L147.654,149.83C146.81,149.83 146.124,149.144 146.124,148.3C146.124,147.455 146.81,146.77 147.654,146.77L188.863,146.77C189.707,146.77 190.393,147.455 190.393,148.3C190.393,149.144 189.707,149.83 188.863,149.83Z" fill="#74262C"/>
<path d="M260.382,209.639L260.382,200.814C260.382,198.753 258.648,197.068 256.526,197.068L204.233,197.068C202.111,197.068 200.377,198.753 200.377,200.814L200.377,263.189L210.597,253.364L220.124,263.189L230.5,253.364L240.875,263.189L250.402,253.364L260.386,263.189L260.386,223.348Z" fill="#E4E6EC"/>
<path d="M200.378,264.719C200.174,264.719 199.97,264.679 199.782,264.597C199.215,264.356 198.848,263.801 198.848,263.189L198.848,200.814C198.848,197.905 201.263,195.543 204.229,195.543L256.527,195.543C259.497,195.543 261.908,197.909 261.908,200.814L261.908,209.639C261.908,210.484 261.223,211.169 260.378,211.169C259.534,211.169 258.848,210.484 258.848,209.639L258.848,200.814C258.848,199.594 257.804,198.603 256.527,198.603L204.229,198.603C202.952,198.603 201.908,199.594 201.908,200.814L201.908,259.595L209.537,252.259C210.137,251.676 211.104,251.688 211.696,252.3L220.166,261.039L229.444,252.255C230.035,251.696 230.957,251.696 231.549,252.255L240.823,261.039L249.297,252.3C249.586,252.002 250.003,251.716 250.398,251.835C250.802,251.835 251.186,251.994 251.471,252.275L258.852,259.538L258.852,223.352C258.852,222.508 259.538,221.822 260.382,221.822C261.227,221.822 261.912,222.508 261.912,223.352L261.912,263.193C261.912,263.81 261.541,264.369 260.974,264.605C260.403,264.846 259.75,264.715 259.313,264.283L250.427,255.539L241.977,264.258C241.39,264.858 240.435,264.879 239.827,264.303L230.504,255.474L221.177,264.303C220.574,264.874 219.615,264.858 219.027,264.254L210.565,255.523L201.447,264.291C201.145,264.568 200.765,264.719 200.378,264.719Z" fill="#74262C"/>
<path d="M260.381,217.512C259.818,217.512 259.361,217.055 259.361,216.492L259.361,215.35C259.361,214.787 259.818,214.33 260.381,214.33C260.944,214.33 261.401,214.787 261.401,215.35L261.401,216.492C261.401,217.055 260.944,217.512 260.381,217.512ZM251.108,208.944L209.198,208.944C208.635,208.944 208.178,208.487 208.178,207.924C208.178,207.361 208.635,206.904 209.198,206.904L251.108,206.904C251.671,206.904 252.128,207.361 252.128,207.924C252.128,208.487 251.671,208.944 251.108,208.944ZM219.394,215.183L209.198,215.183C208.635,215.183 208.178,214.726 208.178,214.163C208.178,213.6 208.635,213.143 209.198,213.143L219.394,213.143C219.957,213.143 220.414,213.6 220.414,214.163C220.414,214.726 219.957,215.183 219.394,215.183ZM209.202,227.206C209.079,227.206 208.916,227.206 208.79,227.125C208.671,227.084 208.586,227.002 208.463,226.921C208.382,226.839 208.3,226.717 208.259,226.594C208.219,226.472 208.178,226.35 208.178,226.186C208.178,225.942 208.296,225.656 208.459,225.493C208.831,225.126 209.565,225.085 209.891,225.493C210.095,225.656 210.218,225.942 210.218,226.186C210.218,226.472 210.095,226.717 209.891,226.921C209.732,227.125 209.443,227.206 209.202,227.206ZM238.615,227.223L212.727,227.223C212.164,227.223 211.707,226.766 211.707,226.203C211.707,225.64 212.164,225.183 212.727,225.183L238.615,225.183C239.178,225.183 239.635,225.64 239.635,226.203C239.635,226.766 239.178,227.223 238.615,227.223ZM209.202,233.285C208.916,233.285 208.671,233.163 208.463,233C208.3,232.796 208.182,232.551 208.182,232.265C208.182,231.98 208.3,231.735 208.463,231.531C208.835,231.164 209.569,231.164 209.895,231.531C210.099,231.735 210.222,231.98 210.222,232.265C210.222,232.551 210.099,232.796 209.895,233C209.732,233.163 209.443,233.285 209.202,233.285ZM238.615,233.285L212.727,233.285C212.164,233.285 211.707,232.829 211.707,232.265C211.707,231.702 212.164,231.245 212.727,231.245L238.615,231.245C239.178,231.245 239.635,231.702 239.635,232.265C239.635,232.829 239.178,233.285 238.615,233.285ZM209.202,239.324C208.916,239.324 208.671,239.242 208.463,239.038C208.3,238.875 208.182,238.589 208.182,238.345C208.182,238.059 208.263,237.773 208.463,237.61C208.586,237.529 208.671,237.447 208.79,237.365C209.157,237.202 209.647,237.325 209.895,237.61C210.018,237.692 210.099,237.814 210.14,237.937C210.181,238.059 210.226,238.181 210.226,238.345C210.226,238.589 210.103,238.834 209.899,239.038C209.732,239.242 209.483,239.324 209.202,239.324ZM238.615,239.348L212.727,239.348C212.164,239.348 211.707,238.891 211.707,238.328C211.707,237.765 212.164,237.308 212.727,237.308L238.615,237.308C239.178,237.308 239.635,237.765 239.635,238.328C239.635,238.891 239.178,239.348 238.615,239.348ZM247.966,236.199C247.982,236.199 248.019,236.215 248.076,236.252L248.048,236.239C248.313,236.415 248.549,236.558 248.762,236.66C248.974,236.762 249.194,236.835 249.435,236.88L249.435,232.735L249.19,232.6C248.888,232.441 248.598,232.274 248.325,232.094C248.052,231.919 247.803,231.719 247.582,231.507C247.362,231.294 247.179,231.066 247.028,230.825C246.877,230.585 246.775,230.323 246.717,230.038C246.681,229.895 246.66,229.764 246.656,229.638C246.652,229.511 246.648,229.381 246.648,229.238C246.648,228.822 246.717,228.455 246.86,228.145C247.003,227.835 247.195,227.569 247.444,227.353C247.689,227.137 247.982,226.961 248.321,226.831C248.66,226.705 249.031,226.615 249.435,226.574L249.435,226.199C249.435,226.023 249.476,225.872 249.557,225.746C249.639,225.619 249.79,225.558 250.01,225.558L250.063,225.558C250.54,225.558 250.802,225.787 250.846,226.239L250.834,226.598C251.091,226.643 251.352,226.713 251.622,226.807C251.891,226.9 252.197,227.019 252.536,227.157L252.495,227.133C252.65,227.186 252.772,227.251 252.858,227.333C252.944,227.414 252.997,227.541 253.017,227.72L253.017,227.802C253.017,227.863 253.001,227.945 252.968,228.043C252.935,228.141 252.886,228.234 252.825,228.324C252.76,228.414 252.687,228.491 252.605,228.557C252.523,228.626 252.429,228.659 252.332,228.659C252.25,228.659 252.172,228.651 252.103,228.638C252.034,228.626 251.956,228.589 251.862,228.524L251.862,228.536L251.711,228.459C251.446,228.324 251.152,228.218 250.834,228.141L250.834,231.78L250.887,231.809C251.63,232.172 252.201,232.576 252.605,233.02C253.009,233.465 253.274,233.926 253.401,234.407C253.454,234.611 253.494,234.799 253.519,234.966C253.543,235.134 253.551,235.309 253.551,235.485C253.551,235.893 253.482,236.26 253.347,236.59C253.209,236.921 253.021,237.206 252.784,237.451C252.548,237.696 252.262,237.896 251.928,238.051C251.593,238.206 251.23,238.312 250.838,238.365L250.838,239.324C250.838,239.503 250.802,239.654 250.728,239.777C250.655,239.903 250.504,239.964 250.275,239.964L250.194,239.964C249.965,239.964 249.782,239.903 249.643,239.785C249.504,239.667 249.435,239.491 249.435,239.259L249.435,238.365C248.941,238.312 248.517,238.206 248.158,238.047C247.799,237.888 247.436,237.688 247.06,237.447C246.958,237.37 246.889,237.292 246.856,237.219C246.819,237.149 246.779,237.051 246.734,236.925L246.734,236.847C246.734,236.766 246.758,236.676 246.807,236.574C246.856,236.472 246.917,236.374 246.991,236.28C247.064,236.186 247.142,236.109 247.223,236.039C247.305,235.974 247.383,235.937 247.456,235.937C247.558,235.937 247.644,235.966 247.725,236.023C247.803,236.08 247.876,236.141 247.95,236.203L247.966,236.203C247.982,236.211 247.999,236.215 248.007,236.215L247.966,236.199ZM248.672,230.536C248.888,230.731 249.141,230.903 249.435,231.054L249.435,228.137C249.088,228.21 248.798,228.345 248.562,228.549C248.329,228.753 248.211,229.03 248.211,229.377C248.211,229.43 248.211,229.487 248.219,229.548C248.223,229.609 248.235,229.687 248.252,229.777C248.317,230.087 248.46,230.34 248.672,230.536ZM251.495,234.048C251.312,233.832 251.091,233.64 250.838,233.481L250.838,236.798C251.161,236.672 251.426,236.484 251.642,236.223C251.858,235.966 251.964,235.664 251.964,235.317C251.964,235.219 251.956,235.13 251.936,235.052C251.915,234.975 251.899,234.889 251.883,234.799C251.805,234.518 251.675,234.265 251.495,234.048Z" fill="#74262C"/>
<path d="M158.819,300.035C166.473,300.035 173.107,300.035 173.205,300.035C181.777,300.035 188.729,293.234 188.729,284.841C188.729,277.522 183.437,271.41 176.395,269.969C176.477,269.329 176.53,268.68 176.53,268.019C176.53,259.329 169.333,252.283 160.451,252.283C155.208,252.283 150.565,254.751 147.631,258.55C146.881,248.876 138.051,241.414 127.721,242.65C120.169,243.556 113.918,249.268 112.531,256.591C112.086,258.941 112.131,261.218 112.576,263.36C110.552,261.226 107.668,259.88 104.457,259.88C98.581,259.88 93.783,264.355 93.404,270.014C90.736,269.435 87.835,269.476 84.775,270.598C78.932,272.744 74.771,278.129 74.526,284.233C74.179,292.903 81.258,300.035 90.038,300.035C90.703,300.035 93.049,300.035 93.588,300.035L125.824,300.035M132.499,300.035L133.959,300.035Z" fill="#FDFCEF"/>
<path d="M173.205,302.074L158.823,302.074C157.697,302.074 156.783,301.161 156.783,300.034C156.783,298.908 157.697,297.994 158.823,297.994L173.205,297.994C180.639,297.994 186.689,292.095 186.689,284.841C186.689,278.651 182.189,273.237 175.987,271.968C174.947,271.756 174.241,270.777 174.372,269.72C174.441,269.161 174.49,268.598 174.49,268.019C174.49,260.467 168.195,254.322 160.455,254.322C156.016,254.322 151.932,256.317 149.247,259.793C148.733,260.467 147.852,260.74 147.052,260.503C146.244,260.263 145.665,259.549 145.604,258.708C145.281,254.571 143.307,250.813 140.039,248.137C136.677,245.375 132.38,244.138 127.97,244.677C121.283,245.477 115.763,250.536 114.539,256.974C114.155,258.977 114.171,260.989 114.575,262.947C114.763,263.841 114.331,264.747 113.523,265.167C112.719,265.587 111.727,265.424 111.099,264.763C109.357,262.931 106.999,261.919 104.457,261.919C99.712,261.919 95.75,265.534 95.444,270.153C95.403,270.744 95.11,271.291 94.636,271.646C94.163,272.001 93.559,272.131 92.98,272.009C90.377,271.446 87.937,271.613 85.481,272.515C80.356,274.396 76.774,279.141 76.57,284.314C76.427,287.868 77.717,291.25 80.205,293.833C82.784,296.517 86.276,297.994 90.042,297.994L125.828,297.994C126.954,297.994 127.868,298.908 127.868,300.034C127.868,301.161 126.954,302.074 125.828,302.074L90.042,302.074C85.224,302.074 80.568,300.1 77.26,296.66C74,293.266 72.306,288.823 72.49,284.151C72.759,277.346 77.419,271.132 84.073,268.684C86.558,267.77 89.124,267.452 91.715,267.688C93.115,262.017 98.337,257.839 104.457,257.839C106.456,257.839 108.423,258.296 110.193,259.149C110.23,258.169 110.34,257.19 110.528,256.211C112.078,248.043 119.051,241.633 127.48,240.625C133.001,239.973 138.39,241.507 142.625,244.983C145.661,247.472 147.815,250.703 148.909,254.33C152.119,251.699 156.159,250.246 160.455,250.246C170.443,250.246 178.57,258.223 178.57,268.023C178.57,268.161 178.566,268.296 178.566,268.435C185.735,270.691 190.765,277.329 190.765,284.845C190.765,294.343 182.891,302.074 173.205,302.074ZM133.963,302.074L132.503,302.074C131.377,302.074 130.463,301.161 130.463,300.034C130.463,298.908 131.377,297.994 132.503,297.994L133.963,297.994C135.09,297.994 136.003,298.908 136.003,300.034C136.003,301.161 135.09,302.074 133.963,302.074Z" fill="#74262C"/>
<path d="M166.265,278.493C166.191,278.493 166.118,278.484 166.04,278.468C165.49,278.346 165.143,277.799 165.269,277.248C165.42,276.583 165.653,275.926 165.959,275.298C168.419,270.324 175.204,268.484 181.087,271.206C181.602,271.442 181.826,272.05 181.585,272.56C181.349,273.07 180.732,273.291 180.235,273.058C175.351,270.794 169.761,272.209 167.791,276.2C167.55,276.681 167.37,277.183 167.26,277.693C167.15,278.166 166.73,278.493 166.265,278.493ZM145.306,302.075L140.806,302.075C139.68,302.075 138.766,301.161 138.766,300.035C138.766,298.909 139.68,297.995 140.806,297.995L145.306,297.995C146.432,297.995 147.346,298.909 147.346,300.035C147.346,301.161 146.432,302.075 145.306,302.075Z" fill="#74262C"/>
</svg>
