<svg width="408" height="408" viewBox="0 0 408 408" fill="none" xmlns="http://www.w3.org/2000/svg" xmlns:xlink="http://www.w3.org/1999/xlink">
<path d="M361.057,228.638C362.277,226.133 363.353,223.501 364.287,220.743C374.985,189.168 358.809,151.351 324.741,142.224C321.055,95.965 288.551,64.235 251.843,58.82C209.827,52.623 171.332,79.314 158.525,121.742C143.086,116.275 128.043,116.94 113.869,125.222C107.439,128.197 101.556,132.587 96.276,138.36C88.524,146.834 83.489,157.536 81.437,168.817C78.398,169.295 75.411,169.776 72.596,170.784C56.182,176.671 45.823,188.789 42.983,207.039C41.213,218.401 44.783,229.74 46.774,234.322C54.636,252.42 72.869,262.686 91.392,259.968C92.314,259.834 93.653,260.25 94.448,260.916C95.428,289.846 109.475,315.432 130.548,330.046C164.359,353.498 207.86,346.274 235.302,314.114C247.061,326.142 261.055,331.984 277.497,329.864C293.843,327.754 306.535,318.734 315.797,304.07C320.073,305.22 324.133,306.88 328.327,307.338C344.749,309.132 358.085,302.6 367.869,287.836C371.615,282.184 375.157,274.856 375.157,262.018C375.157,248.777 369.901,236.721 361.057,228.638Z" fill="#D3D4DB"/>
<path d="M314.258,197.663C314.258,197.663 361.762,197.663 362.051,197.663C373.022,197.663 381.913,188.769 381.913,177.798C381.913,168.226 375.144,160.241 366.131,158.356C366.233,157.52 366.307,156.671 366.307,155.806C366.307,144.444 357.098,135.235 345.735,135.235C339.028,135.235 333.087,138.462 329.334,143.428C328.375,130.78 317.077,121.025 303.858,122.64C294.193,123.823 286.2,131.294 284.421,140.866C283.85,143.934 283.911,146.916 284.478,149.711C281.887,146.92 278.199,145.162 274.091,145.162C266.571,145.162 260.435,151.017 259.949,158.414C256.534,157.659 252.822,157.708 248.909,159.177C241.434,161.984 236.11,169.022 235.796,177.002C235.355,188.336 244.409,197.663 255.641,197.663C256.493,197.663 259.492,197.663 260.186,197.663L301.431,197.663Z" fill="#FDFCEF"/>
<path d="M362.051,199.704L314.258,199.704C313.131,199.704 312.218,198.79 312.218,197.664C312.218,196.538 313.131,195.624 314.258,195.624L362.051,195.624C371.879,195.624 379.876,187.627 379.876,177.799C379.876,169.406 373.923,162.07 365.719,160.357C364.678,160.141 363.981,159.165 364.111,158.109C364.205,157.354 364.27,156.587 364.27,155.808C364.27,145.587 355.955,137.276 345.739,137.276C339.896,137.276 334.511,139.969 330.961,144.661C330.451,145.342 329.578,145.644 328.758,145.387C327.946,145.146 327.363,144.433 327.301,143.588C326.877,137.99 324.139,132.739 319.786,129.173C315.388,125.571 309.819,123.971 304.107,124.669C295.31,125.746 288.039,132.56 286.428,141.242C285.922,143.955 285.942,146.672 286.477,149.312C286.66,150.206 286.224,151.116 285.412,151.532C284.6,151.952 283.605,151.777 282.984,151.107C280.651,148.594 277.493,147.211 274.09,147.211C267.721,147.211 262.405,152.193 261.985,158.553C261.944,159.149 261.646,159.696 261.173,160.051C260.695,160.406 260.083,160.536 259.508,160.41C256.093,159.655 252.862,159.875 249.626,161.091C242.849,163.633 238.113,170.063 237.835,177.085C237.643,181.989 239.406,186.632 242.796,190.157C246.191,193.682 250.752,195.624 255.64,195.624L301.43,195.624C302.556,195.624 303.47,196.538 303.47,197.664C303.47,198.79 302.556,199.704 301.43,199.704L255.644,199.704C249.63,199.704 244.024,197.317 239.859,192.985C235.693,188.652 233.527,182.948 233.759,176.926C234.098,168.284 239.895,160.385 248.19,157.272C251.446,156.056 254.812,155.648 258.215,156.056C259.749,148.651 266.338,143.131 274.09,143.131C276.868,143.131 279.586,143.857 281.981,145.195C281.981,143.637 282.123,142.066 282.413,140.499C284.351,130.083 293.066,121.911 303.609,120.622C310.431,119.773 317.101,121.703 322.369,126.019C326.445,129.361 329.337,133.939 330.651,138.986C334.764,135.269 340.072,133.204 345.735,133.204C358.203,133.204 368.346,143.347 368.346,155.816C368.346,156.154 368.338,156.489 368.318,156.819C377.477,159.553 383.952,168.109 383.952,177.807C383.952,189.884 374.127,199.704 362.051,199.704Z" fill="#5F1D22"/>
<path d="M296.922,158.92C289.574,158.439 283.25,163.514 282.797,170.255C282.74,171.091 282.777,171.915 282.899,172.719C281.484,171.119 279.382,170.03 276.975,169.875C272.569,169.585 268.762,172.499 268.207,176.456C267.403,176.236 266.571,176.089 265.702,176.032C259.272,175.612 253.74,180.051 253.344,185.95Z" fill="#FDFCEF"/>
<path d="M253.347,186.967C253.323,186.967 253.298,186.967 253.278,186.967C252.715,186.93 252.291,186.445 252.327,185.882C252.76,179.427 258.753,174.527 265.771,175.013C266.318,175.049 266.873,175.119 267.427,175.225C268.545,171.296 272.572,168.582 277.04,168.852C278.766,168.966 280.386,169.5 281.765,170.402C281.769,170.329 281.773,170.255 281.777,170.186C282.266,162.895 289.06,157.415 296.987,157.901C297.55,157.938 297.974,158.423 297.938,158.986C297.901,159.545 297.464,159.97 296.852,159.937C290.084,159.464 284.225,164.152 283.813,170.321C283.764,171.067 283.796,171.822 283.907,172.56C283.976,173.009 283.739,173.446 283.331,173.638C282.927,173.825 282.438,173.731 282.136,173.389C280.822,171.908 278.966,171.018 276.909,170.884C273.095,170.618 269.696,173.14 269.219,176.587C269.178,176.877 269.015,177.138 268.77,177.297C268.525,177.456 268.219,177.501 267.937,177.428C267.17,177.216 266.395,177.085 265.636,177.036C259.814,176.677 254.722,180.675 254.359,186.004C254.327,186.551 253.878,186.967 253.347,186.967Z" fill="#5F1D22"/>
<path d="M370.093,160.686C363.19,157.431 355.205,159.736 352.259,165.835C351.892,166.594 351.623,167.373 351.443,168.165Z" fill="#FDFCEF"/>
<path d="M351.443,169.185C351.369,169.185 351.292,169.177 351.214,169.161C350.663,169.034 350.321,168.487 350.447,167.941C350.651,167.055 350.949,166.198 351.341,165.395C354.527,158.806 363.136,156.288 370.525,159.768C371.035,160.009 371.255,160.617 371.014,161.127C370.774,161.637 370.162,161.853 369.656,161.617C363.262,158.606 355.874,160.699 353.177,166.288C352.854,166.957 352.605,167.667 352.434,168.402C352.328,168.867 351.908,169.185 351.443,169.185Z" fill="#5F1D22"/>
<path d="M89.037,191.76L48.278,191.76C47.152,191.76 46.238,190.846 46.238,189.72C46.238,188.594 47.152,187.68 48.278,187.68L89.033,187.68C90.159,187.68 91.073,188.594 91.073,189.72C91.073,190.846 90.163,191.76 89.037,191.76ZM100.743,191.76L94.872,191.76C93.746,191.76 92.832,190.846 92.832,189.72C92.832,188.594 93.746,187.68 94.872,187.68L100.743,187.68C101.869,187.68 102.783,188.594 102.783,189.72C102.783,190.846 101.869,191.76 100.743,191.76ZM117.218,191.76L106.871,191.76C105.745,191.76 104.831,190.846 104.831,189.72C104.831,188.594 105.745,187.68 106.871,187.68L117.218,187.68C118.344,187.68 119.258,188.594 119.258,189.72C119.258,190.846 118.344,191.76 117.218,191.76ZM117.218,199.92L78.144,199.92C77.018,199.92 76.104,199.006 76.104,197.88C76.104,196.754 77.018,195.84 78.144,195.84L117.218,195.84C118.344,195.84 119.258,196.754 119.258,197.88C119.258,199.006 118.344,199.92 117.218,199.92ZM71.11,199.92L68.752,199.92C67.626,199.92 66.712,199.006 66.712,197.88C66.712,196.754 67.626,195.84 68.752,195.84L71.11,195.84C72.236,195.84 73.15,196.754 73.15,197.88C73.15,199.006 72.236,199.92 71.11,199.92ZM61.449,199.92L55.533,199.92C54.406,199.92 53.493,199.006 53.493,197.88C53.493,196.754 54.406,195.84 55.533,195.84L61.449,195.84C62.575,195.84 63.489,196.754 63.489,197.88C63.489,199.006 62.579,199.92 61.449,199.92Z" fill="#FFFFFF"/>
<path d="M98.573,183.6L78.144,183.6C77.018,183.6 76.104,182.686 76.104,181.56C76.104,180.433 77.018,179.52 78.144,179.52L98.573,179.52C99.699,179.52 100.613,180.433 100.613,181.56C100.613,182.686 99.699,183.6 98.573,183.6Z" fill="#FFFFFF"/>
<path d="M98.573,175.439L93.465,175.439C92.339,175.439 91.425,174.525 91.425,173.399C91.425,172.273 92.339,171.359 93.465,171.359L98.573,171.359C99.699,171.359 100.613,172.273 100.613,173.399C100.613,174.525 99.699,175.439 98.573,175.439Z" fill="#FFFFFF"/>
<path d="M85.292,208.08L78.148,208.08C77.022,208.08 76.108,207.166 76.108,206.04C76.108,204.914 77.022,204 78.148,204L85.292,204C86.419,204 87.332,204.914 87.332,206.04C87.332,207.166 86.419,208.08 85.292,208.08Z" fill="#FFFFFF"/>
<path d="M279.104,102L238.349,102C237.223,102 236.309,101.086 236.309,99.96C236.309,98.834 237.223,97.92 238.349,97.92L279.104,97.92C280.23,97.92 281.144,98.834 281.144,99.96C281.144,101.086 280.23,102 279.104,102ZM290.81,102L284.935,102C283.809,102 282.895,101.086 282.895,99.96C282.895,98.834 283.809,97.92 284.935,97.92L290.81,97.92C291.936,97.92 292.85,98.834 292.85,99.96C292.85,101.086 291.936,102 290.81,102ZM307.285,102L296.938,102C295.812,102 294.898,101.086 294.898,99.96C294.898,98.834 295.812,97.92 296.938,97.92L307.285,97.92C308.411,97.92 309.325,98.834 309.325,99.96C309.325,101.086 308.411,102 307.285,102ZM299.051,85.68L259.977,85.68C258.851,85.68 257.937,84.766 257.937,83.64C257.937,82.514 258.851,81.6 259.977,81.6L299.051,81.6C300.178,81.6 301.091,82.514 301.091,83.64C301.091,84.766 300.182,85.68 299.051,85.68ZM252.943,85.68L250.585,85.68C249.459,85.68 248.545,84.766 248.545,83.64C248.545,82.514 249.459,81.6 250.585,81.6L252.943,81.6C254.069,81.6 254.983,82.514 254.983,83.64C254.983,84.766 254.069,85.68 252.943,85.68ZM243.286,85.68L237.37,85.68C236.244,85.68 235.33,84.766 235.33,83.64C235.33,82.514 236.244,81.6 237.37,81.6L243.286,81.6C244.412,81.6 245.326,82.514 245.326,83.64C245.326,84.766 244.412,85.68 243.286,85.68Z" fill="#FFFFFF"/>
<path d="M288.636,93.84L268.207,93.84C267.081,93.84 266.167,92.926 266.167,91.8C266.167,90.674 267.081,89.76 268.207,89.76L288.636,89.76C289.762,89.76 290.676,90.674 290.676,91.8C290.676,92.926 289.766,93.84 288.636,93.84Z" fill="#FFFFFF"/>
<path d="M288.635,85.68L283.527,85.68C282.401,85.68 281.487,84.766 281.487,83.64C281.487,82.514 282.401,81.6 283.527,81.6L288.635,81.6C289.762,81.6 290.675,82.514 290.675,83.64C290.675,84.766 289.766,85.68 288.635,85.68Z" fill="#FFFFFF"/>
<path d="M262.294,93.84L255.15,93.84C254.024,93.84 253.11,92.926 253.11,91.8C253.11,90.674 254.024,89.76 255.15,89.76L262.294,89.76C263.421,89.76 264.334,90.674 264.334,91.8C264.334,92.926 263.425,93.84 262.294,93.84Z" fill="#FFFFFF"/>
<path d="M140.527,282.744C138.549,282.744 136.097,282.189 134.705,277.852C133.624,274.482 133.624,270.316 133.628,267.562L133.416,160.144L133.416,145.256C133.416,138.728 138.63,133.42 145.04,133.42L215.13,133.42C221.679,133.42 227.007,139.03 227.007,145.929L227.007,151.613C227.007,156.529 230.887,160.536 235.653,160.536L299.439,160.536C301.055,160.536 302.369,161.976 302.369,163.747L302.369,255.547C302.369,256.791 302.41,258.325 302.454,260.043C302.634,266.71 302.92,277.489 300.676,282.748L140.527,282.744Z" fill="#CDCBBD"/>
<path d="M215.13,136.273C220.103,136.273 224.151,140.601 224.151,145.926L224.151,151.609C224.151,158.105 229.308,163.388 235.652,163.388L299.37,163.372C299.398,163.388 299.512,163.507 299.512,163.743L299.512,255.547C299.512,256.812 299.553,258.371 299.598,260.117C299.733,265.127 299.99,274.642 298.635,279.893L140.527,279.893C139.462,279.893 138.361,279.893 137.426,276.98C136.484,274.038 136.484,270.141 136.488,267.567L136.488,267.208L136.272,160.149L136.272,145.253C136.272,140.3 140.205,136.268 145.039,136.268L215.13,136.268M215.13,130.561L145.039,130.561C137.075,130.561 130.56,137.174 130.56,145.257L130.56,160.153L130.772,267.22C130.772,272.761 130.56,285.601 140.527,285.601L302.389,285.601C306.579,279.191 305.224,262.626 305.224,255.543L305.224,163.739C305.224,160.389 302.634,157.672 299.435,157.672L235.648,157.672C232.454,157.672 229.859,154.955 229.859,151.605L229.859,145.922C229.863,137.476 223.233,130.561 215.13,130.561Z" fill="#5F1D22"/>
<path d="M141.759,282.743C141.576,282.69 141.315,282.392 141.106,282.049C145.782,280.556 146.194,271.939 146.194,261.727L146.194,176.21C146.194,175.108 147.022,174.219 148.042,174.219L309.459,174.219C310.479,174.219 311.308,175.112 311.308,176.21L311.308,269.111C311.308,276.631 305.416,282.747 298.166,282.747L141.759,282.743Z" fill="#FDFCEE"/>
<path d="M308.448,177.071L308.448,269.108C308.448,275.053 303.833,279.887 298.166,279.887L147.002,279.887C149.046,275.146 149.046,267.978 149.046,261.727L149.046,177.071L308.448,177.071ZM309.455,171.359L148.038,171.359C145.439,171.359 143.334,173.53 143.334,176.21L143.334,261.727C143.334,272.674 142.608,279.422 139.552,279.422C136.251,279.422 138.459,285.599 141.755,285.599L298.166,285.599C306.999,285.599 314.16,278.215 314.16,269.108L314.16,176.21C314.16,173.53 312.054,171.359 309.455,171.359Z" fill="#5F1D22"/>
<path d="M185.64,150.961L144.84,150.961C143.714,150.961 142.8,150.047 142.8,148.921C142.8,147.795 143.714,146.881 144.84,146.881L185.64,146.881C186.766,146.881 187.68,147.795 187.68,148.921C187.68,150.047 186.766,150.961 185.64,150.961Z" fill="#5F1D22"/>
<path d="M214.2,150.961L197.88,150.961C196.754,150.961 195.84,150.047 195.84,148.921C195.84,147.795 196.754,146.881 197.88,146.881L214.2,146.881C215.326,146.881 216.24,147.795 216.24,148.921C216.24,150.047 215.326,150.961 214.2,150.961Z" fill="#5F1D22"/>
<path d="M218.28,212.16L165.24,212.16C164.114,212.16 163.2,211.246 163.2,210.12L163.2,189.72C163.2,188.594 164.114,187.68 165.24,187.68L218.28,187.68C219.406,187.68 220.32,188.594 220.32,189.72L220.32,210.12C220.32,211.246 219.406,212.16 218.28,212.16ZM167.28,208.08L216.24,208.08L216.24,191.76L167.28,191.76L167.28,208.08Z" fill="#5F1D22"/>
<path d="M159.064,308.012C166.718,308.012 173.352,308.012 173.45,308.012C182.022,308.012 188.974,301.21 188.974,292.818C188.974,285.498 183.683,279.386 176.64,277.946C176.722,277.306 176.775,276.657 176.775,275.996C176.775,267.305 169.578,260.259 160.696,260.259C155.453,260.259 150.81,262.728 147.876,266.526C147.126,256.852 138.297,249.39 127.966,250.626C120.414,251.532 114.163,257.244 112.776,264.568C112.332,266.918 112.376,269.194 112.821,271.336C110.797,269.203 107.913,267.856 104.702,267.856C98.827,267.856 94.029,272.332 93.649,277.991C90.981,277.412 88.08,277.452 85.02,278.574C79.177,280.72 75.016,286.106 74.771,292.21C74.424,300.88 81.503,308.012 90.283,308.012C90.948,308.012 93.294,308.012 93.833,308.012L126.069,308.012M132.744,308.012L134.204,308.012Z" fill="#FDFCEF"/>
<path d="M173.449,310.052L159.063,310.052C157.937,310.052 157.023,309.138 157.023,308.012C157.023,306.886 157.937,305.972 159.063,305.972L173.449,305.972C180.883,305.972 186.934,300.072 186.934,292.818C186.934,286.629 182.434,281.215 176.232,279.946C175.187,279.733 174.482,278.75 174.616,277.689C174.69,277.13 174.739,276.571 174.739,275.992C174.739,268.44 168.443,262.296 160.699,262.296C156.264,262.296 152.18,264.291 149.492,267.771C148.978,268.44 148.104,268.717 147.293,268.477C146.485,268.236 145.909,267.522 145.844,266.682C145.522,262.544 143.547,258.791 140.283,256.11C136.917,253.348 132.621,252.104 128.21,252.651C121.523,253.45 116.003,258.509 114.779,264.948C114.395,266.955 114.412,268.962 114.816,270.921C114.999,271.814 114.571,272.72 113.763,273.144C112.959,273.56 111.968,273.405 111.34,272.736C109.601,270.904 107.247,269.897 104.701,269.897C99.956,269.897 95.995,273.511 95.685,278.13C95.644,278.722 95.35,279.264 94.877,279.623C94.403,279.978 93.8,280.113 93.216,279.986C90.63,279.423 88.181,279.591 85.725,280.492C80.601,282.373 77.019,287.118 76.811,292.296C76.668,295.849 77.957,299.228 80.446,301.814C83.024,304.499 86.517,305.976 90.287,305.976L126.072,305.976C127.199,305.976 128.112,306.89 128.112,308.016C128.112,309.142 127.199,310.056 126.072,310.056L90.287,310.056C85.468,310.056 80.809,308.081 77.504,304.642C74.244,301.247 72.551,296.808 72.739,292.133C73.008,285.327 77.663,279.109 84.322,276.665C86.798,275.751 89.365,275.425 91.96,275.67C93.363,269.999 98.585,265.821 104.705,265.821C106.705,265.821 108.667,266.278 110.442,267.126C110.479,266.147 110.593,265.168 110.777,264.189C112.323,256.025 119.296,249.611 127.729,248.603C133.274,247.946 138.643,249.489 142.874,252.961C145.909,255.449 148.064,258.681 149.157,262.304C152.372,259.672 156.411,258.22 160.703,258.22C170.695,258.22 178.823,266.196 178.823,275.996C178.823,276.135 178.823,276.27 178.819,276.408C185.987,278.665 191.022,285.303 191.022,292.818C191.01,302.32 183.131,310.052 173.449,310.052ZM134.204,310.052L132.743,310.052C131.617,310.052 130.703,309.138 130.703,308.012C130.703,306.886 131.617,305.972 132.743,305.972L134.204,305.972C135.33,305.972 136.244,306.886 136.244,308.012C136.244,309.138 135.33,310.052 134.204,310.052Z" fill="#5F1D22"/>
<path d="M166.51,286.469C166.436,286.469 166.363,286.461 166.285,286.444C165.734,286.322 165.392,285.775 165.514,285.224C165.665,284.551 165.898,283.899 166.204,283.278C168.66,278.305 175.437,276.461 181.332,279.186C181.842,279.423 182.067,280.031 181.83,280.541C181.593,281.051 180.985,281.275 180.475,281.038C175.592,278.778 170.006,280.19 168.031,284.184C167.799,284.657 167.619,285.159 167.505,285.673C167.399,286.147 166.979,286.469 166.51,286.469Z" fill="#5F1D22"/>
<path d="M145.546,310.053L141.046,310.053C139.92,310.053 139.006,309.139 139.006,308.013C139.006,306.887 139.92,305.973 141.046,305.973L145.546,305.973C146.672,305.973 147.586,306.887 147.586,308.013C147.586,309.139 146.676,310.053 145.546,310.053Z" fill="#5F1D22"/>
</svg>
