<svg width="92" height="68" viewBox="0 0 92 68" fill="none" xmlns="http://www.w3.org/2000/svg" xmlns:xlink="http://www.w3.org/1999/xlink">
<path d="M39.316,56.229C40.888,58.536 42.717,60.56 44.935,62.356C44.592,62.614 44.289,62.878 43.95,63.087C42.063,64.25 40.106,65.297 37.974,65.994C36.725,66.401 35.46,66.788 34.169,67.046C32.9,67.299 31.597,67.396 30.301,67.523C29.538,67.597 28.764,67.623 27.994,67.612C26.13,67.582 24.29,67.336 22.469,66.956C20.134,66.472 17.889,65.711 15.804,64.619C14.204,63.784 12.714,62.748 11.24,61.712C10.314,61.063 9.454,60.31 8.664,59.512C7.119,57.943 5.753,56.232 4.644,54.342C3.575,52.52 2.668,50.626 2.1,48.602C1.757,47.38 1.45,46.138 1.283,44.886C1.092,43.455 1.018,42.005 0.995,40.558C0.968,38.836 1.275,37.14 1.652,35.459C2.193,33.048 3.088,30.748 4.364,28.612C5.201,27.21 6.197,25.887 7.209,24.59C7.905,23.696 8.745,22.898 9.535,22.074C9.784,21.813 10.096,21.612 10.36,21.362C17.609,14.437 24.85,7.5 32.087,0.556C32.313,0.339 32.53,0.25 32.853,0.25C36.589,0.261 40.324,0.257 44.059,0.257L44.444,0.257C39.456,5.122 34.441,10.008 29.445,14.88C37.091,15.204 43.631,18.048 48.829,23.464C53.814,28.657 56.203,34.911 56.047,41.956C55.95,46.407 54.709,50.619 52.226,54.588C51.292,53.657 50.347,52.825 49.534,51.886C48.277,50.432 47.514,48.703 46.709,46.999C46.433,46.414 46.756,45.945 46.892,45.453C47.117,44.625 47.324,43.809 47.312,42.948C47.304,42.269 47.386,41.587 47.394,40.909C47.405,39.492 47.3,38.083 46.818,36.738C46.3,35.295 45.791,33.838 45.121,32.459C44.697,31.586 44.04,30.796 43.394,30.047C42.717,29.257 41.939,28.545 41.184,27.822C39.254,25.966 36.958,24.717 34.309,24.057C33.324,23.811 32.348,23.528 31.355,23.327C30.768,23.207 30.149,23.177 29.546,23.177C28.356,23.177 27.165,23.181 25.982,23.274C25.231,23.334 24.465,23.487 23.757,23.729C22.196,24.255 20.636,24.803 19.134,25.466C18.333,25.82 17.628,26.402 16.92,26.935C16.29,27.408 15.671,27.908 15.134,28.47C13.722,29.946 12.204,31.359 11.508,33.338C11.138,34.386 10.679,35.403 10.321,36.455C9.901,37.699 9.613,38.971 9.668,40.294C9.718,41.509 9.722,42.728 9.773,43.943C9.788,44.331 9.924,44.636 10.333,44.897C12.426,46.224 15.628,45.952 17.387,44.17C18.379,43.164 19.873,43.656 20.185,44.737C20.379,45.419 20.056,45.986 19.547,46.377C18.8,46.951 18.021,47.536 17.161,47.905C16.274,48.285 15.274,48.431 14.321,48.658C13.321,48.893 12.345,48.647 11.368,48.487C11.325,48.479 11.278,48.494 11.181,48.505C11.687,49.612 12.107,50.742 12.944,51.655C13.819,52.609 14.667,53.593 15.621,54.469C16.78,55.535 17.975,56.59 19.461,57.246C21.414,58.103 23.441,58.759 25.539,59.203C26.002,59.3 26.488,59.311 26.967,59.304C28.394,59.289 29.834,59.356 31.243,59.188C32.453,59.043 33.651,58.685 34.807,58.301C35.978,57.91 37.106,57.384 38.238,56.888C38.608,56.728 38.931,56.475 39.316,56.24L39.316,56.229Z" fill="#EB4578"/>
<path d="M80.907,48.502C80.059,48.588 79.304,48.748 78.557,48.729C76.576,48.674 74.747,48.133 73.183,46.914C72.86,46.664 72.557,46.389 72.253,46.117C71.79,45.699 71.759,45.159 71.923,44.64C72.106,44.07 72.526,43.727 73.211,43.627C74.043,43.507 74.479,44.044 74.993,44.454C75.95,45.222 77.047,45.621 78.288,45.703C79.588,45.788 80.786,45.501 81.856,44.797C82.031,44.681 82.21,44.439 82.218,44.249C82.28,42.915 82.346,41.576 82.315,40.242C82.276,38.721 82.265,37.193 81.506,35.777C80.95,34.733 80.533,33.622 79.961,32.586C79.483,31.717 78.954,30.853 78.304,30.1C77.529,29.205 76.611,28.419 75.728,27.617C75.222,27.159 74.701,26.689 74.109,26.354C72.44,25.407 70.732,24.538 68.876,23.938C67.756,23.577 66.635,23.383 65.472,23.346C64.312,23.308 63.145,23.219 61.989,23.271C60.044,23.353 58.153,23.722 56.398,24.591C55.2,25.183 53.978,25.739 52.698,26.346C51.262,24.05 49.336,22.063 47.13,20.185C47.869,19.719 48.523,19.238 49.239,18.876C50.706,18.138 52.18,17.408 53.698,16.778C55.204,16.152 56.807,15.794 58.417,15.477C60.203,15.127 62.009,15.037 63.822,15.037C65.865,15.037 67.872,15.309 69.864,15.753C71.798,16.185 73.65,16.834 75.436,17.639C77.23,18.448 78.961,19.406 80.455,20.647C81.93,21.873 83.284,23.241 84.615,24.617C85.397,25.422 86.093,26.32 86.708,27.252C87.354,28.228 87.856,29.291 88.412,30.32C88.634,30.733 88.852,31.151 89.019,31.587C89.366,32.5 89.688,33.417 89.992,34.345C90.179,34.912 90.342,35.493 90.455,36.079C90.614,36.913 90.758,37.752 90.828,38.595C90.934,39.843 91.062,41.103 91.004,42.352C90.914,44.219 90.7,46.083 90.128,47.887C89.801,48.916 89.537,49.967 89.14,50.97C88.77,51.901 88.272,52.789 87.801,53.683C87.023,55.156 86.136,56.579 84.98,57.798C83.661,59.192 82.237,60.497 80.817,61.798C79.541,62.968 78.004,63.807 76.467,64.616C74.436,65.686 72.265,66.457 70.02,66.99C67.285,67.639 64.495,67.892 61.686,67.702C60.324,67.609 58.97,67.322 57.62,67.091C56.075,66.83 54.604,66.319 53.149,65.768C51.27,65.056 49.507,64.131 47.854,63.039C46.111,61.891 44.476,60.586 43.111,59.036C41.982,57.754 40.963,56.378 39.994,54.977C38.87,53.351 38.053,51.562 37.426,49.706C37.138,48.849 36.823,47.991 36.636,47.112C36.403,46.008 36.158,44.886 36.146,43.768C36.068,37.946 36.06,32.124 36.033,26.301C36.033,26.216 36.053,26.134 36.064,26.029C37.045,26.249 37.881,26.682 38.609,27.297C39.601,28.139 40.605,28.97 41.55,29.861C42.122,30.398 42.597,31.032 43.115,31.624C44.173,32.836 44.659,34.312 45.208,35.758C45.262,35.903 45.309,36.09 45.262,36.231C44.543,38.412 44.562,40.66 44.644,42.896C44.706,44.562 44.99,46.21 45.772,47.738C46.255,48.677 46.721,49.624 47.216,50.56C48.122,52.267 49.503,53.609 50.924,54.917C52.445,56.318 54.262,57.284 56.196,58.059C57.079,58.413 57.962,58.775 58.877,59.04C59.554,59.237 60.277,59.345 60.985,59.39C62.223,59.468 63.464,59.513 64.701,59.479C66.67,59.431 68.588,59.133 70.37,58.253C71.098,57.895 71.884,57.634 72.596,57.254C73.658,56.684 74.755,56.162 75.611,55.282C76.191,54.686 76.934,54.231 77.487,53.612C78.241,52.766 78.93,51.857 79.568,50.925C80.078,50.176 80.471,49.352 80.942,48.513L80.907,48.502Z" fill="#EB4578"/>
<path d="M70.32,32.641C71.608,32.5 72.81,33.808 72.81,34.949C72.81,36.033 71.705,37.446 70.18,37.316C68.807,37.2 67.846,36.298 67.85,34.852C67.85,33.655 68.986,32.641 70.32,32.641Z" fill="#EB4578"/>
<path d="M24.147,34.982C24.147,36.447 23.201,37.293 21.567,37.293C20.252,37.293 19.326,36.301 19.283,34.945C19.244,33.726 20.388,32.533 21.867,32.626C23.19,32.708 24.151,33.625 24.151,34.982L24.147,34.982Z" fill="#EB4578"/>
</svg>
