<svg width="70" height="54" viewBox="0 0 70 54" fill="none" xmlns="http://www.w3.org/2000/svg" xmlns:xlink="http://www.w3.org/1999/xlink">
<path d="M28.501,43.124C29.703,44.902 31.1,46.461 32.795,47.845C32.533,48.043 32.301,48.247 32.043,48.408C30.601,49.304 29.105,50.111 27.475,50.648C26.521,50.961 25.555,51.259 24.567,51.457C23.598,51.653 22.602,51.727 21.612,51.825C21.029,51.882 20.437,51.902 19.848,51.894C18.424,51.871 17.018,51.681 15.626,51.388C13.842,51.015 12.126,50.429 10.532,49.588C9.31,48.945 8.171,48.146 7.044,47.348C6.337,46.849 5.68,46.268 5.076,45.654C3.895,44.445 2.852,43.127 2.004,41.671C1.187,40.267 0.494,38.808 0.06,37.249C-0.202,36.307 -0.437,35.351 -0.565,34.386C-0.711,33.284 -0.767,32.167 -0.785,31.052C-0.806,29.726 -0.571,28.419 -0.282,27.124C0.131,25.266 0.815,23.495 1.79,21.849C2.43,20.77 3.191,19.75 3.964,18.751C4.496,18.062 5.138,17.447 5.742,16.813C5.932,16.612 6.17,16.457 6.372,16.264C11.912,10.929 17.446,5.585 22.976,0.235C23.149,0.069 23.315,0 23.562,0C26.417,0.009 29.271,0.006 32.126,0.006L32.42,0.006C28.608,3.753 24.775,7.518 20.957,11.271C26.8,11.52 31.799,13.711 35.772,17.884C39.581,21.884 41.406,26.702 41.287,32.129C41.213,35.558 40.265,38.803 38.367,41.861C37.654,41.143 36.931,40.503 36.31,39.779C35.349,38.659 34.766,37.327 34.151,36.014C33.94,35.564 34.187,35.202 34.291,34.823C34.463,34.185 34.621,33.556 34.612,32.893C34.606,32.37 34.668,31.845 34.674,31.322C34.683,30.231 34.603,29.146 34.234,28.109C33.839,26.998 33.449,25.875 32.938,24.813C32.614,24.141 32.111,23.532 31.618,22.955C31.1,22.346 30.505,21.798 29.929,21.24C28.454,19.81 26.699,18.849 24.674,18.34C23.922,18.151 23.176,17.933 22.417,17.777C21.968,17.686 21.496,17.663 21.035,17.663C20.125,17.663 19.215,17.665 18.311,17.737C17.737,17.783 17.151,17.901 16.61,18.088C15.418,18.492 14.225,18.915 13.078,19.426C12.465,19.699 11.927,20.146 11.386,20.557C10.904,20.922 10.431,21.307 10.021,21.74C8.942,22.877 7.782,23.966 7.25,25.49C6.967,26.297 6.616,27.081 6.343,27.891C6.022,28.85 5.802,29.829 5.843,30.849C5.882,31.785 5.885,32.724 5.923,33.66C5.935,33.958 6.039,34.194 6.352,34.395C7.951,35.417 10.399,35.207 11.743,33.835C12.501,33.06 13.643,33.439 13.881,34.271C14.029,34.797 13.782,35.233 13.393,35.535C12.822,35.977 12.227,36.428 11.57,36.712C10.892,37.005 10.128,37.117 9.399,37.292C8.635,37.473 7.889,37.284 7.143,37.16C7.11,37.154 7.074,37.166 7,37.174C7.386,38.027 7.708,38.897 8.347,39.601C9.016,40.336 9.664,41.094 10.393,41.769C11.279,42.59 12.192,43.403 13.327,43.908C14.82,44.569 16.369,45.074 17.972,45.416C18.326,45.49 18.698,45.499 19.063,45.493C20.155,45.482 21.255,45.533 22.331,45.404C23.256,45.292 24.172,45.017 25.055,44.721C25.95,44.419 26.812,44.014 27.678,43.632C27.96,43.509 28.207,43.314 28.501,43.133L28.501,43.124Z" fill="#FFFFFF"/>
<path d="M60.286,37.172C59.638,37.238 59.061,37.361 58.49,37.347C56.976,37.304 55.579,36.888 54.383,35.949C54.137,35.756 53.905,35.544 53.673,35.334C53.319,35.013 53.295,34.596 53.42,34.197C53.56,33.758 53.881,33.494 54.404,33.416C55.041,33.324 55.374,33.738 55.766,34.053C56.498,34.645 57.336,34.952 58.285,35.015C59.278,35.081 60.194,34.86 61.011,34.318C61.145,34.229 61.282,34.042 61.288,33.896C61.335,32.868 61.386,31.837 61.362,30.809C61.332,29.637 61.324,28.46 60.744,27.369C60.319,26.565 60,25.709 59.563,24.911C59.197,24.242 58.793,23.575 58.297,22.995C57.705,22.306 57.003,21.7 56.328,21.083C55.941,20.73 55.543,20.368 55.091,20.109C53.815,19.38 52.51,18.711 51.092,18.249C50.235,17.97 49.379,17.821 48.49,17.792C47.604,17.763 46.712,17.695 45.829,17.735C44.342,17.798 42.897,18.082 41.556,18.751C40.64,19.208 39.706,19.636 38.728,20.104C37.631,18.335 36.159,16.804 34.473,15.357C35.038,14.998 35.537,14.628 36.084,14.349C37.205,13.781 38.332,13.218 39.492,12.733C40.643,12.25 41.868,11.975 43.099,11.73C44.464,11.461 45.843,11.392 47.229,11.392C48.79,11.392 50.325,11.601 51.847,11.943C53.325,12.276 54.74,12.776 56.105,13.396C57.476,14.019 58.799,14.757 59.941,15.713C61.068,16.658 62.103,17.712 63.12,18.771C63.717,19.392 64.25,20.084 64.719,20.802C65.213,21.554 65.597,22.372 66.022,23.165C66.191,23.483 66.358,23.805 66.486,24.141C66.75,24.845 66.997,25.551 67.229,26.266C67.372,26.702 67.497,27.15 67.583,27.601C67.705,28.244 67.815,28.891 67.868,29.539C67.949,30.501 68.047,31.472 68.002,32.434C67.934,33.873 67.77,35.308 67.333,36.698C67.083,37.491 66.881,38.3 66.578,39.073C66.295,39.791 65.915,40.474 65.555,41.163C64.96,42.298 64.282,43.394 63.399,44.333C62.391,45.407 61.303,46.412 60.217,47.415C59.242,48.316 58.068,48.962 56.893,49.585C55.341,50.41 53.682,51.004 51.966,51.415C49.876,51.914 47.744,52.109 45.597,51.963C44.556,51.891 43.521,51.67 42.489,51.492C41.309,51.291 40.185,50.898 39.073,50.473C37.636,49.924 36.289,49.212 35.026,48.371C33.694,47.486 32.445,46.481 31.401,45.287C30.539,44.299 29.76,43.239 29.019,42.16C28.16,40.908 27.535,39.529 27.057,38.099C26.837,37.439 26.596,36.779 26.453,36.101C26.275,35.251 26.087,34.387 26.078,33.525C26.019,29.04 26.013,24.555 25.992,20.069C25.992,20.003 26.007,19.94 26.016,19.86C26.765,20.029 27.405,20.362 27.961,20.836C28.719,21.485 29.486,22.125 30.209,22.812C30.646,23.225 31.009,23.713 31.404,24.17C32.213,25.103 32.584,26.24 33.004,27.354C33.045,27.466 33.081,27.61 33.045,27.719C32.495,29.399 32.51,31.13 32.573,32.853C32.62,34.137 32.837,35.406 33.435,36.583C33.804,37.307 34.16,38.036 34.538,38.757C35.231,40.072 36.287,41.106 37.372,42.114C38.534,43.193 39.923,43.937 41.401,44.534C42.076,44.807 42.751,45.086 43.45,45.29C43.967,45.442 44.52,45.525 45.061,45.56C46.007,45.62 46.956,45.654 47.901,45.628C49.406,45.591 50.872,45.361 52.234,44.684C52.79,44.408 53.39,44.207 53.934,43.914C54.746,43.475 55.585,43.073 56.239,42.395C56.682,41.936 57.25,41.585 57.672,41.109C58.249,40.457 58.775,39.756 59.263,39.038C59.652,38.461 59.953,37.827 60.313,37.181L60.286,37.172Z" fill="#FFFFFF"/>
<path d="M52.195,24.953C53.179,24.844 54.098,25.852 54.098,26.731C54.098,27.567 53.253,28.655 52.088,28.554C51.038,28.465 50.304,27.77 50.307,26.656C50.307,25.735 51.175,24.953 52.195,24.953Z" fill="#FFFFFF"/>
<path d="M16.908,26.756C16.908,27.885 16.186,28.537 14.937,28.537C13.932,28.537 13.224,27.773 13.191,26.728C13.161,25.789 14.036,24.87 15.166,24.941C16.177,25.005 16.911,25.711 16.911,26.756L16.908,26.756Z" fill="#FFFFFF"/>
</svg>
