<svg width="108" height="36" viewBox="0 0 108 36" fill="none" xmlns="http://www.w3.org/2000/svg" xmlns:xlink="http://www.w3.org/1999/xlink">
<path d="M33.102,14.125C36.094,15.94 37.795,18.333 37.81,21.806C37.826,25.764 37.928,29.722 37.983,33.687C37.998,34.814 37.677,35.119 36.557,35.119C24.906,35.119 13.248,35.119 1.598,35.119C0.368,35.119 0.015,34.775 0.007,33.507C-0.008,32.131 -0.008,30.754 0.007,29.378C0.023,28.134 0.376,27.798 1.629,27.798C10.992,27.798 20.362,27.79 29.725,27.813C30.563,27.813 30.923,27.633 30.853,26.726C30.735,25.115 30.79,23.496 30.626,21.892C30.477,20.437 28.471,20.038 27.735,20.711C26.309,22.009 25.016,23.457 23.684,24.849C23.19,25.365 22.799,25.975 22.258,26.421C21.671,26.906 21.044,26.703 20.503,26.21C19.359,25.162 18.2,24.129 17.056,23.081C16.507,22.58 16.507,21.822 17.103,21.149C18.678,19.358 20.299,17.606 21.866,15.807C23.778,13.625 25.651,11.403 27.554,9.205C28.973,7.571 30.43,5.959 31.856,4.332C32.976,3.058 34.065,1.751 35.186,0.476C35.695,-0.102 36.298,-0.181 36.894,0.336C38.194,1.485 39.471,2.659 40.772,3.816C41.258,4.246 41.312,4.614 40.842,5.146C39.126,7.054 37.45,9.002 35.773,10.942C34.864,11.99 33.987,13.061 33.094,14.117L33.102,14.125Z" fill="#FFFFFF"/>
<path d="M89.512,28.432C88.588,29.457 87.844,30.309 87.068,31.138C86.104,32.171 85.148,33.227 84.13,34.197C83.331,34.955 82.312,35.166 81.215,35.12C80.275,35.073 79.335,35.12 78.395,35.104C77.69,35.096 77.298,34.721 77.29,34.009C77.274,32.319 77.29,30.63 77.29,28.948C77.29,28.197 77.69,27.72 78.426,27.806C80.479,28.049 81.67,26.868 82.806,25.421C84.577,23.168 86.394,20.954 88.29,18.803C89.591,17.333 90.931,15.855 92.466,14.634C95.49,12.225 100.74,12.851 103.599,15.088C105.629,16.676 106.678,18.772 106.772,21.252C106.937,25.483 106.929,29.73 106.984,33.962C106.992,34.705 106.584,35.096 105.832,35.104C100.795,35.104 95.749,35.104 90.711,35.104C89.842,35.104 89.489,34.705 89.497,33.86C89.52,32.139 89.497,30.426 89.497,28.424L89.512,28.432ZM90.045,27.791C93.226,27.791 96.243,27.806 99.259,27.759C99.463,27.759 99.831,27.36 99.831,27.149C99.823,25.507 99.831,23.864 99.651,22.229C99.47,20.501 97.911,19.82 96.572,20.884C95.467,21.76 94.519,22.839 93.547,23.872C92.396,25.108 91.291,26.39 90.045,27.783L90.045,27.791Z" fill="#FFFFFF"/>
<path d="M50.213,28.612C48.552,30.411 47.009,32.101 45.442,33.767C44.58,34.682 43.546,35.198 42.237,35.12C41.266,35.065 40.294,35.104 39.323,35.112C38.563,35.112 38.179,34.76 38.179,33.993C38.179,32.304 38.179,30.614 38.179,28.925C38.179,28.276 38.453,27.736 39.119,27.814C41.642,28.111 42.895,26.43 44.219,24.748C45.935,22.574 47.682,20.407 49.492,18.311C50.519,17.122 51.686,16.043 52.83,14.955C53.989,13.86 55.47,13.321 56.99,13.172C60.234,12.867 63.18,13.61 65.491,16.097C66.658,17.357 67.348,18.866 67.489,20.548C67.645,22.433 67.669,24.334 67.692,26.234C67.724,28.706 67.7,31.178 67.692,33.649C67.692,34.791 67.387,35.104 66.282,35.104C61.393,35.104 56.504,35.104 51.615,35.104C50.605,35.104 50.213,34.736 50.205,33.72C50.189,32.061 50.205,30.403 50.205,28.604L50.213,28.612ZM50.902,27.791C54.013,27.791 56.896,27.767 59.771,27.806C60.625,27.822 60.704,27.212 60.712,26.719C60.727,25.327 60.61,23.935 60.563,22.542C60.531,21.69 60.304,20.908 59.442,20.595C58.557,20.266 57.68,20.391 56.982,21.119C55.627,22.535 54.256,23.935 52.924,25.374C52.258,26.086 51.67,26.868 50.91,27.783L50.902,27.791Z" fill="#FFFFFF"/>
<path d="M77.102,18.607C77.102,23.613 77.102,28.619 77.102,33.625C77.102,34.83 76.82,35.111 75.629,35.111C74.094,35.111 72.558,35.08 71.022,35.127C70.153,35.15 69.894,34.642 69.777,33.946C69.745,33.766 69.777,33.57 69.777,33.383C69.777,23.527 69.777,13.672 69.777,3.817C69.777,2.596 70.286,2.08 71.5,2.072C72.817,2.072 74.133,2.072 75.449,2.072C76.797,2.072 77.11,2.377 77.11,3.684C77.11,8.658 77.11,13.633 77.11,18.607L77.102,18.607Z" fill="#FFFFFF"/>
</svg>
