<svg width="108" height="36" viewBox="0 0 108 36" fill="none" xmlns="http://www.w3.org/2000/svg" xmlns:xlink="http://www.w3.org/1999/xlink">
<path d="M33.102,14.126C36.095,15.941 37.795,18.334 37.811,21.807C37.826,25.765 37.928,29.723 37.983,33.688C37.999,34.815 37.677,35.12 36.557,35.12C24.907,35.12 13.249,35.12 1.598,35.12C0.368,35.12 0.016,34.776 0.008,33.508C-0.008,32.132 -0.008,30.755 0.008,29.379C0.024,28.135 0.376,27.799 1.63,27.799C10.992,27.799 20.363,27.791 29.725,27.814C30.563,27.814 30.924,27.634 30.853,26.727C30.736,25.116 30.791,23.497 30.626,21.893C30.477,20.438 28.472,20.039 27.735,20.712C26.309,22.01 25.016,23.458 23.684,24.85C23.191,25.366 22.799,25.976 22.259,26.422C21.671,26.907 21.044,26.704 20.504,26.211C19.36,25.163 18.2,24.13 17.056,23.082C16.508,22.581 16.508,21.823 17.103,21.15C18.678,19.359 20.3,17.607 21.867,15.808C23.779,13.626 25.651,11.404 27.555,9.206C28.973,7.572 30.43,5.96 31.856,4.333C32.977,3.058 34.066,1.752 35.186,0.477C35.695,-0.101 36.298,-0.18 36.894,0.337C38.195,1.486 39.472,2.66 40.772,3.817C41.258,4.247 41.313,4.615 40.843,5.147C39.127,7.055 37.45,9.003 35.774,10.943C34.865,11.991 33.987,13.062 33.094,14.118L33.102,14.126Z" fill="#FFFFFF"/>
<path d="M89.512,28.432C88.588,29.457 87.844,30.309 87.068,31.138C86.104,32.171 85.148,33.227 84.13,34.197C83.331,34.955 82.312,35.166 81.215,35.12C80.275,35.073 79.335,35.12 78.395,35.104C77.69,35.096 77.298,34.721 77.29,34.009C77.274,32.319 77.29,30.63 77.29,28.948C77.29,28.197 77.69,27.72 78.426,27.806C80.479,28.049 81.67,26.868 82.806,25.421C84.577,23.168 86.394,20.954 88.29,18.803C89.591,17.333 90.931,15.855 92.466,14.634C95.49,12.225 100.74,12.851 103.599,15.088C105.629,16.676 106.678,18.772 106.772,21.252C106.937,25.483 106.929,29.73 106.984,33.962C106.992,34.705 106.584,35.096 105.832,35.104C100.795,35.104 95.749,35.104 90.711,35.104C89.842,35.104 89.489,34.705 89.497,33.86C89.52,32.139 89.497,30.426 89.497,28.424L89.512,28.432ZM90.045,27.791C93.226,27.791 96.243,27.806 99.259,27.759C99.463,27.759 99.831,27.36 99.831,27.149C99.823,25.507 99.831,23.864 99.651,22.229C99.47,20.501 97.911,19.82 96.572,20.884C95.467,21.76 94.519,22.839 93.547,23.872C92.396,25.108 91.291,26.39 90.045,27.783L90.045,27.791Z" fill="#FFFFFF"/>
<path d="M50.214,28.612C48.553,30.411 47.01,32.101 45.443,33.767C44.581,34.682 43.547,35.198 42.238,35.12C41.267,35.065 40.295,35.104 39.324,35.112C38.564,35.112 38.18,34.76 38.18,33.993C38.18,32.304 38.18,30.614 38.18,28.925C38.18,28.276 38.454,27.736 39.12,27.814C41.643,28.111 42.896,26.43 44.22,24.748C45.936,22.574 47.683,20.407 49.493,18.311C50.519,17.122 51.687,16.043 52.831,14.955C53.99,13.86 55.471,13.321 56.991,13.172C60.235,12.867 63.18,13.61 65.492,16.097C66.659,17.357 67.349,18.866 67.49,20.548C67.646,22.433 67.67,24.334 67.693,26.234C67.725,28.706 67.701,31.178 67.693,33.649C67.693,34.791 67.388,35.104 66.283,35.104C61.394,35.104 56.505,35.104 51.616,35.104C50.606,35.104 50.214,34.736 50.206,33.72C50.19,32.061 50.206,30.403 50.206,28.604L50.214,28.612ZM50.903,27.791C54.014,27.791 56.897,27.767 59.772,27.806C60.626,27.822 60.705,27.212 60.712,26.719C60.728,25.327 60.611,23.935 60.564,22.542C60.532,21.69 60.305,20.908 59.443,20.595C58.558,20.266 57.68,20.391 56.983,21.119C55.628,22.535 54.257,23.935 52.925,25.374C52.259,26.086 51.671,26.868 50.911,27.783L50.903,27.791Z" fill="#FFFFFF"/>
<path d="M77.103,18.607C77.103,23.613 77.103,28.619 77.103,33.625C77.103,34.83 76.821,35.111 75.63,35.111C74.095,35.111 72.559,35.08 71.023,35.127C70.154,35.15 69.895,34.642 69.778,33.946C69.746,33.766 69.778,33.57 69.778,33.383C69.778,23.527 69.778,13.672 69.778,3.817C69.778,2.596 70.287,2.08 71.501,2.072C72.817,2.072 74.134,2.072 75.45,2.072C76.798,2.072 77.111,2.377 77.111,3.684C77.111,8.658 77.111,13.633 77.111,18.607L77.103,18.607Z" fill="#FFFFFF"/>
</svg>
