<svg width="70" height="54" viewBox="0 0 70 54" fill="none" xmlns="http://www.w3.org/2000/svg" xmlns:xlink="http://www.w3.org/1999/xlink">
<path d="M28.5,43.124C29.702,44.902 31.099,46.461 32.794,47.845C32.532,48.043 32.3,48.247 32.042,48.408C30.6,49.304 29.104,50.111 27.474,50.648C26.52,50.961 25.554,51.259 24.566,51.457C23.597,51.653 22.601,51.727 21.611,51.825C21.028,51.882 20.436,51.902 19.847,51.894C18.423,51.871 17.017,51.681 15.625,51.388C13.841,51.015 12.125,50.429 10.531,49.588C9.309,48.945 8.17,48.146 7.043,47.348C6.336,46.849 5.679,46.268 5.075,45.654C3.894,44.445 2.851,43.127 2.003,41.671C1.186,40.267 0.493,38.808 0.059,37.249C-0.203,36.307 -0.438,35.351 -0.566,34.386C-0.711,33.284 -0.768,32.167 -0.786,31.052C-0.807,29.726 -0.572,28.419 -0.283,27.124C0.13,25.266 0.814,23.495 1.789,21.849C2.429,20.77 3.19,19.75 3.963,18.751C4.495,18.062 5.137,17.447 5.741,16.813C5.931,16.612 6.169,16.457 6.371,16.264C11.911,10.929 17.445,5.585 22.975,0.235C23.148,0.069 23.314,0 23.561,0C26.416,0.009 29.27,0.006 32.125,0.006L32.419,0.006C28.607,3.753 24.774,7.518 20.956,11.271C26.799,11.52 31.798,13.711 35.771,17.884C39.58,21.884 41.405,26.702 41.286,32.129C41.212,35.558 40.264,38.803 38.366,41.861C37.653,41.143 36.93,40.503 36.309,39.779C35.348,38.659 34.765,37.327 34.15,36.014C33.939,35.564 34.186,35.202 34.29,34.823C34.462,34.185 34.62,33.556 34.611,32.893C34.605,32.37 34.667,31.845 34.673,31.322C34.682,30.231 34.602,29.146 34.233,28.109C33.838,26.998 33.448,25.875 32.937,24.813C32.613,24.141 32.11,23.532 31.617,22.955C31.099,22.346 30.504,21.798 29.928,21.24C28.453,19.81 26.698,18.849 24.673,18.34C23.921,18.151 23.175,17.933 22.416,17.777C21.967,17.686 21.495,17.663 21.034,17.663C20.124,17.663 19.214,17.665 18.31,17.737C17.736,17.783 17.15,17.901 16.609,18.088C15.417,18.492 14.225,18.915 13.077,19.426C12.464,19.698 11.926,20.146 11.385,20.557C10.903,20.922 10.43,21.307 10.02,21.74C8.941,22.877 7.781,23.966 7.249,25.49C6.966,26.297 6.615,27.081 6.342,27.891C6.021,28.85 5.801,29.829 5.842,30.849C5.881,31.785 5.884,32.724 5.922,33.66C5.934,33.958 6.038,34.194 6.351,34.395C7.95,35.417 10.398,35.207 11.742,33.835C12.5,33.06 13.642,33.439 13.88,34.271C14.028,34.797 13.781,35.233 13.392,35.535C12.821,35.977 12.226,36.428 11.569,36.712C10.891,37.005 10.127,37.117 9.398,37.292C8.634,37.473 7.888,37.284 7.142,37.16C7.109,37.154 7.073,37.166 6.999,37.174C7.385,38.027 7.707,38.897 8.346,39.601C9.015,40.336 9.663,41.094 10.392,41.769C11.278,42.59 12.191,43.403 13.327,43.908C14.819,44.569 16.368,45.074 17.971,45.416C18.325,45.49 18.697,45.499 19.062,45.493C20.154,45.482 21.254,45.533 22.33,45.404C23.255,45.292 24.171,45.017 25.054,44.721C25.949,44.419 26.811,44.014 27.677,43.632C27.959,43.509 28.206,43.314 28.5,43.133L28.5,43.124Z" fill="#FFFFFF"/>
<path d="M60.286,37.171C59.638,37.237 59.061,37.36 58.49,37.346C56.976,37.303 55.579,36.887 54.383,35.948C54.137,35.755 53.905,35.543 53.673,35.333C53.319,35.012 53.295,34.595 53.42,34.196C53.56,33.757 53.881,33.493 54.404,33.415C55.041,33.323 55.374,33.737 55.766,34.052C56.498,34.644 57.336,34.951 58.285,35.014C59.278,35.08 60.194,34.859 61.011,34.317C61.145,34.228 61.282,34.041 61.288,33.895C61.335,32.867 61.386,31.836 61.362,30.808C61.332,29.636 61.324,28.459 60.744,27.368C60.319,26.564 60,25.708 59.563,24.91C59.197,24.241 58.793,23.574 58.297,22.994C57.705,22.305 57.003,21.699 56.328,21.082C55.941,20.729 55.543,20.367 55.091,20.109C53.815,19.379 52.51,18.71 51.092,18.248C50.235,17.969 49.379,17.82 48.49,17.791C47.604,17.762 46.712,17.694 45.829,17.734C44.342,17.797 42.897,18.081 41.556,18.75C40.64,19.207 39.706,19.635 38.728,20.103C37.631,18.334 36.159,16.803 34.473,15.356C35.038,14.997 35.537,14.627 36.084,14.348C37.205,13.78 38.332,13.217 39.492,12.732C40.643,12.249 41.868,11.974 43.099,11.729C44.464,11.46 45.843,11.391 47.229,11.391C48.79,11.391 50.325,11.6 51.847,11.942C53.325,12.275 54.74,12.775 56.105,13.395C57.476,14.018 58.799,14.756 59.941,15.712C61.068,16.657 62.103,17.711 63.12,18.77C63.717,19.391 64.25,20.083 64.719,20.801C65.213,21.553 65.597,22.371 66.022,23.164C66.191,23.483 66.358,23.804 66.486,24.14C66.75,24.844 66.997,25.55 67.229,26.265C67.372,26.701 67.497,27.149 67.583,27.6C67.705,28.243 67.815,28.89 67.868,29.539C67.949,30.5 68.047,31.471 68.002,32.433C67.934,33.872 67.77,35.307 67.333,36.697C67.083,37.49 66.881,38.299 66.578,39.072C66.295,39.79 65.915,40.473 65.555,41.162C64.96,42.297 64.282,43.393 63.399,44.332C62.391,45.406 61.303,46.411 60.217,47.414C59.242,48.315 58.068,48.961 56.893,49.584C55.341,50.409 53.682,51.003 51.966,51.414C49.876,51.913 47.744,52.108 45.597,51.962C44.556,51.89 43.521,51.669 42.489,51.491C41.309,51.29 40.185,50.897 39.073,50.472C37.636,49.923 36.289,49.211 35.026,48.37C33.694,47.485 32.445,46.48 31.401,45.286C30.539,44.298 29.76,43.238 29.019,42.159C28.16,40.907 27.535,39.528 27.057,38.098C26.837,37.438 26.596,36.778 26.453,36.1C26.275,35.25 26.087,34.386 26.078,33.524C26.019,29.039 26.013,24.554 25.992,20.068C25.992,20.002 26.007,19.939 26.016,19.859C26.765,20.028 27.405,20.361 27.961,20.835C28.719,21.484 29.486,22.124 30.209,22.811C30.646,23.224 31.009,23.712 31.404,24.169C32.213,25.102 32.584,26.239 33.004,27.353C33.045,27.465 33.081,27.609 33.045,27.718C32.495,29.398 32.51,31.129 32.573,32.852C32.62,34.136 32.837,35.405 33.435,36.582C33.804,37.306 34.16,38.035 34.538,38.756C35.231,40.071 36.287,41.105 37.372,42.113C38.534,43.192 39.923,43.936 41.401,44.533C42.076,44.806 42.751,45.085 43.45,45.289C43.967,45.441 44.52,45.524 45.061,45.559C46.007,45.619 46.956,45.653 47.901,45.627C49.406,45.59 50.872,45.36 52.234,44.683C52.79,44.407 53.39,44.206 53.934,43.913C54.746,43.474 55.585,43.072 56.239,42.394C56.682,41.935 57.25,41.584 57.672,41.108C58.249,40.456 58.775,39.755 59.263,39.037C59.652,38.46 59.953,37.826 60.313,37.18L60.286,37.171Z" fill="#FFFFFF"/>
<path d="M52.195,24.953C53.179,24.844 54.098,25.852 54.098,26.731C54.098,27.567 53.253,28.655 52.088,28.554C51.038,28.465 50.304,27.77 50.307,26.656C50.307,25.735 51.175,24.953 52.195,24.953Z" fill="#FFFFFF"/>
<path d="M16.909,26.756C16.909,27.885 16.186,28.537 14.938,28.537C13.933,28.537 13.225,27.773 13.192,26.728C13.162,25.789 14.037,24.87 15.167,24.941C16.178,25.005 16.912,25.711 16.912,26.756L16.909,26.756Z" fill="#FFFFFF"/>
</svg>
