<svg width="44" height="50" viewBox="0 0 44 50" fill="none" xmlns="http://www.w3.org/2000/svg" xmlns:xlink="http://www.w3.org/1999/xlink">
<path d="M8.639,27.689C19.077,36.125 10.317,43.08 17.709,47.957C24.351,52.337 36.897,48.424 41.571,30.701C45.017,17.641 37.416,4.805 24.93,0.831C8.37,-4.431 -5.015,16.648 8.639,27.689ZM19.007,41.782C19.437,40.15 21.594,39.319 23.832,39.927C26.059,40.535 27.527,42.35 27.098,43.983C26.668,45.615 24.511,46.446 22.273,45.838C20.036,45.23 18.578,43.415 19.017,41.782L19.007,41.782Z" fill="#FDC00F"/>
<path d="M6.942,11.995C6.372,14.164 7.631,16.385 9.768,16.963C11.896,17.541 14.093,16.253 14.663,14.093C15.232,11.934 13.963,9.703 11.836,9.125C9.708,8.547 7.511,9.825 6.942,11.995Z" fill="#A2E2E8"/>
<path d="M15.192,6.307C14.622,8.467 15.881,10.697 18.018,11.275C20.146,11.853 22.343,10.576 22.913,8.406C23.482,6.246 22.213,4.016 20.086,3.438C17.948,2.86 15.761,4.137 15.192,6.307Z" fill="#184F78"/>
<path d="M25.011,9.511C24.442,11.681 25.7,13.902 27.838,14.48C29.965,15.057 32.163,13.78 32.732,11.61C33.301,9.451 32.033,7.22 29.905,6.642C27.778,6.064 25.58,7.352 25.011,9.511Z" fill="#D291BC"/>
<path d="M30.884,18.129C30.315,20.299 31.573,22.52 33.711,23.097C35.838,23.675 38.036,22.398 38.605,20.228C39.174,18.068 37.906,15.838 35.778,15.26C33.651,14.682 31.453,15.96 30.884,18.129Z" fill="#16B6C6"/>
<path d="M30.764,28.623C30.195,30.783 31.463,33.014 33.591,33.592C35.728,34.169 37.916,32.892 38.485,30.722C39.054,28.563 37.786,26.332 35.658,25.754C33.531,25.176 31.333,26.454 30.764,28.623Z" fill="#FFF2CF"/>
<g opacity="0.2">
<path d="M13.065,9.713C13.714,10.656 13.974,11.872 13.664,13.069C13.095,15.229 10.897,16.516 8.77,15.938C8.31,15.817 7.911,15.604 7.541,15.34C8.06,16.1 8.82,16.689 9.768,16.952C11.896,17.53 14.093,16.242 14.663,14.083C15.112,12.379 14.413,10.656 13.065,9.713Z" fill="#272930"/>
<path d="M37.606,19.213C37.037,21.373 34.84,22.661 32.712,22.083C32.253,21.961 31.853,21.748 31.483,21.495C32.003,22.255 32.762,22.843 33.711,23.097C35.838,23.675 38.036,22.397 38.605,20.227C39.055,18.524 38.355,16.8 37.007,15.857C37.656,16.8 37.926,18.017 37.606,19.213Z" fill="#272930"/>
<path d="M32.732,11.608C33.182,9.905 32.482,8.181 31.134,7.238C31.783,8.181 32.053,9.398 31.733,10.594C31.164,12.764 28.966,14.042 26.839,13.464C26.379,13.342 25.98,13.129 25.61,12.865C26.13,13.626 26.889,14.214 27.838,14.478C29.965,15.055 32.163,13.778 32.732,11.608Z" fill="#272930"/>
<path d="M21.315,4.035C21.964,4.978 22.224,6.195 21.914,7.391C21.345,9.551 19.147,10.838 17.02,10.26C16.56,10.139 16.161,9.926 15.791,9.662C16.31,10.423 17.07,11.011 18.018,11.274C20.146,11.852 22.343,10.575 22.913,8.405C23.362,6.702 22.663,4.978 21.315,4.035Z" fill="#272930"/>
<path d="M36.887,26.352C37.536,27.294 37.806,28.511 37.486,29.708C36.917,31.877 34.729,33.155 32.592,32.577C32.132,32.455 31.733,32.242 31.363,31.979C31.883,32.739 32.642,33.327 33.591,33.591C35.728,34.169 37.916,32.891 38.485,30.721C38.935,29.018 38.235,27.294 36.887,26.352Z" fill="#272930"/>
</g>
<path d="M7.061,30.56C3.416,36.978 1.718,42.919 3.276,43.832C4.834,44.744 9.059,40.283 12.705,33.865C16.351,27.447 18.049,21.506 16.491,20.593C14.932,19.681 10.707,24.142 7.061,30.55L7.061,30.56Z" fill="#184F78"/>
<path d="M1.328,43.102C1.727,42.839 2.147,42.565 2.516,42.606C7.141,43.214 4.434,50.626 -0.21,49.48C-0.62,49.378 -0.8,49.216 -0.8,49.226C-0.8,49.226 -0.6,49.074 -0.4,48.79C-0.191,48.506 -0.111,48.101 -0.151,47.685C-0.171,47.27 -0.26,46.783 -0.26,46.205C-0.26,45.657 -0.2,44.917 0.319,44.137C0.629,43.721 0.978,43.356 1.338,43.092L1.328,43.102Z" fill="#D291BC"/>
<path d="M5.541,40.611L2.338,40.611L2.338,44.692L5.541,44.692L5.541,40.611Z" transform="rotate(-120.759 3.94 42.651)" fill="#A3B9C9"/>
<g opacity="0.3">
<path d="M-0.261,49.458C-0.151,49.357 -0.031,49.245 0.079,49.154C0.129,49.124 0.179,49.093 0.229,49.053L0.169,49.012L2.636,44.673C3.525,40.749 5.782,35.253 9.049,29.515C10.876,26.301 12.794,23.411 14.632,20.998C12.614,22.296 9.688,25.905 7.051,30.539C4.963,34.209 3.525,37.717 2.956,40.222L1.377,42.989L1.417,43.01C1.417,43.01 1.348,43.05 1.318,43.071C0.958,43.344 0.608,43.699 0.299,44.115C-0.221,44.896 -0.281,45.636 -0.281,46.183C-0.281,46.761 -0.191,47.248 -0.171,47.664C-0.131,48.079 -0.211,48.485 -0.42,48.769C-0.61,49.053 -0.83,49.195 -0.82,49.205C-0.82,49.195 -0.65,49.337 -0.281,49.438L-0.261,49.458Z" fill="#FFFFFF"/>
</g>
</svg>
