<svg width="32" height="44" viewBox="0 0 32 44" fill="none" xmlns="http://www.w3.org/2000/svg" xmlns:xlink="http://www.w3.org/1999/xlink">
<path d="M6.851,23.683C14.427,31.137 8.069,37.282 13.434,41.591C18.255,45.462 27.36,42.004 30.753,26.344C33.254,14.805 27.737,3.463 18.675,-0.049C6.655,-4.698 -3.059,13.927 6.851,23.683ZM14.376,36.136C14.688,34.693 16.254,33.959 17.878,34.496C19.494,35.034 20.56,36.637 20.248,38.08C19.936,39.522 18.371,40.257 16.747,39.719C15.123,39.182 14.064,37.578 14.383,36.136L14.376,36.136Z" fill="#FDC00F"/>
<path d="M5.618,9.814C5.205,11.731 6.119,13.693 7.67,14.204C9.214,14.715 10.809,13.577 11.222,11.669C11.636,9.761 10.715,7.79 9.171,7.279C7.627,6.768 6.032,7.897 5.618,9.814Z" fill="#A2E2E8"/>
<path d="M11.607,4.789C11.193,6.697 12.107,8.668 13.658,9.179C15.202,9.689 16.797,8.561 17.211,6.643C17.624,4.735 16.703,2.764 15.159,2.254C13.608,1.743 12.02,2.872 11.607,4.789Z" fill="#184F78"/>
<path d="M18.733,7.62C18.32,9.538 19.233,11.499 20.785,12.01C22.329,12.521 23.924,11.392 24.337,9.475C24.75,7.567 23.83,5.596 22.285,5.085C20.741,4.574 19.146,5.712 18.733,7.62Z" fill="#FC611F"/>
<path d="M22.996,15.234C22.583,17.151 23.496,19.113 25.047,19.624C26.592,20.135 28.187,19.006 28.6,17.089C29.013,15.18 28.092,13.21 26.548,12.699C25.004,12.188 23.409,13.317 22.996,15.234Z" fill="#16B6C6"/>
<path d="M22.909,24.508C22.496,26.416 23.416,28.387 24.961,28.897C26.512,29.408 28.1,28.279 28.513,26.362C28.926,24.454 28.005,22.483 26.461,21.972C24.917,21.462 23.322,22.59 22.909,24.508Z" fill="#FFF2CF"/>
<g opacity="0.2">
<path d="M10.063,7.801C10.534,8.634 10.722,9.709 10.498,10.766C10.085,12.674 8.49,13.812 6.945,13.301C6.612,13.194 6.322,13.006 6.054,12.773C6.431,13.445 6.982,13.964 7.67,14.197C9.215,14.708 10.809,13.57 11.223,11.662C11.549,10.157 11.041,8.634 10.063,7.801Z" fill="#000000"/>
<path d="M27.875,16.194C27.462,18.102 25.867,19.24 24.323,18.729C23.989,18.622 23.699,18.434 23.431,18.21C23.808,18.881 24.359,19.401 25.048,19.625C26.592,20.136 28.187,19.007 28.6,17.09C28.926,15.585 28.419,14.062 27.44,13.229C27.911,14.062 28.107,15.137 27.875,16.194Z" fill="#000000"/>
<path d="M24.337,9.475C24.664,7.969 24.156,6.446 23.178,5.613C23.649,6.446 23.844,7.521 23.612,8.579C23.199,10.496 21.604,11.625 20.06,11.114C19.727,11.006 19.437,10.818 19.168,10.585C19.545,11.257 20.096,11.777 20.785,12.01C22.329,12.52 23.924,11.392 24.337,9.475Z" fill="#000000"/>
<path d="M16.051,2.783C16.522,3.616 16.711,4.691 16.486,5.749C16.073,7.657 14.478,8.795 12.934,8.284C12.6,8.176 12.31,7.988 12.042,7.755C12.419,8.427 12.97,8.947 13.659,9.18C15.203,9.69 16.798,8.562 17.211,6.644C17.537,5.139 17.03,3.616 16.051,2.783Z" fill="#000000"/>
<path d="M27.353,22.502C27.825,23.335 28.02,24.41 27.788,25.467C27.375,27.384 25.787,28.513 24.236,28.003C23.902,27.895 23.612,27.707 23.344,27.474C23.721,28.146 24.272,28.666 24.961,28.898C26.512,29.409 28.1,28.28 28.513,26.363C28.839,24.858 28.332,23.335 27.353,22.502Z" fill="#000000"/>
</g>
<path d="M5.706,26.218C3.06,31.889 1.827,37.138 2.958,37.945C4.089,38.751 7.156,34.809 9.802,29.138C12.448,23.467 13.68,18.218 12.549,17.411C11.418,16.605 8.352,20.547 5.706,26.209L5.706,26.218Z" fill="#184F78"/>
<path d="M1.544,37.3C1.834,37.067 2.139,36.825 2.407,36.861C5.764,37.398 3.799,43.947 0.428,42.935C0.13,42.845 0,42.702 0,42.711C0,42.711 0.145,42.577 0.29,42.326C0.442,42.075 0.5,41.717 0.471,41.349C0.457,40.982 0.391,40.552 0.391,40.041C0.391,39.558 0.435,38.904 0.812,38.214C1.037,37.846 1.29,37.524 1.551,37.291L1.544,37.3Z" fill="#FC611F"/>
<path d="M4.797,35.333L2.083,35.333L2.083,38.472L4.797,38.472L4.797,35.333Z" transform="rotate(-129.933 3.44 36.902)" fill="#A3B9C9"/>
<g opacity="0.3">
<path d="M0.392,42.917C0.471,42.827 0.558,42.729 0.638,42.648C0.674,42.621 0.711,42.594 0.747,42.558L0.703,42.523L2.494,38.688C3.139,35.221 4.778,30.366 7.148,25.295C8.475,22.455 9.867,19.902 11.201,17.77C9.736,18.916 7.612,22.106 5.698,26.2C4.183,29.443 3.139,32.542 2.726,34.755L1.581,37.201L1.61,37.219C1.61,37.219 1.559,37.255 1.537,37.273C1.276,37.515 1.022,37.828 0.798,38.195C0.421,38.885 0.377,39.539 0.377,40.023C0.377,40.534 0.442,40.964 0.457,41.331C0.486,41.698 0.428,42.057 0.276,42.308C0.138,42.558 -0.022,42.684 -0.014,42.693C-0.014,42.684 0.109,42.809 0.377,42.899L0.392,42.917Z" fill="#FFFFFF"/>
</g>
</svg>
