<svg width="56" height="64" viewBox="0 0 56 64" fill="none" xmlns="http://www.w3.org/2000/svg" xmlns:xlink="http://www.w3.org/1999/xlink">
<path d="M11.799,34.612C24.846,45.157 13.896,53.851 23.136,59.947C31.439,65.422 47.121,60.53 52.964,38.376C57.271,22.052 47.77,6.007 32.163,1.039C11.462,-5.538 -5.269,20.81 11.799,34.612ZM24.759,52.229C25.296,50.188 27.993,49.149 30.789,49.909C33.574,50.67 35.409,52.938 34.872,54.979C34.335,57.019 31.638,58.059 28.842,57.298C26.045,56.538 24.222,54.269 24.771,52.229L24.759,52.229Z" fill="#FDC00F"/>
<path d="M9.676,14.993C8.965,17.705 10.538,20.481 13.21,21.203C15.869,21.926 18.616,20.316 19.328,17.617C20.039,14.917 18.454,12.129 15.794,11.406C13.135,10.684 10.388,12.281 9.676,14.993Z" fill="#A2E2E8"/>
<path d="M19.989,7.883C19.278,10.583 20.851,13.371 23.523,14.093C26.182,14.816 28.929,13.219 29.641,10.507C30.352,7.807 28.767,5.019 26.107,4.296C23.435,3.574 20.701,5.171 19.989,7.883Z" fill="#184F78"/>
<path d="M32.263,11.888C31.551,14.6 33.124,17.376 35.796,18.098C38.455,18.821 41.202,17.224 41.914,14.511C42.626,11.812 41.04,9.024 38.381,8.301C35.721,7.579 32.974,9.188 32.263,11.888Z" fill="#FC611F"/>
<path d="M39.604,22.661C38.892,25.373 40.466,28.148 43.138,28.871C45.797,29.593 48.544,27.996 49.255,25.284C49.967,22.585 48.381,19.796 45.722,19.074C43.063,18.352 40.316,19.948 39.604,22.661Z" fill="#16B6C6"/>
<path d="M39.454,35.778C38.743,38.478 40.328,41.266 42.988,41.988C45.66,42.711 48.394,41.114 49.106,38.401C49.817,35.702 48.232,32.914 45.572,32.191C42.913,31.469 40.166,33.066 39.454,35.778Z" fill="#FFF2CF"/>
<g opacity="0.2">
<path d="M17.33,12.141C18.141,13.32 18.466,14.841 18.079,16.336C17.367,19.036 14.621,20.646 11.961,19.923C11.387,19.771 10.887,19.505 10.425,19.175C11.075,20.126 12.024,20.861 13.21,21.191C15.869,21.913 18.616,20.303 19.328,17.604C19.889,15.475 19.015,13.32 17.33,12.141Z" fill="#0C0D0F"/>
<path d="M48.007,24.017C47.295,26.716 44.548,28.326 41.889,27.603C41.315,27.451 40.815,27.185 40.353,26.868C41.003,27.819 41.951,28.554 43.138,28.871C45.797,29.593 48.544,27.996 49.255,25.284C49.817,23.155 48.943,21 47.258,19.822C48.069,21 48.406,22.521 48.007,24.017Z" fill="#0C0D0F"/>
<path d="M41.914,14.511C42.476,12.382 41.602,10.228 39.916,9.049C40.728,10.228 41.065,11.749 40.665,13.244C39.954,15.956 37.207,17.553 34.548,16.831C33.973,16.679 33.474,16.413 33.012,16.083C33.661,17.034 34.61,17.769 35.796,18.098C38.455,18.821 41.202,17.224 41.914,14.511Z" fill="#0C0D0F"/>
<path d="M27.643,5.044C28.455,6.223 28.779,7.744 28.392,9.239C27.68,11.939 24.934,13.548 22.274,12.826C21.7,12.674 21.2,12.408 20.738,12.078C21.388,13.029 22.337,13.764 23.523,14.093C26.182,14.816 28.929,13.219 29.641,10.507C30.203,8.377 29.329,6.223 27.643,5.044Z" fill="#0C0D0F"/>
<path d="M47.108,32.939C47.919,34.118 48.257,35.639 47.857,37.134C47.145,39.846 44.411,41.443 41.739,40.721C41.165,40.569 40.665,40.303 40.203,39.973C40.853,40.924 41.802,41.659 42.988,41.988C45.66,42.711 48.394,41.114 49.106,38.401C49.667,36.272 48.793,34.118 47.108,32.939Z" fill="#0C0D0F"/>
</g>
<path d="M9.826,38.199C5.269,46.221 3.146,53.648 5.094,54.789C7.042,55.929 12.323,50.353 16.88,42.33C21.438,34.308 23.56,26.881 21.612,25.74C19.665,24.6 14.383,30.176 9.826,38.186L9.826,38.199Z" fill="#184F78"/>
<path d="M2.659,53.876C3.159,53.547 3.683,53.204 4.145,53.255C9.926,54.016 6.542,63.28 0.737,61.848C0.225,61.721 0,61.518 0,61.531C0,61.531 0.25,61.341 0.499,60.986C0.762,60.631 0.862,60.124 0.812,59.605C0.787,59.085 0.674,58.477 0.674,57.754C0.674,57.07 0.749,56.145 1.398,55.169C1.785,54.649 2.222,54.193 2.672,53.863L2.659,53.876Z" fill="#FC611F"/>
<path d="M7.926,50.764L3.923,50.764L3.923,55.864L7.926,55.864L7.926,50.764Z" transform="rotate(-120.759 5.924 53.314)" fill="#A3B9C9"/>
<g opacity="0.3">
<path d="M0.674,61.823C0.812,61.696 0.961,61.556 1.099,61.442C1.161,61.404 1.224,61.366 1.286,61.316L1.211,61.265L4.295,55.841C5.406,50.936 8.228,44.067 12.311,36.893C14.596,32.876 16.993,29.264 19.29,26.247C16.768,27.87 13.11,32.381 9.814,38.173C7.204,42.761 5.406,47.146 4.695,50.277L2.722,53.737L2.772,53.762C2.772,53.762 2.684,53.813 2.647,53.838C2.197,54.18 1.76,54.624 1.373,55.144C0.724,56.119 0.649,57.045 0.649,57.729C0.649,58.451 0.762,59.06 0.787,59.579C0.837,60.099 0.737,60.606 0.474,60.961C0.237,61.316 -0.037,61.493 -0.025,61.506C-0.025,61.493 0.187,61.671 0.649,61.797L0.674,61.823Z" fill="#FFFFFF"/>
</g>
</svg>
