<svg width="36" height="42" viewBox="0 0 36 42" fill="none" xmlns="http://www.w3.org/2000/svg" xmlns:xlink="http://www.w3.org/1999/xlink">
<path d="M7.612,22.33C16.03,29.133 8.966,34.743 14.926,38.675C20.283,42.208 30.4,39.052 34.17,24.759C36.949,14.227 30.819,3.876 20.75,0.671C7.395,-3.573 -3.399,13.426 7.612,22.33ZM15.974,33.696C16.32,32.379 18.06,31.709 19.864,32.2C21.661,32.69 22.845,34.154 22.498,35.47C22.152,36.787 20.412,37.457 18.608,36.967C16.803,36.476 15.627,35.012 15.982,33.696L15.974,33.696Z" fill="#FDC00F"/>
<path d="M6.243,9.674C5.784,11.424 6.799,13.215 8.523,13.681C10.239,14.147 12.011,13.108 12.47,11.367C12.929,9.625 11.906,7.826 10.19,7.36C8.474,6.894 6.702,7.924 6.243,9.674Z" fill="#A2E2E8"/>
<path d="M12.896,5.086C12.437,6.828 13.452,8.627 15.176,9.093C16.892,9.559 18.664,8.528 19.123,6.779C19.582,5.037 18.559,3.238 16.844,2.772C15.12,2.306 13.356,3.336 12.896,5.086Z" fill="#184F78"/>
<path d="M20.815,7.67C20.356,9.419 21.371,11.21 23.095,11.676C24.811,12.142 26.583,11.112 27.042,9.362C27.501,7.621 26.478,5.822 24.762,5.356C23.047,4.89 21.275,5.928 20.815,7.67Z" fill="#FC611F"/>
<path d="M25.552,14.619C25.093,16.369 26.108,18.16 27.831,18.626C29.547,19.092 31.319,18.062 31.778,16.312C32.238,14.57 31.215,12.771 29.499,12.305C27.783,11.839 26.011,12.87 25.552,14.619Z" fill="#16B6C6"/>
<path d="M25.455,23.082C24.995,24.824 26.018,26.623 27.734,27.089C29.458,27.555 31.222,26.525 31.681,24.775C32.14,23.033 31.117,21.234 29.402,20.768C27.686,20.302 25.914,21.332 25.455,23.082Z" fill="#FFF2CF"/>
<g opacity="0.2">
<path d="M11.181,7.832C11.705,8.592 11.914,9.574 11.664,10.538C11.205,12.28 9.433,13.319 7.717,12.852C7.347,12.754 7.025,12.583 6.727,12.37C7.145,12.983 7.758,13.458 8.523,13.67C10.239,14.136 12.011,13.098 12.47,11.356C12.832,9.982 12.269,8.592 11.181,7.832Z" fill="#272930"/>
<path d="M30.973,15.494C30.514,17.235 28.742,18.274 27.026,17.808C26.655,17.709 26.333,17.538 26.035,17.333C26.454,17.947 27.066,18.421 27.831,18.625C29.547,19.091 31.319,18.061 31.779,16.311C32.141,14.938 31.577,13.548 30.49,12.787C31.013,13.548 31.231,14.529 30.973,15.494Z" fill="#272930"/>
<path d="M27.042,9.362C27.405,7.988 26.841,6.598 25.753,5.838C26.277,6.598 26.494,7.58 26.237,8.544C25.778,10.294 24.005,11.324 22.29,10.858C21.919,10.76 21.597,10.589 21.299,10.376C21.718,10.989 22.33,11.463 23.095,11.676C24.811,12.142 26.583,11.112 27.042,9.362Z" fill="#272930"/>
<path d="M17.834,3.254C18.358,4.014 18.567,4.996 18.318,5.96C17.859,7.702 16.086,8.74 14.371,8.274C14,8.176 13.678,8.005 13.38,7.792C13.799,8.405 14.411,8.879 15.176,9.092C16.892,9.558 18.664,8.528 19.123,6.778C19.486,5.404 18.922,4.014 17.834,3.254Z" fill="#272930"/>
<path d="M30.393,21.25C30.917,22.01 31.134,22.992 30.876,23.956C30.417,25.706 28.653,26.736 26.929,26.27C26.559,26.172 26.237,26.001 25.938,25.788C26.357,26.401 26.97,26.876 27.735,27.088C29.459,27.554 31.223,26.524 31.682,24.774C32.044,23.4 31.48,22.01 30.393,21.25Z" fill="#272930"/>
</g>
<path d="M6.34,24.645C3.4,29.821 2.03,34.612 3.287,35.348C4.544,36.084 7.951,32.486 10.891,27.31C13.831,22.135 15.201,17.343 13.944,16.607C12.687,15.871 9.28,19.469 6.34,24.637L6.34,24.645Z" fill="#184F78"/>
<path d="M1.716,34.759C2.038,34.547 2.376,34.326 2.674,34.359C6.404,34.849 4.221,40.826 0.475,39.902C0.145,39.821 0,39.69 0,39.698C0,39.698 0.161,39.575 0.322,39.346C0.491,39.117 0.556,38.79 0.524,38.455C0.507,38.12 0.435,37.727 0.435,37.261C0.435,36.82 0.483,36.223 0.902,35.593C1.152,35.258 1.434,34.964 1.724,34.751L1.716,34.759Z" fill="#FC611F"/>
<path d="M5.113,32.751L2.53,32.751L2.53,36.042L5.113,36.042L5.113,32.751Z" transform="rotate(-120.759 3.822 34.397)" fill="#A3B9C9"/>
<g opacity="0.3">
<path d="M0.435,39.885C0.523,39.804 0.62,39.714 0.709,39.64C0.749,39.616 0.789,39.591 0.829,39.558L0.781,39.526L2.771,36.026C3.488,32.862 5.308,28.43 7.942,23.802C9.416,21.21 10.963,18.88 12.445,16.934C10.818,17.98 8.458,20.891 6.331,24.628C4.648,27.588 3.488,30.417 3.029,32.436L1.756,34.669L1.788,34.685C1.788,34.685 1.732,34.718 1.707,34.734C1.417,34.955 1.136,35.241 0.886,35.576C0.467,36.206 0.419,36.803 0.419,37.244C0.419,37.71 0.491,38.103 0.507,38.438C0.539,38.773 0.475,39.1 0.306,39.329C0.153,39.558 -0.024,39.673 -0.016,39.681C-0.016,39.673 0.121,39.787 0.419,39.869L0.435,39.885Z" fill="#FFFFFF"/>
</g>
</svg>
