<svg width="114" height="336" viewBox="0 0 114 336" fill="none" xmlns="http://www.w3.org/2000/svg" xmlns:xlink="http://www.w3.org/1999/xlink">
<rect  x="18.32" y="21.84" width="0.74" height="265.14" fill="#7A3F11"/>
<path d="M35.34,23.581C40.6,23.581 35.84,33.441 32.18,37.101C28.52,40.761 23.26,41.801 18.66,40.241C18.66,40.241 30.06,23.561 35.34,23.561Z" fill="#8CB73F"/>
<path d="M35.34,51.32C40.54,51.66 35.84,61.18 32.18,64.84C28.52,68.5 23.26,69.54 18.66,67.98C18.66,67.98 30.12,50.96 35.34,51.32Z" fill="#8DBB3D"/>
<path d="M35.34,79.061C40.48,79.761 35.84,88.921 32.18,92.581C28.52,96.241 23.26,97.281 18.66,95.721C18.66,95.721 30.18,78.361 35.34,79.061Z" fill="#89BA37"/>
<path d="M35.34,106.78C40.42,107.82 35.84,116.64 32.2,120.3C28.54,123.96 23.26,125 18.68,123.44C18.68,123.44 30.28,105.74 35.36,106.78Z" fill="#89BB34"/>
<path d="M35.34,134.52C40.34,135.92 35.84,144.38 32.18,148.04C28.52,151.7 23.26,152.74 18.66,151.18C18.66,151.18 30.3,133.12 35.34,134.5Z" fill="#89BB2E"/>
<path d="M35.34,162.261C40.28,164.001 35.84,172.121 32.18,175.781C28.52,179.441 23.26,180.481 18.66,178.921C18.66,178.921 30.38,160.521 35.34,162.261Z" fill="#88BD2A"/>
<path d="M35.34,190.001C40.22,192.081 35.84,199.861 32.18,203.521C28.52,207.181 23.26,208.221 18.66,206.661C18.66,206.661 30.44,187.901 35.34,190.001Z" fill="#88BD28"/>
<path d="M2.02,23.58C-1.02,25.56 1.5,33.44 5.16,37.1C8.82,40.76 14.1,41.8 18.68,40.24C18.68,40.24 5.04,21.58 2.02,23.56Z" fill="#64AA30"/>
<path d="M2.02,51.321C-1.26,53.321 1.5,61.181 5.16,64.841C8.82,68.501 14.1,69.541 18.68,67.981C18.68,67.981 5.3,49.301 2.02,51.321Z" fill="#66AA2F"/>
<path d="M2.02,79.06C-1.5,81.08 1.5,88.92 5.16,92.58C8.82,96.24 14.1,97.28 18.68,95.72C18.68,95.72 5.54,77.04 2.02,79.06Z" fill="#66AA2F"/>
<path d="M2.02,106.781C-1.76,108.821 1.5,116.641 5.16,120.301C8.82,123.961 14.1,125.001 18.68,123.441C18.68,123.441 5.78,104.741 2.02,106.781Z" fill="#69AA2F"/>
<path d="M2.02,134.52C-2,136.58 1.5,144.38 5.16,148.04C8.82,151.7 14.1,152.74 18.68,151.18C18.68,151.18 6.04,132.46 2.02,134.5Z" fill="#69AA2F"/>
<path d="M2,162.261C-2.26,164.321 1.48,172.121 5.14,175.781C8.8,179.441 14.08,180.481 18.66,178.921C18.66,178.921 6.26,160.181 2,162.261Z" fill="#6BAC2E"/>
<path d="M2.02,190.001C-2.5,192.081 1.5,199.861 5.16,203.521C8.82,207.181 14.1,208.221 18.68,206.661C18.68,206.661 6.52,187.901 2.02,190.001Z" fill="#6BAC2E"/>
<path d="M18.601,0C24.261,0 25.941,6.62 25.941,11.78C25.941,16.94 22.941,21.42 18.601,23.56C18.601,23.56 12.941,-0.02 18.601,-0.02Z" fill="#6BAC2E"/>
</svg>
