<svg width="32" height="38" viewBox="0 0 32 38" fill="none" xmlns="http://www.w3.org/2000/svg" xmlns:xlink="http://www.w3.org/1999/xlink">
<path d="M6.851,20.098C14.427,26.22 8.069,31.268 13.434,34.808C18.255,37.987 27.36,35.147 30.753,22.283C33.254,12.805 27.737,3.488 18.675,0.604C6.655,-3.216 -3.059,12.084 6.851,20.098ZM14.376,30.327C14.688,29.142 16.254,28.538 17.878,28.98C19.494,29.421 20.56,30.739 20.248,31.923C19.936,33.108 18.371,33.712 16.747,33.27C15.123,32.829 14.064,31.511 14.383,30.327L14.376,30.327Z" fill="#FDC00F"/>
<path d="M5.619,8.705C5.206,10.28 6.119,11.891 7.67,12.311C9.215,12.73 10.81,11.796 11.223,10.228C11.636,8.661 10.715,7.042 9.171,6.622C7.627,6.203 6.032,7.13 5.619,8.705Z" fill="#A2E2E8"/>
<path d="M11.607,4.577C11.194,6.144 12.107,7.763 13.659,8.183C15.203,8.602 16.798,7.675 17.211,6.1C17.624,4.533 16.704,2.914 15.159,2.494C13.608,2.075 12.02,3.002 11.607,4.577Z" fill="#184F78"/>
<path d="M18.733,6.903C18.32,8.477 19.233,10.089 20.785,10.509C22.329,10.928 23.924,10.001 24.337,8.426C24.75,6.858 23.83,5.24 22.285,4.82C20.741,4.401 19.146,5.335 18.733,6.903Z" fill="#FC611F"/>
<path d="M22.997,13.157C22.584,14.732 23.497,16.343 25.048,16.763C26.593,17.182 28.188,16.255 28.601,14.68C29.014,13.113 28.093,11.494 26.549,11.074C25.005,10.655 23.41,11.582 22.997,13.157Z" fill="#16B6C6"/>
<path d="M22.909,20.774C22.496,22.342 23.417,23.961 24.961,24.38C26.512,24.8 28.1,23.872 28.513,22.298C28.927,20.73 28.006,19.111 26.462,18.692C24.918,18.272 23.323,19.199 22.909,20.774Z" fill="#FFF2CF"/>
<g opacity="0.2">
<path d="M10.063,7.05C10.534,7.734 10.722,8.617 10.498,9.486C10.085,11.053 8.49,11.988 6.945,11.568C6.612,11.48 6.322,11.325 6.054,11.134C6.431,11.686 6.982,12.113 7.67,12.304C9.215,12.724 10.809,11.789 11.223,10.222C11.549,8.985 11.041,7.734 10.063,7.05Z" fill="#000000"/>
<path d="M27.876,13.945C27.462,15.512 25.868,16.447 24.323,16.027C23.99,15.939 23.7,15.784 23.432,15.6C23.809,16.152 24.36,16.579 25.048,16.763C26.593,17.183 28.187,16.255 28.601,14.68C28.927,13.444 28.419,12.193 27.441,11.509C27.912,12.193 28.108,13.076 27.876,13.945Z" fill="#000000"/>
<path d="M24.337,8.426C24.663,7.189 24.156,5.938 23.177,5.254C23.648,5.938 23.844,6.821 23.612,7.69C23.199,9.265 21.604,10.192 20.06,9.772C19.726,9.684 19.436,9.529 19.168,9.338C19.545,9.89 20.096,10.317 20.785,10.508C22.329,10.928 23.924,10 24.337,8.426Z" fill="#000000"/>
<path d="M16.051,2.929C16.522,3.613 16.711,4.496 16.486,5.365C16.073,6.932 14.478,7.867 12.934,7.447C12.6,7.359 12.31,7.204 12.042,7.013C12.419,7.565 12.97,7.992 13.659,8.183C15.203,8.602 16.798,7.675 17.211,6.1C17.537,4.864 17.03,3.613 16.051,2.929Z" fill="#000000"/>
<path d="M27.353,19.126C27.824,19.81 28.02,20.693 27.788,21.562C27.375,23.137 25.787,24.064 24.235,23.644C23.902,23.556 23.612,23.402 23.344,23.21C23.721,23.762 24.272,24.189 24.96,24.38C26.512,24.8 28.1,23.872 28.513,22.298C28.839,21.061 28.332,19.81 27.353,19.126Z" fill="#000000"/>
</g>
<path d="M5.706,22.18C3.06,26.838 1.827,31.151 2.958,31.813C4.089,32.475 7.156,29.237 9.802,24.579C12.448,19.921 13.68,15.609 12.549,14.946C11.418,14.284 8.352,17.522 5.706,22.173L5.706,22.18Z" fill="#184F78"/>
<path d="M1.544,31.283C1.834,31.092 2.139,30.893 2.407,30.923C5.763,31.364 3.799,36.744 0.428,35.912C0.13,35.839 0,35.721 0,35.728C0,35.728 0.145,35.618 0.29,35.412C0.442,35.206 0.5,34.911 0.471,34.61C0.457,34.308 0.391,33.955 0.391,33.535C0.391,33.138 0.435,32.601 0.812,32.034C1.037,31.732 1.29,31.467 1.551,31.276L1.544,31.283Z" fill="#FC611F"/>
<path d="M4.602,29.476L2.278,29.476L2.278,32.438L4.602,32.438L4.602,29.476Z" transform="rotate(-120.759 3.44 30.957)" fill="#A3B9C9"/>
<g opacity="0.3">
<path d="M0.392,35.897C0.471,35.823 0.558,35.742 0.638,35.676C0.674,35.654 0.711,35.632 0.747,35.602L0.703,35.573L2.494,32.423C3.139,29.575 4.778,25.587 7.148,21.422C8.475,19.089 9.867,16.992 11.201,15.24C9.736,16.182 7.612,18.802 5.698,22.165C4.183,24.829 3.139,27.375 2.726,29.193L1.581,31.202L1.61,31.217C1.61,31.217 1.559,31.246 1.537,31.261C1.276,31.459 1.022,31.717 0.798,32.019C0.421,32.585 0.377,33.122 0.377,33.52C0.377,33.939 0.442,34.293 0.457,34.594C0.486,34.896 0.428,35.19 0.276,35.396C0.138,35.602 -0.022,35.705 -0.014,35.713C-0.014,35.705 0.109,35.808 0.377,35.882L0.392,35.897Z" fill="#FFFFFF"/>
</g>
</svg>
