<svg width="44" height="50" viewBox="0 0 44 50" fill="none" xmlns="http://www.w3.org/2000/svg" xmlns:xlink="http://www.w3.org/1999/xlink">
<path d="M8.639,27.689C19.077,36.125 10.317,43.08 17.709,47.957C24.351,52.337 36.896,48.424 41.571,30.701C45.017,17.641 37.416,4.805 24.93,0.831C8.369,-4.431 -5.015,16.648 8.639,27.689ZM19.007,41.782C19.437,40.15 21.594,39.319 23.831,39.927C26.059,40.535 27.527,42.35 27.098,43.983C26.668,45.615 24.511,46.446 22.273,45.838C20.036,45.23 18.578,43.415 19.017,41.782L19.007,41.782Z" fill="#FDC00F"/>
<path d="M6.941,11.994C6.372,14.163 7.63,16.384 9.768,16.962C11.895,17.54 14.093,16.252 14.662,14.092C15.231,11.933 13.963,9.702 11.835,9.124C9.708,8.546 7.51,9.824 6.941,11.994Z" fill="#A2E2E8"/>
<path d="M15.192,6.306C14.622,8.466 15.881,10.696 18.018,11.274C20.146,11.852 22.343,10.575 22.913,8.405C23.482,6.245 22.213,4.015 20.086,3.437C17.948,2.859 15.761,4.136 15.192,6.306Z" fill="#184F78"/>
<path d="M25.01,9.51C24.441,11.68 25.699,13.901 27.837,14.479C29.964,15.057 32.162,13.779 32.731,11.609C33.301,9.45 32.032,7.219 29.904,6.641C27.777,6.063 25.579,7.351 25.01,9.51Z" fill="#FC611F"/>
<path d="M30.883,18.128C30.314,20.298 31.573,22.519 33.71,23.096C35.838,23.674 38.035,22.397 38.604,20.227C39.174,18.067 37.905,15.837 35.778,15.259C33.65,14.681 31.453,15.959 30.883,18.128Z" fill="#16B6C6"/>
<path d="M30.763,28.622C30.194,30.782 31.463,33.013 33.59,33.591C35.728,34.169 37.915,32.891 38.484,30.721C39.054,28.562 37.785,26.331 35.658,25.753C33.53,25.175 31.333,26.453 30.763,28.622Z" fill="#FFF2CF"/>
<g opacity="0.2">
<path d="M13.064,9.713C13.713,10.656 13.973,11.872 13.663,13.069C13.094,15.229 10.896,16.516 8.769,15.938C8.309,15.817 7.91,15.604 7.54,15.34C8.06,16.1 8.819,16.689 9.768,16.952C11.895,17.53 14.093,16.242 14.662,14.083C15.112,12.379 14.412,10.656 13.064,9.713Z" fill="#000000"/>
<path d="M37.606,19.213C37.036,21.373 34.839,22.661 32.711,22.083C32.252,21.961 31.852,21.748 31.483,21.495C32.002,22.255 32.761,22.843 33.71,23.097C35.838,23.675 38.035,22.397 38.604,20.227C39.054,18.524 38.355,16.8 37.006,15.857C37.656,16.8 37.925,18.017 37.606,19.213Z" fill="#000000"/>
<path d="M32.731,11.609C33.181,9.906 32.481,8.182 31.133,7.239C31.782,8.182 32.052,9.399 31.732,10.595C31.163,12.765 28.965,14.043 26.838,13.465C26.378,13.343 25.979,13.13 25.609,12.866C26.129,13.627 26.888,14.215 27.837,14.478C29.964,15.056 32.162,13.779 32.731,11.609Z" fill="#000000"/>
<path d="M21.314,4.035C21.964,4.978 22.223,6.195 21.914,7.391C21.344,9.551 19.147,10.838 17.019,10.26C16.56,10.139 16.16,9.926 15.791,9.662C16.31,10.423 17.069,11.011 18.018,11.274C20.146,11.852 22.343,10.575 22.913,8.405C23.362,6.702 22.663,4.978 21.314,4.035Z" fill="#000000"/>
<path d="M36.886,26.352C37.536,27.294 37.805,28.511 37.486,29.708C36.916,31.877 34.729,33.155 32.591,32.577C32.132,32.455 31.732,32.242 31.363,31.979C31.882,32.739 32.641,33.327 33.59,33.591C35.728,34.169 37.915,32.891 38.485,30.721C38.934,29.018 38.235,27.294 36.886,26.352Z" fill="#000000"/>
</g>
<path d="M7.061,30.559C3.415,36.977 1.717,42.918 3.275,43.831C4.833,44.743 9.058,40.282 12.704,33.864C16.35,27.446 18.048,21.505 16.49,20.592C14.932,19.68 10.707,24.141 7.061,30.549L7.061,30.559Z" fill="#184F78"/>
<path d="M1.327,43.1C1.727,42.837 2.147,42.563 2.516,42.604C7.141,43.212 4.434,50.624 -0.211,49.478C-0.62,49.376 -0.8,49.214 -0.8,49.224C-0.8,49.224 -0.6,49.072 -0.401,48.788C-0.191,48.505 -0.111,48.099 -0.151,47.683C-0.171,47.268 -0.261,46.781 -0.261,46.203C-0.261,45.655 -0.201,44.915 0.319,44.135C0.628,43.719 0.978,43.354 1.337,43.09L1.327,43.1Z" fill="#FC611F"/>
<path d="M5.54,40.611L2.338,40.611L2.338,44.692L5.54,44.692L5.54,40.611Z" transform="rotate(-120.759 3.939 42.651)" fill="#A3B9C9"/>
<g opacity="0.3">
<path d="M-0.261,49.458C-0.151,49.357 -0.031,49.245 0.079,49.154C0.129,49.124 0.179,49.093 0.229,49.053L0.169,49.012L2.636,44.673C3.525,40.749 5.782,35.253 9.049,29.515C10.876,26.301 12.794,23.411 14.632,20.998C12.614,22.296 9.688,25.905 7.051,30.539C4.963,34.209 3.525,37.717 2.956,40.222L1.377,42.989L1.417,43.01C1.417,43.01 1.348,43.05 1.318,43.071C0.958,43.344 0.608,43.699 0.299,44.115C-0.221,44.896 -0.281,45.636 -0.281,46.183C-0.281,46.761 -0.191,47.248 -0.171,47.664C-0.131,48.079 -0.211,48.485 -0.42,48.769C-0.61,49.053 -0.83,49.195 -0.82,49.205C-0.82,49.195 -0.65,49.337 -0.281,49.438L-0.261,49.458Z" fill="#FFFFFF"/>
</g>
</svg>
