<svg width="50" height="68" viewBox="0 0 50 68" fill="none" xmlns="http://www.w3.org/2000/svg" xmlns:xlink="http://www.w3.org/1999/xlink">
<path d="M48.807,51.663C48.807,42.181 43.576,33.964 35.935,29.892C35.35,29.578 34.858,28.795 34.858,28.109L34.858,2.783L15.165,2.783L15.165,28.109C15.165,28.795 14.674,29.566 14.089,29.892C6.436,33.964 1.217,42.181 1.217,51.663C1.217,56.916 2.832,61.783 5.558,65.771C5.944,66.325 6.81,66.759 7.477,66.759L42.546,66.759C43.213,66.759 44.079,66.325 44.465,65.771C47.203,61.783 48.807,56.916 48.807,51.663Z" fill="#EDF1F4"/>
<path d="M44.454,65.771C47.192,61.783 48.795,56.916 48.795,51.663C48.795,47.819 47.917,44.181 46.384,40.952L3.616,40.952C2.083,44.193 1.205,47.819 1.205,51.663C1.205,56.916 2.82,61.783 5.547,65.771C5.933,66.325 6.799,66.759 7.466,66.759L42.535,66.759C43.202,66.759 44.068,66.325 44.454,65.771Z" fill="#FDC00F"/>
<path d="M16.674,55.626C14.194,55.626 12.169,53.542 12.169,50.988C12.169,48.434 14.182,46.349 16.674,46.349C19.167,46.349 21.179,48.434 21.179,50.988C21.179,53.542 19.155,55.626 16.674,55.626ZM16.674,47.59C14.861,47.59 13.375,49.12 13.375,50.988C13.375,52.855 14.861,54.386 16.674,54.386C18.488,54.386 19.974,52.867 19.974,50.988C19.974,49.108 18.488,47.59 16.674,47.59Z" fill="#FFFFFF"/>
<path d="M28.996,39.41C26.515,39.41 24.491,37.325 24.491,34.771C24.491,32.217 26.504,30.133 28.996,30.133C31.488,30.133 33.501,32.217 33.501,34.771C33.501,37.325 31.477,39.41 28.996,39.41ZM28.996,31.374C27.182,31.374 25.696,32.892 25.696,34.771C25.696,36.651 27.182,38.169 28.996,38.169C30.81,38.169 32.296,36.651 32.296,34.771C32.296,32.892 30.81,31.374 28.996,31.374Z" fill="#FDC00F"/>
<path d="M31.793,58.952C29.921,58.952 28.399,57.386 28.399,55.458C28.399,53.53 29.921,51.964 31.793,51.964C33.665,51.964 35.186,53.53 35.186,55.458C35.186,57.386 33.665,58.952 31.793,58.952ZM31.793,53.193C30.576,53.193 29.593,54.205 29.593,55.458C29.593,56.711 30.576,57.723 31.793,57.723C33.01,57.723 33.981,56.711 33.981,55.458C33.981,54.205 32.998,53.193 31.793,53.193Z" fill="#FFFFFF"/>
<path d="M22.303,26.482C20.431,26.482 18.909,24.916 18.909,22.988C18.909,21.06 20.431,19.494 22.303,19.494C24.175,19.494 25.696,21.06 25.696,22.988C25.696,24.916 24.175,26.482 22.303,26.482ZM22.303,20.723C21.086,20.723 20.115,21.735 20.115,22.988C20.115,24.241 21.098,25.253 22.303,25.253C23.508,25.253 24.503,24.241 24.503,22.988C24.503,21.735 23.52,20.723 22.303,20.723Z" fill="#FDC00F"/>
<path d="M36.485,28.783C36.263,28.663 36.052,28.301 36.052,28.108L36.052,5.265C36.941,4.807 37.55,3.867 37.55,2.783C37.55,1.241 36.333,0 34.847,0L15.165,0C13.667,0 12.462,1.253 12.462,2.783C12.462,3.88 13.082,4.807 13.96,5.265L13.96,28.108C13.96,28.301 13.749,28.675 13.527,28.783C5.184,33.229 0,42 0,51.663C0,57 1.58,62.133 4.564,66.482C5.172,67.361 6.389,68 7.465,68L42.535,68C43.611,68 44.828,67.361 45.436,66.482C48.42,62.12 50,57 50,51.663C50,42 44.816,33.241 36.473,28.795L36.485,28.783ZM43.482,65.048C43.33,65.265 42.827,65.518 42.546,65.518L7.465,65.518C7.185,65.518 6.681,65.265 6.529,65.048C3.826,61.108 2.399,56.482 2.399,51.651C2.399,42.916 7.079,35 14.627,30.976C15.633,30.446 16.359,29.229 16.359,28.096L16.359,5.566L33.641,5.566L33.641,28.108C33.641,29.241 34.367,30.446 35.373,30.988C42.909,35.012 47.601,42.928 47.601,51.663C47.601,56.494 46.174,61.12 43.471,65.06L43.482,65.048Z" fill="#6927FF"/>
<g opacity="0.3">
<path d="M7.009,57.12C7.009,45.133 13.445,34.253 23.801,28.735C24.07,28.59 24.339,28.133 24.339,27.892L24.339,0L15.165,0C13.667,0 12.462,1.253 12.462,2.783C12.462,3.88 13.082,4.807 13.96,5.265L13.96,28.108C13.96,28.301 13.749,28.675 13.527,28.783C5.184,33.229 0,42 0,51.663C0,57 1.58,62.133 4.564,66.482C5.172,67.361 6.389,68 7.465,68L8.881,68C7.664,64.542 7.009,60.88 7.009,57.133L7.009,57.12Z" fill="#FFFFFF"/>
</g>
</svg>
