<svg width="34" height="36" viewBox="0 0 34 36" fill="none" xmlns="http://www.w3.org/2000/svg" xmlns:xlink="http://www.w3.org/1999/xlink">
<path d="M16.497,6.49C11.174,6.49 6.857,10.787 6.857,16.091C6.857,18.755 7.947,21.164 9.709,22.904C10.465,23.652 11.341,24.963 11.508,26.011L11.842,28.102L21.162,28.102L21.496,26.006C21.663,24.958 22.539,23.648 23.295,22.9C25.057,21.16 26.146,18.75 26.146,16.087C26.146,10.787 21.825,6.485 16.497,6.485L16.497,6.49Z" fill="#67E9F5"/>
<path d="M18.236,28.873C18.023,28.873 17.852,28.702 17.852,28.49C17.852,28.25 17.889,22.484 21.236,14.605C21.32,14.411 21.547,14.319 21.742,14.402C21.937,14.485 22.029,14.711 21.946,14.905C18.658,22.646 18.621,28.434 18.621,28.494C18.621,28.707 18.45,28.877 18.236,28.877L18.236,28.873Z" fill="#FDC00F"/>
<path d="M14.772,28.872C14.559,28.872 14.388,28.697 14.388,28.489C14.388,28.434 14.346,22.627 11.063,14.9C10.979,14.706 11.072,14.48 11.267,14.397C11.462,14.314 11.689,14.406 11.772,14.6C15.12,22.484 15.157,28.245 15.157,28.485C15.157,28.697 14.986,28.868 14.772,28.868L14.772,28.872Z" fill="#FDC00F"/>
<path d="M21.189,15.565C20.522,15.565 20.179,15.2 19.877,14.882C19.594,14.582 19.349,14.323 18.848,14.323C18.347,14.323 18.101,14.582 17.819,14.882C17.517,15.2 17.174,15.565 16.506,15.565C15.839,15.565 15.496,15.2 15.194,14.882C14.911,14.582 14.666,14.323 14.16,14.323C13.655,14.323 13.414,14.582 13.126,14.882C12.825,15.2 12.482,15.565 11.814,15.565C11.707,15.565 11.619,15.477 11.619,15.371C11.619,15.265 11.707,15.177 11.814,15.177C12.315,15.177 12.56,14.919 12.848,14.619C13.149,14.3 13.492,13.936 14.16,13.936C14.828,13.936 15.171,14.3 15.472,14.619C15.755,14.919 16.001,15.177 16.506,15.177C17.012,15.177 17.253,14.919 17.536,14.619C17.837,14.3 18.18,13.936 18.848,13.936C19.516,13.936 19.859,14.3 20.16,14.619C20.443,14.919 20.689,15.177 21.189,15.177C21.296,15.177 21.384,15.265 21.384,15.371C21.384,15.477 21.296,15.565 21.189,15.565Z" fill="#FDC00F"/>
<path d="M19.233,35.137L13.776,35.137C12.709,35.137 11.847,34.273 11.847,33.212L11.847,28.106L21.167,28.106L21.167,33.212C21.167,34.273 20.304,35.137 19.233,35.137Z" fill="#E1E1E1"/>
<path d="M11.842,32.321L11.842,33.212C11.842,33.392 11.874,33.563 11.921,33.729L21.083,33.729C21.129,33.563 21.162,33.392 21.162,33.212L21.162,32.321L11.842,32.321Z" fill="#F15B67"/>
<rect  x="11.842" y="29.51" width="9.32" height="1.408" fill="#F15B67"/>
<path d="M16.502,36C17.457,36 18.236,35.612 18.236,35.137L14.772,35.137C14.772,35.612 15.547,36 16.502,36Z" fill="#FDC00F"/>
<path d="M16.503,3.439C16.248,3.439 16.039,3.231 16.039,2.977L16.039,0.462C16.039,0.208 16.248,0 16.503,0C16.758,0 16.966,0.208 16.966,0.462L16.966,2.977C16.966,3.231 16.758,3.439 16.503,3.439Z" fill="#FDC00F"/>
<path d="M9.747,5.239C9.585,5.239 9.432,5.156 9.343,5.008L8.082,2.83C7.952,2.608 8.031,2.326 8.254,2.197C8.476,2.068 8.759,2.146 8.889,2.368L10.15,4.547C10.28,4.768 10.201,5.05 9.979,5.179C9.904,5.221 9.826,5.239 9.747,5.239Z" fill="#FDC00F"/>
<path d="M4.804,10.16C4.725,10.16 4.646,10.141 4.572,10.1L2.384,8.844C2.161,8.715 2.087,8.433 2.212,8.212C2.337,7.99 2.625,7.916 2.847,8.041L5.036,9.296C5.258,9.426 5.333,9.707 5.207,9.929C5.119,10.076 4.966,10.16 4.804,10.16Z" fill="#FDC00F"/>
<path d="M2.991,16.885L0.464,16.885C0.209,16.885 0,16.677 0,16.424C0,16.17 0.209,15.962 0.464,15.962L2.991,15.962C3.246,15.962 3.454,16.17 3.454,16.424C3.454,16.677 3.246,16.885 2.991,16.885Z" fill="#FDC00F"/>
<path d="M2.611,24.867C2.448,24.867 2.295,24.784 2.207,24.636C2.077,24.414 2.156,24.133 2.379,24.004L4.567,22.748C4.79,22.619 5.073,22.697 5.203,22.919C5.332,23.14 5.254,23.422 5.031,23.551L2.842,24.807C2.768,24.848 2.689,24.867 2.611,24.867Z" fill="#FDC00F"/>
<path d="M30.385,24.871C30.306,24.871 30.227,24.853 30.153,24.811L27.965,23.551C27.742,23.422 27.668,23.14 27.793,22.919C27.923,22.697 28.206,22.623 28.428,22.748L30.617,24.008C30.839,24.137 30.914,24.419 30.788,24.64C30.7,24.788 30.547,24.871 30.385,24.871Z" fill="#FDC00F"/>
<path d="M32.537,16.89L30.01,16.89C29.755,16.89 29.546,16.682 29.546,16.428C29.546,16.175 29.755,15.967 30.01,15.967L32.537,15.967C32.792,15.967 33,16.175 33,16.428C33,16.682 32.792,16.89 32.537,16.89Z" fill="#FDC00F"/>
<path d="M28.2,10.165C28.038,10.165 27.885,10.081 27.797,9.934C27.667,9.712 27.746,9.431 27.969,9.301L30.157,8.046C30.38,7.917 30.663,7.995 30.792,8.217C30.922,8.438 30.843,8.72 30.621,8.849L28.432,10.105C28.358,10.146 28.279,10.165 28.2,10.165Z" fill="#FDC00F"/>
<path d="M23.253,5.244C23.174,5.244 23.095,5.225 23.021,5.184C22.799,5.055 22.725,4.773 22.85,4.552L24.116,2.373C24.245,2.151 24.528,2.077 24.751,2.202C24.973,2.331 25.048,2.613 24.922,2.834L23.657,5.013C23.568,5.161 23.415,5.244 23.253,5.244Z" fill="#FDC00F"/>
<g opacity="0.3">
<path d="M9.004,16.045C10.539,17.573 13.34,17.264 15.259,15.348C17.179,13.437 17.494,10.649 15.96,9.121C14.425,7.593 11.624,7.907 9.705,9.818C7.785,11.729 7.47,14.517 9.004,16.045Z" fill="#FFFFFF"/>
</g>
<g opacity="0.3">
<path d="M15.728,18.649C16.303,19.221 17.351,19.106 18.069,18.39C18.788,17.675 18.904,16.632 18.329,16.059C17.754,15.487 16.706,15.602 15.987,16.318C15.269,17.033 15.153,18.076 15.728,18.649Z" fill="#FFFFFF"/>
</g>
<g opacity="0.2">
<path d="M12.306,28.49L20.699,28.49C20.954,28.49 21.163,28.319 21.163,28.106L11.843,28.106C11.843,28.106 12.051,28.49 12.306,28.49Z" fill="#000000"/>
</g>
<g opacity="0.2">
<path d="M14.963,35.52L18.046,35.52C18.162,35.404 18.236,35.275 18.236,35.137L14.772,35.137C14.772,35.275 14.847,35.404 14.963,35.52Z" fill="#000000"/>
</g>
</svg>
