<svg width="66" height="72" viewBox="0 0 66 72" fill="none" xmlns="http://www.w3.org/2000/svg" xmlns:xlink="http://www.w3.org/1999/xlink">
<path d="M32.995,12.98C22.349,12.98 13.716,21.575 13.716,32.183C13.716,37.509 15.895,42.328 19.419,45.809C20.93,47.304 22.683,49.926 23.017,52.022L23.685,56.204L42.325,56.204L42.992,52.013C43.326,49.917 45.079,47.295 46.59,45.8C50.114,42.319 52.294,37.5 52.294,32.173C52.294,21.575 43.651,12.971 32.995,12.971L32.995,12.98Z" fill="#67E9F5"/>
<path d="M36.473,57.746C36.046,57.746 35.703,57.404 35.703,56.98C35.703,56.5 35.777,44.969 42.473,29.21C42.64,28.822 43.094,28.638 43.484,28.804C43.873,28.97 44.059,29.422 43.892,29.81C37.317,45.292 37.243,56.869 37.243,56.989C37.243,57.414 36.9,57.755 36.473,57.755L36.473,57.746Z" fill="#FDC00F"/>
<path d="M29.546,57.746C29.119,57.746 28.776,57.395 28.776,56.98C28.776,56.869 28.692,45.255 22.127,29.801C21.96,29.413 22.145,28.961 22.535,28.794C22.924,28.628 23.379,28.813 23.546,29.201C30.241,44.969 30.315,56.49 30.315,56.97C30.315,57.395 29.972,57.737 29.546,57.737L29.546,57.746Z" fill="#FDC00F"/>
<path d="M42.38,31.13C41.045,31.13 40.359,30.401 39.756,29.764C39.19,29.164 38.699,28.647 37.697,28.647C36.696,28.647 36.204,29.164 35.638,29.764C35.036,30.401 34.349,31.13 33.014,31.13C31.679,31.13 30.992,30.401 30.389,29.764C29.824,29.164 29.332,28.647 28.321,28.647C27.311,28.647 26.828,29.164 26.253,29.764C25.651,30.401 24.964,31.13 23.629,31.13C23.416,31.13 23.24,30.955 23.24,30.742C23.24,30.53 23.416,30.355 23.629,30.355C24.631,30.355 25.122,29.838 25.697,29.238C26.3,28.601 26.986,27.871 28.321,27.871C29.657,27.871 30.343,28.601 30.946,29.238C31.512,29.838 32.003,30.355 33.014,30.355C34.025,30.355 34.507,29.838 35.073,29.238C35.675,28.601 36.362,27.871 37.697,27.871C39.032,27.871 39.719,28.601 40.321,29.238C40.887,29.838 41.379,30.355 42.38,30.355C42.594,30.355 42.77,30.53 42.77,30.742C42.77,30.955 42.594,31.13 42.38,31.13Z" fill="#FDC00F"/>
<path d="M38.467,70.274L27.552,70.274C25.419,70.274 23.694,68.547 23.694,66.424L23.694,56.213L42.334,56.213L42.334,66.424C42.334,68.547 40.609,70.274 38.467,70.274Z" fill="#E1E1E1"/>
<path d="M23.685,64.642L23.685,66.424C23.685,66.784 23.75,67.126 23.842,67.458L42.167,67.458C42.26,67.126 42.325,66.784 42.325,66.424L42.325,64.642L23.685,64.642Z" fill="#6927FF"/>
<rect  x="23.685" y="59.02" width="18.64" height="2.816" fill="#6927FF"/>
<path d="M33.005,72C34.915,72 36.473,71.225 36.473,70.274L29.546,70.274C29.546,71.225 31.094,72 33.005,72Z" fill="#FDC00F"/>
<path d="M33.005,6.878C32.495,6.878 32.077,6.462 32.077,5.955L32.077,0.923C32.077,0.415 32.495,0 33.005,0C33.515,0 33.932,0.415 33.932,0.923L33.932,5.955C33.932,6.462 33.515,6.878 33.005,6.878Z" fill="#FDC00F"/>
<path d="M19.493,10.478C19.168,10.478 18.862,10.312 18.686,10.017L16.164,5.659C15.904,5.216 16.062,4.653 16.507,4.394C16.952,4.136 17.518,4.293 17.777,4.736L20.3,9.093C20.56,9.537 20.402,10.1 19.957,10.358C19.808,10.441 19.651,10.478 19.493,10.478Z" fill="#FDC00F"/>
<path d="M9.607,20.32C9.45,20.32 9.292,20.283 9.144,20.2L4.767,17.688C4.321,17.43 4.173,16.867 4.423,16.424C4.674,15.981 5.249,15.833 5.694,16.082L10.071,18.593C10.516,18.852 10.665,19.415 10.414,19.858C10.238,20.153 9.932,20.32 9.607,20.32Z" fill="#FDC00F"/>
<path d="M5.981,33.77L0.927,33.77C0.417,33.77 0,33.355 0,32.847C0,32.34 0.417,31.924 0.927,31.924L5.981,31.924C6.491,31.924 6.909,32.34 6.909,32.847C6.909,33.355 6.491,33.77 5.981,33.77Z" fill="#FDC00F"/>
<path d="M5.221,49.733C4.896,49.733 4.59,49.566 4.414,49.271C4.155,48.828 4.312,48.265 4.757,48.006L9.134,45.495C9.58,45.237 10.145,45.394 10.405,45.837C10.665,46.28 10.507,46.843 10.062,47.101L5.685,49.613C5.536,49.696 5.379,49.733 5.221,49.733Z" fill="#FDC00F"/>
<path d="M60.77,49.742C60.612,49.742 60.454,49.705 60.306,49.622L55.929,47.101C55.484,46.843 55.335,46.28 55.586,45.837C55.845,45.394 56.411,45.246 56.856,45.495L61.233,48.015C61.678,48.274 61.827,48.837 61.576,49.28C61.4,49.576 61.094,49.742 60.77,49.742Z" fill="#FDC00F"/>
<path d="M65.073,33.78L60.019,33.78C59.508,33.78 59.091,33.364 59.091,32.857C59.091,32.349 59.508,31.933 60.019,31.933L65.073,31.933C65.583,31.933 66,32.349 66,32.857C66,33.364 65.583,33.78 65.073,33.78Z" fill="#FDC00F"/>
<path d="M56.402,20.329C56.077,20.329 55.771,20.163 55.595,19.867C55.335,19.424 55.493,18.861 55.938,18.602L60.315,16.091C60.76,15.833 61.326,15.99 61.586,16.433C61.845,16.876 61.688,17.439 61.243,17.698L56.866,20.209C56.717,20.292 56.56,20.329 56.402,20.329Z" fill="#FDC00F"/>
<path d="M46.507,10.488C46.349,10.488 46.192,10.451 46.043,10.367C45.598,10.109 45.45,9.546 45.7,9.103L48.232,4.745C48.491,4.302 49.057,4.154 49.502,4.404C49.947,4.662 50.096,5.225 49.845,5.668L47.314,10.026C47.138,10.321 46.832,10.488 46.507,10.488Z" fill="#FDC00F"/>
<g opacity="0.3">
<path d="M18.009,32.09C21.079,35.146 26.68,34.528 30.519,30.696C34.359,26.874 34.989,21.298 31.92,18.242C28.85,15.187 23.249,15.814 19.41,19.636C15.57,23.458 14.94,29.034 18.009,32.09Z" fill="#FFFFFF"/>
</g>
<g opacity="0.3">
<path d="M31.456,37.297C32.606,38.442 34.702,38.211 36.139,36.78C37.576,35.349 37.808,33.263 36.658,32.118C35.508,30.973 33.413,31.204 31.975,32.635C30.538,34.066 30.306,36.152 31.456,37.297Z" fill="#FFFFFF"/>
</g>
<g opacity="0.2">
<path d="M24.612,56.98L41.397,56.98C41.907,56.98 42.325,56.638 42.325,56.213L23.685,56.213C23.685,56.213 24.102,56.98 24.612,56.98Z" fill="#0C0D0F"/>
</g>
<g opacity="0.2">
<path d="M29.926,71.04L36.093,71.04C36.325,70.809 36.473,70.551 36.473,70.274L29.546,70.274C29.546,70.551 29.694,70.809 29.926,71.04Z" fill="#0C0D0F"/>
</g>
</svg>
