<svg width="34" height="36" viewBox="0 0 34 36" fill="none" xmlns="http://www.w3.org/2000/svg" xmlns:xlink="http://www.w3.org/1999/xlink">
<path d="M16.497,6.491C11.174,6.491 6.857,10.788 6.857,16.092C6.857,18.756 7.947,21.165 9.709,22.905C10.465,23.653 11.341,24.964 11.508,26.012L11.842,28.103L21.162,28.103L21.496,26.007C21.663,24.959 22.539,23.649 23.295,22.901C25.057,21.161 26.146,18.751 26.146,16.088C26.146,10.788 21.825,6.486 16.497,6.486L16.497,6.491Z" fill="#67E9F5"/>
<path d="M18.236,28.873C18.023,28.873 17.852,28.702 17.852,28.49C17.852,28.25 17.889,22.484 21.236,14.605C21.32,14.411 21.547,14.319 21.742,14.402C21.937,14.485 22.029,14.711 21.946,14.905C18.658,22.646 18.621,28.434 18.621,28.494C18.621,28.707 18.45,28.877 18.236,28.877L18.236,28.873Z" fill="#FDC00F"/>
<path d="M14.773,28.873C14.56,28.873 14.389,28.698 14.389,28.49C14.389,28.435 14.347,22.628 11.064,14.901C10.98,14.707 11.073,14.481 11.268,14.398C11.463,14.315 11.69,14.407 11.773,14.601C15.121,22.485 15.158,28.246 15.158,28.486C15.158,28.698 14.987,28.869 14.773,28.869L14.773,28.873Z" fill="#FDC00F"/>
<path d="M21.191,15.565C20.524,15.565 20.181,15.2 19.879,14.882C19.596,14.582 19.351,14.323 18.85,14.323C18.349,14.323 18.103,14.582 17.82,14.882C17.519,15.2 17.176,15.565 16.508,15.565C15.841,15.565 15.497,15.2 15.196,14.882C14.913,14.582 14.667,14.323 14.162,14.323C13.657,14.323 13.416,14.582 13.128,14.882C12.827,15.2 12.484,15.565 11.816,15.565C11.709,15.565 11.621,15.477 11.621,15.371C11.621,15.265 11.709,15.177 11.816,15.177C12.317,15.177 12.562,14.919 12.85,14.619C13.151,14.3 13.494,13.936 14.162,13.936C14.83,13.936 15.173,14.3 15.474,14.619C15.757,14.919 16.003,15.177 16.508,15.177C17.014,15.177 17.255,14.919 17.538,14.619C17.839,14.3 18.182,13.936 18.85,13.936C19.518,13.936 19.861,14.3 20.162,14.619C20.445,14.919 20.691,15.177 21.191,15.177C21.298,15.177 21.386,15.265 21.386,15.371C21.386,15.477 21.298,15.565 21.191,15.565Z" fill="#FDC00F"/>
<path d="M19.232,35.138L13.775,35.138C12.708,35.138 11.846,34.274 11.846,33.213L11.846,28.107L21.166,28.107L21.166,33.213C21.166,34.274 20.303,35.138 19.232,35.138Z" fill="#E1E1E1"/>
<path d="M11.842,32.32L11.842,33.211C11.842,33.391 11.874,33.562 11.921,33.728L21.083,33.728C21.129,33.562 21.162,33.391 21.162,33.211L21.162,32.32L11.842,32.32Z" fill="#F15B67"/>
<rect  x="11.842" y="29.51" width="9.32" height="1.408" fill="#F15B67"/>
<path d="M16.501,36C17.456,36 18.235,35.612 18.235,35.137L14.771,35.137C14.771,35.612 15.546,36 16.501,36Z" fill="#FDC00F"/>
<path d="M16.503,3.439C16.248,3.439 16.039,3.231 16.039,2.977L16.039,0.462C16.039,0.208 16.248,0 16.503,0C16.758,0 16.966,0.208 16.966,0.462L16.966,2.977C16.966,3.231 16.758,3.439 16.503,3.439Z" fill="#FDC00F"/>
<path d="M9.747,5.239C9.585,5.239 9.432,5.156 9.343,5.008L8.082,2.83C7.952,2.608 8.031,2.326 8.254,2.197C8.476,2.068 8.759,2.146 8.889,2.368L10.15,4.547C10.28,4.768 10.201,5.05 9.979,5.179C9.904,5.221 9.826,5.239 9.747,5.239Z" fill="#FDC00F"/>
<path d="M4.803,10.16C4.724,10.16 4.645,10.141 4.571,10.1L2.383,8.844C2.16,8.715 2.086,8.433 2.211,8.212C2.336,7.99 2.624,7.916 2.846,8.041L5.035,9.296C5.257,9.426 5.332,9.707 5.206,9.929C5.118,10.076 4.965,10.16 4.803,10.16Z" fill="#FDC00F"/>
<path d="M2.991,16.886L0.464,16.886C0.209,16.886 0,16.678 0,16.424C0,16.171 0.209,15.963 0.464,15.963L2.991,15.963C3.246,15.963 3.454,16.171 3.454,16.424C3.454,16.678 3.246,16.886 2.991,16.886Z" fill="#FDC00F"/>
<path d="M2.611,24.867C2.448,24.867 2.295,24.784 2.207,24.636C2.077,24.414 2.156,24.133 2.379,24.004L4.567,22.748C4.79,22.619 5.073,22.697 5.203,22.919C5.332,23.14 5.254,23.422 5.031,23.551L2.842,24.807C2.768,24.848 2.689,24.867 2.611,24.867Z" fill="#FDC00F"/>
<path d="M30.385,24.871C30.306,24.871 30.227,24.853 30.153,24.811L27.965,23.551C27.742,23.422 27.668,23.14 27.793,22.919C27.923,22.697 28.206,22.623 28.428,22.748L30.617,24.008C30.839,24.137 30.914,24.419 30.788,24.64C30.7,24.788 30.547,24.871 30.385,24.871Z" fill="#FDC00F"/>
<path d="M32.536,16.89L30.009,16.89C29.754,16.89 29.545,16.682 29.545,16.428C29.545,16.175 29.754,15.967 30.009,15.967L32.536,15.967C32.791,15.967 32.999,16.175 32.999,16.428C32.999,16.682 32.791,16.89 32.536,16.89Z" fill="#FDC00F"/>
<path d="M28.2,10.164C28.038,10.164 27.885,10.08 27.797,9.933C27.667,9.711 27.746,9.43 27.969,9.3L30.157,8.045C30.38,7.916 30.663,7.994 30.792,8.216C30.922,8.437 30.843,8.719 30.621,8.848L28.432,10.104C28.358,10.145 28.279,10.164 28.2,10.164Z" fill="#FDC00F"/>
<path d="M23.253,5.243C23.174,5.243 23.095,5.224 23.021,5.183C22.799,5.054 22.725,4.772 22.85,4.551L24.116,2.372C24.245,2.15 24.528,2.076 24.751,2.201C24.973,2.33 25.048,2.612 24.922,2.833L23.657,5.012C23.568,5.16 23.415,5.243 23.253,5.243Z" fill="#FDC00F"/>
<g opacity="0.3">
<path d="M9.004,16.045C10.539,17.573 13.34,17.264 15.259,15.348C17.179,13.437 17.494,10.649 15.96,9.121C14.425,7.593 11.624,7.907 9.705,9.818C7.785,11.729 7.47,14.517 9.004,16.045Z" fill="#FFFFFF"/>
</g>
<g opacity="0.3">
<path d="M15.729,18.649C16.304,19.221 17.352,19.106 18.07,18.39C18.789,17.675 18.905,16.632 18.33,16.059C17.755,15.487 16.707,15.602 15.988,16.318C15.27,17.033 15.154,18.076 15.729,18.649Z" fill="#FFFFFF"/>
</g>
<g opacity="0.2">
<path d="M12.305,28.491L20.698,28.491C20.953,28.491 21.162,28.32 21.162,28.107L11.842,28.107C11.842,28.107 12.05,28.491 12.305,28.491Z" fill="#000000"/>
</g>
<g opacity="0.2">
<path d="M14.964,35.52L18.047,35.52C18.163,35.404 18.237,35.275 18.237,35.137L14.773,35.137C14.773,35.275 14.848,35.404 14.964,35.52Z" fill="#000000"/>
</g>
</svg>
