<svg width="32" height="38" viewBox="0 0 32 38" fill="none" xmlns="http://www.w3.org/2000/svg" xmlns:xlink="http://www.w3.org/1999/xlink">
<path d="M6.851,20.098C14.427,26.22 8.069,31.268 13.434,34.808C18.255,37.987 27.36,35.147 30.753,22.283C33.254,12.805 27.737,3.488 18.675,0.604C6.655,-3.216 -3.059,12.084 6.851,20.098ZM14.376,30.327C14.688,29.142 16.254,28.538 17.878,28.98C19.494,29.421 20.56,30.739 20.248,31.923C19.936,33.108 18.371,33.712 16.747,33.27C15.123,32.829 14.064,31.511 14.383,30.327L14.376,30.327Z" fill="#FDC00F"/>
<path d="M5.619,8.707C5.206,10.282 6.119,11.893 7.67,12.313C9.215,12.732 10.81,11.798 11.223,10.23C11.636,8.663 10.715,7.044 9.171,6.624C7.627,6.205 6.032,7.132 5.619,8.707Z" fill="#A2E2E8"/>
<path d="M11.607,4.578C11.194,6.145 12.107,7.764 13.659,8.184C15.203,8.603 16.798,7.676 17.211,6.101C17.624,4.534 16.704,2.915 15.159,2.495C13.608,2.076 12.02,3.003 11.607,4.578Z" fill="#184F78"/>
<path d="M18.734,6.904C18.321,8.478 19.234,10.09 20.786,10.509C22.33,10.929 23.925,10.002 24.338,8.427C24.751,6.859 23.831,5.24 22.286,4.821C20.742,4.402 19.147,5.336 18.734,6.904Z" fill="#FC611F"/>
<path d="M22.996,13.158C22.583,14.733 23.496,16.344 25.047,16.764C26.592,17.183 28.187,16.256 28.6,14.681C29.013,13.114 28.092,11.495 26.548,11.075C25.004,10.656 23.409,11.583 22.996,13.158Z" fill="#16B6C6"/>
<path d="M22.909,20.775C22.496,22.343 23.417,23.962 24.961,24.381C26.512,24.801 28.1,23.873 28.513,22.298C28.927,20.731 28.006,19.112 26.462,18.693C24.918,18.273 23.323,19.2 22.909,20.775Z" fill="#FFF2CF"/>
<g opacity="0.2">
<path d="M10.062,7.051C10.533,7.735 10.722,8.618 10.497,9.487C10.084,11.054 8.489,11.989 6.944,11.569C6.611,11.481 6.321,11.326 6.053,11.135C6.43,11.687 6.981,12.114 7.669,12.305C9.214,12.725 10.809,11.79 11.222,10.222C11.548,8.986 11.041,7.735 10.062,7.051Z" fill="#000000"/>
<path d="M27.874,13.946C27.461,15.513 25.866,16.448 24.321,16.028C23.988,15.94 23.698,15.785 23.43,15.601C23.807,16.153 24.358,16.58 25.046,16.764C26.591,17.184 28.185,16.256 28.599,14.681C28.925,13.445 28.417,12.194 27.439,11.51C27.91,12.194 28.106,13.077 27.874,13.946Z" fill="#000000"/>
<path d="M24.337,8.428C24.663,7.191 24.156,5.94 23.177,5.256C23.648,5.94 23.844,6.823 23.612,7.692C23.199,9.266 21.604,10.194 20.06,9.774C19.726,9.686 19.436,9.531 19.168,9.34C19.545,9.892 20.096,10.319 20.785,10.51C22.329,10.93 23.924,10.002 24.337,8.428Z" fill="#000000"/>
<path d="M16.05,2.93C16.521,3.614 16.71,4.497 16.485,5.366C16.072,6.933 14.477,7.868 12.933,7.448C12.599,7.36 12.309,7.205 12.041,7.014C12.418,7.566 12.969,7.993 13.658,8.184C15.202,8.603 16.797,7.676 17.21,6.101C17.536,4.865 17.029,3.614 16.05,2.93Z" fill="#000000"/>
<path d="M27.353,19.127C27.824,19.811 28.02,20.694 27.788,21.563C27.375,23.138 25.787,24.065 24.235,23.645C23.902,23.557 23.612,23.403 23.344,23.211C23.721,23.763 24.272,24.19 24.96,24.381C26.512,24.801 28.1,23.873 28.513,22.299C28.839,21.062 28.332,19.811 27.353,19.127Z" fill="#000000"/>
</g>
<path d="M5.705,22.179C3.059,26.837 1.826,31.15 2.957,31.812C4.088,32.474 7.155,29.236 9.801,24.578C12.447,19.92 13.679,15.608 12.548,14.945C11.417,14.283 8.351,17.521 5.705,22.172L5.705,22.179Z" fill="#184F78"/>
<path d="M1.544,31.281C1.834,31.09 2.139,30.891 2.407,30.921C5.764,31.362 3.799,36.742 0.428,35.91C0.13,35.837 0,35.719 0,35.726C0,35.726 0.145,35.616 0.29,35.41C0.442,35.204 0.5,34.909 0.471,34.608C0.457,34.306 0.391,33.953 0.391,33.533C0.391,33.136 0.435,32.599 0.812,32.032C1.037,31.73 1.29,31.465 1.551,31.274L1.544,31.281Z" fill="#FC611F"/>
<path d="M4.602,29.474L2.278,29.474L2.278,32.436L4.602,32.436L4.602,29.474Z" transform="rotate(-120.759 3.44 30.955)" fill="#A3B9C9"/>
<g opacity="0.3">
<path d="M0.391,35.897C0.47,35.823 0.557,35.742 0.637,35.676C0.673,35.654 0.71,35.632 0.746,35.602L0.702,35.573L2.493,32.423C3.138,29.575 4.777,25.587 7.147,21.422C8.474,19.089 9.866,16.992 11.2,15.24C9.735,16.182 7.611,18.802 5.697,22.165C4.182,24.829 3.138,27.375 2.725,29.193L1.58,31.202L1.609,31.217C1.609,31.217 1.558,31.246 1.536,31.261C1.275,31.459 1.021,31.717 0.797,32.019C0.42,32.585 0.376,33.122 0.376,33.52C0.376,33.939 0.441,34.293 0.456,34.594C0.485,34.896 0.427,35.19 0.275,35.396C0.137,35.602 -0.023,35.705 -0.015,35.713C-0.015,35.705 0.108,35.808 0.376,35.882L0.391,35.897Z" fill="#FFFFFF"/>
</g>
</svg>
