<svg width="92" height="272" viewBox="0 0 92 272" fill="none" xmlns="http://www.w3.org/2000/svg" xmlns:xlink="http://www.w3.org/1999/xlink">
<rect  x="14.862" y="17.688" width="0.6" height="214.727" fill="#7A3F11"/>
<path d="M28.671,19.096C32.938,19.096 29.077,27.081 26.107,30.046C23.138,33.01 18.871,33.852 15.139,32.589C15.139,32.589 24.387,19.08 28.671,19.08Z" fill="#8CB73F"/>
<path d="M28.671,41.561C32.89,41.837 29.077,49.546 26.107,52.511C23.138,55.475 18.871,56.317 15.139,55.054C15.139,55.054 24.436,41.27 28.671,41.561Z" fill="#8DBB3D"/>
<path d="M28.671,64.027C32.841,64.594 29.077,72.013 26.107,74.977C23.138,77.941 18.871,78.783 15.139,77.52C15.139,77.52 24.485,63.461 28.671,64.027Z" fill="#89BA37"/>
<path d="M28.67,86.476C32.792,87.318 29.076,94.461 26.123,97.425C23.154,100.39 18.87,101.232 15.154,99.968C15.154,99.968 24.565,85.634 28.687,86.476Z" fill="#89BB34"/>
<path d="M28.671,108.942C32.727,110.076 29.077,116.928 26.107,119.892C23.138,122.856 18.871,123.698 15.139,122.435C15.139,122.435 24.582,107.809 28.671,108.926Z" fill="#89BB2E"/>
<path d="M28.671,131.407C32.679,132.817 29.077,139.393 26.107,142.357C23.138,145.321 18.871,146.163 15.139,144.9C15.139,144.9 24.647,129.998 28.671,131.407Z" fill="#88BD2A"/>
<path d="M28.671,153.873C32.63,155.558 29.077,161.858 26.107,164.822C23.138,167.786 18.871,168.629 15.139,167.365C15.139,167.365 24.696,152.172 28.671,153.873Z" fill="#88BD28"/>
<path d="M1.638,19.096C-0.828,20.7 1.216,27.082 4.186,30.046C7.155,33.01 11.439,33.852 15.154,32.589C15.154,32.589 4.088,17.477 1.638,19.08Z" fill="#64AA30"/>
<path d="M1.639,41.561C-1.022,43.181 1.217,49.546 4.186,52.511C7.155,55.475 11.439,56.317 15.155,55.054C15.155,55.054 4.3,39.925 1.639,41.561Z" fill="#66AA2F"/>
<path d="M1.638,64.027C-1.218,65.663 1.216,72.012 4.185,74.976C7.155,77.94 11.438,78.783 15.154,77.519C15.154,77.519 4.494,62.391 1.638,64.027Z" fill="#66AA2F"/>
<path d="M1.639,86.477C-1.428,88.129 1.217,94.462 4.186,97.426C7.155,100.39 11.439,101.232 15.155,99.969C15.155,99.969 4.689,84.824 1.639,86.477Z" fill="#69AA2F"/>
<path d="M1.638,108.942C-1.623,110.61 1.216,116.927 4.186,119.891C7.155,122.855 11.438,123.698 15.154,122.434C15.154,122.434 4.899,107.274 1.638,108.926Z" fill="#69AA2F"/>
<path d="M1.622,131.408C-1.834,133.076 1.2,139.393 4.169,142.357C7.139,145.321 11.422,146.164 15.138,144.9C15.138,144.9 5.078,129.723 1.622,131.408Z" fill="#6BAC2E"/>
<path d="M1.638,153.873C-2.029,155.558 1.217,161.858 4.186,164.822C7.155,167.786 11.439,168.629 15.154,167.365C15.154,167.365 5.289,152.172 1.638,153.873Z" fill="#6BAC2E"/>
<path d="M15.09,0C19.682,0 21.045,5.361 21.045,9.54C21.045,13.719 18.611,17.347 15.09,19.08C15.09,19.08 10.498,-0.017 15.09,-0.017Z" fill="#6BAC2E"/>
</svg>
