<svg width="54" height="58" viewBox="0 0 54 58" fill="none" xmlns="http://www.w3.org/2000/svg" xmlns:xlink="http://www.w3.org/1999/xlink">
<path d="M26.796,9.585C18.279,9.585 11.372,16.46 11.372,24.947C11.372,29.208 13.116,33.063 15.935,35.848C17.144,37.044 18.546,39.142 18.813,40.818L19.348,44.164L34.26,44.164L34.794,40.811C35.061,39.134 36.463,37.037 37.672,35.84C40.491,33.056 42.235,29.201 42.235,24.939C42.235,16.46 35.32,9.577 26.796,9.577L26.796,9.585Z" fill="#67E9F5"/>
<path d="M29.578,45.397C29.237,45.397 28.962,45.124 28.962,44.784C28.962,44.4 29.022,35.175 34.378,22.568C34.512,22.258 34.875,22.11 35.187,22.243C35.498,22.376 35.647,22.738 35.513,23.048C30.253,35.434 30.194,44.695 30.194,44.791C30.194,45.131 29.919,45.404 29.578,45.404L29.578,45.397Z" fill="#FDC00F"/>
<path d="M24.036,45.397C23.695,45.397 23.42,45.116 23.42,44.784C23.42,44.695 23.354,35.404 18.101,23.04C17.968,22.73 18.116,22.368 18.428,22.235C18.739,22.103 19.103,22.25 19.236,22.56C24.593,35.175 24.652,44.392 24.652,44.776C24.652,45.116 24.378,45.389 24.036,45.389L24.036,45.397Z" fill="#FDC00F"/>
<path d="M34.304,24.104C33.236,24.104 32.687,23.521 32.204,23.011C31.752,22.531 31.359,22.117 30.557,22.117C29.756,22.117 29.363,22.531 28.91,23.011C28.428,23.521 27.879,24.104 26.811,24.104C25.743,24.104 25.194,23.521 24.711,23.011C24.259,22.531 23.866,22.117 23.057,22.117C22.248,22.117 21.863,22.531 21.403,23.011C20.92,23.521 20.371,24.104 19.303,24.104C19.132,24.104 18.991,23.964 18.991,23.794C18.991,23.624 19.132,23.484 19.303,23.484C20.104,23.484 20.497,23.07 20.957,22.59C21.44,22.081 21.989,21.497 23.057,21.497C24.125,21.497 24.674,22.081 25.157,22.59C25.609,23.07 26.002,23.484 26.811,23.484C27.62,23.484 28.005,23.07 28.458,22.59C28.94,22.081 29.489,21.497 30.557,21.497C31.626,21.497 32.175,22.081 32.657,22.59C33.11,23.07 33.503,23.484 34.304,23.484C34.475,23.484 34.616,23.624 34.616,23.794C34.616,23.964 34.475,24.104 34.304,24.104Z" fill="#FDC00F"/>
<path d="M31.174,55.419L22.442,55.419C20.735,55.419 19.355,54.038 19.355,52.339L19.355,44.171L34.267,44.171L34.267,52.339C34.267,54.038 32.887,55.419 31.174,55.419Z" fill="#E1E1E1"/>
<path d="M19.348,50.914L19.348,52.339C19.348,52.628 19.4,52.901 19.474,53.167L34.133,53.167C34.208,52.901 34.26,52.628 34.26,52.339L34.26,50.914L19.348,50.914Z" fill="#6927FF"/>
<rect  x="19.348" y="46.416" width="14.912" height="2.253" fill="#6927FF"/>
<path d="M26.804,56.8C28.332,56.8 29.578,56.18 29.578,55.419L24.036,55.419C24.036,56.18 25.275,56.8 26.804,56.8Z" fill="#FDC00F"/>
<path d="M26.804,4.702C26.396,4.702 26.062,4.37 26.062,3.964L26.062,-0.061C26.062,-0.467 26.396,-0.8 26.804,-0.8C27.212,-0.8 27.546,-0.467 27.546,-0.061L27.546,3.964C27.546,4.37 27.212,4.702 26.804,4.702Z" fill="#FDC00F"/>
<path d="M15.994,7.583C15.735,7.583 15.49,7.45 15.349,7.214L13.331,3.728C13.123,3.373 13.249,2.923 13.606,2.716C13.962,2.509 14.414,2.635 14.622,2.989L16.64,6.475C16.848,6.83 16.721,7.28 16.365,7.487C16.247,7.554 16.121,7.583 15.994,7.583Z" fill="#FDC00F"/>
<path d="M8.086,15.456C7.96,15.456 7.833,15.427 7.715,15.36L4.213,13.351C3.857,13.145 3.738,12.694 3.939,12.34C4.139,11.985 4.599,11.867 4.955,12.066L8.457,14.075C8.813,14.282 8.931,14.733 8.731,15.087C8.59,15.323 8.345,15.456 8.086,15.456Z" fill="#FDC00F"/>
<path d="M5.185,26.216L1.142,26.216C0.734,26.216 0.4,25.884 0.4,25.478C0.4,25.072 0.734,24.739 1.142,24.739L5.185,24.739C5.593,24.739 5.927,25.072 5.927,25.478C5.927,25.884 5.593,26.216 5.185,26.216Z" fill="#FDC00F"/>
<path d="M4.577,38.986C4.317,38.986 4.072,38.853 3.931,38.617C3.724,38.262 3.85,37.812 4.206,37.605L7.708,35.596C8.064,35.389 8.516,35.515 8.724,35.869C8.932,36.224 8.806,36.674 8.449,36.881L4.948,38.89C4.829,38.956 4.703,38.986 4.577,38.986Z" fill="#FDC00F"/>
<path d="M49.016,38.994C48.89,38.994 48.763,38.964 48.645,38.898L45.143,36.882C44.787,36.675 44.668,36.224 44.869,35.87C45.076,35.515 45.529,35.397 45.885,35.597L49.387,37.613C49.743,37.82 49.861,38.27 49.661,38.625C49.52,38.861 49.275,38.994 49.016,38.994Z" fill="#FDC00F"/>
<path d="M52.458,26.224L48.415,26.224C48.007,26.224 47.673,25.892 47.673,25.486C47.673,25.079 48.007,24.747 48.415,24.747L52.458,24.747C52.866,24.747 53.2,25.079 53.2,25.486C53.2,25.892 52.866,26.224 52.458,26.224Z" fill="#FDC00F"/>
<path d="M45.521,15.463C45.262,15.463 45.017,15.331 44.876,15.094C44.668,14.74 44.794,14.289 45.15,14.082L48.652,12.074C49.008,11.867 49.461,11.992 49.669,12.347C49.876,12.701 49.75,13.152 49.394,13.359L45.892,15.367C45.774,15.434 45.648,15.463 45.521,15.463Z" fill="#FDC00F"/>
<path d="M37.606,7.591C37.479,7.591 37.353,7.561 37.235,7.495C36.878,7.288 36.76,6.837 36.96,6.483L38.985,2.997C39.193,2.642 39.646,2.524 40.002,2.724C40.358,2.93 40.477,3.381 40.276,3.735L38.251,7.221C38.11,7.458 37.865,7.591 37.606,7.591Z" fill="#FDC00F"/>
<g opacity="0.3">
<path d="M14.807,24.873C17.263,27.317 21.744,26.822 24.815,23.757C27.887,20.7 28.391,16.239 25.936,13.794C23.48,11.35 18.999,11.852 15.928,14.91C12.856,17.967 12.352,22.428 14.807,24.873Z" fill="#FFFFFF"/>
</g>
<g opacity="0.3">
<path d="M25.565,29.038C26.485,29.954 28.161,29.769 29.311,28.624C30.461,27.48 30.647,25.81 29.727,24.895C28.807,23.979 27.13,24.163 25.98,25.308C24.83,26.453 24.645,28.122 25.565,29.038Z" fill="#FFFFFF"/>
</g>
<g opacity="0.2">
<path d="M20.09,44.784L33.518,44.784C33.926,44.784 34.26,44.511 34.26,44.171L19.348,44.171C19.348,44.171 19.682,44.784 20.09,44.784Z" fill="#272930"/>
</g>
<g opacity="0.2">
<path d="M24.341,56.032L29.274,56.032C29.46,55.847 29.578,55.641 29.578,55.419L24.036,55.419C24.036,55.641 24.155,55.847 24.341,56.032Z" fill="#272930"/>
</g>
</svg>
