<svg width="32" height="38" viewBox="0 0 32 38" fill="none" xmlns="http://www.w3.org/2000/svg" xmlns:xlink="http://www.w3.org/1999/xlink">
<path d="M6.851,20.098C14.427,26.22 8.069,31.268 13.434,34.808C18.255,37.987 27.36,35.147 30.753,22.283C33.254,12.805 27.737,3.488 18.675,0.604C6.655,-3.216 -3.059,12.084 6.851,20.098ZM14.376,30.327C14.688,29.142 16.254,28.538 17.878,28.98C19.494,29.421 20.56,30.739 20.248,31.923C19.936,33.108 18.371,33.712 16.747,33.27C15.123,32.829 14.064,31.511 14.383,30.327L14.376,30.327Z" fill="#FDC00F"/>
<path d="M5.618,8.707C5.205,10.282 6.119,11.893 7.67,12.313C9.214,12.732 10.809,11.798 11.222,10.23C11.636,8.663 10.715,7.044 9.171,6.624C7.627,6.205 6.032,7.132 5.618,8.707Z" fill="#A2E2E8"/>
<path d="M11.607,4.578C11.193,6.145 12.107,7.764 13.658,8.184C15.202,8.603 16.797,7.676 17.211,6.101C17.624,4.534 16.703,2.915 15.159,2.495C13.608,2.076 12.02,3.003 11.607,4.578Z" fill="#184F78"/>
<path d="M18.733,6.904C18.32,8.478 19.233,10.09 20.785,10.509C22.329,10.929 23.924,10.002 24.337,8.427C24.75,6.859 23.83,5.24 22.285,4.821C20.741,4.402 19.146,5.336 18.733,6.904Z" fill="#D291BC"/>
<path d="M22.996,13.158C22.583,14.733 23.496,16.344 25.047,16.764C26.592,17.183 28.187,16.256 28.6,14.681C29.013,13.114 28.092,11.495 26.548,11.075C25.004,10.656 23.409,11.583 22.996,13.158Z" fill="#16B6C6"/>
<path d="M22.909,20.775C22.496,22.343 23.416,23.962 24.961,24.381C26.512,24.801 28.1,23.873 28.513,22.298C28.926,20.731 28.005,19.112 26.461,18.693C24.917,18.273 23.322,19.2 22.909,20.775Z" fill="#FFF2CF"/>
<g opacity="0.2">
<path d="M10.063,7.051C10.534,7.735 10.722,8.618 10.498,9.487C10.085,11.054 8.49,11.989 6.945,11.569C6.612,11.481 6.322,11.326 6.054,11.135C6.431,11.687 6.982,12.114 7.67,12.305C9.215,12.725 10.809,11.79 11.223,10.222C11.549,8.986 11.041,7.735 10.063,7.051Z" fill="#000000"/>
<path d="M27.875,13.946C27.462,15.513 25.867,16.448 24.323,16.028C23.989,15.94 23.699,15.785 23.431,15.601C23.808,16.153 24.359,16.58 25.048,16.764C26.592,17.184 28.187,16.256 28.6,14.681C28.926,13.445 28.419,12.194 27.44,11.51C27.911,12.194 28.107,13.077 27.875,13.946Z" fill="#000000"/>
<path d="M24.337,8.428C24.664,7.191 24.156,5.94 23.178,5.256C23.649,5.94 23.844,6.823 23.612,7.692C23.199,9.266 21.604,10.194 20.06,9.774C19.727,9.686 19.437,9.531 19.168,9.34C19.545,9.892 20.096,10.319 20.785,10.51C22.329,10.93 23.924,10.002 24.337,8.428Z" fill="#000000"/>
<path d="M16.051,2.93C16.522,3.614 16.711,4.497 16.486,5.366C16.073,6.933 14.478,7.868 12.934,7.448C12.6,7.36 12.31,7.205 12.042,7.014C12.419,7.566 12.97,7.993 13.659,8.184C15.203,8.603 16.798,7.676 17.211,6.101C17.537,4.865 17.03,3.614 16.051,2.93Z" fill="#000000"/>
<path d="M27.353,19.127C27.825,19.811 28.02,20.694 27.788,21.563C27.375,23.138 25.787,24.065 24.236,23.645C23.902,23.557 23.612,23.403 23.344,23.211C23.721,23.763 24.272,24.19 24.961,24.381C26.512,24.801 28.1,23.873 28.513,22.299C28.839,21.062 28.332,19.811 27.353,19.127Z" fill="#000000"/>
</g>
<path d="M5.706,22.179C3.06,26.837 1.827,31.15 2.958,31.812C4.089,32.474 7.156,29.236 9.802,24.578C12.448,19.92 13.68,15.608 12.549,14.945C11.418,14.283 8.352,17.521 5.706,22.172L5.706,22.179Z" fill="#184F78"/>
<path d="M1.544,31.281C1.834,31.09 2.139,30.891 2.407,30.921C5.764,31.362 3.799,36.742 0.428,35.91C0.13,35.837 0,35.719 0,35.726C0,35.726 0.145,35.616 0.29,35.41C0.442,35.204 0.5,34.909 0.471,34.608C0.457,34.306 0.391,33.953 0.391,33.533C0.391,33.136 0.435,32.599 0.812,32.032C1.037,31.73 1.29,31.465 1.551,31.274L1.544,31.281Z" fill="#D291BC"/>
<path d="M4.602,29.474L2.278,29.474L2.278,32.436L4.602,32.436L4.602,29.474Z" transform="rotate(-120.759 3.44 30.955)" fill="#A3B9C9"/>
<g opacity="0.3">
<path d="M0.392,35.897C0.471,35.823 0.558,35.742 0.638,35.676C0.674,35.654 0.711,35.632 0.747,35.602L0.703,35.573L2.494,32.423C3.139,29.575 4.778,25.587 7.148,21.422C8.475,19.089 9.867,16.992 11.201,15.24C9.736,16.182 7.612,18.802 5.698,22.165C4.183,24.829 3.139,27.375 2.726,29.193L1.581,31.202L1.61,31.217C1.61,31.217 1.559,31.246 1.537,31.261C1.276,31.459 1.022,31.717 0.798,32.019C0.421,32.585 0.377,33.122 0.377,33.52C0.377,33.939 0.442,34.293 0.457,34.594C0.486,34.896 0.428,35.19 0.276,35.396C0.138,35.602 -0.022,35.705 -0.014,35.713C-0.014,35.705 0.109,35.808 0.377,35.882L0.392,35.897Z" fill="#FFFFFF"/>
</g>
</svg>
