<svg width="29" height="34" viewBox="0 0 29 34" fill="none" xmlns="http://www.w3.org/2000/svg">
<g clip-path="url(#clip0_299_595)">
<path d="M26.21 28.2773H0V34.0053H26.21V28.2773Z" fill="#FDC00F"/>
<path d="M8.13394 28.2773H2.69879V34.0053H8.13394V28.2773Z" fill="#FFF2CF"/>
<path d="M10.0387 28.2773H8.92267V34.0053H10.0387V28.2773Z" fill="#FFF2CF"/>
<path d="M29 22.5493H2.79004V28.2773H29V22.5493Z" fill="#16B6C6"/>
<path d="M10.924 22.5493H5.48883V28.2773H10.924V22.5493Z" fill="#118995"/>
<path d="M12.8233 22.5493H11.7073V28.2773H12.8233V22.5493Z" fill="#118995"/>
<path d="M27.9967 16.8213H1.78668V22.5493H27.9967V16.8213Z" fill="#184F78"/>
<path d="M9.926 16.8213H4.49084V22.5493H9.926V16.8213Z" fill="#D1DCE4"/>
<path d="M11.8254 16.8213H10.7094V22.5493H11.8254V16.8213Z" fill="#D1DCE4"/>
<path d="M19.1169 3.55198C17.6039 4.87998 15.066 4.81065 15.066 4.81065C15.066 4.81065 14.9856 2.58665 16.504 1.25865C18.017 -0.0693545 20.5549 -2.11078e-05 20.5549 -2.11078e-05C20.5549 -2.11078e-05 20.6353 2.22398 19.1169 3.55198Z" fill="#184F78"/>
<path d="M19.8949 0.575989C19.8949 0.575989 19.6857 0.847989 19.3262 1.22132C18.9721 1.59466 18.4731 2.07466 17.9526 2.53332C17.4322 2.99199 16.8849 3.42399 16.4557 3.73866C16.0318 4.05332 15.7206 4.23466 15.7206 4.23466C15.7206 4.23466 15.9299 3.96266 16.2894 3.58932C16.6435 3.21599 17.1425 2.73599 17.6629 2.27732C18.1834 1.81866 18.7306 1.38666 19.1599 1.07732C19.5837 0.762655 19.8949 0.581322 19.8949 0.581322V0.575989Z" fill="#467293"/>
<path d="M15.066 4.72531C9.18019 3.21597 6.48676 7.07731 7.57594 11.28C8.42903 14.5866 11.4068 17.5786 15.066 16.656C18.7306 17.5786 21.703 14.5866 22.5561 11.28C23.6399 7.07731 20.9519 3.21597 15.066 4.72531Z" fill="#FC611F"/>
<path opacity="0.2" d="M0 28.2773H26.21V29.536L0 28.2773Z" fill="black"/>
<path opacity="0.2" d="M2.79004 22.5493H29V23.8133L2.79004 22.5493Z" fill="black"/>
<path opacity="0.3" d="M11.7717 16.432C11.7395 16.1013 11.7234 15.76 11.7234 15.4187C11.7234 10.4907 14.8031 6.28266 19.1545 4.58133C18.0385 4.29866 16.6757 4.30933 15.0714 4.72C9.18556 3.21066 6.49213 7.072 7.58131 11.2747C8.16077 13.5093 9.70601 15.5947 11.7771 16.432H11.7717Z" fill="white"/>
</g>
<defs>
<clipPath id="clip0_299_595">
<rect width="29" height="34" fill="white"/>
</clipPath>
</defs>
</svg>
