<svg width="108" height="12" viewBox="0 0 108 12" fill="none" xmlns="http://www.w3.org/2000/svg" xmlns:xlink="http://www.w3.org/1999/xlink">
<path d="M20.099,2.958C19.898,4.691 22.983,7.033 19.533,7.981C21.084,-0.142 8.852,4.804 17.27,9.085C13.573,12.099 18.146,12.17 19.099,9.142C22.301,9.488 23.673,5.802 21.797,3.672C29.905,0.658 25.014,-0.135 20.099,2.95L20.099,2.958ZM17.611,7.974C16.309,7.861 15.309,5.172 16.386,4.415C18.107,4.21 19.006,7.224 17.611,7.974Z" fill="#FFFFFF"/>
<path d="M104.031,4.104C102.737,5.094 102.729,7.472 100.961,7.918C98.272,7.245 100.713,3.616 100.256,1.733C95.954,1.939 99.07,13.628 103.264,7.521C105.581,14.618 109.93,1.648 104.031,4.104ZM105.163,8.335C104.171,9.127 104.357,5.526 105.077,5.236C105.93,5.682 105.38,7.649 105.163,8.335Z" fill="#FFFFFF"/>
<path d="M12.439,0.757C11.036,0.778 8.362,2.108 6.959,2.844C6.339,3.764 8.222,4.832 8.028,5.95C7.873,8.752 0.517,8.667 1.37,5.526C1.812,4.578 0.246,4.259 0.099,5.25C-1.389,11.724 13.276,9.474 8.656,3.566C9.524,2.943 14.276,2.073 12.431,0.757L12.439,0.757Z" fill="#FFFFFF"/>
<path d="M63.011,9.141C64.708,9.176 64.708,6.771 63.011,6.806C61.313,6.771 61.313,9.176 63.011,9.141Z" fill="#FFFFFF"/>
<path d="M96.714,6.269C91.404,11.484 96.287,11.342 98.016,6.29C95.814,1.776 90.853,2.484 96.714,6.269Z" fill="#FFFFFF"/>
<path d="M12.898,6.269C7.589,11.484 12.464,11.342 14.201,6.29C11.992,1.776 7.038,2.484 12.898,6.269Z" fill="#FFFFFF"/>
<path d="M68.615,10.712C68.576,12.078 70.894,12.078 70.855,10.712C70.886,9.354 68.576,9.354 68.615,10.712Z" fill="#FFFFFF"/>
<path d="M79.451,9.078C74.669,14.18 83.846,10.274 81.645,5.293C78.118,0.05 73.568,6.977 79.451,9.078ZM79.792,7.974C78.49,7.861 77.49,5.172 78.567,4.415C80.288,4.21 81.187,7.224 79.792,7.974Z" fill="#FFFFFF"/>
<path d="M52.105,4.104C50.647,5.689 50.066,9.036 47.02,7.797C44.779,6.113 51.267,5.3 47.888,3.58C44.516,2.462 36.175,5.703 44.035,6.672C43.283,8.038 39.788,8.781 39.695,6.672C39.896,5.604 39.625,-0.319 38.137,2.837C37.966,4.514 39.067,8.696 35.796,7.755C28.734,-0.347 24.432,11.576 28.153,11.47C28.641,9.658 28.153,4.748 31.788,6.064C26.75,11.031 34.447,14.13 35.044,8.646C36.532,9.481 37.78,9.333 38.857,8.017C39.881,9.913 44.066,9.368 45.004,7.606C45.903,9.694 50.492,9.927 51.337,7.514C53.655,14.611 58.003,1.641 52.105,4.097L52.105,4.104ZM32.889,6.828C33.176,7.132 33.4,7.493 33.556,7.918C34.641,12.878 28.951,9.722 32.889,6.828ZM44.717,5.321C44.175,5.165 43.609,5.116 43.051,5.024C44.291,4.599 45.686,4.436 46.942,4.889C46.113,5.66 45.725,5.979 44.71,5.321L44.717,5.321ZM53.236,8.335C52.244,9.127 52.43,5.526 53.151,5.236C54.004,5.682 53.453,7.649 53.236,8.335Z" fill="#FFFFFF"/>
<path d="M91.985,5.59C92.07,7.118 87.846,10.847 90.365,11.272C92.977,11.073 94.473,0.241 91.985,5.59Z" fill="#FFFFFF"/>
<path d="M83.156,2.717C83.234,4.535 82.761,7.274 83.296,8.922C85.11,10.061 85.319,-0.071 83.156,2.717Z" fill="#FFFFFF"/>
<path d="M89.381,6.622C92.148,5.865 88.947,5.058 87.885,6.976C86.327,10.146 91.768,9.445 89.381,6.622Z" fill="#FFFFFF"/>
<path d="M74.669,3.113C74.653,4.677 75.281,9.114 72.266,7.628C71.374,6.849 72.816,4.012 71.025,4.111C70.289,4.861 70.909,6.871 70.025,7.592C68.165,8.915 67.886,6.149 67.584,5.038C66.328,2.583 65.576,4.783 66.344,6.382C68.677,13.125 55.058,11.378 60.902,5.654C62.46,4.323 60.871,3.609 59.608,4.642C53.476,10.111 65.817,15.85 67.716,8.562C68.77,9.552 70.677,9.198 71.173,8.137C77.18,13.373 76.8,-1.641 74.669,3.113Z" fill="#FFFFFF"/>
<path d="M70.933,10.719C70.894,12.085 73.212,12.085 73.173,10.719C73.204,9.361 70.894,9.361 70.933,10.719Z" fill="#FFFFFF"/>
</svg>
