<svg width="108" height="12" viewBox="0 0 108 12" fill="none" xmlns="http://www.w3.org/2000/svg" xmlns:xlink="http://www.w3.org/1999/xlink">
<path d="M20.099,2.957C19.898,4.69 22.983,7.032 19.533,7.98C21.084,-0.143 8.852,4.803 17.27,9.084C13.573,12.098 18.146,12.169 19.099,9.141C22.301,9.487 23.673,5.801 21.797,3.671C29.905,0.657 25.014,-0.136 20.099,2.949L20.099,2.957ZM17.611,7.973C16.309,7.86 15.309,5.171 16.386,4.414C18.107,4.209 19.006,7.223 17.611,7.973Z" fill="#FFFFFF"/>
<path d="M104.031,4.103C102.737,5.093 102.729,7.471 100.961,7.917C98.272,7.244 100.713,3.615 100.256,1.732C95.954,1.938 99.07,13.627 103.264,7.52C105.581,14.617 109.93,1.648 104.031,4.103ZM105.163,8.334C104.171,9.127 104.357,5.525 105.077,5.235C105.93,5.681 105.38,7.648 105.163,8.334Z" fill="#FFFFFF"/>
<path d="M12.439,0.756C11.036,0.777 8.362,2.107 6.959,2.843C6.339,3.763 8.222,4.831 8.028,5.949C7.873,8.751 0.517,8.666 1.37,5.525C1.812,4.577 0.246,4.258 0.099,5.249C-1.389,11.723 13.276,9.473 8.656,3.565C9.524,2.942 14.276,2.072 12.431,0.756L12.439,0.756Z" fill="#FFFFFF"/>
<path d="M63.011,9.14C64.708,9.175 64.708,6.77 63.011,6.805C61.313,6.77 61.313,9.175 63.011,9.14Z" fill="#FFFFFF"/>
<path d="M96.714,6.267C91.404,11.482 96.287,11.341 98.016,6.288C95.814,1.774 90.853,2.482 96.714,6.267Z" fill="#FFFFFF"/>
<path d="M12.898,6.267C7.589,11.482 12.464,11.341 14.201,6.288C11.992,1.774 7.038,2.482 12.898,6.267Z" fill="#FFFFFF"/>
<path d="M68.615,10.712C68.576,12.078 70.894,12.078 70.855,10.712C70.886,9.354 68.576,9.354 68.615,10.712Z" fill="#FFFFFF"/>
<path d="M79.451,9.077C74.669,14.179 83.846,10.273 81.645,5.292C78.118,0.049 73.568,6.976 79.451,9.077ZM79.792,7.973C78.49,7.86 77.49,5.171 78.567,4.414C80.288,4.209 81.187,7.223 79.792,7.973Z" fill="#FFFFFF"/>
<path d="M52.105,4.103C50.647,5.688 50.066,9.035 47.02,7.796C44.779,6.112 51.267,5.299 47.888,3.579C44.516,2.461 36.175,5.702 44.035,6.671C43.283,8.037 39.788,8.78 39.695,6.671C39.896,5.603 39.625,-0.319 38.137,2.836C37.966,4.513 39.067,8.695 35.796,7.754C28.734,-0.348 24.432,11.575 28.153,11.469C28.641,9.657 28.153,4.747 31.788,6.063C26.75,11.03 34.447,14.129 35.044,8.645C36.532,9.48 37.78,9.332 38.857,8.016C39.881,9.912 44.066,9.367 45.004,7.605C45.903,9.693 50.492,9.926 51.337,7.513C53.655,14.61 58.003,1.64 52.105,4.096L52.105,4.103ZM32.889,6.827C33.176,7.131 33.4,7.492 33.556,7.917C34.641,12.877 28.951,9.721 32.889,6.827ZM44.717,5.32C44.175,5.164 43.609,5.115 43.051,5.023C44.291,4.598 45.686,4.435 46.942,4.888C46.113,5.659 45.725,5.978 44.71,5.32L44.717,5.32ZM53.236,8.334C52.244,9.127 52.43,5.525 53.151,5.235C54.004,5.681 53.453,7.648 53.236,8.334Z" fill="#FFFFFF"/>
<path d="M91.985,5.588C92.07,7.116 87.846,10.845 90.365,11.27C92.977,11.072 94.473,0.239 91.985,5.588Z" fill="#FFFFFF"/>
<path d="M83.156,2.716C83.234,4.534 82.761,7.273 83.296,8.921C85.11,10.06 85.319,-0.072 83.156,2.716Z" fill="#FFFFFF"/>
<path d="M89.381,6.622C92.148,5.865 88.947,5.058 87.885,6.976C86.327,10.146 91.768,9.445 89.381,6.622Z" fill="#FFFFFF"/>
<path d="M74.669,3.112C74.653,4.676 75.281,9.113 72.266,7.627C71.374,6.848 72.816,4.011 71.025,4.11C70.289,4.86 70.909,6.87 70.025,7.591C68.165,8.914 67.886,6.148 67.584,5.037C66.328,2.582 65.576,4.782 66.344,6.381C68.677,13.124 55.058,11.377 60.902,5.653C62.46,4.322 60.871,3.608 59.608,4.641C53.476,10.11 65.817,15.849 67.716,8.561C68.77,9.551 70.677,9.197 71.173,8.136C77.18,13.372 76.8,-1.642 74.669,3.112Z" fill="#FFFFFF"/>
<path d="M70.933,10.718C70.894,12.084 73.212,12.084 73.173,10.718C73.204,9.36 70.894,9.36 70.933,10.718Z" fill="#FFFFFF"/>
</svg>
