<svg width="108" height="12" viewBox="0 0 108 12" fill="none" xmlns="http://www.w3.org/2000/svg" xmlns:xlink="http://www.w3.org/1999/xlink">
<path d="M20.1,2.957C19.898,4.69 22.983,7.032 19.534,7.98C21.084,-0.143 8.853,4.803 17.271,9.084C13.573,12.098 18.146,12.169 19.1,9.141C22.301,9.487 23.673,5.801 21.797,3.671C29.905,0.657 25.014,-0.136 20.1,2.949L20.1,2.957ZM17.612,7.973C16.309,7.86 15.309,5.171 16.387,4.414C18.108,4.209 19.007,7.223 17.612,7.973Z" fill="#FFFFFF"/>
<path d="M104.031,4.103C102.737,5.093 102.729,7.471 100.961,7.917C98.272,7.244 100.713,3.615 100.256,1.732C95.954,1.938 99.07,13.627 103.264,7.52C105.581,14.617 109.93,1.648 104.031,4.103ZM105.163,8.334C104.171,9.127 104.357,5.525 105.077,5.235C105.93,5.681 105.38,7.648 105.163,8.334Z" fill="#FFFFFF"/>
<path d="M12.439,0.756C11.036,0.777 8.362,2.107 6.959,2.843C6.339,3.763 8.222,4.831 8.028,5.949C7.873,8.751 0.517,8.666 1.37,5.525C1.812,4.577 0.246,4.258 0.099,5.249C-1.389,11.723 13.276,9.473 8.656,3.565C9.524,2.942 14.276,2.072 12.431,0.756L12.439,0.756Z" fill="#FFFFFF"/>
<path d="M63.011,9.14C64.709,9.175 64.709,6.77 63.011,6.805C61.314,6.77 61.314,9.175 63.011,9.14Z" fill="#FFFFFF"/>
<path d="M96.714,6.267C91.404,11.482 96.288,11.341 98.016,6.288C95.815,1.774 90.854,2.482 96.714,6.267Z" fill="#FFFFFF"/>
<path d="M12.897,6.267C7.588,11.482 12.463,11.341 14.2,6.288C11.991,1.774 7.037,2.482 12.897,6.267Z" fill="#FFFFFF"/>
<path d="M68.616,10.712C68.577,12.078 70.895,12.078 70.856,10.712C70.887,9.354 68.577,9.354 68.616,10.712Z" fill="#FFFFFF"/>
<path d="M79.452,9.077C74.669,14.179 83.847,10.273 81.645,5.292C78.118,0.049 73.568,6.976 79.452,9.077ZM79.793,7.973C78.49,7.86 77.491,5.171 78.568,4.414C80.289,4.209 81.188,7.223 79.793,7.973Z" fill="#FFFFFF"/>
<path d="M52.106,4.103C50.648,5.688 50.067,9.035 47.021,7.796C44.78,6.112 51.268,5.299 47.889,3.579C44.517,2.461 36.176,5.702 44.036,6.671C43.284,8.037 39.789,8.78 39.696,6.671C39.897,5.603 39.626,-0.319 38.138,2.836C37.967,4.513 39.068,8.695 35.797,7.754C28.735,-0.348 24.433,11.575 28.154,11.469C28.642,9.657 28.154,4.747 31.789,6.063C26.751,11.03 34.448,14.129 35.045,8.645C36.533,9.48 37.781,9.332 38.858,8.016C39.882,9.912 44.067,9.367 45.005,7.605C45.904,9.693 50.493,9.926 51.338,7.513C53.656,14.61 58.004,1.64 52.106,4.096L52.106,4.103ZM32.89,6.827C33.177,7.131 33.401,7.492 33.556,7.917C34.642,12.877 28.952,9.721 32.89,6.827ZM44.718,5.32C44.176,5.164 43.61,5.115 43.052,5.023C44.292,4.598 45.687,4.435 46.943,4.888C46.114,5.659 45.726,5.978 44.711,5.32L44.718,5.32ZM53.237,8.334C52.245,9.127 52.431,5.525 53.152,5.235C54.005,5.681 53.454,7.648 53.237,8.334Z" fill="#FFFFFF"/>
<path d="M91.985,5.588C92.07,7.116 87.846,10.845 90.365,11.27C92.977,11.072 94.473,0.239 91.985,5.588Z" fill="#FFFFFF"/>
<path d="M83.156,2.716C83.234,4.534 82.761,7.273 83.296,8.921C85.11,10.06 85.319,-0.072 83.156,2.716Z" fill="#FFFFFF"/>
<path d="M89.381,6.622C92.148,5.865 88.947,5.058 87.885,6.976C86.327,10.146 91.768,9.445 89.381,6.622Z" fill="#FFFFFF"/>
<path d="M74.669,3.112C74.654,4.676 75.281,9.113 72.266,7.627C71.375,6.848 72.816,4.011 71.026,4.11C70.29,4.86 70.91,6.87 70.026,7.591C68.166,8.914 67.887,6.148 67.584,5.037C66.329,2.582 65.577,4.782 66.344,6.381C68.677,13.124 55.058,11.377 60.903,5.653C62.461,4.322 60.872,3.608 59.608,4.641C53.477,10.11 65.817,15.849 67.716,8.561C68.77,9.551 70.677,9.197 71.173,8.136C77.18,13.372 76.801,-1.642 74.669,3.112Z" fill="#FFFFFF"/>
<path d="M70.932,10.718C70.893,12.084 73.211,12.084 73.172,10.718C73.203,9.36 70.893,9.36 70.932,10.718Z" fill="#FFFFFF"/>
</svg>
