<svg width="56" height="56" viewBox="0 0 56 56" fill="none" xmlns="http://www.w3.org/2000/svg" xmlns:xlink="http://www.w3.org/1999/xlink">
<rect  x="9.333" y="9.333" width="35.333" height="35.333" rx="7" fill="#9E3840" stroke="#9E3840" stroke-width="1" stroke-miterlimit="3.999327"/>
<path d="M20.894,26.939C20.308,26.353 19.358,26.353 18.773,26.939C18.187,27.525 18.187,28.475 18.773,29.061L20.894,26.939ZM25.667,33.833L24.606,34.894C24.887,35.175 25.269,35.333 25.667,35.333C26.064,35.333 26.446,35.175 26.727,34.894L25.667,33.833ZM38.394,23.227C38.98,22.641 38.98,21.692 38.394,21.106C37.808,20.52 36.858,20.52 36.273,21.106L38.394,23.227ZM18.773,29.061L24.606,34.894L26.727,32.773L20.894,26.939L18.773,29.061ZM26.727,34.894L38.394,23.227L36.273,21.106L24.606,32.773L26.727,34.894Z" fill="#FFFFFF"/>
</svg>
