<svg width="48" height="48" viewBox="0 0 48 48" fill="none" xmlns="http://www.w3.org/2000/svg" xmlns:xlink="http://www.w3.org/1999/xlink">
<rect  x="8" y="8" width="30" height="30" rx="7" fill="#9E3840" stroke="#9E3840" stroke-width="1" stroke-miterlimit="3.999327"/>
<path d="M18.061,22.939C17.475,22.354 16.525,22.354 15.939,22.939C15.354,23.525 15.354,24.475 15.939,25.061L18.061,22.939ZM22,29L20.939,30.061C21.525,30.646 22.475,30.646 23.061,30.061L22,29ZM33.061,20.061C33.646,19.475 33.646,18.525 33.061,17.939C32.475,17.354 31.525,17.354 30.939,17.939L33.061,20.061ZM15.939,25.061L20.939,30.061L23.061,27.939L18.061,22.939L15.939,25.061ZM23.061,30.061L33.061,20.061L30.939,17.939L20.939,27.939L23.061,30.061Z" fill="#FFFFFF"/>
</svg>
