<svg width="56" height="56" viewBox="0 0 56 56" fill="none" xmlns="http://www.w3.org/2000/svg" xmlns:xlink="http://www.w3.org/1999/xlink">
<rect  x="9.333" y="9.333" width="35.333" height="35.333" rx="7" fill="#9E3840" stroke="#9E3840" stroke-width="1" stroke-miterlimit="3.999327"/>
<path d="M20.894,26.94C20.308,26.354 19.358,26.354 18.772,26.94C18.187,27.525 18.187,28.475 18.772,29.061L20.894,26.94ZM25.666,33.834L24.606,34.894C24.887,35.176 25.269,35.334 25.666,35.334C26.064,35.334 26.446,35.176 26.727,34.894L25.666,33.834ZM38.394,23.228C38.979,22.642 38.979,21.692 38.394,21.106C37.808,20.521 36.858,20.521 36.272,21.106L38.394,23.228ZM18.772,29.061L24.606,34.894L26.727,32.773L20.894,26.94L18.772,29.061ZM26.727,34.894L38.394,23.228L36.272,21.106L24.606,32.773L26.727,34.894Z" fill="#FFFFFF"/>
</svg>
