<svg width="60" height="60" viewBox="0 0 60 60" fill="none" xmlns="http://www.w3.org/2000/svg" xmlns:xlink="http://www.w3.org/1999/xlink">
<path d="M60,30C60,39.04 56.001,47.146 49.677,52.646C44.409,57.227 37.528,60 30,60C22.472,60 15.591,57.227 10.324,52.646C3.999,47.146 0,39.04 0,30C0,13.431 13.431,0 30,0C46.569,0 60,13.431 60,30ZM39,21C39,16.029 34.971,12 30,12C25.029,12 21,16.029 21,21C21,25.971 25.029,30 30,30C34.971,30 39,25.971 39,21ZM30,36C35.138,36 38.517,38.75 40.9,41.806C42.677,44.087 42.065,47.432 39.487,48.74C36.637,50.185 33.414,51 30,51C26.586,51 23.363,50.185 20.513,48.74C17.935,47.432 17.323,44.087 19.1,41.806C21.483,38.75 24.862,36 30,36Z" clip-rule="evenodd" fill-rule="evenodd" fill="#F47C85"/>
</svg>
