<svg width="36" height="40" viewBox="0 0 36 40" fill="none" xmlns="http://www.w3.org/2000/svg" xmlns:xlink="http://www.w3.org/1999/xlink">
<path d="M36,16.301L36,31.934C36,36.389 32.418,40 28,40L8,40C3.582,40 0,36.389 0,31.934L0,16.301C0,13.879 1.079,11.585 2.94,10.053L12.94,1.819C15.885,-0.606 20.115,-0.606 23.06,1.819L33.06,10.053C34.921,11.585 36,13.879 36,16.301ZM24.5,30.5L24.5,35C24.5,36.105 23.605,37 22.5,37L13.5,37C12.395,37 11.5,36.105 11.5,35L11.5,30.5C11.5,26.91 14.41,24 18,24C21.59,24 24.5,26.91 24.5,30.5Z" clip-rule="evenodd" fill-rule="evenodd" fill="#C74953"/>
</svg>
