<svg width="8" height="12" viewBox="0 0 8 12" fill="none" xmlns="http://www.w3.org/2000/svg" xmlns:xlink="http://www.w3.org/1999/xlink">
<path d="M1.028,8.304C0.589,9.225 0.012,10.068 -0.675,10.807C0.117,11.249 1.029,11.5 2,11.5C5.037,11.5 7.5,9.038 7.5,6C7.5,2.962 5.037,0.5 2,0.5C1.791,0.5 1.585,0.512 1.383,0.534C1.727,1.465 1.936,2.462 1.987,3.5C1.991,3.5 1.996,3.5 2,3.5C3.38,3.5 4.5,4.619 4.5,6C4.5,7.381 3.38,8.5 2,8.5C1.655,8.5 1.327,8.43 1.028,8.304Z" clip-rule="evenodd" fill-rule="evenodd" fill="#696F82"/>
</svg>
