<svg width="40" height="42" viewBox="0 0 40 42" fill="none" xmlns="http://www.w3.org/2000/svg" xmlns:xlink="http://www.w3.org/1999/xlink">
<path d="M17.541,0.553C19.089,-0.221 20.912,-0.221 22.46,0.553L37.094,7.87C39.673,9.16 39.673,12.841 37.094,14.131L22.46,21.448C20.912,22.222 19.089,22.222 17.541,21.448L2.907,14.131C0.328,12.841 0.328,9.16 2.907,7.87L17.541,0.553ZM0.63,30.391C0.966,29.634 1.853,29.293 2.61,29.63L18.985,36.908C19.631,37.195 20.369,37.195 21.016,36.908L37.391,29.63C38.148,29.293 39.035,29.634 39.371,30.391C39.708,31.148 39.367,32.035 38.61,32.371L22.234,39.649C20.812,40.281 19.189,40.281 17.767,39.649L1.391,32.371C0.634,32.035 0.293,31.148 0.63,30.391ZM2.61,20.63C1.853,20.293 0.966,20.634 0.63,21.391C0.293,22.148 0.634,23.035 1.391,23.371L17.767,30.649C19.189,31.281 20.812,31.281 22.234,30.649L38.61,23.371C39.367,23.035 39.708,22.148 39.371,21.391C39.035,20.634 38.148,20.293 37.391,20.63L21.016,27.908C20.369,28.195 19.631,28.195 18.985,27.908L2.61,20.63Z" clip-rule="evenodd" fill-rule="evenodd" fill="#696F82"/>
</svg>
