<svg width="32" height="30" viewBox="0 0 32 30" fill="none" xmlns="http://www.w3.org/2000/svg" xmlns:xlink="http://www.w3.org/1999/xlink">
<path d="M18,1.605C18,0.501 17.105,-0.395 16,-0.395C14.895,-0.395 14,0.501 14,1.605L18,1.605ZM14,27.634C14,28.738 14.895,29.634 16,29.634C17.105,29.634 18,28.738 18,27.634L14,27.634ZM2,12.62C0.895,12.62 0,13.515 0,14.62C0,15.724 0.895,16.62 2,16.62L2,12.62ZM30,16.62C31.105,16.62 32,15.724 32,14.62C32,13.515 31.105,12.62 30,12.62L30,16.62ZM14,1.605L14,27.634L18,27.634L18,1.605L14,1.605ZM2,16.62L30,16.62L30,12.62L2,12.62L2,16.62Z" fill="#FFFFFF"/>
</svg>
