<svg width="36" height="36" viewBox="0 0 36 36" fill="none" xmlns="http://www.w3.org/2000/svg" xmlns:xlink="http://www.w3.org/1999/xlink">
<path d="M8.4,8.5C7.572,8.5 6.9,9.172 6.9,10C6.9,10.828 7.572,11.5 8.4,11.5L8.4,8.5ZM21.2,11.5C22.028,11.5 22.7,10.828 22.7,10C22.7,9.172 22.028,8.5 21.2,8.5L21.2,11.5ZM8.4,16.5C7.572,16.5 6.9,17.172 6.9,18C6.9,18.828 7.572,19.5 8.4,19.5L8.4,16.5ZM21.2,19.5C22.028,19.5 22.7,18.828 22.7,18C22.7,17.172 22.028,16.5 21.2,16.5L21.2,19.5ZM8.4,24.5C7.572,24.5 6.9,25.172 6.9,26C6.9,26.828 7.572,27.5 8.4,27.5L8.4,24.5ZM14.8,27.5C15.628,27.5 16.3,26.828 16.3,26C16.3,25.172 15.628,24.5 14.8,24.5L14.8,27.5ZM6.8,3.5L22.8,3.5L22.8,0.5L6.8,0.5L6.8,3.5ZM30.8,32.5L6.8,32.5L6.8,35.5L30.8,35.5L30.8,32.5ZM3.5,29.2L3.5,6.8L0.5,6.8L0.5,29.2L3.5,29.2ZM27.6,13.1L30.8,13.1L30.8,10.1L27.6,10.1L27.6,13.1ZM32.5,14.8L32.5,30.8L35.5,30.8L35.5,14.8L32.5,14.8ZM29.1,30.8L29.1,11.6L26.1,11.6L26.1,30.8L29.1,30.8ZM30.8,32.5C29.861,32.5 29.1,31.739 29.1,30.8L26.1,30.8C26.1,33.396 28.204,35.5 30.8,35.5L30.8,32.5ZM32.5,30.8C32.5,31.739 31.739,32.5 30.8,32.5L30.8,35.5C33.396,35.5 35.5,33.396 35.5,30.8L32.5,30.8ZM26.1,6.8L26.1,11.6L29.1,11.6L29.1,6.8L26.1,6.8ZM6.8,32.5C4.977,32.5 3.5,31.023 3.5,29.2L0.5,29.2C0.5,32.679 3.321,35.5 6.8,35.5L6.8,32.5ZM22.8,3.5C24.623,3.5 26.1,4.977 26.1,6.8L29.1,6.8C29.1,3.321 26.279,0.5 22.8,0.5L22.8,3.5ZM30.8,13.1C31.739,13.1 32.5,13.861 32.5,14.8L35.5,14.8C35.5,12.204 33.396,10.1 30.8,10.1L30.8,13.1ZM6.8,0.5C3.321,0.5 0.5,3.321 0.5,6.8L3.5,6.8C3.5,4.977 4.977,3.5 6.8,3.5L6.8,0.5ZM8.4,11.5L21.2,11.5L21.2,8.5L8.4,8.5L8.4,11.5ZM8.4,19.5L21.2,19.5L21.2,16.5L8.4,16.5L8.4,19.5ZM8.4,27.5L14.8,27.5L14.8,24.5L8.4,24.5L8.4,27.5Z" fill="#505463"/>
</svg>
