<svg width="44" height="44" viewBox="0 0 44 44" fill="none" xmlns="http://www.w3.org/2000/svg" xmlns:xlink="http://www.w3.org/1999/xlink">
<path d="M10,10.5C9.172,10.5 8.5,11.172 8.5,12C8.5,12.828 9.172,13.5 10,13.5L10,10.5ZM26,13.5C26.828,13.5 27.5,12.828 27.5,12C27.5,11.172 26.828,10.5 26,10.5L26,13.5ZM10,20.5C9.172,20.5 8.5,21.172 8.5,22C8.5,22.828 9.172,23.5 10,23.5L10,20.5ZM26,23.5C26.828,23.5 27.5,22.828 27.5,22C27.5,21.172 26.828,20.5 26,20.5L26,23.5ZM10,30.5C9.172,30.5 8.5,31.172 8.5,32C8.5,32.828 9.172,33.5 10,33.5L10,30.5ZM18,33.5C18.828,33.5 19.5,32.828 19.5,32C19.5,31.172 18.828,30.5 18,30.5L18,33.5ZM8,3.5L28,3.5L28,0.5L8,0.5L8,3.5ZM38,40.5L8,40.5L8,43.5L38,43.5L38,40.5ZM3.5,36L3.5,8L0.5,8L0.5,36L3.5,36ZM34,15.5L38,15.5L38,12.5L34,12.5L34,15.5ZM40.5,18L40.5,38L43.5,38L43.5,18L40.5,18ZM35.5,38L35.5,14L32.5,14L32.5,38L35.5,38ZM38,40.5C36.619,40.5 35.5,39.381 35.5,38L32.5,38C32.5,41.038 34.962,43.5 38,43.5L38,40.5ZM40.5,38C40.5,39.381 39.381,40.5 38,40.5L38,43.5C41.038,43.5 43.5,41.038 43.5,38L40.5,38ZM32.5,8L32.5,14L35.5,14L35.5,8L32.5,8ZM8,40.5C5.515,40.5 3.5,38.485 3.5,36L0.5,36C0.5,40.142 3.858,43.5 8,43.5L8,40.5ZM28,3.5C30.485,3.5 32.5,5.515 32.5,8L35.5,8C35.5,3.858 32.142,0.5 28,0.5L28,3.5ZM38,15.5C39.381,15.5 40.5,16.619 40.5,18L43.5,18C43.5,14.962 41.038,12.5 38,12.5L38,15.5ZM8,0.5C3.858,0.5 0.5,3.858 0.5,8L3.5,8C3.5,5.515 5.515,3.5 8,3.5L8,0.5ZM10,13.5L26,13.5L26,10.5L10,10.5L10,13.5ZM10,23.5L26,23.5L26,20.5L10,20.5L10,23.5ZM10,33.5L18,33.5L18,30.5L10,30.5L10,33.5Z" fill="#28303F"/>
</svg>
