<svg width="504" height="42" viewBox="0 0 504 42" fill="none" xmlns="http://www.w3.org/2000/svg" xmlns:xlink="http://www.w3.org/1999/xlink">
<g opacity="0.2">
<path d="M0.667,6C0.667,8.946 3.054,11.333 6,11.333C8.946,11.333 11.333,8.946 11.333,6C11.333,3.054 8.946,0.667 6,0.667C3.054,0.667 0.667,3.054 0.667,6ZM251.53,40L251.53,39L251.53,40ZM492.666,6C492.666,8.946 495.054,11.333 498,11.333C500.946,11.333 503.334,8.946 503.334,6C503.334,3.054 500.946,0.667 498,0.667C495.054,0.667 492.666,3.054 492.666,6ZM6,6C5.778,6.975 5.778,6.975 5.778,6.975C5.778,6.975 5.778,6.975 5.778,6.975C5.778,6.975 5.778,6.975 5.778,6.975C5.778,6.975 5.778,6.975 5.779,6.975C5.779,6.975 5.78,6.976 5.782,6.976C5.784,6.976 5.788,6.977 5.793,6.979C5.804,6.981 5.819,6.984 5.84,6.989C5.881,6.998 5.942,7.012 6.023,7.031C6.186,7.068 6.428,7.122 6.747,7.194C7.386,7.337 8.333,7.549 9.567,7.821L9.998,5.868C8.766,5.596 7.822,5.385 7.186,5.242C6.867,5.171 6.626,5.117 6.465,5.08C6.384,5.062 6.324,5.048 6.283,5.039C6.263,5.034 6.247,5.031 6.237,5.028C6.232,5.027 6.229,5.026 6.226,5.026C6.225,5.026 6.224,5.025 6.223,5.025C6.223,5.025 6.223,5.025 6.223,5.025C6.223,5.025 6.222,5.025 6.222,5.025C6.222,5.025 6.222,5.025 6.222,5.025C6.222,5.025 6.222,5.025 6,6ZM17.089,9.456C19.34,9.938 21.898,10.481 24.735,11.075L25.144,9.117C22.311,8.524 19.757,7.982 17.508,7.5L17.089,9.456ZM32.296,12.641C34.696,13.132 37.233,13.647 39.897,14.182L40.291,12.221C37.63,11.687 35.095,11.172 32.698,10.681L32.296,12.641ZM47.518,15.695C49.978,16.179 52.522,16.674 55.144,17.178L55.522,15.215C52.902,14.71 50.361,14.216 47.904,13.733L47.518,15.695ZM62.772,18.631C65.26,19.1 67.806,19.575 70.406,20.054L70.768,18.088C68.171,17.609 65.628,17.134 63.142,16.666L62.772,18.631ZM78.048,21.448C80.558,21.9 83.11,22.355 85.701,22.811L86.047,20.842C83.46,20.386 80.91,19.932 78.403,19.48L78.048,21.448ZM93.365,24.144C95.888,24.577 98.442,25.01 101.023,25.442L101.353,23.469C98.775,23.038 96.224,22.606 93.704,22.173L93.365,24.144ZM108.669,26.704C111.203,27.116 113.758,27.526 116.334,27.932L116.646,25.957C114.073,25.551 111.521,25.141 108.991,24.73L108.669,26.704ZM124.012,29.126C126.561,29.516 129.125,29.902 131.702,30.283L131.994,28.305C129.42,27.924 126.86,27.539 124.315,27.149L124.012,29.126ZM139.38,31.398C141.933,31.761 144.497,32.119 147.069,32.471L147.34,30.489C144.772,30.138 142.212,29.781 139.662,29.418L139.38,31.398ZM154.769,33.501C157.334,33.836 159.903,34.164 162.475,34.484L162.722,32.5C160.154,32.18 157.589,31.853 155.028,31.518L154.769,33.501ZM170.185,35.418C172.759,35.721 175.333,36.015 177.904,36.299L178.124,34.311C175.558,34.027 172.988,33.734 170.418,33.431L170.185,35.418ZM185.629,37.123C188.21,37.388 190.786,37.642 193.353,37.885L193.541,35.894C190.98,35.652 188.41,35.398 185.834,35.133L185.629,37.123ZM201.096,38.583C203.692,38.805 206.276,39.014 208.848,39.209L209,37.214C206.434,37.02 203.856,36.811 201.266,36.59L201.096,38.583ZM216.6,39.756C219.202,39.925 221.784,40.079 224.348,40.216L224.454,38.219C221.9,38.082 219.324,37.929 216.73,37.76L216.6,39.756ZM232.106,40.582C234.728,40.688 237.324,40.775 239.892,40.841L239.944,38.842C237.386,38.776 234.8,38.689 232.186,38.583L232.106,40.582ZM247.676,40.981C248.97,40.993 250.254,40.999 251.53,41L251.53,39C250.26,38.999 248.982,38.993 247.696,38.981L247.676,40.981ZM251.53,41C252.81,41.001 254.098,40.995 255.396,40.984L255.38,38.984C254.088,38.995 252.804,39.001 251.53,39L251.53,41ZM263.21,40.852C265.788,40.788 268.394,40.703 271.026,40.599L270.946,38.6C268.324,38.704 265.728,38.789 263.16,38.853L263.21,40.852ZM278.814,40.239C281.386,40.103 283.98,39.951 286.59,39.783L286.462,37.787C283.858,37.954 281.274,38.106 278.708,38.241L278.814,40.239ZM294.372,39.24C296.954,39.046 299.548,38.838 302.154,38.617L301.986,36.624C299.386,36.845 296.798,37.052 294.222,37.245L294.372,39.24ZM309.926,37.922C312.504,37.68 315.09,37.427 317.68,37.162L317.478,35.173C314.892,35.437 312.312,35.69 309.74,35.931L309.926,37.922ZM325.434,36.34C328.016,36.056 330.6,35.763 333.184,35.46L332.952,33.474C330.372,33.776 327.792,34.069 325.216,34.352L325.434,36.34ZM340.924,34.528C343.506,34.208 346.084,33.881 348.66,33.545L348.4,31.562C345.83,31.897 343.256,32.224 340.678,32.543L340.924,34.528ZM356.39,32.515C358.97,32.164 361.544,31.806 364.108,31.442L363.826,29.462C361.266,29.825 358.696,30.183 356.12,30.534L356.39,32.515ZM371.816,30.327C374.402,29.946 376.976,29.56 379.534,29.17L379.232,27.193C376.678,27.582 374.108,27.968 371.524,28.349L371.816,30.327ZM387.242,27.975C389.828,27.568 392.394,27.157 394.936,26.745L394.616,24.77C392.076,25.183 389.514,25.592 386.932,25.999L387.242,27.975ZM402.612,25.482C405.202,25.049 407.766,24.615 410.298,24.182L409.962,22.21C407.432,22.644 404.87,23.077 402.282,23.509L402.612,25.482ZM417.992,22.847C420.594,22.39 423.156,21.934 425.676,21.481L425.322,19.513C422.804,19.966 420.244,20.421 417.646,20.877L417.992,22.847ZM433.346,20.085C435.956,19.605 438.512,19.129 441.01,18.66L440.64,16.694C438.144,17.163 435.592,17.639 432.984,18.118L433.346,20.085ZM448.668,17.204C451.3,16.698 453.854,16.202 456.322,15.717L455.936,13.755C453.47,14.238 450.92,14.734 448.29,15.24L448.668,17.204ZM463.972,14.2C466.646,13.664 469.194,13.148 471.602,12.655L471.202,10.696C468.794,11.188 466.25,11.704 463.58,12.239L463.972,14.2ZM479.192,11.086C482.04,10.49 484.608,9.946 486.868,9.462L486.45,7.507C484.192,7.99 481.628,8.533 478.784,9.128L479.192,11.086ZM494.418,7.823C495.658,7.55 496.608,7.338 497.248,7.195C497.57,7.123 497.812,7.068 497.976,7.031C498.056,7.013 498.118,6.999 498.16,6.989C498.18,6.985 498.196,6.981 498.206,6.979C498.212,6.977 498.216,6.977 498.218,6.976C498.22,6.976 498.22,6.975 498.222,6.975C498.222,6.975 498.222,6.975 498.222,6.975C498.222,6.975 498.222,6.975 498.222,6.975C498.222,6.975 498.222,6.975 498.222,6.975C498.222,6.975 498.222,6.975 498,6C497.778,5.025 497.778,5.025 497.778,5.025C497.778,5.025 497.778,5.025 497.778,5.025C497.778,5.025 497.778,5.025 497.778,5.025C497.778,5.025 497.778,5.025 497.776,5.025C497.776,5.025 497.776,5.026 497.774,5.026C497.772,5.026 497.768,5.027 497.762,5.028C497.752,5.031 497.738,5.034 497.716,5.039C497.676,5.048 497.616,5.062 497.534,5.08C497.372,5.117 497.13,5.171 496.81,5.243C496.172,5.386 495.224,5.598 493.988,5.87L494.418,7.823Z" fill="#FFFFFF"/>
</g>
</svg>
