<svg width="40" height="44" viewBox="0 0 40 44" fill="none" xmlns="http://www.w3.org/2000/svg" xmlns:xlink="http://www.w3.org/1999/xlink">
<path d="M4.94,12.053L3.986,10.895L3.986,10.895L4.94,12.053ZM14.94,3.819L13.986,2.661L13.986,2.661L14.94,3.819ZM25.06,3.819L24.107,4.977L24.107,4.977L25.06,3.819ZM35.06,12.053L34.107,13.211L34.107,13.211L35.06,12.053ZM36.5,18.301L36.5,33.934L39.5,33.934L39.5,18.301L36.5,18.301ZM30,40.5L10,40.5L10,43.5L30,43.5L30,40.5ZM3.5,33.934L3.5,18.301L0.5,18.301L0.5,33.934L3.5,33.934ZM5.893,13.211L15.893,4.977L13.986,2.661L3.986,10.895L5.893,13.211ZM24.107,4.977L34.107,13.211L36.014,10.895L26.014,2.661L24.107,4.977ZM15.893,4.977C18.284,3.008 21.716,3.008 24.107,4.977L26.014,2.661C22.515,-0.22 17.485,-0.22 13.986,2.661L15.893,4.977ZM10,40.5C6.422,40.5 3.5,37.572 3.5,33.934L0.5,33.934C0.5,39.205 4.742,43.5 10,43.5L10,40.5ZM36.5,33.934C36.5,37.572 33.578,40.5 30,40.5L30,43.5C35.258,43.5 39.5,39.205 39.5,33.934L36.5,33.934ZM39.5,18.301C39.5,15.433 38.222,12.714 36.014,10.895L34.107,13.211C35.619,14.456 36.5,16.324 36.5,18.301L39.5,18.301ZM3.5,18.301C3.5,16.324 4.381,14.456 5.893,13.211L3.986,10.895C1.778,12.714 0.5,15.433 0.5,18.301L3.5,18.301ZM29.5,42L29.5,34L26.5,34L26.5,42L29.5,42ZM10.5,34L10.5,42L13.5,42L13.5,34L10.5,34ZM20,24.5C14.753,24.5 10.5,28.753 10.5,34L13.5,34C13.5,30.41 16.41,27.5 20,27.5L20,24.5ZM29.5,34C29.5,28.753 25.247,24.5 20,24.5L20,27.5C23.59,27.5 26.5,30.41 26.5,34L29.5,34Z" fill="#505463"/>
</svg>
