<svg width="38" height="38" viewBox="0 0 38 38" fill="none" xmlns="http://www.w3.org/2000/svg" xmlns:xlink="http://www.w3.org/1999/xlink">
<path d="M16.5,21.334C16.5,22.162 17.171,22.834 18,22.834C18.828,22.834 19.5,22.162 19.5,21.334L16.5,21.334ZM19.5,9.667C19.5,8.839 18.828,8.167 18,8.167C17.171,8.167 16.5,8.839 16.5,9.667L19.5,9.667ZM33.166,18.001C33.166,26.377 26.376,33.167 18,33.167L18,36.167C28.033,36.167 36.166,28.034 36.166,18.001L33.166,18.001ZM18,33.167C9.623,33.167 2.833,26.377 2.833,18.001L-0.167,18.001C-0.167,28.034 7.967,36.167 18,36.167L18,33.167ZM2.833,18.001C2.833,9.624 9.623,2.834 18,2.834L18,-0.166C7.967,-0.166 -0.167,7.967 -0.167,18.001L2.833,18.001ZM18,2.834C26.376,2.834 33.166,9.624 33.166,18.001L36.166,18.001C36.166,7.967 28.033,-0.166 18,-0.166L18,2.834ZM19.5,21.334L19.5,9.667L16.5,9.667L16.5,21.334L19.5,21.334Z" fill="#696F82"/>
</svg>
