<svg width="12" height="20" viewBox="0 0 12 20" fill="none" xmlns="http://www.w3.org/2000/svg" xmlns:xlink="http://www.w3.org/1999/xlink">
<path d="M11.414,3.414C12.195,2.633 12.195,1.367 11.414,0.586C10.633,-0.195 9.367,-0.195 8.586,0.586L11.414,3.414ZM2,10L0.586,8.586C-0.195,9.367 -0.195,10.633 0.586,11.414L2,10ZM8.586,19.414C9.367,20.195 10.633,20.195 11.414,19.414C12.195,18.633 12.195,17.367 11.414,16.586L8.586,19.414ZM8.586,0.586L0.586,8.586L3.414,11.414L11.414,3.414L8.586,0.586ZM0.586,11.414L8.586,19.414L11.414,16.586L3.414,8.586L0.586,11.414Z" transform="rotate(360 6 10)" fill="#FFFFFF"/>
</svg>
