<svg width="28" height="16" viewBox="0 0 28 16" fill="none" xmlns="http://www.w3.org/2000/svg" xmlns:xlink="http://www.w3.org/1999/xlink">
<path d="M3.061,0.939C2.475,0.354 1.525,0.354 0.939,0.939C0.354,1.525 0.354,2.475 0.939,3.061L3.061,0.939ZM14,14L12.939,15.061C13.525,15.646 14.475,15.646 15.061,15.061L14,14ZM27.061,3.061C27.646,2.475 27.646,1.525 27.061,0.939C26.475,0.354 25.525,0.354 24.939,0.939L27.061,3.061ZM0.939,3.061L12.939,15.061L15.061,12.939L3.061,0.939L0.939,3.061ZM15.061,15.061L27.061,3.061L24.939,0.939L12.939,12.939L15.061,15.061Z" fill="#9E3840"/>
</svg>
