<svg width="26" height="36" viewBox="0 0 26 36" fill="none" xmlns="http://www.w3.org/2000/svg" xmlns:xlink="http://www.w3.org/1999/xlink">
<path d="M0.273,11.606C-0.313,12.191 -0.313,13.141 0.273,13.727C0.858,14.313 1.808,14.313 2.394,13.727L0.273,11.606ZM12,2L13.061,0.939C12.475,0.353 11.525,0.353 10.939,0.939L12,2ZM21.606,13.727C22.192,14.313 23.142,14.313 23.727,13.727C24.313,13.141 24.313,12.191 23.727,11.606L21.606,13.727ZM10.5,34C10.5,34.828 11.172,35.5 12,35.5C12.828,35.5 13.5,34.828 13.5,34L10.5,34ZM2.394,13.727L13.061,3.06L10.939,0.939L0.273,11.606L2.394,13.727ZM10.939,3.06L21.606,13.727L23.727,11.606L13.061,0.939L10.939,3.06ZM10.5,2L10.5,34L13.5,34L13.5,2L10.5,2Z" transform="rotate(180 12 18)" fill="#FFFFFF"/>
</svg>
