<svg width="40" height="42" viewBox="0 0 40 42" fill="none" xmlns="http://www.w3.org/2000/svg" xmlns:xlink="http://www.w3.org/1999/xlink">
<path d="M36.472,20.953C36.424,21.78 37.056,22.49 37.883,22.537C38.71,22.585 39.419,21.954 39.467,21.127L36.472,20.953ZM23.174,39.24C23.991,39.105 24.544,38.333 24.41,37.516C24.275,36.698 23.503,36.145 22.685,36.28L23.174,39.24ZM3.199,12.5C2.37,12.5 1.699,13.172 1.699,14C1.699,14.828 2.37,15.5 3.199,15.5L3.199,12.5ZM36.799,15.5C37.627,15.5 38.299,14.828 38.299,14C38.299,13.172 37.627,12.5 36.799,12.5L36.799,15.5ZM3.199,24.5C2.37,24.5 1.699,25.172 1.699,26C1.699,26.828 2.37,27.5 3.199,27.5L3.199,24.5ZM24.999,27.5C25.827,27.5 26.499,26.828 26.499,26C26.499,25.172 25.827,24.5 24.999,24.5L24.999,27.5ZM20.271,2.794C20.71,2.091 20.496,1.166 19.793,0.727C19.09,0.289 18.165,0.503 17.726,1.206L20.271,2.794ZM13.843,20L12.343,20L13.843,20ZM17.726,38.794C18.165,39.497 19.09,39.711 19.793,39.273C20.496,38.834 20.71,37.909 20.271,37.206L17.726,38.794ZM22.272,1.206C21.833,0.503 20.908,0.289 20.205,0.728C19.503,1.166 19.288,2.091 19.727,2.794L22.272,1.206ZM24.067,25.716C23.91,26.529 24.442,27.316 25.255,27.473C26.069,27.63 26.855,27.098 27.012,26.284L24.067,25.716ZM35.248,28.832C35.707,28.143 35.521,27.211 34.832,26.752C34.142,26.292 33.211,26.479 32.752,27.168L35.248,28.832ZM30,34L28.752,33.168C28.445,33.628 28.416,34.22 28.677,34.708C28.938,35.196 29.446,35.5 30,35.5L30,34ZM38,34L39.248,34.832C39.555,34.372 39.583,33.78 39.322,33.292C39.061,32.804 38.553,32.5 38,32.5L38,34ZM32.752,39.168C32.292,39.857 32.478,40.789 33.168,41.248C33.857,41.708 34.788,41.521 35.248,40.832L32.752,39.168ZM39.467,21.127C39.7,17.093 38.675,13.086 36.532,9.66L33.989,11.251C35.802,14.15 36.67,17.54 36.472,20.953L39.467,21.127ZM36.532,9.66C34.39,6.234 31.236,3.558 27.507,2.003L26.352,4.772C29.507,6.088 32.176,8.352 33.989,11.251L36.532,9.66ZM27.507,2.003C23.777,0.447 19.657,0.089 15.715,0.977L16.374,3.903C19.71,3.152 23.196,3.455 26.352,4.772L27.507,2.003ZM15.715,0.977C11.773,1.864 8.204,3.955 5.502,6.959L7.732,8.965C10.019,6.423 13.039,4.655 16.374,3.903L15.715,0.977ZM5.502,6.959C2.8,9.963 1.097,13.733 0.63,17.746L3.61,18.093C4.005,14.697 5.446,11.507 7.732,8.965L5.502,6.959ZM0.63,17.746C0.163,21.76 0.955,25.819 2.895,29.364L5.526,27.923C3.885,24.924 3.215,21.489 3.61,18.093L0.63,17.746ZM2.895,29.364C4.835,32.908 7.829,35.762 11.461,37.531L12.775,34.834C9.701,33.337 7.168,30.922 5.526,27.923L2.895,29.364ZM11.461,37.531C15.094,39.301 19.187,39.898 23.174,39.24L22.685,36.28C19.312,36.836 15.849,36.331 12.775,34.834L11.461,37.531ZM3.199,15.5L36.799,15.5L36.799,12.5L3.199,12.5L3.199,15.5ZM3.199,27.5L24.999,27.5L24.999,24.5L3.199,24.5L3.199,27.5ZM17.726,1.206C14.208,6.843 12.343,13.355 12.343,20L15.343,20C15.343,13.916 17.051,7.955 20.271,2.794L17.726,1.206ZM12.343,20C12.343,26.645 14.208,33.157 17.726,38.794L20.271,37.206C17.051,32.045 15.343,26.083 15.343,20L12.343,20ZM19.727,2.794C24.154,9.888 25.594,17.803 24.067,25.716L27.012,26.284C28.685,17.621 27.097,8.936 22.272,1.206L19.727,2.794ZM32.752,27.168L28.752,33.168L31.248,34.832L35.248,28.832L32.752,27.168ZM30,35.5L38,35.5L38,32.5L30,32.5L30,35.5ZM36.752,33.168L32.752,39.168L35.248,40.832L39.248,34.832L36.752,33.168Z" fill="#696F82"/>
</svg>
