<svg width="20" height="10" viewBox="0 0 20 10" fill="none" xmlns="http://www.w3.org/2000/svg" xmlns:xlink="http://www.w3.org/1999/xlink">
<path d="M2.176,0.399C1.78,0.014 1.147,0.023 0.762,0.419C0.377,0.816 0.386,1.449 0.783,1.833L2.176,0.399ZM9.479,8.884L8.783,9.601C9.171,9.978 9.788,9.978 10.176,9.601L9.479,8.884ZM18.176,1.833C18.572,1.449 18.581,0.816 18.197,0.419C17.812,0.023 17.179,0.014 16.783,0.399L18.176,1.833ZM0.783,1.833L8.783,9.601L10.176,8.167L2.176,0.399L0.783,1.833ZM10.176,9.601L18.176,1.833L16.783,0.399L8.783,8.167L10.176,9.601Z" transform="rotate(180 9.479 5)" fill="#696F82"/>
</svg>
