<svg width="40" height="40" viewBox="0 0 40 40" fill="none" xmlns="http://www.w3.org/2000/svg" xmlns:xlink="http://www.w3.org/1999/xlink">
<path d="M26,28L25.706,29.471C26.369,29.604 27.039,29.276 27.342,28.671L26,28ZM12,14L11.329,12.658C10.724,12.961 10.396,13.631 10.529,14.294L12,14ZM12.708,13.646L13.379,14.988L13.379,14.988L12.708,13.646ZM14.633,8.583L16.026,8.026L16.026,8.026L14.633,8.583ZM13.006,4.514L11.613,5.072L11.613,5.072L13.006,4.514ZM35.486,26.994L34.928,28.387L34.928,28.387L35.486,26.994ZM31.417,25.367L31.974,23.974L31.974,23.974L31.417,25.367ZM26.354,27.292L27.696,27.963L27.696,27.963L26.354,27.292ZM28.5,18C28.5,18.828 29.172,19.5 30,19.5C30.828,19.5 31.5,18.828 31.5,18L28.5,18ZM29.391,14.939L30.777,14.364L30.777,14.364L29.391,14.939ZM25.061,10.609L25.635,9.223L25.635,9.223L25.061,10.609ZM22,8.5C21.172,8.5 20.5,9.172 20.5,10C20.5,10.828 21.172,11.5 22,11.5L22,8.5ZM36.5,18C36.5,18.828 37.172,19.5 38,19.5C38.828,19.5 39.5,18.828 39.5,18L36.5,18ZM36.782,11.877L38.168,11.303L38.168,11.303L36.782,11.877ZM28.123,3.218L28.697,1.832L28.697,1.832L28.123,3.218ZM22,0.5C21.172,0.5 20.5,1.172 20.5,2C20.5,2.828 21.172,3.5 22,3.5L22,0.5ZM36.5,30.708L36.5,34L39.5,34L39.5,30.708L36.5,30.708ZM6,3.5L9.292,3.5L9.292,0.5L6,0.5L6,3.5ZM26,28C26.294,26.529 26.295,26.529 26.295,26.529C26.295,26.529 26.295,26.529 26.296,26.529C26.296,26.53 26.297,26.53 26.297,26.53C26.297,26.53 26.298,26.53 26.298,26.53C26.298,26.53 26.296,26.53 26.294,26.529C26.289,26.528 26.28,26.526 26.266,26.523C26.239,26.517 26.193,26.507 26.132,26.492C26.009,26.462 25.821,26.413 25.58,26.342C25.096,26.2 24.403,25.969 23.591,25.621C21.959,24.922 19.888,23.767 18.061,21.939L15.939,24.061C18.112,26.233 20.541,27.578 22.409,28.379C23.347,28.781 24.154,29.05 24.733,29.22C25.023,29.306 25.257,29.366 25.423,29.407C25.506,29.427 25.572,29.442 25.619,29.453C25.643,29.458 25.663,29.462 25.677,29.465C25.684,29.466 25.69,29.468 25.695,29.469C25.697,29.469 25.7,29.47 25.701,29.47C25.702,29.47 25.703,29.47 25.704,29.47C25.704,29.471 25.705,29.471 25.705,29.471C25.705,29.471 25.706,29.471 26,28ZM18.061,21.939C16.234,20.112 15.078,18.041 14.379,16.409C14.031,15.597 13.8,14.904 13.658,14.421C13.587,14.179 13.538,13.991 13.508,13.868C13.493,13.807 13.483,13.761 13.477,13.734C13.474,13.72 13.472,13.711 13.471,13.706C13.47,13.704 13.47,13.702 13.47,13.702C13.47,13.702 13.47,13.703 13.47,13.703C13.47,13.703 13.47,13.704 13.471,13.704C13.471,13.704 13.471,13.705 13.471,13.705C13.471,13.705 13.471,13.706 12,14C10.529,14.294 10.529,14.295 10.529,14.295C10.529,14.295 10.529,14.296 10.53,14.296C10.53,14.297 10.53,14.298 10.53,14.299C10.53,14.3 10.531,14.303 10.531,14.305C10.532,14.31 10.534,14.316 10.535,14.323C10.538,14.337 10.542,14.357 10.547,14.381C10.558,14.428 10.573,14.494 10.593,14.577C10.634,14.743 10.694,14.977 10.78,15.267C10.95,15.846 11.219,16.653 11.621,17.591C12.422,19.459 13.766,21.888 15.939,24.061L18.061,21.939ZM12.671,15.342L13.379,14.988L12.037,12.304L11.329,12.658L12.671,15.342ZM16.026,8.026L14.398,3.957L11.613,5.072L13.24,9.14L16.026,8.026ZM36.043,25.602L31.974,23.974L30.86,26.76L34.928,28.387L36.043,25.602ZM25.012,26.621L24.658,27.329L27.342,28.671L27.696,27.963L25.012,26.621ZM31.974,23.974C29.318,22.912 26.292,24.063 25.012,26.621L27.696,27.963C28.277,26.8 29.653,26.277 30.86,26.76L31.974,23.974ZM13.379,14.988C15.937,13.708 17.088,10.682 16.026,8.026L13.24,9.14C13.723,10.347 13.2,11.723 12.037,12.304L13.379,14.988ZM9.292,3.5C10.314,3.5 11.233,4.122 11.613,5.072L14.398,3.957C13.563,1.869 11.541,0.5 9.292,0.5L9.292,3.5ZM39.5,30.708C39.5,28.459 38.131,26.437 36.043,25.602L34.928,28.387C35.878,28.767 36.5,29.686 36.5,30.708L39.5,30.708ZM34,36.5C17.155,36.5 3.5,22.845 3.5,6L0.5,6C0.5,24.502 15.498,39.5 34,39.5L34,36.5ZM34,39.5C37.038,39.5 39.5,37.038 39.5,34L36.5,34C36.5,35.381 35.381,36.5 34,36.5L34,39.5ZM3.5,6C3.5,4.619 4.619,3.5 6,3.5L6,0.5C2.962,0.5 0.5,2.962 0.5,6L3.5,6ZM31.5,18C31.5,16.752 31.254,15.517 30.777,14.364L28.005,15.513C28.332,16.301 28.5,17.146 28.5,18L31.5,18ZM30.777,14.364C30.299,13.212 29.6,12.165 28.718,11.282L26.596,13.404C27.2,14.007 27.679,14.724 28.005,15.513L30.777,14.364ZM28.718,11.282C27.835,10.4 26.788,9.701 25.635,9.223L24.487,11.995C25.276,12.321 25.993,12.8 26.596,13.404L28.718,11.282ZM25.635,9.223C24.483,8.746 23.248,8.5 22,8.5L22,11.5C22.854,11.5 23.699,11.668 24.487,11.995L25.635,9.223ZM39.5,18C39.5,15.702 39.047,13.426 38.168,11.303L35.396,12.451C36.125,14.21 36.5,16.096 36.5,18L39.5,18ZM38.168,11.303C37.288,9.18 35.999,7.251 34.374,5.626L32.253,7.747C33.599,9.093 34.668,10.692 35.396,12.451L38.168,11.303ZM34.374,5.626C32.749,4.001 30.82,2.712 28.697,1.832L27.549,4.604C29.308,5.332 30.907,6.4 32.253,7.747L34.374,5.626ZM28.697,1.832C26.574,0.953 24.298,0.5 22,0.5L22,3.5C23.904,3.5 25.79,3.875 27.549,4.604L28.697,1.832Z" fill="#696F82"/>
</svg>
