<svg width="44" height="44" viewBox="0 0 44 44" fill="none" xmlns="http://www.w3.org/2000/svg" xmlns:xlink="http://www.w3.org/1999/xlink">
<path d="M23.999,2.166C23.999,1.061 23.104,0.166 21.999,0.166C20.895,0.166 19.999,1.061 19.999,2.166L23.999,2.166ZM19.999,41.833C19.999,42.937 20.895,43.833 21.999,43.833C23.104,43.833 23.999,42.937 23.999,41.833L19.999,41.833ZM2.166,19.999C1.061,19.999 0.166,20.895 0.166,21.999C0.166,23.104 1.061,23.999 2.166,23.999L2.166,19.999ZM41.833,23.999C42.937,23.999 43.833,23.104 43.833,21.999C43.833,20.895 42.937,19.999 41.833,19.999L41.833,23.999ZM19.999,2.166L19.999,41.833L23.999,41.833L23.999,2.166L19.999,2.166ZM2.166,23.999L41.833,23.999L41.833,19.999L2.166,19.999L2.166,23.999Z" fill="#9E3840"/>
</svg>
