<svg width="494" height="36" viewBox="0 0 494 36" fill="none" xmlns="http://www.w3.org/2000/svg" xmlns:xlink="http://www.w3.org/1999/xlink">
<g opacity="0.2">
<path d="M245.53,34L245.53,33L245.53,34ZM0,0C-0.222,0.975 -0.222,0.975 -0.222,0.975C-0.222,0.975 -0.222,0.975 -0.222,0.975C-0.222,0.975 -0.222,0.975 -0.222,0.975C-0.222,0.975 -0.222,0.975 -0.221,0.975C-0.221,0.975 -0.22,0.976 -0.218,0.976C-0.216,0.976 -0.212,0.977 -0.207,0.979C-0.196,0.981 -0.181,0.984 -0.16,0.989C-0.119,0.998 -0.058,1.012 0.023,1.031C0.186,1.068 0.428,1.122 0.747,1.194C1.386,1.337 2.333,1.549 3.567,1.821L3.998,-0.132C2.766,-0.404 1.822,-0.615 1.186,-0.758C0.867,-0.829 0.626,-0.883 0.465,-0.92C0.384,-0.938 0.324,-0.952 0.283,-0.961C0.263,-0.966 0.247,-0.969 0.237,-0.972C0.232,-0.973 0.229,-0.974 0.226,-0.974C0.225,-0.974 0.224,-0.975 0.223,-0.975C0.223,-0.975 0.223,-0.975 0.223,-0.975C0.223,-0.975 0.222,-0.975 0.222,-0.975C0.222,-0.975 0.222,-0.975 0.222,-0.975C0.222,-0.975 0.222,-0.975 0,0ZM11.089,3.456C13.34,3.938 15.898,4.481 18.735,5.075L19.144,3.117C16.311,2.524 13.757,1.982 11.508,1.5L11.089,3.456ZM26.296,6.641C28.696,7.132 31.233,7.647 33.897,8.182L34.291,6.221C31.63,5.687 29.095,5.172 26.698,4.681L26.296,6.641ZM41.518,9.695C43.978,10.179 46.522,10.674 49.144,11.178L49.522,9.215C46.902,8.71 44.361,8.216 41.904,7.733L41.518,9.695ZM56.772,12.631C59.26,13.1 61.806,13.575 64.406,14.055L64.768,12.088C62.171,11.609 59.628,11.134 57.142,10.666L56.772,12.631ZM72.048,15.448C74.558,15.9 77.11,16.355 79.701,16.811L80.047,14.842C77.46,14.386 74.91,13.932 72.403,13.48L72.048,15.448ZM87.365,18.144C89.888,18.577 92.442,19.01 95.023,19.442L95.353,17.469C92.775,17.038 90.224,16.606 87.704,16.173L87.365,18.144ZM102.669,20.704C105.203,21.116 107.758,21.526 110.334,21.932L110.646,19.957C108.073,19.551 105.521,19.141 102.991,18.73L102.669,20.704ZM118.012,23.126C120.561,23.516 123.125,23.902 125.702,24.283L125.994,22.305C123.42,21.924 120.86,21.539 118.315,21.149L118.012,23.126ZM133.38,25.398C135.933,25.761 138.497,26.119 141.069,26.471L141.34,24.489C138.772,24.138 136.212,23.781 133.662,23.418L133.38,25.398ZM148.769,27.501C151.334,27.836 153.903,28.164 156.475,28.484L156.722,26.5C154.154,26.18 151.589,25.853 149.028,25.518L148.769,27.501ZM164.185,29.418C166.759,29.721 169.333,30.015 171.904,30.299L172.124,28.311C169.558,28.027 166.988,27.734 164.418,27.431L164.185,29.418ZM179.629,31.123C182.21,31.388 184.786,31.642 187.353,31.885L187.541,29.894C184.98,29.652 182.41,29.398 179.834,29.133L179.629,31.123ZM195.096,32.583C197.692,32.805 200.276,33.014 202.848,33.209L203,31.214C200.434,31.02 197.856,30.811 195.266,30.59L195.096,32.583ZM210.6,33.756C213.202,33.925 215.784,34.079 218.348,34.216L218.454,32.219C215.9,32.082 213.324,31.929 210.73,31.76L210.6,33.756ZM226.106,34.582C228.728,34.688 231.324,34.775 233.892,34.841L233.944,32.842C231.386,32.776 228.8,32.689 226.186,32.583L226.106,34.582ZM241.676,34.981C242.97,34.993 244.254,34.999 245.53,35L245.53,33C244.26,32.999 242.982,32.993 241.696,32.981L241.676,34.981ZM245.53,35C246.81,35.001 248.098,34.995 249.396,34.984L249.38,32.984C248.088,32.995 246.804,33.001 245.53,33L245.53,35ZM257.21,34.852C259.788,34.788 262.394,34.703 265.026,34.599L264.946,32.6C262.324,32.704 259.728,32.789 257.16,32.853L257.21,34.852ZM272.814,34.239C275.386,34.103 277.98,33.951 280.59,33.783L280.462,31.787C277.858,31.954 275.274,32.106 272.708,32.241L272.814,34.239ZM288.372,33.24C290.954,33.046 293.548,32.838 296.154,32.617L295.986,30.624C293.386,30.845 290.798,31.052 288.222,31.245L288.372,33.24ZM303.926,31.922C306.504,31.68 309.09,31.427 311.68,31.162L311.478,29.173C308.892,29.437 306.312,29.69 303.74,29.931L303.926,31.922ZM319.434,30.34C322.016,30.056 324.6,29.763 327.184,29.46L326.952,27.474C324.372,27.776 321.792,28.069 319.216,28.352L319.434,30.34ZM334.924,28.528C337.506,28.208 340.084,27.881 342.66,27.545L342.4,25.562C339.83,25.897 337.256,26.224 334.678,26.543L334.924,28.528ZM350.39,26.515C352.97,26.164 355.544,25.806 358.108,25.442L357.826,23.462C355.266,23.825 352.696,24.183 350.12,24.534L350.39,26.515ZM365.816,24.327C368.402,23.946 370.976,23.56 373.534,23.17L373.232,21.193C370.678,21.582 368.108,21.968 365.524,22.349L365.816,24.327ZM381.242,21.975C383.828,21.568 386.394,21.157 388.936,20.745L388.616,18.771C386.076,19.183 383.514,19.592 380.932,19.999L381.242,21.975ZM396.612,19.482C399.202,19.049 401.766,18.615 404.298,18.182L403.962,16.21C401.432,16.644 398.87,17.077 396.282,17.509L396.612,19.482ZM411.992,16.847C414.594,16.39 417.156,15.934 419.676,15.481L419.322,13.513C416.804,13.966 414.244,14.421 411.646,14.877L411.992,16.847ZM427.346,14.085C429.956,13.605 432.512,13.129 435.01,12.66L434.64,10.694C432.144,11.163 429.592,11.639 426.984,12.118L427.346,14.085ZM442.668,11.204C445.3,10.698 447.854,10.202 450.322,9.717L449.936,7.755C447.47,8.238 444.92,8.734 442.29,9.24L442.668,11.204ZM457.972,8.2C460.646,7.664 463.194,7.148 465.602,6.655L465.202,4.696C462.794,5.188 460.25,5.704 457.58,6.239L457.972,8.2ZM473.192,5.086C476.04,4.49 478.608,3.946 480.868,3.462L480.45,1.507C478.192,1.99 475.628,2.533 472.784,3.128L473.192,5.086ZM488.418,1.823C489.658,1.55 490.608,1.338 491.248,1.195C491.57,1.123 491.812,1.068 491.976,1.031C492.056,1.013 492.118,0.999 492.16,0.989C492.18,0.985 492.196,0.981 492.206,0.979C492.212,0.977 492.216,0.977 492.218,0.976C492.22,0.976 492.22,0.975 492.222,0.975C492.222,0.975 492.222,0.975 492.222,0.975C492.222,0.975 492.222,0.975 492.222,0.975C492.222,0.975 492.222,0.975 492.222,0.975C492.222,0.975 492.222,0.975 492,0C491.778,-0.975 491.778,-0.975 491.778,-0.975C491.778,-0.975 491.778,-0.975 491.778,-0.975C491.778,-0.975 491.778,-0.975 491.778,-0.975C491.778,-0.975 491.778,-0.975 491.776,-0.975C491.776,-0.975 491.776,-0.974 491.774,-0.974C491.772,-0.974 491.768,-0.973 491.762,-0.972C491.752,-0.969 491.738,-0.966 491.716,-0.961C491.676,-0.952 491.616,-0.938 491.534,-0.92C491.372,-0.883 491.13,-0.829 490.81,-0.757C490.172,-0.614 489.224,-0.402 487.988,-0.13L488.418,1.823Z" fill="#FFFFFF"/>
</g>
</svg>
