<svg width="44" height="44" viewBox="0 0 44 44" fill="none" xmlns="http://www.w3.org/2000/svg" xmlns:xlink="http://www.w3.org/1999/xlink">
<path d="M9,10.5C8.172,10.5 7.5,11.172 7.5,12C7.5,12.828 8.172,13.5 9,13.5L9,10.5ZM25,13.5C25.828,13.5 26.5,12.828 26.5,12C26.5,11.172 25.828,10.5 25,10.5L25,13.5ZM9,20.5C8.172,20.5 7.5,21.172 7.5,22C7.5,22.828 8.172,23.5 9,23.5L9,20.5ZM25,23.5C25.828,23.5 26.5,22.828 26.5,22C26.5,21.172 25.828,20.5 25,20.5L25,23.5ZM9,30.5C8.172,30.5 7.5,31.172 7.5,32C7.5,32.828 8.172,33.5 9,33.5L9,30.5ZM17,33.5C17.828,33.5 18.5,32.828 18.5,32C18.5,31.172 17.828,30.5 17,30.5L17,33.5ZM7,3.5L27,3.5L27,0.5L7,0.5L7,3.5ZM37,40.5L7,40.5L7,43.5L37,43.5L37,40.5ZM2.5,36L2.5,8L-0.5,8L-0.5,36L2.5,36ZM33,15.5L37,15.5L37,12.5L33,12.5L33,15.5ZM39.5,18L39.5,38L42.5,38L42.5,18L39.5,18ZM34.5,38L34.5,14L31.5,14L31.5,38L34.5,38ZM37,40.5C35.619,40.5 34.5,39.381 34.5,38L31.5,38C31.5,41.038 33.962,43.5 37,43.5L37,40.5ZM39.5,38C39.5,39.381 38.381,40.5 37,40.5L37,43.5C40.038,43.5 42.5,41.038 42.5,38L39.5,38ZM31.5,8L31.5,14L34.5,14L34.5,8L31.5,8ZM7,40.5C4.515,40.5 2.5,38.485 2.5,36L-0.5,36C-0.5,40.142 2.858,43.5 7,43.5L7,40.5ZM27,3.5C29.485,3.5 31.5,5.515 31.5,8L34.5,8C34.5,3.858 31.142,0.5 27,0.5L27,3.5ZM37,15.5C38.381,15.5 39.5,16.619 39.5,18L42.5,18C42.5,14.962 40.038,12.5 37,12.5L37,15.5ZM7,0.5C2.858,0.5 -0.5,3.858 -0.5,8L2.5,8C2.5,5.515 4.515,3.5 7,3.5L7,0.5ZM9,13.5L25,13.5L25,10.5L9,10.5L9,13.5ZM9,23.5L25,23.5L25,20.5L9,20.5L9,23.5ZM9,33.5L17,33.5L17,30.5L9,30.5L9,33.5Z" fill="#505463"/>
</svg>
