<svg width="36" height="40" viewBox="0 0 36 40" fill="none" xmlns="http://www.w3.org/2000/svg" xmlns:xlink="http://www.w3.org/1999/xlink">
<path d="M8.4,37.2L9.3,38.4L9.3,38.4L8.4,37.2ZM15.6,31.8L14.7,30.6L14.7,30.6L15.6,31.8ZM20.4,31.8L21.3,30.6L21.3,30.6L20.4,31.8ZM27.6,37.2L26.7,38.4L26.7,38.4L27.6,37.2ZM2,10.5C1.172,10.5 0.5,11.172 0.5,12C0.5,12.828 1.172,13.5 2,13.5L2,10.5ZM34,13.5C34.828,13.5 35.5,12.828 35.5,12C35.5,11.172 34.828,10.5 34,10.5L34,13.5ZM0.5,6L0.5,34L3.5,34L3.5,6L0.5,6ZM9.3,38.4L16.5,33L14.7,30.6L7.5,36L9.3,38.4ZM19.5,33L26.7,38.4L28.5,36L21.3,30.6L19.5,33ZM35.5,34L35.5,6L32.5,6L32.5,34L35.5,34ZM30,0.5L6,0.5L6,3.5L30,3.5L30,0.5ZM35.5,6C35.5,2.962 33.038,0.5 30,0.5L30,3.5C31.381,3.5 32.5,4.619 32.5,6L35.5,6ZM26.7,38.4C30.326,41.119 35.5,38.532 35.5,34L32.5,34C32.5,36.06 30.148,37.236 28.5,36L26.7,38.4ZM16.5,33C17.389,32.333 18.611,32.333 19.5,33L21.3,30.6C19.344,29.133 16.656,29.133 14.7,30.6L16.5,33ZM0.5,34C0.5,38.532 5.674,41.119 9.3,38.4L7.5,36C5.852,37.236 3.5,36.06 3.5,34L0.5,34ZM3.5,6C3.5,4.619 4.619,3.5 6,3.5L6,0.5C2.962,0.5 0.5,2.962 0.5,6L3.5,6ZM2,13.5L34,13.5L34,10.5L2,10.5L2,13.5Z" fill="#505463"/>
</svg>
