<svg width="38" height="38" viewBox="0 0 38 38" fill="none" xmlns="http://www.w3.org/2000/svg" xmlns:xlink="http://www.w3.org/1999/xlink">
<path d="M21.654,23.775C22.24,24.361 23.19,24.361 23.775,23.775C24.361,23.19 24.361,22.24 23.775,21.654L21.654,23.775ZM14.347,12.226C13.761,11.64 12.812,11.64 12.226,12.226C11.64,12.812 11.64,13.761 12.226,14.347L14.347,12.226ZM12.226,21.654C11.64,22.24 11.64,23.19 12.226,23.775C12.812,24.361 13.761,24.361 14.347,23.775L12.226,21.654ZM23.775,14.347C24.361,13.761 24.361,12.812 23.775,12.226C23.19,11.64 22.24,11.64 21.654,12.226L23.775,14.347ZM23.775,21.654L14.347,12.226L12.226,14.347L21.654,23.775L23.775,21.654ZM14.347,23.775L23.775,14.347L21.654,12.226L12.226,21.654L14.347,23.775ZM18.001,36.167C28.034,36.167 36.167,28.034 36.167,18.001L33.167,18.001C33.167,26.377 26.377,33.167 18.001,33.167L18.001,36.167ZM-0.166,18.001C-0.166,28.034 7.967,36.167 18.001,36.167L18.001,33.167C9.624,33.167 2.834,26.377 2.834,18.001L-0.166,18.001ZM18.001,-0.166C7.967,-0.166 -0.166,7.967 -0.166,18.001L2.834,18.001C2.834,9.624 9.624,2.834 18.001,2.834L18.001,-0.166ZM18.001,2.834C26.377,2.834 33.167,9.624 33.167,18.001L36.167,18.001C36.167,7.967 28.034,-0.166 18.001,-0.166L18.001,2.834Z" fill="#CC102D"/>
</svg>
