<svg width="26" height="36" viewBox="0 0 26 36" fill="none" xmlns="http://www.w3.org/2000/svg" xmlns:xlink="http://www.w3.org/1999/xlink">
<path d="M0.273,11.607C-0.313,12.192 -0.313,13.142 0.273,13.728C0.858,14.314 1.808,14.314 2.394,13.728L0.273,11.607ZM12,2.001L13.061,0.94C12.475,0.354 11.525,0.354 10.939,0.94L12,2.001ZM21.606,13.728C22.192,14.314 23.142,14.314 23.727,13.728C24.313,13.142 24.313,12.192 23.727,11.607L21.606,13.728ZM10.5,34.001C10.5,34.829 11.172,35.501 12,35.501C12.828,35.501 13.5,34.829 13.5,34.001L10.5,34.001ZM2.394,13.728L13.061,3.061L10.939,0.94L0.273,11.607L2.394,13.728ZM10.939,3.061L21.606,13.728L23.727,11.607L13.061,0.94L10.939,3.061ZM10.5,2.001L10.5,34.001L13.5,34.001L13.5,2.001L10.5,2.001Z" transform="rotate(180 12 18.001)" fill="#FFFFFF"/>
</svg>
