<svg width="38" height="38" viewBox="0 0 38 38" fill="none" xmlns="http://www.w3.org/2000/svg" xmlns:xlink="http://www.w3.org/1999/xlink">
<path d="M16.501,21.334C16.501,22.162 17.172,22.834 18.001,22.834C18.829,22.834 19.501,22.162 19.501,21.334L16.501,21.334ZM19.501,9.667C19.501,8.839 18.829,8.167 18.001,8.167C17.172,8.167 16.501,8.839 16.501,9.667L19.501,9.667ZM33.167,18.001C33.167,26.377 26.377,33.167 18.001,33.167L18.001,36.167C28.034,36.167 36.167,28.034 36.167,18.001L33.167,18.001ZM18.001,33.167C9.624,33.167 2.834,26.377 2.834,18.001L-0.166,18.001C-0.166,28.034 7.967,36.167 18.001,36.167L18.001,33.167ZM2.834,18.001C2.834,9.624 9.624,2.834 18.001,2.834L18.001,-0.166C7.967,-0.166 -0.166,7.967 -0.166,18.001L2.834,18.001ZM18.001,2.834C26.377,2.834 33.167,9.624 33.167,18.001L36.167,18.001C36.167,7.967 28.034,-0.166 18.001,-0.166L18.001,2.834ZM19.501,21.334L19.501,9.667L16.501,9.667L16.501,21.334L19.501,21.334Z" fill="#696F82"/>
</svg>
