<svg width="44" height="40" viewBox="0 0 44 40" fill="none" xmlns="http://www.w3.org/2000/svg" xmlns:xlink="http://www.w3.org/1999/xlink">
<path d="M35.082,3.445L33.954,4.435L33.954,4.435L35.082,3.445ZM40.926,10.103L42.053,9.113L42.053,9.113L40.926,10.103ZM41.118,15.59L42.313,16.497L42.313,16.497L41.118,15.59ZM25.371,36.319L24.176,35.412L24.176,35.412L25.371,36.319ZM18.629,36.319L19.824,35.412L19.824,35.412L18.629,36.319ZM2.882,15.59L1.687,16.497L1.687,16.497L2.882,15.59ZM3.074,10.103L4.201,11.093L4.201,11.093L3.074,10.103ZM8.918,3.445L7.791,2.456L7.791,2.456L8.918,3.445ZM41.137,14.266C41.965,14.266 42.637,13.594 42.637,12.766C42.637,11.937 41.965,11.266 41.137,11.266L41.137,14.266ZM22,37.527L20.581,38.014C20.789,38.62 21.359,39.027 22,39.027C22.641,39.027 23.211,38.62 23.419,38.014L22,37.527ZM2.863,11.266C2.035,11.266 1.363,11.937 1.363,12.766C1.363,13.594 2.035,14.266 2.863,14.266L2.863,11.266ZM33.954,4.435L39.799,11.093L42.053,9.113L36.209,2.456L33.954,4.435ZM39.924,14.682L24.176,35.412L26.565,37.227L42.313,16.497L39.924,14.682ZM19.824,35.412L4.076,14.682L1.687,16.497L17.435,37.227L19.824,35.412ZM4.201,11.093L10.046,4.435L7.791,2.456L1.947,9.113L4.201,11.093ZM26.253,3.5L31.903,3.5L31.903,0.5L26.253,0.5L26.253,3.5ZM30.505,14.266L41.137,14.266L41.137,11.266L30.505,11.266L30.505,14.266ZM24.858,2.551L29.11,13.317L31.9,12.215L27.648,1.449L24.858,2.551ZM23.419,38.014L31.924,13.253L29.087,12.278L20.581,37.04L23.419,38.014ZM12.097,3.5L18.22,3.5L18.22,0.5L12.097,0.5L12.097,3.5ZM18.22,3.5L26.253,3.5L26.253,0.5L18.22,0.5L18.22,3.5ZM2.863,14.266L13.495,14.266L13.495,11.266L2.863,11.266L2.863,14.266ZM13.495,14.266L30.505,14.266L30.505,11.266L13.495,11.266L13.495,14.266ZM16.846,1.397L12.121,12.163L14.868,13.369L19.593,2.603L16.846,1.397ZM23.419,37.04L14.913,12.278L12.076,13.253L20.581,38.014L23.419,37.04ZM4.076,14.682C3.262,13.611 3.316,12.101 4.201,11.093L1.947,9.113C0.12,11.195 0.012,14.291 1.687,16.497L4.076,14.682ZM24.176,35.412C23.074,36.863 20.926,36.863 19.824,35.412L17.435,37.227C19.737,40.258 24.263,40.258 26.565,37.227L24.176,35.412ZM39.799,11.093C40.684,12.101 40.738,13.611 39.924,14.682L42.313,16.497C43.988,14.291 43.88,11.195 42.053,9.113L39.799,11.093ZM36.209,2.456C35.119,1.215 33.553,0.5 31.903,0.5L31.903,3.5C32.683,3.5 33.43,3.837 33.954,4.435L36.209,2.456ZM10.046,4.435C10.57,3.837 11.317,3.5 12.097,3.5L12.097,0.5C10.447,0.5 8.881,1.215 7.791,2.456L10.046,4.435Z" fill="#28303F"/>
</svg>
