<svg width="20" height="20" viewBox="0 0 20 20" fill="none" xmlns="http://www.w3.org/2000/svg" xmlns:xlink="http://www.w3.org/1999/xlink">
<path d="M19.546,2.575C20.132,1.99 20.132,1.04 19.546,0.454C18.96,-0.132 18.01,-0.132 17.425,0.454L19.546,2.575ZM0.454,17.425C-0.132,18.01 -0.132,18.96 0.454,19.546C1.04,20.132 1.99,20.132 2.575,19.546L0.454,17.425ZM17.425,19.546C18.01,20.132 18.96,20.132 19.546,19.546C20.132,18.96 20.132,18.01 19.546,17.425L17.425,19.546ZM2.575,0.454C1.99,-0.132 1.04,-0.132 0.454,0.454C-0.132,1.04 -0.132,1.99 0.454,2.575L2.575,0.454ZM17.425,0.454L0.454,17.425L2.575,19.546L19.546,2.575L17.425,0.454ZM19.546,17.425L2.575,0.454L0.454,2.575L17.425,19.546L19.546,17.425Z" fill="#505463"/>
</svg>
