<svg width="36" height="40" viewBox="0 0 36 40" fill="none" xmlns="http://www.w3.org/2000/svg" xmlns:xlink="http://www.w3.org/1999/xlink">
<path d="M2,8C0.895,8 0,8.895 0,10C0,11.105 0.895,12 2,12L2,8ZM34,12C35.105,12 36,11.105 36,10C36,8.895 35.105,8 34,8L34,12ZM16,18C16,16.895 15.105,16 14,16C12.895,16 12,16.895 12,18L16,18ZM12,30C12,31.105 12.895,32 14,32C15.105,32 16,31.105 16,30L12,30ZM24,18C24,16.895 23.105,16 22,16C20.895,16 20,16.895 20,18L24,18ZM20,30C20,31.105 20.895,32 22,32C23.105,32 24,31.105 24,30L20,30ZM5.993,9.834C5.901,8.733 4.935,7.915 3.834,8.007C2.733,8.099 1.915,9.065 2.007,10.166L5.993,9.834ZM6,34L8,34C8,33.945 7.998,33.889 7.993,33.834L6,34ZM30,34L28.007,33.834C28.002,33.889 28,33.945 28,34L30,34ZM33.993,10.166C34.085,9.065 33.267,8.099 32.166,8.007C31.065,7.915 30.099,8.733 30.007,9.834L33.993,10.166ZM10,10C10,11.105 10.895,12 12,12C13.105,12 14,11.105 14,10L10,10ZM14,2L14,0L14,2ZM22,2L22,0L22,2ZM22,10C22,11.105 22.895,12 24,12C25.105,12 26,11.105 26,10L22,10ZM2,12L34,12L34,8L2,8L2,12ZM12,18L12,30L16,30L16,18L12,18ZM20,18L20,30L24,30L24,18L20,18ZM2.007,10.166L4.007,34.166L7.993,33.834L5.993,9.834L2.007,10.166ZM4,34C4,35.591 4.632,37.117 5.757,38.243L8.586,35.414C8.211,35.039 8,34.53 8,34L4,34ZM5.757,38.243C6.883,39.368 8.409,40 10,40L10,36C9.47,36 8.961,35.789 8.586,35.414L5.757,38.243ZM10,40L26,40L26,36L10,36L10,40ZM26,40C27.591,40 29.117,39.368 30.243,38.243L27.414,35.414C27.039,35.789 26.53,36 26,36L26,40ZM30.243,38.243C31.368,37.117 32,35.591 32,34L28,34C28,34.53 27.789,35.039 27.414,35.414L30.243,38.243ZM31.993,34.166L33.993,10.166L30.007,9.834L28.007,33.834L31.993,34.166ZM14,10L14,4L10,4L10,10L14,10ZM14,4L14,4L11.172,1.172C10.421,1.922 10,2.939 10,4L14,4ZM14,4L14,4L14,0C12.939,0 11.922,0.421 11.172,1.172L14,4ZM14,4L22,4L22,0L14,0L14,4ZM22,4L22,4L24.828,1.172C24.078,0.421 23.061,0 22,0L22,4ZM22,4L22,4L26,4C26,2.939 25.579,1.922 24.828,1.172L22,4ZM22,4L22,10L26,10L26,4L22,4Z" fill="#696F82"/>
</svg>
