<svg width="28" height="28" viewBox="0 0 28 28" fill="none" xmlns="http://www.w3.org/2000/svg">
<circle cx="14" cy="14" r="13.5" fill="white" stroke="#ECC3C1"/>
<g clip-path="url(#clip0_154_4363)">
<path d="M19.7619 20.5254H5V23.6702H19.7619V20.5254Z" fill="#FDC00F"/>
<path d="M9.5812 20.5254H6.52002V23.6702H9.5812V20.5254Z" fill="#FFF2CF"/>
<path d="M10.6539 20.5254H10.0254V23.6702H10.6539V20.5254Z" fill="#FFF2CF"/>
<path d="M21.3332 17.3799H6.57129V20.5247H21.3332V17.3799Z" fill="#16B6C6"/>
<path d="M11.1525 17.3799H8.09131V20.5247H11.1525V17.3799Z" fill="#118995"/>
<path d="M12.2223 17.3799H11.5938V20.5247H12.2223V17.3799Z" fill="#118995"/>
<path d="M20.7683 14.2354H6.00635V17.3801H20.7683V14.2354Z" fill="#184F78"/>
<path d="M10.5905 14.2354H7.5293V17.3801H10.5905V14.2354Z" fill="#D1DCE4"/>
<path d="M11.6603 14.2354H11.0317V17.3801H11.6603V14.2354Z" fill="#D1DCE4"/>
<path d="M15.7671 6.95046C14.9149 7.67956 13.4855 7.64149 13.4855 7.64149C13.4855 7.64149 13.4402 6.42047 14.2954 5.69137C15.1476 4.96227 16.5769 5.00034 16.5769 5.00034C16.5769 5.00034 16.6222 6.22136 15.7671 6.95046Z" fill="#184F78"/>
<path d="M16.2053 5.31641C16.2053 5.31641 16.0874 5.46574 15.885 5.67071C15.6855 5.87567 15.4045 6.1392 15.1114 6.39102C14.8182 6.64284 14.51 6.88001 14.2682 7.05277C14.0295 7.22553 13.8542 7.32509 13.8542 7.32509C13.8542 7.32509 13.9721 7.17575 14.1746 6.97079C14.374 6.76582 14.655 6.50229 14.9482 6.25047C15.2413 5.99865 15.5495 5.76148 15.7913 5.59165C16.03 5.41889 16.2053 5.31933 16.2053 5.31933V5.31641Z" fill="#467293"/>
<path d="M13.4856 7.59433C10.1706 6.76567 8.65359 8.88562 9.26703 11.193C9.74751 13.0084 11.4247 14.6511 13.4856 14.1445C15.5495 14.6511 17.2237 13.0084 17.7042 11.193C18.3146 8.88562 16.8006 6.76567 13.4856 7.59433Z" fill="#FC611F"/>
<path opacity="0.2" d="M5 20.5244H19.7619V21.2154L5 20.5244Z" fill="black"/>
<path opacity="0.2" d="M6.57129 17.3799H21.3332V18.0738L6.57129 17.3799Z" fill="black"/>
<path opacity="0.3" d="M11.6301 14.0215C11.6119 13.84 11.6029 13.6526 11.6029 13.4652C11.6029 10.7596 13.3374 8.44933 15.7882 7.51527C15.1596 7.36008 14.3921 7.36593 13.4885 7.5914C10.1735 6.76274 8.65652 8.88269 9.26996 11.19C9.59633 12.4169 10.4666 13.5618 11.6331 14.0215H11.6301Z" fill="white"/>
</g>
<defs>
<clipPath id="clip0_154_4363">
<rect width="16.3333" height="18.6667" fill="white" transform="translate(5 5)"/>
</clipPath>
</defs>
</svg>
