<svg width="20" height="31" viewBox="0 0 20 31" fill="none" xmlns="http://www.w3.org/2000/svg">
<mask id="mask0_81_915" style="mask-type:luminance" maskUnits="userSpaceOnUse" x="-8" y="-2" width="34" height="33">
<path d="M24.5469 14.8597C24.5469 23.4952 17.5465 30.4956 8.91097 30.4956C0.275477 30.4956 -6.72497 23.4952 -6.72497 14.8597C-6.72497 6.22417 0.275478 -0.776281 8.91097 -0.776281C17.5465 -0.776281 24.5469 6.22417 24.5469 14.8597Z" fill="white" stroke="white"/>
</mask>
<g mask="url(#mask0_81_915)">
<path d="M13.1672 5.18524C14.7022 4.71111 16.7563 5.54283 19.2122 7.38726C19.2736 7.43317 19.3596 7.37932 19.3451 7.30383C19.0007 5.53223 18.1112 4.10278 16.3369 3.22824C16.8561 2.8914 17.5037 3.18718 18.1911 3.68074C18.2635 3.73239 18.3566 3.65116 18.3143 3.57302C17.4079 1.9087 16.0623 0.979866 14.1411 1.0143C14.1671 0.629786 14.6015 0.373737 15.2077 0.171989C15.2964 0.14241 15.2779 0.0121788 15.1847 0.00820565C12.0199 -0.129089 10.3366 1.46062 9.8695 4.46787L13.1681 5.18524H13.1672Z" fill="#353842"/>
<path d="M9.57544 5.39639C10.8102 5.42156 12.0225 5.65597 13.2082 6.13805L13.1672 5.18493C12.1205 4.80704 11.019 4.57306 9.86857 4.46755L9.57544 5.39639Z" fill="#6927FF"/>
<path d="M2.84495 39.7731L2.59905 38.7282C2.59729 38.4218 2.61627 38.1154 2.65512 37.8117C2.96591 35.385 3.4886 33.0814 4.29118 30.9395L2.66086 29.9824C2.0768 32.1248 1.5987 36.3491 1.4539 37.7133C1.42388 37.9962 1.40975 38.2801 1.41152 38.5644C1.33029 39.4275 1.06144 40.1925 1.10956 40.7117C1.11971 40.8203 1.17004 40.9223 1.25083 41.0004L1.57265 41.3134C1.63357 41.5805 1.78323 41.7372 2.09667 41.6891C2.21895 41.8811 2.33285 42.0418 2.4441 42.0886C2.47721 42.1023 2.51385 42.0789 2.50944 42.0453C2.46971 41.731 2.28253 40.2287 2.3483 40.2208C2.56992 40.1947 2.58846 41.0587 2.76416 41.037C2.90764 41.0194 2.88601 40.2534 2.87276 39.9705C2.86967 39.9038 2.8604 39.838 2.84539 39.7727L2.84495 39.7731Z" fill="#FBD3A8"/>
<path d="M15.2853 39.7731L15.5312 38.7282C15.533 38.4218 15.514 38.1154 15.4751 37.8117C15.1643 35.385 14.6417 33.0814 13.8391 30.9395L15.4694 29.9824C16.0535 32.1248 16.5316 36.3491 16.6764 37.7133C16.7064 37.9962 16.7205 38.2801 16.7187 38.5644C16.8 39.4275 17.0688 40.1925 17.0207 40.7117C17.0105 40.8203 16.9602 40.9223 16.8794 41.0004L16.5576 41.3134C16.4967 41.5805 16.347 41.7372 16.0336 41.6891C15.9113 41.8811 15.7974 42.0418 15.6862 42.0886C15.653 42.1023 15.6164 42.0789 15.6208 42.0453C15.6606 41.731 15.8477 40.2287 15.782 40.2208C15.5603 40.1947 15.5418 41.0587 15.3661 41.037C15.2226 41.0194 15.2443 40.2534 15.2575 39.9705C15.2606 39.9038 15.2699 39.838 15.2849 39.7727L15.2853 39.7731Z" fill="#FBD3A8"/>
<path d="M10.634 24.073H7.46168C7.48816 25.3608 7.30893 26.1717 7.11998 26.679C7.04891 26.8701 7.10497 27.0851 7.25728 27.2211C7.95038 27.8405 10.0204 28.0625 10.8627 27.154C10.989 27.0176 11.0274 26.822 10.9642 26.6472C10.7797 26.1382 10.608 25.3343 10.634 24.0726V24.073Z" fill="#FBD3A8"/>
<path opacity="0.35" d="M7.56419 24.246L10.556 24.2663L10.6068 25.1382C10.1317 25.8374 7.83172 25.8079 7.4781 25.1055L7.56419 24.2464V24.246Z" fill="#F8A364"/>
<path d="M2.07629 20.7508C0.709523 20.7508 -0.162367 18.9316 0.262321 17.7573C0.36474 17.4734 0.567813 17.2315 0.845052 17.1127C1.33949 16.9008 1.78537 17.1617 2.07629 17.3564V20.7508Z" fill="#FBD3A8"/>
<path d="M1.60134 20.0082C0.746669 19.8263 0.373633 17.7501 1.43447 17.8865L2.0406 17.9545V20.0837L1.60134 20.0077V20.0082Z" fill="#FBBD89"/>
<path d="M2.01332 18.0407C1.87647 17.9912 1.73785 17.948 1.59614 17.9241C1.45576 17.9034 1.30963 17.8981 1.1794 17.9458C1.04961 17.9921 0.94101 18.095 0.881413 18.2283C0.820932 18.3612 0.796211 18.5108 0.786499 18.6601C0.781201 18.5108 0.79003 18.3581 0.839032 18.2111C0.886269 18.0645 0.996635 17.9312 1.14364 17.8619C1.29065 17.7908 1.45487 17.7811 1.61027 17.7886C1.76655 17.7992 1.91841 17.8301 2.06807 17.8676L2.01288 18.0407H2.01332Z" fill="#603813"/>
<path d="M16.065 20.7508C17.4317 20.7508 18.3036 18.9316 17.8789 17.7573C17.7765 17.4734 17.5735 17.2315 17.2962 17.1127C16.8018 16.9008 16.3559 17.1617 16.065 17.3564V20.7508Z" fill="#FBD3A8"/>
<path d="M16.5402 20.0082C17.3949 19.8263 17.7675 17.7501 16.7071 17.8865L16.1009 17.9545V20.0837L16.5402 20.0077V20.0082Z" fill="#FBBD89"/>
<path d="M16.0728 17.8684C16.2225 17.8309 16.3743 17.7996 16.5306 17.7894C16.686 17.7823 16.8502 17.792 16.9972 17.8627C17.1442 17.9324 17.2546 18.0658 17.3018 18.2119C17.3513 18.3584 17.3597 18.5112 17.3544 18.6608C17.3447 18.5116 17.3199 18.362 17.2595 18.2291C17.1999 18.0958 17.0917 17.9929 16.9615 17.9466C16.8312 17.8989 16.6851 17.9042 16.5447 17.9249C16.403 17.9488 16.2644 17.9925 16.1275 18.0415L16.0724 17.8684H16.0728Z" fill="#603813"/>
<path d="M16.0828 10.597H2.15019C0.25985 19.2091 1.61779 24.8722 9.02113 25.0496H9.21228C16.6152 24.8722 17.9736 19.2086 16.0832 10.597H16.0828Z" fill="#FBD3A8"/>
<path d="M8.97449 19.8935C9.00451 19.8993 9.03409 19.8926 9.06323 19.8838C9.60181 19.7258 9.67995 20.3297 9.24644 20.3844C8.83278 20.4224 8.61514 20.2824 8.48182 20.1032C8.40898 20.0052 8.46549 19.8591 8.58689 19.8436C8.69549 19.8295 8.8372 19.8657 8.97449 19.8931V19.8935Z" fill="#F8A364"/>
<path d="M6.05028 18.9236C6.39284 18.9236 6.67053 18.4803 6.67053 17.9334C6.67053 17.3865 6.39284 16.9432 6.05028 16.9432C5.70772 16.9432 5.43002 17.3865 5.43002 17.9334C5.43002 18.4803 5.70772 18.9236 6.05028 18.9236Z" fill="#4D4E4E"/>
<path d="M6.11363 17.8834C6.26674 17.8834 6.39087 17.7298 6.39087 17.5404C6.39087 17.3509 6.26674 17.1974 6.11363 17.1974C5.96051 17.1974 5.83639 17.3509 5.83639 17.5404C5.83639 17.7298 5.96051 17.8834 6.11363 17.8834Z" fill="white"/>
<path d="M5.67631 16.1442C5.70412 16.1371 5.73282 16.1345 5.76107 16.1371C6.11822 16.1658 6.49125 16.1685 6.49125 15.8859C6.49125 15.3858 5.18276 15.5575 5.18276 16.0427C5.22161 16.2312 5.37744 16.2197 5.67631 16.1442Z" fill="#4D4E4E"/>
<path d="M5.36466 16.7925C5.4247 16.9099 5.41411 17.0353 5.34171 17.0724C5.26931 17.1095 5.16159 17.0446 5.10155 16.9272C5.04151 16.8097 5.05211 16.6844 5.12451 16.6473C5.19735 16.6102 5.30463 16.6751 5.36466 16.7925Z" fill="#EF8971"/>
<path d="M4.89701 17.9391C5.02812 17.9277 5.12921 17.8526 5.12171 17.7714C5.11421 17.6901 5.00252 17.6336 4.87096 17.6451C4.73984 17.6566 4.63875 17.7316 4.64625 17.8129C4.65376 17.8941 4.76545 17.9506 4.89701 17.9391Z" fill="#EF8971"/>
<path d="M4.98977 17.158C5.11515 17.1981 5.19726 17.2935 5.17209 17.3712C5.14693 17.4489 5.02553 17.4793 4.89971 17.4392C4.77434 17.399 4.69222 17.3036 4.71739 17.2259C4.74211 17.1482 4.86395 17.1178 4.98977 17.158Z" fill="#EF8971"/>
<path d="M11.8492 18.9236C12.1918 18.9236 12.4695 18.4803 12.4695 17.9334C12.4695 17.3865 12.1918 16.9432 11.8492 16.9432C11.5067 16.9432 11.229 17.3865 11.229 17.9334C11.229 18.4803 11.5067 18.9236 11.8492 18.9236Z" fill="#4D4E4E"/>
<path d="M11.5083 17.5404C11.5083 17.7298 11.6323 17.8834 11.7855 17.8834C11.9387 17.8834 12.0627 17.7298 12.0627 17.5404C12.0627 17.351 11.9387 17.1974 11.7855 17.1974C11.6323 17.1974 11.5083 17.351 11.5083 17.5404Z" fill="white"/>
<path d="M12.2232 16.1442C12.1954 16.1371 12.1667 16.1345 12.1385 16.1371C11.7813 16.1658 11.4083 16.1685 11.4083 15.8859C11.4083 15.3858 12.7168 15.5575 12.7168 16.0427C12.6779 16.2312 12.5221 16.2197 12.2232 16.1442Z" fill="#4D4E4E"/>
<path d="M12.5353 16.7925C12.4753 16.9099 12.4859 17.0353 12.5583 17.0724C12.6307 17.1095 12.7384 17.0446 12.7984 16.9272C12.8585 16.8097 12.8479 16.6844 12.7755 16.6473C12.7026 16.6102 12.5954 16.6751 12.5353 16.7925Z" fill="#EF8971"/>
<path d="M13.0027 17.9391C12.8716 17.9277 12.7705 17.8526 12.778 17.7714C12.7855 17.6901 12.8972 17.6336 13.0287 17.6451C13.1599 17.6566 13.261 17.7316 13.2534 17.8129C13.2459 17.8941 13.1343 17.9506 13.0027 17.9391Z" fill="#EF8971"/>
<path d="M12.9102 17.158C12.7848 17.1981 12.7031 17.2935 12.7278 17.3712C12.7526 17.4489 12.8744 17.4793 13.0002 17.4392C13.1256 17.399 13.2073 17.3036 13.1825 17.2259C13.1578 17.1482 13.036 17.1178 12.9102 17.158Z" fill="#EF8971"/>
<path d="M7.26138 21.758C7.56996 21.8189 7.86971 21.882 8.17035 21.9262C8.47099 21.9686 8.7703 21.9955 9.07005 21.9981C9.3698 22.0017 9.66912 21.9809 9.96975 21.9425C10.2704 21.9023 10.5701 21.841 10.8783 21.7783C10.613 21.9474 10.319 22.0705 10.0126 22.1526C9.70664 22.237 9.38658 22.2763 9.0674 22.2727C8.74822 22.2687 8.42993 22.2228 8.12576 22.1345C7.82115 22.0485 7.52846 21.9244 7.26182 21.7575L7.26138 21.758Z" fill="#F8A364"/>
<path d="M8.22128 22.6022C8.37447 22.6071 8.52148 22.6194 8.66716 22.6287C8.81328 22.6384 8.95764 22.6446 9.102 22.6486C9.24636 22.6521 9.39116 22.6534 9.53728 22.6517C9.68341 22.6499 9.83086 22.6455 9.98404 22.649C9.84763 22.7197 9.70151 22.7647 9.55185 22.7938C9.4022 22.823 9.24945 22.8362 9.0967 22.8313C8.94396 22.8274 8.79209 22.8062 8.6442 22.7691C8.49675 22.732 8.35284 22.6795 8.2204 22.6018L8.22128 22.6022Z" fill="#F8A364"/>
<path d="M14.4814 27.9383C14.1552 27.2717 13.5738 26.7649 12.8683 26.5332L10.7515 25.833C10.3877 26.6709 9.99086 27.1887 9.04304 27.1989C8.09522 27.1887 7.70806 26.6709 7.34473 25.833L5.21777 26.5332C4.51275 26.7645 3.9309 27.2713 3.60466 27.9383L2.09044 31.0352L4.07702 31.8144L4.81824 39.0539H13.2674L13.9737 31.8144L15.9952 31.0352L14.481 27.9383H14.4814Z" fill="#6927FF"/>
<path d="M4.85483 21.7331C5.4512 21.7331 5.93465 21.2497 5.93465 20.6533C5.93465 20.057 5.4512 19.5735 4.85483 19.5735C4.25846 19.5735 3.77501 20.057 3.77501 20.6533C3.77501 21.2497 4.25846 21.7331 4.85483 21.7331Z" fill="#EF8971"/>
<path d="M13.6589 21.7331C14.2553 21.7331 14.7387 21.2497 14.7387 20.6533C14.7387 20.057 14.2553 19.5735 13.6589 19.5735C13.0625 19.5735 12.5791 20.057 12.5791 20.6533C12.5791 21.2497 13.0625 21.7331 13.6589 21.7331Z" fill="#EF8971"/>
<path d="M5.63086 10.9968C3.68975 12.6703 2.10446 15.7261 1.84576 18.6124C1.83075 18.7793 1.68816 18.906 1.52084 18.906L0.861297 17.2227C0.448088 16.1685 0.176588 15.0631 0.0666639 13.936C-0.467065 8.48174 2.25191 6.41702 6.50717 5.25155C8.80057 4.62335 11.2507 4.80435 13.3927 5.83649C16.0004 7.09334 17.4678 8.86007 17.8386 11.9437C18.0837 13.9828 17.7901 16.0511 17.0277 17.9582L16.6489 18.906C16.4745 18.906 16.3284 18.7806 16.2953 18.6093C15.924 16.6925 13.7057 14.5726 11.3416 13.2072C11.569 13.9532 11.8595 14.7081 12.3318 15.4864C10.2645 15.2216 9.13123 14.2199 8.02624 12.2973L8.35999 14.381C6.38003 13.299 5.79376 12.7798 5.63131 10.9963L5.63086 10.9968Z" fill="#353842"/>
<path d="M14.1974 38.8082C14.1974 38.8082 14.019 36.71 13.974 31.8146C12.5238 31.7974 12.6487 29.2263 12.5816 26.4415L11.8854 26.2221C11.9958 28.8334 11.0378 30.2059 9.02563 30.356C7.01344 30.2059 6.05547 28.8334 6.16583 26.2221L5.46964 26.4676C5.4021 29.2523 5.52748 31.7974 4.07727 31.8146C4.0318 36.71 3.85875 38.8082 3.85875 38.8082C6.75474 39.8263 11.2744 39.6634 14.1974 38.8082Z" fill="#ECCF39"/>
</g>
</svg>
