<svg width="36" height="36" viewBox="0 0 36 36" fill="none" xmlns="http://www.w3.org/2000/svg">
<rect x="0.5" y="0.5" width="35" height="35" rx="17.5" fill="#D291BC" fill-opacity="0.05" stroke="#D291BC"/>
<g clip-path="url(#clip0_134_5129)">
<path d="M12.8061 19.1652C17.015 22.5667 13.4828 25.3712 16.4632 27.3377C19.1415 29.1039 24.2002 27.5258 26.0851 20.3794C27.4746 15.1137 24.4096 9.93788 19.3751 8.33526C12.6974 6.21343 7.30041 14.713 12.8061 19.1652ZM16.9868 24.8479C17.16 24.1897 18.0299 23.8545 18.9321 24.0998C19.8303 24.3451 20.4223 25.0769 20.2491 25.7351C20.0759 26.3933 19.206 26.7286 18.3038 26.4833C17.4016 26.238 16.8136 25.5062 16.9908 24.8479H16.9868Z" fill="#FDC00F"/>
<path d="M12.1216 12.837C11.892 13.7119 12.3995 14.6073 13.2614 14.8403C14.1193 15.0733 15.0053 14.5541 15.2349 13.6833C15.4645 12.8125 14.953 11.9131 14.0951 11.68C13.2372 11.447 12.3511 11.9621 12.1216 12.837Z" fill="#A2E2E8"/>
<path d="M15.4482 10.5431C15.2187 11.4139 15.7261 12.3133 16.588 12.5463C17.4459 12.7794 18.332 12.2642 18.5616 11.3894C18.7911 10.5185 18.2796 9.61911 17.4218 9.38608C16.5599 9.15305 15.6778 9.66817 15.4482 10.5431Z" fill="#184F78"/>
<path d="M19.4077 11.8348C19.1781 12.7097 19.6856 13.605 20.5475 13.8381C21.4054 14.0711 22.2915 13.556 22.521 12.6811C22.7506 11.8103 22.2391 10.9108 21.3812 10.6778C20.5234 10.4448 19.6373 10.964 19.4077 11.8348Z" fill="#FC611F"/>
<path d="M21.7759 15.3097C21.5463 16.1846 22.0538 17.0799 22.9157 17.3129C23.7736 17.546 24.6596 17.0309 24.8892 16.156C25.1188 15.2851 24.6073 14.3857 23.7494 14.1527C22.8915 13.9196 22.0054 14.4348 21.7759 15.3097Z" fill="#16B6C6"/>
<path d="M21.7273 19.5411C21.4977 20.4119 22.0092 21.3114 22.8671 21.5444C23.729 21.7774 24.611 21.2623 24.8406 20.3874C25.0702 19.5166 24.5587 18.6172 23.7008 18.3841C22.8429 18.1511 21.9568 18.6662 21.7273 19.5411Z" fill="#FFF2CF"/>
<g opacity="0.2">
<path d="M14.5905 11.916C14.8523 12.2962 14.9571 12.7868 14.8322 13.2692C14.6026 14.1401 13.7166 14.6593 12.8587 14.4262C12.6734 14.3772 12.5123 14.2913 12.3633 14.185C12.5727 14.4916 12.8788 14.7288 13.2614 14.8351C14.1193 15.0681 15.0054 14.5489 15.235 13.6781C15.4162 12.9912 15.1343 12.2962 14.5905 11.916Z" fill="#272930"/>
<path d="M24.4865 15.7468C24.2569 16.6176 23.3709 17.1368 22.513 16.9038C22.3277 16.8547 22.1666 16.7689 22.0176 16.6667C22.227 16.9733 22.5331 17.2104 22.9157 17.3126C23.7736 17.5456 24.6597 17.0305 24.8893 16.1556C25.0705 15.4688 24.7886 14.7738 24.2448 14.3936C24.5066 14.7738 24.6154 15.2644 24.4865 15.7468Z" fill="#272930"/>
<path d="M22.5211 12.681C22.7023 11.9942 22.4204 11.2992 21.8767 10.9189C22.1385 11.2992 22.2472 11.7898 22.1183 12.2722C21.8888 13.1471 21.0027 13.6622 20.1448 13.4292C19.9595 13.3801 19.7984 13.2943 19.6494 13.188C19.8588 13.4946 20.1649 13.7317 20.5476 13.838C21.4054 14.071 22.2915 13.5559 22.5211 12.681Z" fill="#272930"/>
<path d="M17.9172 9.62695C18.179 10.0072 18.2837 10.4978 18.1589 10.9802C17.9293 11.851 17.0432 12.3702 16.1853 12.1372C16.0001 12.0881 15.839 12.0023 15.6899 11.896C15.8994 12.2026 16.2055 12.4397 16.5881 12.546C17.446 12.779 18.332 12.2639 18.5616 11.389C18.7429 10.7022 18.4609 10.0072 17.9172 9.62695Z" fill="#272930"/>
<path d="M24.1965 18.625C24.4583 19.0052 24.567 19.4958 24.4382 19.9782C24.2086 20.8531 23.3265 21.3683 22.4646 21.1352C22.2794 21.0862 22.1183 21.0003 21.9692 20.894C22.1787 21.2006 22.4848 21.4378 22.8674 21.5441C23.7293 21.7771 24.6113 21.262 24.8409 20.3871C25.0222 19.7002 24.7402 19.0052 24.1965 18.625Z" fill="#272930"/>
</g>
<path d="M12.1699 20.3224C10.6998 22.9103 10.0152 25.3061 10.6435 25.674C11.2718 26.042 12.9754 24.2431 14.4455 21.6552C15.9156 19.0673 16.6003 16.6716 15.972 16.3036C15.3437 15.9357 13.64 17.7345 12.1699 20.3183V20.3224Z" fill="#184F78"/>
<path d="M9.85788 25.3797C10.019 25.2734 10.1881 25.163 10.3372 25.1794C12.2019 25.4247 11.1105 28.4132 9.23763 27.9512C9.0725 27.9103 9 27.8449 9 27.849C9 27.849 9.08055 27.7877 9.1611 27.6732C9.24568 27.5587 9.2779 27.3952 9.26179 27.2276C9.25374 27.06 9.21749 26.8637 9.21749 26.6307C9.21749 26.4099 9.24166 26.1115 9.45109 25.7967C9.57595 25.6291 9.71691 25.4819 9.86191 25.3756L9.85788 25.3797Z" fill="#FC611F"/>
<path d="M10.52 24.2213L9.88184 25.3438L11.3016 26.1755L11.9398 25.053L10.52 24.2213Z" fill="#A3B9C9"/>
<path opacity="0.3" d="M9.21738 27.9427C9.26168 27.9018 9.31001 27.8568 9.35432 27.82C9.37445 27.8078 9.39459 27.7955 9.41473 27.7791L9.39056 27.7628L10.3854 26.013C10.7438 24.4308 11.6541 22.215 12.9711 19.901C13.7081 18.605 14.4814 17.4398 15.2225 16.4668C14.4089 16.9901 13.2289 18.4455 12.1656 20.3139C11.3238 21.7939 10.7438 23.2084 10.5143 24.2182L9.8779 25.3343L9.89401 25.3425C9.89401 25.3425 9.86582 25.3589 9.85374 25.367C9.70874 25.4774 9.56778 25.6205 9.44292 25.7881C9.23349 26.1029 9.20932 26.4014 9.20932 26.6222C9.20932 26.8552 9.24557 27.0514 9.25363 27.219C9.26974 27.3867 9.23752 27.5502 9.15294 27.6647C9.07641 27.7791 8.9878 27.8364 8.99183 27.8405C8.99183 27.8364 9.0603 27.8936 9.20932 27.9345L9.21738 27.9427Z" fill="white"/>
</g>
<defs>
<clipPath id="clip0_134_5129">
<rect width="17.4194" height="20" fill="white" transform="translate(9 8)"/>
</clipPath>
</defs>
</svg>
