<svg width="28" height="28" viewBox="0 0 28 28" fill="none" xmlns="http://www.w3.org/2000/svg">
<circle cx="14" cy="14" r="13.5" fill="white" stroke="#F66967"/>
<g clip-path="url(#clip0_154_3938)">
<path d="M14.2489 8.24547C11.5874 8.24547 9.42896 10.3942 9.42896 13.0461C9.42896 14.3778 9.97378 15.5826 10.8548 16.4527C11.2327 16.8266 11.6708 17.482 11.7543 18.006L11.9212 19.0515H16.5812L16.7481 18.0036C16.8316 17.4797 17.2698 16.8243 17.6477 16.4504C18.5286 15.5803 19.0735 14.3755 19.0735 13.0438C19.0735 10.3942 16.9127 8.24316 14.2489 8.24316V8.24547Z" fill="#67E9F5"/>
<path d="M15.1182 19.4364C15.0116 19.4364 14.9258 19.351 14.9258 19.2448C14.9258 19.1248 14.9443 16.2421 16.6182 12.3024C16.6599 12.2055 16.7735 12.1593 16.8709 12.2008C16.9683 12.2424 17.0147 12.3555 16.9729 12.4524C15.3292 16.3229 15.3106 19.2171 15.3106 19.2471C15.3106 19.3533 15.2249 19.4387 15.1182 19.4387V19.4364Z" fill="#FDC00F"/>
<path d="M13.3864 19.4367C13.2798 19.4367 13.194 19.349 13.194 19.2452C13.194 19.2175 13.1731 16.314 11.5317 12.4505C11.49 12.3535 11.5364 12.2404 11.6337 12.1989C11.7311 12.1573 11.8447 12.2035 11.8864 12.3004C13.5603 16.2425 13.5789 19.1228 13.5789 19.2429C13.5789 19.349 13.4931 19.4344 13.3864 19.4344V19.4367Z" fill="#FDC00F"/>
<path d="M16.595 12.7825C16.2611 12.7825 16.0896 12.6002 15.9389 12.4409C15.7974 12.2909 15.6746 12.1616 15.4242 12.1616C15.1738 12.1616 15.0509 12.2909 14.9095 12.4409C14.7588 12.6002 14.5872 12.7825 14.2534 12.7825C13.9196 12.7825 13.748 12.6002 13.5973 12.4409C13.4559 12.2909 13.333 12.1616 13.0803 12.1616C12.8276 12.1616 12.707 12.2909 12.5633 12.4409C12.4126 12.6002 12.241 12.7825 11.9072 12.7825C11.8539 12.7825 11.8098 12.7386 11.8098 12.6856C11.8098 12.6325 11.8539 12.5886 11.9072 12.5886C12.1576 12.5886 12.2804 12.4594 12.4242 12.3094C12.5749 12.1501 12.7464 11.9678 13.0803 11.9678C13.4141 11.9678 13.5857 12.1501 13.7364 12.3094C13.8778 12.4594 14.0007 12.5886 14.2534 12.5886C14.5061 12.5886 14.6267 12.4594 14.7681 12.3094C14.9188 12.1501 15.0903 11.9678 15.4242 11.9678C15.758 11.9678 15.9296 12.1501 16.0803 12.3094C16.2217 12.4594 16.3446 12.5886 16.595 12.5886C16.6483 12.5886 16.6923 12.6325 16.6923 12.6856C16.6923 12.7386 16.6483 12.7825 16.595 12.7825Z" fill="#FDC00F"/>
<path d="M15.6165 22.5688H12.8878C12.3546 22.5688 11.9233 22.1372 11.9233 21.6063V19.0537H16.5833V21.6063C16.5833 22.1372 16.1521 22.5688 15.6165 22.5688Z" fill="#E1E1E1"/>
<path d="M11.9211 21.1602V21.6056C11.9211 21.6956 11.9374 21.781 11.9606 21.8641H16.5417C16.5649 21.781 16.5811 21.6956 16.5811 21.6056V21.1602H11.9211Z" fill="#F15B67"/>
<path d="M16.5811 19.7549H11.9211V20.4588H16.5811V19.7549Z" fill="#F15B67"/>
<path d="M14.2512 23C14.7288 23 15.1183 22.8061 15.1183 22.5684H13.3865C13.3865 22.8061 13.7736 23 14.2512 23Z" fill="#FDC00F"/>
<path d="M14.2511 6.71945C14.1236 6.71945 14.0193 6.61559 14.0193 6.48865V5.2308C14.0193 5.10386 14.1236 5 14.2511 5C14.3786 5 14.483 5.10386 14.483 5.2308V6.48865C14.483 6.61559 14.3786 6.71945 14.2511 6.71945Z" fill="#FDC00F"/>
<path d="M10.8732 7.61956C10.792 7.61956 10.7155 7.57801 10.6715 7.50416L10.0409 6.41479C9.97596 6.304 10.0154 6.16322 10.1267 6.09859C10.2379 6.03397 10.3794 6.0732 10.4443 6.18399L11.0749 7.27336C11.1398 7.38414 11.1004 7.52493 10.9891 7.58955C10.952 7.61032 10.9126 7.61956 10.8732 7.61956Z" fill="#FDC00F"/>
<path d="M8.40174 10.0798C8.36233 10.0798 8.32291 10.0706 8.28582 10.0498L7.19154 9.42201C7.08026 9.35738 7.04316 9.2166 7.10576 9.10581C7.16836 8.99503 7.3121 8.9581 7.42338 9.02042L8.51766 9.64819C8.62894 9.71281 8.66604 9.8536 8.60344 9.96439C8.55939 10.0382 8.48288 10.0798 8.40174 10.0798Z" fill="#FDC00F"/>
<path d="M7.49536 13.443H6.23184C6.10433 13.443 6 13.3392 6 13.2122C6 13.0853 6.10433 12.9814 6.23184 12.9814H7.49536C7.62287 12.9814 7.7272 13.0853 7.7272 13.2122C7.7272 13.3392 7.62287 13.443 7.49536 13.443Z" fill="#FDC00F"/>
<path d="M7.30532 17.4333C7.22417 17.4333 7.14766 17.3918 7.10362 17.3179C7.0387 17.2072 7.07811 17.0664 7.1894 17.0018L8.28368 16.374C8.39496 16.3094 8.53638 16.3486 8.6013 16.4594C8.66621 16.5702 8.6268 16.7109 8.51552 16.7756L7.42124 17.4033C7.38414 17.4241 7.34473 17.4333 7.30532 17.4333Z" fill="#FDC00F"/>
<path d="M21.1925 17.4356C21.1531 17.4356 21.1137 17.4264 21.0766 17.4056L19.9823 16.7755C19.871 16.7109 19.8339 16.5701 19.8965 16.4593C19.9614 16.3485 20.1029 16.3116 20.2142 16.3739L21.3084 17.004C21.4197 17.0686 21.4568 17.2094 21.3942 17.3202C21.3502 17.3941 21.2737 17.4356 21.1925 17.4356Z" fill="#FDC00F"/>
<path d="M22.2681 13.445H21.0045C20.877 13.445 20.7727 13.3411 20.7727 13.2142C20.7727 13.0873 20.877 12.9834 21.0045 12.9834H22.2681C22.3956 12.9834 22.4999 13.0873 22.4999 13.2142C22.4999 13.3411 22.3956 13.445 22.2681 13.445Z" fill="#FDC00F"/>
<path d="M20.1005 10.0818C20.0193 10.0818 19.9428 10.0402 19.8988 9.96639C19.8339 9.8556 19.8733 9.71482 19.9846 9.65019L21.0788 9.02242C21.1901 8.9578 21.3315 8.99703 21.3965 9.10782C21.4614 9.2186 21.422 9.35939 21.3107 9.42401L20.2164 10.0518C20.1793 10.0726 20.1399 10.0818 20.1005 10.0818Z" fill="#FDC00F"/>
<path d="M17.6268 7.62146C17.5874 7.62146 17.548 7.61223 17.5109 7.59146C17.3996 7.52683 17.3625 7.38605 17.4251 7.27526L18.058 6.18589C18.1229 6.07511 18.2644 6.03818 18.3756 6.1005C18.4869 6.16512 18.524 6.30591 18.4614 6.41669L17.8285 7.50606C17.7844 7.57992 17.7079 7.62146 17.6268 7.62146Z" fill="#FDC00F"/>
<path opacity="0.3" d="M10.5022 13.0226C11.2696 13.7865 12.6699 13.6319 13.6297 12.6741C14.5896 11.7186 14.7472 10.3245 13.9798 9.56059C13.2124 8.79665 11.8121 8.95359 10.8523 9.9091C9.89249 10.8646 9.73484 12.2586 10.5022 13.0226Z" fill="white"/>
<path opacity="0.3" d="M13.8639 14.3244C14.1514 14.6105 14.6753 14.5528 15.0347 14.1951C15.394 13.8374 15.452 13.3158 15.1645 13.0296C14.877 12.7434 14.3531 12.8011 13.9937 13.1588C13.6344 13.5166 13.5764 14.0382 13.8639 14.3244Z" fill="white"/>
<path opacity="0.2" d="M12.153 19.2453H16.3493C16.4768 19.2453 16.5811 19.1599 16.5811 19.0537H11.9211C11.9211 19.0537 12.0255 19.2453 12.153 19.2453Z" fill="black"/>
<path opacity="0.2" d="M13.4815 22.7599H15.0233C15.0812 22.7022 15.1183 22.6376 15.1183 22.5684H13.3865C13.3865 22.6376 13.4236 22.7022 13.4815 22.7599Z" fill="black"/>
</g>
<defs>
<clipPath id="clip0_154_3938">
<rect width="16.5" height="18" fill="white" transform="translate(6 5)"/>
</clipPath>
</defs>
</svg>
