<svg width="22" height="22" viewBox="0 0 22 22" fill="none" xmlns="http://www.w3.org/2000/svg">
<path d="M19.186 21.2326H3.83721C2.14182 21.2326 0.767442 19.8582 0.767442 18.1628V3.83721C0.767442 2.14182 2.14182 0.767442 3.83721 0.767442H14.0698C15.7652 0.767442 17.1395 2.14182 17.1395 3.83721V6.90698M19.186 21.2326C18.0558 21.2326 17.1395 20.3163 17.1395 19.186V6.90698M19.186 21.2326C20.3163 21.2326 21.2326 20.3163 21.2326 19.186V8.95349C21.2326 7.82323 20.3163 6.90698 19.186 6.90698H17.1395M4.86047 5.88372H13.0465M4.86047 11H13.0465M4.86047 16.1163H8.95349" stroke="#505463" stroke-width="1.5" stroke-linecap="round" stroke-linejoin="round"/>
</svg>
