<svg width="36" height="36" viewBox="0 0 36 36" fill="none" xmlns="http://www.w3.org/2000/svg">
<rect x="0.5" y="0.5" width="35" height="35" rx="17.5" fill="#ECC3C1" fill-opacity="0.05" stroke="#ECC3C1"/>
<g clip-path="url(#clip0_134_5154)">
<path d="M24.4176 24.6348H9V28.0042H24.4176V24.6348Z" fill="#FDC00F"/>
<path d="M13.7846 24.6348H10.5874V28.0042H13.7846V24.6348Z" fill="#FFF2CF"/>
<path d="M14.905 24.6348H14.2485V28.0042H14.905V24.6348Z" fill="#FFF2CF"/>
<path d="M26.0588 21.2646H10.6411V24.6341H26.0588V21.2646Z" fill="#16B6C6"/>
<path d="M15.4257 21.2646H12.2285V24.6341H15.4257V21.2646Z" fill="#118995"/>
<path d="M16.5432 21.2646H15.8867V24.6341H16.5432V21.2646Z" fill="#118995"/>
<path d="M25.4684 17.8955H10.0508V21.2649H25.4684V17.8955Z" fill="#184F78"/>
<path d="M14.8387 17.8955H11.6416V21.2649H14.8387V17.8955Z" fill="#D1DCE4"/>
<path d="M15.9558 17.8955H15.2993V21.2649H15.9558V17.8955Z" fill="#D1DCE4"/>
<path d="M20.2451 10.0898C19.3551 10.871 17.8623 10.8302 17.8623 10.8302C17.8623 10.8302 17.8149 9.52193 18.7081 8.74076C19.5981 7.95958 21.091 8.00036 21.091 8.00036C21.091 8.00036 21.1383 9.3086 20.2451 10.0898Z" fill="#184F78"/>
<path d="M20.7025 8.33887C20.7025 8.33887 20.5794 8.49887 20.368 8.71848C20.1597 8.93808 19.8662 9.22044 19.56 9.49024C19.2539 9.76004 18.9319 10.0142 18.6795 10.1993C18.4301 10.3844 18.2471 10.491 18.2471 10.491C18.2471 10.491 18.3702 10.331 18.5816 10.1114C18.7899 9.89181 19.0834 9.60946 19.3896 9.33965C19.6957 9.06985 20.0177 8.81573 20.2701 8.63377C20.5195 8.44867 20.7025 8.342 20.7025 8.342V8.33887Z" fill="#467293"/>
<path d="M17.8623 10.7803C14.4 9.89242 12.8156 12.1638 13.4563 14.636C13.9581 16.581 15.7098 18.341 17.8623 17.7983C20.0179 18.341 21.7664 16.581 22.2682 14.636C22.9057 12.1638 21.3245 9.89242 17.8623 10.7803Z" fill="#FC611F"/>
<path opacity="0.2" d="M9 24.6338H24.4176V25.3742L9 24.6338Z" fill="#272930"/>
<path opacity="0.2" d="M10.6411 21.2646H26.0588V22.0082L10.6411 21.2646Z" fill="#272930"/>
<path opacity="0.3" d="M15.9247 17.6658C15.9057 17.4713 15.8963 17.2705 15.8963 17.0697C15.8963 14.1709 17.7079 11.6956 20.2675 10.6948C19.611 10.5285 18.8094 10.5348 17.8657 10.7764C14.4034 9.88851 12.819 12.1599 13.4597 14.632C13.8006 15.9466 14.7096 17.1732 15.9278 17.6658H15.9247Z" fill="white"/>
</g>
<defs>
<clipPath id="clip0_134_5154">
<rect width="17.0588" height="20" fill="white" transform="translate(9 8)"/>
</clipPath>
</defs>
</svg>
