<svg width="28" height="28" viewBox="0 0 28 28" fill="none" xmlns="http://www.w3.org/2000/svg">
<circle cx="14" cy="14" r="13.5" fill="white" stroke="#82B5CA"/>
<g clip-path="url(#clip0_154_4143)">
<path d="M21.0576 21.4268H8.89697V22.9996H21.0576V21.4268Z" fill="#D1DCE4"/>
<path d="M7 18.2029L8.61493 22.7589C8.672 22.9216 8.85331 23.0267 9.02118 22.9962L13.735 22.1284L14.8228 20.2267L8.08781 16.2979L7 18.1995V18.2029Z" fill="#FEDFD2"/>
<path d="M9.91765 20.9526C9.32338 20.6068 8.60153 20.6339 7.97705 20.9593L8.61496 22.7593C8.67204 22.9221 8.85334 23.0271 9.02121 22.9966L10.8812 22.6543C10.8477 21.9458 10.5153 21.3017 9.91765 20.956V20.9526Z" fill="#F15B67"/>
<path d="M9.79339 17.8741L7 18.2029L12.8654 7.94531L14.8195 9.0843L9.79339 17.8741Z" fill="#FDC00F"/>
<path d="M12.6204 19.5213L10.3676 20.1653L9.79346 17.8738L14.8195 9.08398L17.6465 10.7314L12.6204 19.5213Z" fill="#FD814C"/>
<path d="M13.735 22.1281L12.6204 19.5213L17.6464 10.7314L19.6005 11.8704L13.735 22.1281Z" fill="#FDA079"/>
<path d="M13.4286 6.95599L12.8645 7.94238L19.6015 11.8695L20.1655 10.8831L13.4286 6.95599Z" fill="#D1DCE4"/>
<path d="M20.846 8.33872L15.2727 5.09127C14.9504 4.90483 14.5408 5.01669 14.3561 5.33872L13.4294 6.95906L20.1645 10.8845L21.0911 9.26415C21.2758 8.93872 21.165 8.52516 20.846 8.33872Z" fill="#F15B67"/>
</g>
<defs>
<clipPath id="clip0_154_4143">
<rect width="14.1818" height="18" fill="white" transform="translate(7 5)"/>
</clipPath>
</defs>
</svg>
