<svg width="54" height="54" viewBox="0 0 54 54" fill="none" xmlns="http://www.w3.org/2000/svg">
<circle cx="27" cy="27" r="27" fill="white"/>
<mask id="mask0_154_3591" style="mask-type:luminance" maskUnits="userSpaceOnUse" x="2" y="3" width="53" height="51">
<path d="M28.494 53.7417C42.6524 53.7417 54.1301 42.3828 54.1301 28.3709C54.1301 14.3589 42.6524 3 28.494 3C14.3356 3 2.85791 14.3589 2.85791 28.3709C2.85791 42.3828 14.3356 53.7417 28.494 53.7417Z" fill="white"/>
</mask>
<g mask="url(#mask0_154_3591)">
<path d="M35.2542 13.1633C37.6922 12.4181 40.9549 13.7254 44.8556 16.6247C44.953 16.6968 45.0898 16.6122 45.0666 16.4935C44.5197 13.7088 43.1068 11.4618 40.2887 10.0871C41.1133 9.55766 42.142 10.0226 43.2337 10.7984C43.3487 10.8796 43.4967 10.7519 43.4294 10.6291C41.9898 8.01297 39.8526 6.55294 36.801 6.60706C36.8424 6.00265 37.5324 5.60017 38.4951 5.28304C38.636 5.23655 38.6066 5.03184 38.4586 5.02559C33.4318 4.80978 30.7582 7.30863 30.0164 12.0357L35.2556 13.1633H35.2542Z" fill="#333333"/>
<path d="M29.5493 13.4962C31.5105 13.5357 33.436 13.9042 35.3194 14.662L35.2542 13.1638C33.5917 12.5698 31.8422 12.202 30.0149 12.0361L29.5493 13.4962Z" fill="#F15B67"/>
<path d="M18.859 67.5326L18.4684 65.8901C18.4656 65.4085 18.4957 64.9269 18.5574 64.4495C19.0511 60.6349 19.8813 57.014 21.156 53.647L18.5666 52.1426C17.6389 55.5102 16.8795 62.1505 16.6495 64.2947C16.6018 64.7395 16.5794 65.1857 16.5822 65.6326C16.4532 66.9893 16.0262 68.1918 16.1026 69.0079C16.1187 69.1786 16.1987 69.3389 16.327 69.4617L16.8381 69.9537C16.9349 70.3736 17.1726 70.6199 17.6704 70.5443C17.8647 70.8461 18.0456 71.0987 18.2223 71.1723C18.2749 71.1938 18.3331 71.157 18.3261 71.1043C18.263 70.6102 17.9656 68.2487 18.0701 68.2363C18.4221 68.1953 18.4516 69.5533 18.7306 69.5193C18.9585 69.4916 18.9242 68.2876 18.9031 67.8428C18.8982 67.738 18.8835 67.6346 18.8597 67.5319L18.859 67.5326Z" fill="#FBD3A8"/>
<path d="M38.6186 67.5326L39.0092 65.8901C39.012 65.4085 38.9818 64.9269 38.9201 64.4495C38.4265 60.6349 37.5963 57.014 36.3215 53.647L38.911 52.1426C39.8387 55.5102 40.5981 62.1505 40.8281 64.2947C40.8757 64.7395 40.8982 65.1857 40.8954 65.6326C41.0244 66.9893 41.4514 68.1918 41.375 69.0079C41.3589 69.1786 41.2789 69.3389 41.1506 69.4617L40.6394 69.9537C40.5427 70.3736 40.305 70.6199 39.8071 70.5443C39.6129 70.8461 39.432 71.0987 39.2553 71.1723C39.2027 71.1938 39.1445 71.157 39.1515 71.1043C39.2146 70.6102 39.5119 68.2487 39.4075 68.2363C39.0555 68.1953 39.026 69.5533 38.7469 69.5193C38.5191 69.4916 38.5534 68.2876 38.5744 67.8428C38.5794 67.738 38.5941 67.6346 38.6179 67.5319L38.6186 67.5326Z" fill="#FBD3A8"/>
<path d="M31.2307 42.8532H26.192C26.2341 44.8774 25.9494 46.1522 25.6493 46.9495C25.5364 47.25 25.6255 47.5879 25.8674 47.8017C26.9682 48.7753 30.2561 49.1243 31.594 47.6962C31.7945 47.4818 31.8555 47.1743 31.7552 46.8996C31.4621 46.0994 31.1894 44.8358 31.2307 42.8525V42.8532Z" fill="#FBD3A8"/>
<path opacity="0.35" d="M26.354 43.125L31.106 43.1569L31.1866 44.5274C30.4321 45.6266 26.7789 45.5801 26.2173 44.4761L26.354 43.1257V43.125Z" fill="#F8A364"/>
<path d="M17.6382 37.6308C15.4673 37.6308 14.0824 34.7711 14.757 32.9252C14.9197 32.479 15.2422 32.0988 15.6825 31.9121C16.4679 31.579 17.1761 31.9891 17.6382 32.2951V37.6308Z" fill="#FBD3A8"/>
<path d="M16.8837 36.4633C15.5262 36.1774 14.9337 32.9139 16.6187 33.1283L17.5814 33.2351V36.582L16.8837 36.4626V36.4633Z" fill="#FBBD89"/>
<path d="M17.5379 33.3713C17.3205 33.2935 17.1004 33.2255 16.8753 33.1881C16.6523 33.1554 16.4202 33.1471 16.2134 33.2221C16.0072 33.2949 15.8347 33.4566 15.7401 33.6662C15.644 33.875 15.6047 34.1103 15.5893 34.3448C15.5809 34.1103 15.5949 33.8702 15.6727 33.6391C15.7478 33.4087 15.9231 33.1992 16.1566 33.0902C16.3901 32.9785 16.6509 32.9632 16.8977 32.975C17.1459 32.9917 17.3871 33.0402 17.6248 33.0992L17.5372 33.3713H17.5379Z" fill="#603813"/>
<path d="M39.8567 37.6308C42.0276 37.6308 43.4124 34.7711 42.7379 32.9252C42.5752 32.479 42.2526 32.0988 41.8123 31.9121C41.027 31.579 40.3188 31.9891 39.8567 32.2951V37.6308Z" fill="#FBD3A8"/>
<path d="M40.611 36.4633C41.9685 36.1774 42.5603 32.9139 40.8761 33.1283L39.9133 33.2351V36.582L40.611 36.4626V36.4633Z" fill="#FBBD89"/>
<path d="M39.8691 33.0989C40.1068 33.0399 40.348 32.9907 40.5962 32.9747C40.8431 32.9636 41.1039 32.9789 41.3374 33.0899C41.5709 33.1995 41.7462 33.4091 41.8212 33.6388C41.8997 33.8692 41.9131 34.1093 41.9047 34.3445C41.8892 34.11 41.85 33.8747 41.7539 33.6659C41.6592 33.4563 41.4874 33.2946 41.2806 33.2218C41.0737 33.1468 40.8417 33.1551 40.6187 33.1878C40.3936 33.2252 40.1734 33.2939 39.9561 33.371L39.8684 33.0989H39.8691Z" fill="#603813"/>
<path d="M39.8849 21.6699H17.7554C14.7529 35.2072 16.9098 44.1089 28.6687 44.3879H28.9723C40.7305 44.1089 42.888 35.2065 39.8856 21.6699H39.8849Z" fill="#FBD3A8"/>
<path d="M28.5942 36.2826C28.6419 36.2916 28.6889 36.2812 28.7351 36.2673C29.5906 36.0189 29.7147 36.9682 29.0261 37.0543C28.3691 37.1139 28.0234 36.894 27.8117 36.6122C27.696 36.4582 27.7857 36.2285 27.9786 36.2042C28.1511 36.182 28.3761 36.2389 28.5942 36.2819V36.2826Z" fill="#F8A364"/>
<path d="M23.9503 34.7595C24.4943 34.7595 24.9354 34.0626 24.9354 33.203C24.9354 32.3433 24.4943 31.6465 23.9503 31.6465C23.4062 31.6465 22.9651 32.3433 22.9651 33.203C22.9651 34.0626 23.4062 34.7595 23.9503 34.7595Z" fill="#4D4E4E"/>
<path d="M24.0512 33.1243C24.2944 33.1243 24.4915 32.8829 24.4915 32.5851C24.4915 32.2873 24.2944 32.0459 24.0512 32.0459C23.808 32.0459 23.6108 32.2873 23.6108 32.5851C23.6108 32.8829 23.808 33.1243 24.0512 33.1243Z" fill="white"/>
<path d="M23.3557 30.3902C23.3999 30.3791 23.4455 30.3749 23.4903 30.3791C24.0576 30.4242 24.6501 30.4283 24.6501 29.9842C24.6501 29.198 22.5718 29.4679 22.5718 30.2306C22.6335 30.5269 22.881 30.5088 23.3557 30.3902Z" fill="#4D4E4E"/>
<path d="M22.8607 31.4088C22.956 31.5934 22.9392 31.7904 22.8242 31.8487C22.7092 31.907 22.5381 31.805 22.4428 31.6204C22.3474 31.4358 22.3642 31.2388 22.4792 31.1805C22.5949 31.1222 22.7653 31.2242 22.8607 31.4088Z" fill="#EF8971"/>
<path d="M22.1181 33.2106C22.3264 33.1925 22.487 33.0746 22.475 32.9469C22.4631 32.8192 22.2857 32.7304 22.0768 32.7484C21.8685 32.7665 21.7079 32.8844 21.7199 33.0121C21.7318 33.1398 21.9092 33.2286 22.1181 33.2106Z" fill="#EF8971"/>
<path d="M22.2653 31.9839C22.4644 32.0471 22.5948 32.1969 22.5549 32.3191C22.5149 32.4412 22.3221 32.4891 22.1222 32.4259C21.9231 32.3628 21.7927 32.2129 21.8326 32.0908C21.8719 31.9686 22.0654 31.9208 22.2653 31.9839Z" fill="#EF8971"/>
<path d="M33.1605 34.7595C33.7046 34.7595 34.1456 34.0626 34.1456 33.203C34.1456 32.3433 33.7046 31.6465 33.1605 31.6465C32.6164 31.6465 32.1753 32.3433 32.1753 33.203C32.1753 34.0626 32.6164 34.7595 33.1605 34.7595Z" fill="#4D4E4E"/>
<path d="M32.6191 32.5851C32.6191 32.8828 32.8162 33.1243 33.0595 33.1243C33.3028 33.1243 33.4998 32.8828 33.4998 32.5851C33.4998 32.2874 33.3028 32.0459 33.0595 32.0459C32.8162 32.0459 32.6191 32.2874 32.6191 32.5851Z" fill="white"/>
<path d="M33.7551 30.3902C33.7109 30.3791 33.6653 30.3749 33.6205 30.3791C33.0532 30.4242 32.4607 30.4283 32.4607 29.9842C32.4607 29.198 34.539 29.4679 34.539 30.2306C34.4773 30.5269 34.2298 30.5088 33.7551 30.3902Z" fill="#4D4E4E"/>
<path d="M34.2501 31.4088C34.1548 31.5934 34.1716 31.7904 34.2866 31.8487C34.4016 31.907 34.5727 31.805 34.6681 31.6204C34.7634 31.4358 34.7466 31.2388 34.6316 31.1805C34.5159 31.1222 34.3455 31.2242 34.2501 31.4088Z" fill="#EF8971"/>
<path d="M34.9928 33.2106C34.7845 33.1925 34.624 33.0746 34.6359 32.9469C34.6478 32.8192 34.8252 32.7304 35.0342 32.7484C35.2424 32.7665 35.403 32.8844 35.3911 33.0121C35.3791 33.1398 35.2017 33.2286 34.9928 33.2106Z" fill="#EF8971"/>
<path d="M34.8454 31.9839C34.6463 32.0471 34.5166 32.1969 34.5558 32.3191C34.5951 32.4412 34.7886 32.4891 34.9885 32.4259C35.1876 32.3628 35.3173 32.2129 35.2781 32.0908C35.2388 31.9686 35.0453 31.9208 34.8454 31.9839Z" fill="#EF8971"/>
<path d="M25.8738 39.2136C26.3639 39.3093 26.84 39.4086 27.3175 39.478C27.795 39.5446 28.2704 39.5869 28.7465 39.5911C29.2226 39.5966 29.6981 39.564 30.1756 39.5036C30.6531 39.4405 31.1292 39.344 31.6186 39.2455C31.1972 39.5113 30.7302 39.7049 30.2436 39.834C29.7577 39.9665 29.2493 40.0283 28.7423 40.0227C28.2354 40.0165 27.7298 39.9443 27.2467 39.8055C26.7629 39.6702 26.298 39.4752 25.8745 39.2129L25.8738 39.2136Z" fill="#F8A364"/>
<path d="M27.3981 40.5407C27.6414 40.5484 27.8749 40.5678 28.1063 40.5824C28.3384 40.5976 28.5677 40.6074 28.797 40.6136C29.0263 40.6192 29.2563 40.6212 29.4884 40.6185C29.7205 40.6157 29.9547 40.6087 30.198 40.6143C29.9813 40.7253 29.7492 40.7961 29.5115 40.8419C29.2738 40.8877 29.0312 40.9085 28.7886 40.9009C28.546 40.8946 28.3048 40.8613 28.0699 40.803C27.8357 40.7448 27.6071 40.6622 27.3967 40.54L27.3981 40.5407Z" fill="#F8A364"/>
<path d="M37.3415 48.9285C36.8234 47.8807 35.8999 47.084 34.7794 46.7197L31.4172 45.6191C30.8394 46.9362 30.2091 47.7502 28.7036 47.7662C27.1982 47.7502 26.5832 46.9362 26.0062 45.6191L22.6279 46.7197C21.5081 47.0833 20.5839 47.88 20.0657 48.9285L17.6606 53.7964L20.816 55.0212L21.9933 66.401H35.4133L36.5352 55.0212L39.7459 53.7964L37.3408 48.9285H37.3415Z" fill="#F15B67"/>
<path d="M22.0515 39.175C22.9988 39.175 23.7666 38.4151 23.7666 37.4776C23.7666 36.5402 22.9988 35.7803 22.0515 35.7803C21.1043 35.7803 20.3364 36.5402 20.3364 37.4776C20.3364 38.4151 21.1043 39.175 22.0515 39.175Z" fill="#EF8971"/>
<path d="M36.0352 39.175C36.9824 39.175 37.7503 38.4151 37.7503 37.4776C37.7503 36.5402 36.9824 35.7803 36.0352 35.7803C35.0879 35.7803 34.3201 36.5402 34.3201 37.4776C34.3201 38.4151 35.0879 39.175 36.0352 39.175Z" fill="#EF8971"/>
<path d="M23.2842 22.2983C20.2011 24.929 17.6831 29.7324 17.2722 34.2693C17.2484 34.5316 17.0219 34.7308 16.7562 34.7308L15.7086 32.0848C15.0523 30.4277 14.6211 28.6901 14.4465 26.9185C13.5987 18.3449 17.9173 15.0994 24.6761 13.2674C28.3187 12.28 32.2103 12.5645 35.6125 14.1869C39.7544 16.1625 42.0851 18.9396 42.6741 23.7868C43.0633 26.992 42.597 30.2431 41.386 33.2409L40.7844 34.7308C40.5075 34.7308 40.2754 34.5337 40.2228 34.2644C39.6331 31.2514 36.1096 27.9191 32.3548 25.7728C32.7159 26.9455 33.1773 28.1322 33.9275 29.3556C30.6439 28.9392 28.8439 27.3647 27.0889 24.3426L27.6189 27.618C24.4741 25.9171 23.543 25.1011 23.2849 22.2976L23.2842 22.2983Z" fill="#333333"/>
<path d="M36.8908 66.0145C36.8908 66.0145 36.6075 62.7162 36.536 55.0212C34.2326 54.9941 34.4311 50.9527 34.3245 46.5754L33.2187 46.2305C33.394 50.3351 31.8724 52.4925 28.6764 52.7285C25.4804 52.4925 23.9588 50.3351 24.1341 46.2305L23.0284 46.6163C22.9211 50.9936 23.1202 54.9941 20.8168 55.0212C20.7446 62.7162 20.4697 66.0145 20.4697 66.0145C25.0695 67.6147 32.2483 67.3586 36.8908 66.0145Z" fill="#ECCF39"/>
</g>
</svg>
