<svg width="28" height="28" viewBox="0 0 28 28" fill="none" xmlns="http://www.w3.org/2000/svg">
<circle cx="14" cy="14" r="13.5" fill="white" stroke="#D291BC"/>
<g clip-path="url(#clip0_154_4117)">
<path d="M9.42542 15.0488C13.2134 18.1101 10.0344 20.6342 12.7168 22.404C15.1273 23.9936 19.6801 22.5733 21.3765 16.1416C22.6271 11.4024 19.8686 6.74419 15.3375 5.30184C9.32755 3.39219 4.47027 11.0418 9.42542 15.0488ZM13.188 20.1632C13.3439 19.5708 14.1268 19.2691 14.9388 19.4899C15.7471 19.7107 16.28 20.3693 16.1241 20.9617C15.9683 21.5541 15.1853 21.8558 14.3733 21.635C13.5614 21.4143 13.0321 20.7556 13.1916 20.1632H13.188Z" fill="#FDC00F"/>
<path d="M8.80917 9.35341C8.60256 10.1408 9.05929 10.9466 9.835 11.1564C10.6071 11.3661 11.4046 10.8988 11.6112 10.1151C11.8178 9.33134 11.3574 8.52185 10.5853 8.31212C9.81325 8.10239 9.01579 8.566 8.80917 9.35341Z" fill="#A2E2E8"/>
<path d="M11.8033 7.28896C11.5967 8.07269 12.0534 8.88217 12.8291 9.0919C13.6012 9.30163 14.3987 8.83802 14.6053 8.05061C14.8119 7.26688 14.3516 6.4574 13.5795 6.24767C12.8038 6.03794 12.0099 6.50155 11.8033 7.28896Z" fill="#184F78"/>
<path d="M15.3665 8.4518C15.1599 9.23921 15.6167 10.045 16.3924 10.2547C17.1645 10.4645 17.9619 10.0009 18.1685 9.21345C18.3752 8.42973 17.9148 7.62024 17.1427 7.41051C16.3706 7.20078 15.5732 7.66807 15.3665 8.4518Z" fill="#D291BC"/>
<path d="M17.4979 11.579C17.2913 12.3664 17.748 13.1722 18.5237 13.3819C19.2958 13.5917 20.0933 13.1281 20.2999 12.3407C20.5065 11.5569 20.0462 10.7474 19.2741 10.5377C18.502 10.328 17.7045 10.7916 17.4979 11.579Z" fill="#16B6C6"/>
<path d="M17.4544 15.3876C17.2478 16.1713 17.7082 16.9808 18.4803 17.1905C19.256 17.4003 20.0498 16.9367 20.2564 16.1492C20.4631 15.3655 20.0027 14.556 19.2306 14.3463C18.4585 14.1366 17.6611 14.6002 17.4544 15.3876Z" fill="#FFF2CF"/>
<g opacity="0.2">
<path d="M11.0314 8.52539C11.267 8.86758 11.3613 9.30912 11.2489 9.7433C11.0423 10.527 10.2448 10.9943 9.47271 10.7846C9.30597 10.7404 9.16097 10.6632 9.02686 10.5675C9.21535 10.8435 9.49083 11.0569 9.83519 11.1525C10.6073 11.3623 11.4047 10.895 11.6114 10.1112C11.7745 9.49309 11.5207 8.86758 11.0314 8.52539Z" fill="black"/>
<path d="M19.9376 11.9728C19.731 12.7565 18.9335 13.2238 18.1614 13.0141C17.9947 12.9699 17.8497 12.8927 17.7156 12.8007C17.9041 13.0766 18.1796 13.29 18.5239 13.382C19.296 13.5918 20.0935 13.1281 20.3001 12.3407C20.4632 11.7226 20.2095 11.0971 19.7201 10.7549C19.9557 11.0971 20.0536 11.5386 19.9376 11.9728Z" fill="black"/>
<path d="M18.1687 9.21378C18.3319 8.59563 18.0781 7.97012 17.5888 7.62793C17.8244 7.97012 17.9222 8.41166 17.8063 8.84584C17.5996 9.63324 16.8022 10.0969 16.0301 9.88713C15.8633 9.84297 15.7183 9.76571 15.5842 9.67004C15.7727 9.946 16.0482 10.1594 16.3926 10.2551C17.1647 10.4648 17.9621 10.0012 18.1687 9.21378Z" fill="black"/>
<path d="M14.0255 6.46484C14.2611 6.80704 14.3554 7.24857 14.243 7.68275C14.0364 8.46648 13.2389 8.93377 12.4669 8.72404C12.3001 8.67989 12.1551 8.60262 12.021 8.50695C12.2095 8.78291 12.485 8.99632 12.8293 9.09199C13.6014 9.30172 14.3989 8.83811 14.6055 8.0507C14.7686 7.43255 14.5149 6.80704 14.0255 6.46484Z" fill="black"/>
<path d="M19.6767 14.5635C19.9123 14.9057 20.0101 15.3472 19.8941 15.7814C19.6875 16.5688 18.8937 17.0324 18.118 16.8227C17.9512 16.7785 17.8062 16.7013 17.6721 16.6056C17.8606 16.8815 18.1361 17.095 18.4805 17.1906C19.2562 17.4004 20.05 16.9367 20.2566 16.1493C20.4197 15.5312 20.166 14.9057 19.6767 14.5635Z" fill="black"/>
</g>
<path d="M8.85283 16.0896C7.52976 18.4187 6.91354 20.5749 7.47901 20.906C8.04449 21.2372 9.57779 19.6182 10.9009 17.2891C12.2239 14.96 12.8401 12.8038 12.2747 12.4727C11.7092 12.1415 10.1759 13.7605 8.85283 16.0859V16.0896Z" fill="#184F78"/>
<path d="M6.77209 20.6407C6.91708 20.5451 7.06933 20.4457 7.20345 20.4604C8.88175 20.6812 7.89941 23.3709 6.21387 22.9551C6.06525 22.9183 6 22.8595 6 22.8631C6 22.8631 6.0725 22.8079 6.14499 22.7049C6.22112 22.6019 6.25011 22.4547 6.23561 22.3039C6.22836 22.153 6.19574 21.9764 6.19574 21.7667C6.19574 21.568 6.21749 21.2994 6.40598 21.016C6.51835 20.8652 6.64522 20.7327 6.77572 20.6371L6.77209 20.6407Z" fill="#D291BC"/>
<path d="M7.36831 19.5982L6.79395 20.6084L8.07173 21.3569L8.64609 20.3467L7.36831 19.5982Z" fill="#A3B9C9"/>
<path opacity="0.3" d="M6.19579 22.9484C6.23566 22.9116 6.27916 22.8711 6.31903 22.838C6.33715 22.827 6.35528 22.8159 6.3734 22.8012L6.35165 22.7865L7.24699 21.2117C7.5696 19.7877 8.38881 17.7935 9.57413 15.7109C10.2375 14.5445 10.9334 13.4958 11.6004 12.6201C10.8682 13.0911 9.80612 14.401 8.84917 16.0825C8.09158 17.4145 7.5696 18.6876 7.36298 19.5964L6.79026 20.6009L6.80476 20.6083C6.80476 20.6083 6.77938 20.623 6.76851 20.6303C6.63802 20.7297 6.51115 20.8585 6.39878 21.0093C6.21029 21.2926 6.18854 21.5612 6.18854 21.7599C6.18854 21.9697 6.22116 22.1463 6.22841 22.2971C6.24291 22.448 6.21391 22.5952 6.13779 22.6982C6.06892 22.8012 5.98917 22.8527 5.99279 22.8564C5.99279 22.8527 6.05442 22.9043 6.18854 22.941L6.19579 22.9484Z" fill="white"/>
</g>
<defs>
<clipPath id="clip0_154_4117">
<rect width="15.6774" height="18" fill="white" transform="translate(6 5)"/>
</clipPath>
</defs>
</svg>
