<svg width="28" height="28" viewBox="0 0 28 28" fill="none" xmlns="http://www.w3.org/2000/svg">
<circle cx="14" cy="14" r="13.5" fill="white" stroke="#ECC3C1"/>
<g clip-path="url(#clip0_154_3972)">
<path d="M20.9841 20.1924H6.22217V23.3372H20.9841V20.1924Z" fill="#FDC00F"/>
<path d="M10.8034 20.1924H7.74219V23.3372H10.8034V20.1924Z" fill="#FFF2CF"/>
<path d="M11.8761 20.1924H11.2476V23.3372H11.8761V20.1924Z" fill="#FFF2CF"/>
<path d="M22.5554 17.0469H7.79346V20.1917H22.5554V17.0469Z" fill="#16B6C6"/>
<path d="M12.3747 17.0469H9.31348V20.1917H12.3747V17.0469Z" fill="#118995"/>
<path d="M13.4445 17.0469H12.8159V20.1917H13.4445V17.0469Z" fill="#118995"/>
<path d="M21.9905 13.9023H7.22852V17.0471H21.9905V13.9023Z" fill="#184F78"/>
<path d="M11.8126 13.9023H8.75146V17.0471H11.8126V13.9023Z" fill="#D1DCE4"/>
<path d="M12.8825 13.9023H12.2539V17.0471H12.8825V13.9023Z" fill="#D1DCE4"/>
<path d="M16.9892 6.61745C16.137 7.34655 14.7077 7.30848 14.7077 7.30848C14.7077 7.30848 14.6624 6.08746 15.5176 5.35836C16.3697 4.62927 17.7991 4.66733 17.7991 4.66733C17.7991 4.66733 17.8444 5.88835 16.9892 6.61745Z" fill="#184F78"/>
<path d="M17.4274 4.9834C17.4274 4.9834 17.3096 5.13273 17.1071 5.3377C16.9077 5.54267 16.6266 5.8062 16.3335 6.05801C16.0404 6.30983 15.7322 6.54701 15.4904 6.71976C15.2517 6.89252 15.0764 6.99208 15.0764 6.99208C15.0764 6.99208 15.1943 6.84274 15.3967 6.63778C15.5962 6.43281 15.8772 6.16928 16.1703 5.91746C16.4635 5.66565 16.7717 5.42847 17.0134 5.25864C17.2522 5.08588 17.4274 4.98633 17.4274 4.98633V4.9834Z" fill="#467293"/>
<path d="M14.7078 7.26132C11.3927 6.43267 9.87576 8.55261 10.4892 10.86C10.9697 12.6754 12.6468 14.3181 14.7078 13.8115C16.7717 14.3181 18.4458 12.6754 18.9263 10.86C19.5367 8.55261 18.0228 6.43267 14.7078 7.26132Z" fill="#FC611F"/>
<path opacity="0.2" d="M6.22217 20.1914H20.9841V20.8824L6.22217 20.1914Z" fill="black"/>
<path opacity="0.2" d="M7.79346 17.0469H22.5554V17.7408L7.79346 17.0469Z" fill="black"/>
<path opacity="0.3" d="M12.8522 13.6885C12.8341 13.507 12.825 13.3196 12.825 13.1322C12.825 10.4266 14.5596 8.11632 17.0104 7.18226C16.3818 7.02707 15.6142 7.03293 14.7107 7.25839C11.3957 6.42974 9.87869 8.54968 10.4921 10.857C10.8185 12.0839 11.6888 13.2288 12.8553 13.6885H12.8522Z" fill="white"/>
</g>
<defs>
<clipPath id="clip0_154_3972">
<rect width="16.3333" height="18.6667" fill="white" transform="translate(6.22217 4.66699)"/>
</clipPath>
</defs>
</svg>
