<svg width="94" height="26" viewBox="0 0 94 26" fill="none" xmlns="http://www.w3.org/2000/svg">
<g opacity="0.6">
<g clip-path="url(#clip0_154_4038)">
<path d="M74.2507 21.5621C74.8513 22.4508 75.5501 23.2304 76.3976 23.9225C76.2667 24.0215 76.1508 24.1235 76.0214 24.2039C75.3003 24.6518 74.5525 25.0553 73.7377 25.3238C73.2605 25.4803 72.7773 25.6296 72.2837 25.7286C71.799 25.8263 71.3009 25.8636 70.8059 25.9124C70.5144 25.9411 70.2186 25.9512 69.9242 25.9469C69.212 25.9354 68.5088 25.8406 67.813 25.6942C66.9209 25.5075 66.0631 25.2146 65.2662 24.794C64.6551 24.4724 64.0857 24.0732 63.5222 23.6741C63.1684 23.4243 62.8398 23.1342 62.538 22.827C61.9477 22.2225 61.4259 21.5635 61.0022 20.8356C60.5933 20.1335 60.2469 19.4042 60.0298 18.6246C59.899 18.1536 59.7815 17.6755 59.7176 17.1931C59.6447 16.6418 59.6165 16.0833 59.6076 15.5262C59.5972 14.8629 59.7146 14.2096 59.8588 13.5621C60.0655 12.6332 60.4075 11.7473 60.8951 10.9246C61.2148 10.3848 61.5954 9.87509 61.9819 9.37545C62.2481 9.03087 62.5692 8.72362 62.871 8.40632C62.9662 8.30582 63.0851 8.22828 63.1862 8.13209C65.956 5.46447 68.7229 2.79253 71.4883 0.117732C71.5745 0.034458 71.6578 0 71.7812 0C73.2085 0.00430725 74.6357 0.0028715 76.063 0.0028715H76.2102C74.3042 1.87653 72.3878 3.75879 70.4788 5.63532C73.4002 5.76023 75.8995 6.85571 77.8858 8.94185C79.7903 10.9419 80.7032 13.351 80.6437 16.0646C80.6066 17.7789 80.1323 19.4013 79.1837 20.9304C78.8269 20.5714 78.4656 20.2513 78.1549 19.8894C77.6747 19.3295 77.3833 18.6633 77.0755 18.0072C76.97 17.7818 77.0934 17.6009 77.1454 17.4113C77.2316 17.0926 77.3104 16.7782 77.306 16.4465C77.303 16.1852 77.3342 15.9225 77.3372 15.6612C77.3417 15.1156 77.3015 14.5729 77.1171 14.0546C76.9194 13.4989 76.7246 12.9375 76.4689 12.4063C76.3069 12.0704 76.0556 11.766 75.8088 11.4774C75.5501 11.173 75.2528 10.8988 74.9643 10.6202C74.2269 9.90524 73.3497 9.42426 72.3372 9.17014C71.9611 9.07538 71.5879 8.96626 71.2088 8.88873C70.9843 8.84279 70.7479 8.8313 70.5174 8.8313C70.0625 8.8313 69.6075 8.83274 69.1555 8.86863C68.8686 8.8916 68.5757 8.95047 68.3051 9.04379C67.7089 9.24623 67.1127 9.45729 66.5389 9.71285C66.2326 9.84925 65.9635 10.0732 65.6929 10.2785C65.452 10.4609 65.2156 10.6533 65.0105 10.8701C64.4708 11.4386 63.8909 11.9828 63.6248 12.7452C63.4836 13.1486 63.3081 13.5406 63.1713 13.9454C63.0108 14.425 62.9007 14.9146 62.9216 15.4243C62.9409 15.8923 62.9424 16.3618 62.9617 16.8299C62.9677 16.9792 63.0197 17.0969 63.1758 17.1974C63.9757 17.7085 65.1993 17.6037 65.8713 16.9174C66.2504 16.5298 66.8213 16.7193 66.9403 17.1357C67.0146 17.3984 66.8912 17.6167 66.6964 17.7674C66.411 17.9885 66.1136 18.2139 65.7851 18.3561C65.4461 18.5025 65.064 18.5585 64.6997 18.6461C64.3176 18.7365 63.9445 18.6418 63.5713 18.58C63.5549 18.5772 63.5371 18.5829 63.4999 18.5872C63.6932 19.0136 63.8538 19.4487 64.1734 19.8004C64.5079 20.168 64.8321 20.547 65.1963 20.8844C65.6394 21.295 66.0958 21.7014 66.6637 21.9541C67.4101 22.2843 68.1847 22.537 68.9861 22.7078C69.163 22.7452 69.3488 22.7495 69.5317 22.7466C70.0773 22.7408 70.6274 22.7667 71.1656 22.7021C71.628 22.6461 72.086 22.5083 72.5275 22.3604C72.975 22.2096 73.4062 22.0072 73.8388 21.8162C73.9801 21.7545 74.1035 21.6569 74.2507 21.5664V21.5621Z" fill="white"/>
<path d="M90.1431 18.5855C89.819 18.6185 89.5306 18.6802 89.2451 18.6731C88.4884 18.6515 87.7896 18.4433 87.1919 17.9738C87.0685 17.8777 86.9526 17.7714 86.8366 17.6666C86.6597 17.5058 86.6478 17.2976 86.7102 17.098C86.7801 16.8784 86.9407 16.7463 87.2023 16.7075C87.5205 16.6616 87.687 16.8683 87.8833 17.0263C88.249 17.322 88.6683 17.4756 89.1426 17.5072C89.6391 17.5403 90.0971 17.4297 90.5059 17.1583C90.5728 17.1138 90.6412 17.0205 90.6442 16.9473C90.668 16.4333 90.6932 15.9179 90.6813 15.4039C90.6665 14.8181 90.662 14.2294 90.3721 13.6838C90.1595 13.2818 90.0004 12.854 89.7819 12.4548C89.599 12.1203 89.3968 11.7872 89.1485 11.4972C88.8526 11.1526 88.5018 10.8497 88.1643 10.541C87.971 10.3644 87.7718 10.1835 87.5458 10.0542C86.908 9.68957 86.2553 9.35504 85.5461 9.12388C85.1179 8.98462 84.6897 8.90996 84.2452 8.8956C83.8021 8.88124 83.3561 8.84678 82.9145 8.86688C82.1711 8.89847 81.4486 9.04061 80.778 9.37514C80.3201 9.60343 79.8533 9.81735 79.3641 10.0514C78.8155 9.16696 78.0796 8.4017 77.2366 7.67808C77.5191 7.49861 77.7688 7.3134 78.0424 7.17414C78.6029 6.88986 79.1664 6.60845 79.7462 6.36581C80.3216 6.1246 80.9342 5.98677 81.5497 5.86473C82.2321 5.72977 82.9219 5.69531 83.6148 5.69531C84.3953 5.69531 85.1625 5.80012 85.9237 5.97098C86.6626 6.13752 87.3703 6.38734 88.0528 6.69747C88.7382 7.00902 89.3998 7.37801 89.9707 7.85612C90.5342 8.32848 91.0516 8.8554 91.56 9.38519C91.8589 9.69531 92.125 10.0413 92.3599 10.4003C92.6067 10.7764 92.7985 11.1856 93.0111 11.5819C93.0958 11.7413 93.1791 11.9021 93.243 12.07C93.3754 12.4218 93.4988 12.775 93.6147 13.1325C93.6861 13.3507 93.7485 13.5747 93.7917 13.8001C93.8526 14.1217 93.9076 14.4448 93.9344 14.7693C93.9745 15.2502 94.0236 15.7355 94.0013 16.2165C93.9671 16.9358 93.8853 17.6537 93.6668 18.3486C93.5419 18.7448 93.4408 19.1497 93.2891 19.5359C93.1479 19.8949 92.9576 20.2366 92.7777 20.5812C92.4803 21.1483 92.1413 21.6967 91.6998 22.1662C91.1958 22.7032 90.6516 23.2057 90.1089 23.7068C89.6213 24.1576 89.034 24.4807 88.4467 24.7922C87.6707 25.2043 86.841 25.5015 85.9832 25.7068C84.938 25.9566 83.872 26.0543 82.7985 25.981C82.2782 25.9451 81.7608 25.8346 81.2449 25.7456C80.6546 25.6451 80.0926 25.4484 79.5366 25.2359C78.8185 24.9616 78.145 24.6056 77.5131 24.1849C76.847 23.7427 76.2226 23.2402 75.7008 22.6429C75.2696 22.149 74.8801 21.6192 74.5099 21.0794C74.0802 20.4534 73.768 19.7642 73.5286 19.0492C73.4186 18.719 73.2981 18.3888 73.2268 18.0499C73.1376 17.625 73.0439 17.1928 73.0395 16.7621C73.0097 14.5194 73.0067 12.2768 72.9963 10.0341C72.9963 10.0011 73.0038 9.96954 73.0082 9.92934C73.3829 10.014 73.7025 10.1806 73.9806 10.4175C74.3597 10.742 74.7433 11.0621 75.1046 11.4053C75.3231 11.612 75.5045 11.8561 75.7022 12.0844C76.1066 12.551 76.2925 13.1196 76.5021 13.6766C76.5229 13.7326 76.5408 13.8044 76.5229 13.859C76.2479 14.6989 76.2553 15.5647 76.2865 16.4261C76.3103 17.0679 76.4189 17.7025 76.7177 18.2911C76.9021 18.653 77.0805 19.0176 77.2693 19.378C77.6157 20.0356 78.1435 20.5525 78.6862 21.0564C79.2675 21.5962 79.9618 21.9681 80.7007 22.2667C81.0382 22.4031 81.3757 22.5424 81.7251 22.6443C81.9838 22.7204 82.2603 22.7621 82.5309 22.7793C83.0037 22.8095 83.478 22.8267 83.9508 22.8138C84.7031 22.7951 85.4361 22.6802 86.117 22.3414C86.395 22.2036 86.6953 22.1031 86.9674 21.9566C87.3733 21.7369 87.7926 21.5359 88.1197 21.1971C88.3412 20.9674 88.6252 20.7922 88.8363 20.5539C89.1247 20.228 89.3879 19.8777 89.6317 19.5187C89.8265 19.2301 89.9766 18.9128 90.1565 18.5898L90.1431 18.5855Z" fill="white"/>
<path d="M86.0977 12.4767C86.5898 12.4222 87.0492 12.9261 87.0492 13.3655C87.0492 13.7833 86.6269 14.3274 86.0441 14.2772C85.5193 14.2327 85.1521 13.8852 85.1536 13.3281C85.1536 12.8673 85.5877 12.4767 86.0977 12.4767Z" fill="white"/>
<path d="M68.4543 13.3781C68.4543 13.9424 68.093 14.2683 67.4686 14.2683C66.966 14.2683 66.6122 13.8864 66.5958 13.3638C66.581 12.8943 67.0181 12.4348 67.583 12.4707C68.0885 12.5023 68.4558 12.8555 68.4558 13.3781H68.4543Z" fill="white"/>
</g>
<g clip-path="url(#clip1_154_4038)">
<path d="M16.5508 7.0631C18.0472 7.97042 18.8973 9.16714 18.9051 10.9036C18.9129 12.8825 18.9639 14.8613 18.9913 16.8442C18.9991 17.4073 18.8385 17.5598 18.2783 17.5598C12.4532 17.5598 6.62408 17.5598 0.79891 17.5598C0.183879 17.5598 0.00759622 17.3878 0.00367883 16.7542C-0.00415596 16.0659 -0.00415596 15.3776 0.00367883 14.6893C0.0115136 14.0674 0.187796 13.8993 0.81458 13.8993C5.49587 13.8993 10.1811 13.8954 14.8624 13.9071C15.2815 13.9071 15.4617 13.8171 15.4265 13.3635C15.3677 12.5579 15.3951 11.7483 15.3129 10.9466C15.2384 10.2192 14.2356 10.0197 13.8673 10.356C13.1544 11.0052 12.508 11.7288 11.842 12.4249C11.5952 12.683 11.3994 12.988 11.1291 13.211C10.8353 13.4534 10.5219 13.3518 10.2516 13.1054C9.67964 12.5813 9.09987 12.0651 8.52793 11.541C8.25371 11.2907 8.25371 10.9114 8.55143 10.575C9.33883 9.67946 10.1497 8.80343 10.9332 7.90393C11.8891 6.81281 12.8253 5.70212 13.7772 4.60317C14.4863 3.7858 15.2149 2.98017 15.9279 2.16671C16.4881 1.52924 17.0326 0.876128 17.5928 0.238659C17.8474 -0.0507446 18.1491 -0.0898531 18.4468 0.168263C19.0971 0.743159 19.7356 1.32979 20.3859 1.90859C20.6288 2.12369 20.6562 2.3075 20.4211 2.57344C19.5632 3.52769 18.7249 4.50149 17.8866 5.47138C17.4322 5.99544 16.9934 6.53122 16.5468 7.05919L16.5508 7.0631Z" fill="white"/>
<path d="M44.7562 14.2159C44.294 14.7283 43.9218 15.1546 43.534 15.5691C43.0522 16.0853 42.5742 16.6133 42.065 17.0982C41.6654 17.4776 41.1561 17.5832 40.6077 17.5597C40.1376 17.5363 39.6675 17.5597 39.1974 17.5519C38.8449 17.548 38.649 17.3603 38.6451 17.0044C38.6372 16.1596 38.6451 15.3149 38.6451 14.4741C38.6451 14.0986 38.8449 13.8601 39.2131 13.9031C40.2395 14.0243 40.8349 13.4338 41.4029 12.7103C42.2883 11.5839 43.1971 10.4772 44.1451 9.40168C44.7954 8.66644 45.4653 7.92729 46.2331 7.3172C47.7452 6.11265 50.3698 6.42552 51.7997 7.54403C52.8143 8.33793 53.3392 9.38604 53.3862 10.6258C53.4685 12.7416 53.4646 14.8651 53.492 16.9809C53.4959 17.3525 53.2922 17.548 52.9162 17.5519C50.3973 17.5519 47.8745 17.5519 45.3556 17.5519C44.9207 17.5519 44.7445 17.3525 44.7484 16.9301C44.7601 16.0697 44.7484 15.2132 44.7484 14.212L44.7562 14.2159ZM45.0226 13.8953C46.6131 13.8953 48.1213 13.9031 49.6295 13.8796C49.7313 13.8796 49.9154 13.6802 49.9154 13.5746C49.9115 12.7533 49.9154 11.932 49.8253 11.1146C49.7352 10.2503 48.9557 9.9101 48.2858 10.442C47.7334 10.88 47.2594 11.4197 46.7737 11.9359C46.1978 12.5538 45.6455 13.1952 45.0226 13.8913V13.8953Z" fill="white"/>
<path d="M25.1065 14.306C24.276 15.2055 23.5043 16.0503 22.7208 16.8833C22.2899 17.3409 21.7728 17.599 21.1186 17.5599C20.6328 17.5325 20.1471 17.552 19.6613 17.556C19.2813 17.556 19.0894 17.38 19.0894 16.9967C19.0894 16.152 19.0894 15.3072 19.0894 14.4625C19.0894 14.1379 19.2265 13.868 19.5594 13.9071C20.8208 14.0557 21.4476 13.2149 22.1097 12.3741C22.9676 11.2869 23.8412 10.2035 24.7461 9.15543C25.2593 8.56098 25.8429 8.02129 26.4149 7.47768C26.9947 6.93016 27.735 6.66031 28.495 6.586C30.1168 6.43348 31.5898 6.80501 32.7454 8.04866C33.3291 8.67831 33.6738 9.43311 33.7443 10.2739C33.8227 11.2165 33.8344 12.1668 33.8462 13.1171C33.8619 14.353 33.8501 15.5888 33.8462 16.8246C33.8462 17.3956 33.6934 17.552 33.1411 17.552C30.6966 17.552 28.2521 17.552 25.8077 17.552C25.3023 17.552 25.1065 17.3682 25.1026 16.8598C25.0947 16.0307 25.1026 15.2016 25.1026 14.3021L25.1065 14.306ZM25.4512 13.8954C27.0064 13.8954 28.448 13.8837 29.8857 13.9032C30.3127 13.911 30.3519 13.606 30.3558 13.3596C30.3636 12.6635 30.3049 11.9673 30.2814 11.2712C30.2657 10.8449 30.1521 10.4538 29.7212 10.2974C29.2785 10.1331 28.8398 10.1957 28.4911 10.5594C27.8134 11.2673 27.1279 11.9673 26.4619 12.6869C26.1289 13.0428 25.8351 13.4339 25.4551 13.8915L25.4512 13.8954Z" fill="white"/>
<path d="M38.5511 9.30368C38.5511 11.8066 38.5511 14.3096 38.5511 16.8125C38.5511 17.4148 38.41 17.5556 37.8146 17.5556C37.0468 17.5556 36.279 17.5399 35.5112 17.5634C35.0763 17.5751 34.9471 17.3209 34.8883 16.9729C34.8726 16.8829 34.8883 16.7851 34.8883 16.6913C34.8883 11.7636 34.8883 6.83593 34.8883 1.90825C34.8883 1.29816 35.1429 1.04004 35.7501 1.03613C36.4083 1.03613 37.0664 1.03613 37.7245 1.03613C38.3983 1.03613 38.555 1.18866 38.555 1.84177C38.555 4.32907 38.555 6.81638 38.555 9.30368H38.5511Z" fill="white"/>
</g>
<g clip-path="url(#clip2_154_4038)">
<path d="M10.0497 21.4783C9.94889 22.3451 11.4914 23.5161 9.76673 23.9901C10.5419 19.9287 4.42605 22.4017 8.63503 24.542C6.78634 26.0492 9.07298 26.0845 9.54969 24.5704C11.1503 24.7437 11.8363 22.9005 10.8984 21.8356C14.9524 20.3285 12.5068 19.9322 10.0497 21.4747V21.4783ZM8.80556 23.9866C8.15445 23.93 7.65449 22.5856 8.19321 22.2071C9.05361 22.1045 9.50318 23.6116 8.80556 23.9866Z" fill="white"/>
<path d="M52.0155 22.0514C51.3683 22.5467 51.3644 23.7354 50.4807 23.9583C49.1359 23.6222 50.3567 21.8073 50.128 20.8662C47.977 20.9688 49.5351 26.8133 51.6318 23.7602C52.7906 27.3086 54.9649 20.8238 52.0155 22.0514ZM52.5813 24.167C52.0853 24.5632 52.1783 22.7625 52.5387 22.6174C52.965 22.8403 52.6899 23.8238 52.5813 24.167Z" fill="white"/>
<path d="M6.21946 20.3779C5.51797 20.3885 4.18086 21.0537 3.47936 21.4216C3.16931 21.8815 4.1111 22.4157 4.01421 22.9747C3.93669 24.3757 0.258676 24.3332 0.685001 22.7624C0.905914 22.2884 0.123028 22.1292 0.04939 22.6245C-0.69474 25.8616 6.63804 24.7365 4.32814 21.7825C4.76221 21.4711 7.138 21.036 6.21559 20.3779H6.21946Z" fill="white"/>
<path d="M31.5055 24.57C32.3542 24.5877 32.3542 23.3848 31.5055 23.4025C30.6567 23.3848 30.6567 24.5877 31.5055 24.57Z" fill="white"/>
<path d="M48.3568 23.1336C45.7019 25.741 48.1436 25.6703 49.0079 23.1442C47.9072 20.8871 45.4267 21.2409 48.3568 23.1336Z" fill="white"/>
<path d="M6.44922 23.1336C3.79438 25.741 6.23218 25.6703 7.10033 23.1442C5.99577 20.8871 3.51921 21.2409 6.44922 23.1336Z" fill="white"/>
<path d="M34.3074 25.3561C34.288 26.0389 35.4468 26.0389 35.4274 25.3561C35.4429 24.6769 34.288 24.6769 34.3074 25.3561Z" fill="white"/>
<path d="M39.7256 24.5386C37.3343 27.0894 41.9231 25.1365 40.8224 22.6458C39.0589 20.0243 36.7839 23.4879 39.7256 24.5386ZM39.8961 23.9867C39.245 23.9301 38.745 22.5857 39.2837 22.2072C40.1441 22.1046 40.5937 23.6117 39.8961 23.9867Z" fill="white"/>
<path d="M26.0522 22.0514C25.3236 22.8439 25.0329 24.5173 23.5098 23.8982C22.3897 23.0561 25.6337 22.6493 23.9439 21.7896C22.258 21.2306 18.0877 22.851 22.0177 23.3356C21.6417 24.0184 19.8938 24.3899 19.8473 23.3356C19.9481 22.8014 19.8124 19.8403 19.0683 21.4181C18.983 22.2566 19.5334 24.3475 17.8978 23.8769C14.3671 19.8261 12.2161 25.7874 14.0764 25.7343C14.3206 24.8286 14.0764 22.3733 15.8941 23.0314C13.3749 25.5149 17.2235 27.0645 17.5219 24.3227C18.266 24.7402 18.89 24.6659 19.4287 24.0078C19.9403 24.956 22.0332 24.6836 22.5021 23.8026C22.9517 24.8463 25.2461 24.963 25.6686 23.7566C26.8274 27.3051 29.0016 20.8202 26.0522 22.0479V22.0514ZM16.4444 23.4135C16.5878 23.5656 16.7002 23.746 16.7778 23.9583C17.3204 26.4383 14.4756 24.8604 16.4444 23.4135ZM22.3587 22.6599C22.0874 22.5821 21.8045 22.5573 21.5255 22.5113C22.1456 22.2991 22.8432 22.2177 23.471 22.4441C23.0563 22.8297 22.8626 22.9889 22.3549 22.6599H22.3587ZM26.6181 24.167C26.122 24.5633 26.215 22.7625 26.5755 22.6175C27.0018 22.8403 26.7266 23.8239 26.6181 24.167Z" fill="white"/>
<path d="M45.9925 22.7939C46.0352 23.5581 43.9229 25.4225 45.1825 25.6348C46.4886 25.5358 47.2366 20.1193 45.9925 22.7939Z" fill="white"/>
<path d="M41.5782 21.3579C41.6169 22.2672 41.3805 23.6363 41.6479 24.4606C42.5548 25.0302 42.6595 19.964 41.5782 21.3579Z" fill="white"/>
<path d="M44.6905 23.3111C46.0741 22.9325 44.4734 22.5292 43.9425 23.488C43.1635 25.0729 45.8842 24.7227 44.6905 23.3111Z" fill="white"/>
<path d="M37.3343 21.5562C37.3265 22.3381 37.6405 24.5563 36.1328 23.8133C35.6871 23.4242 36.408 22.0055 35.5127 22.055C35.1445 22.43 35.4546 23.4348 35.0128 23.7956C34.0826 24.4572 33.9431 23.0739 33.7919 22.5185C33.1641 21.2909 32.7881 22.3911 33.1718 23.1907C34.3384 26.5622 27.5288 25.6884 30.4511 22.8263C31.2301 22.1612 30.4356 21.8038 29.8038 22.3204C26.7382 25.0551 32.9083 27.9243 33.8578 24.2803C34.3849 24.7756 35.3383 24.5987 35.5864 24.0681C38.59 26.6861 38.4001 19.1788 37.3343 21.5562Z" fill="white"/>
<path d="M35.4663 25.3591C35.4469 26.0419 36.6058 26.0419 36.5864 25.3591C36.6019 24.6798 35.4469 24.6798 35.4663 25.3591Z" fill="white"/>
</g>
</g>
<defs>
<clipPath id="clip0_154_4038">
<rect width="34.3902" height="26" fill="white" transform="translate(59.6096)"/>
</clipPath>
<clipPath id="clip1_154_4038">
<rect width="53.4959" height="17.5676" fill="white"/>
</clipPath>
<clipPath id="clip2_154_4038">
<rect width="53.4959" height="5.62162" fill="white" transform="translate(0 20.3779)"/>
</clipPath>
</defs>
</svg>
