<svg width="153" height="146" viewBox="0 0 153 146" fill="none" xmlns="http://www.w3.org/2000/svg">
<path d="M75.7625 0.992962C76.2022 0.673442 76.7978 0.673442 77.2375 0.992962L151.73 55.1148C152.17 55.4343 152.354 56.0007 152.186 56.5176L123.732 144.089C123.564 144.606 123.082 144.956 122.539 144.956H30.4612C29.9176 144.956 29.4359 144.606 29.2679 144.089L0.814351 56.5177C0.646369 56.0007 0.830392 55.4343 1.27018 55.1148L75.7625 0.992962Z" stroke="#E4E6EC" stroke-width="1.5"/>
<path d="M76.2644 17.0541C76.7042 16.7345 77.2997 16.7345 77.7394 17.0541L137.434 60.4247C137.874 60.7443 138.058 61.3106 137.89 61.8276L115.089 132.003C114.921 132.52 114.439 132.87 113.895 132.87H40.1086C39.565 132.87 39.0832 132.52 38.9152 132.003L16.1139 61.8276C15.946 61.3106 16.13 60.7443 16.5698 60.4247L76.2644 17.0541Z" stroke="#E4E6EC" stroke-width="1.5"/>
<path d="M76.2644 35.1228C76.7042 34.8033 77.2997 34.8033 77.7394 35.1228L120.25 66.0083C120.689 66.3278 120.873 66.8942 120.706 67.4112L104.468 117.385C104.3 117.902 103.818 118.252 103.275 118.252H50.7291C50.1855 118.252 49.7038 117.902 49.5358 117.385L33.2983 67.4112C33.1303 66.8942 33.3144 66.3278 33.7541 66.0083L76.2644 35.1228Z" stroke="#E4E6EC" stroke-width="1.5"/>
<path d="M75.7625 52.1877C76.2022 51.8682 76.7978 51.8682 77.2375 52.1877L103.041 70.9348C103.481 71.2543 103.665 71.8207 103.497 72.3377L93.6406 102.671C93.4726 103.188 92.9908 103.538 92.4472 103.538H60.5528C60.0092 103.538 59.5274 103.188 59.3594 102.671L49.5035 72.3377C49.3355 71.8207 49.5195 71.2543 49.9593 70.9348L49.5168 70.3257L49.9593 70.9348L75.7625 52.1877Z" stroke="#E4E6EC" stroke-width="1.5"/>
</svg>
