<svg width="24" height="24" viewBox="0 0 24 24" fill="none" xmlns="http://www.w3.org/2000/svg">
<path fill-rule="evenodd" clip-rule="evenodd" d="M10.7704 2.27665C11.5446 1.88955 12.4559 1.88955 13.2301 2.27665L20.5468 5.93501C21.8367 6.57993 21.8366 8.42059 20.5468 9.06551L13.2301 12.7239C12.4559 13.111 11.5446 13.111 10.7704 12.7239L3.4537 9.06551C2.16387 8.42059 2.16387 6.57993 3.45371 5.93501L10.7704 2.27665ZM2.31483 17.1956C2.48306 16.8171 2.92628 16.6466 3.30479 16.8148L11.4925 20.4538C11.8157 20.5975 12.1847 20.5975 12.5079 20.4538L20.6956 16.8148C21.0741 16.6466 21.5173 16.8171 21.6855 17.1956C21.8538 17.5741 21.6833 18.0173 21.3048 18.1855L13.1171 21.8245C12.406 22.1406 11.5944 22.1406 10.8833 21.8245L2.69558 18.1855C2.31707 18.0173 2.1466 17.5741 2.31483 17.1956ZM3.30479 12.3148C2.92628 12.1466 2.48306 12.3171 2.31483 12.6956C2.1466 13.0741 2.31707 13.5173 2.69558 13.6855L10.8833 17.3245C11.5944 17.6406 12.406 17.6406 13.1171 17.3245L21.3048 13.6855C21.6833 13.5173 21.8538 13.0741 21.6855 12.6956C21.5173 12.3171 21.0741 12.1466 20.6956 12.3148L12.5079 15.9538C12.1847 16.0975 11.8157 16.0975 11.4925 15.9538L3.30479 12.3148Z" fill="#696F82"/>
</svg>
