<svg width="29" height="34" viewBox="0 0 29 34" fill="none" xmlns="http://www.w3.org/2000/svg">
<g clip-path="url(#clip0_154_3527)">
<path d="M26.21 28.2773H0V34.0053H26.21V28.2773Z" fill="#FDC00F"/>
<path d="M8.13388 28.2773H2.69873V34.0053H8.13388V28.2773Z" fill="#FFF2CF"/>
<path d="M10.0386 28.2773H8.92261V34.0053H10.0386V28.2773Z" fill="#FFF2CF"/>
<path d="M29 22.5488H2.79004V28.2768H29V22.5488Z" fill="#16B6C6"/>
<path d="M10.9239 22.5488H5.48877V28.2768H10.9239V22.5488Z" fill="#118995"/>
<path d="M12.8233 22.5488H11.7073V28.2768H12.8233V22.5488Z" fill="#118995"/>
<path d="M27.9966 16.8213H1.78662V22.5493H27.9966V16.8213Z" fill="#184F78"/>
<path d="M9.92588 16.8213H4.49072V22.5493H9.92588V16.8213Z" fill="#D1DCE4"/>
<path d="M11.8252 16.8213H10.7092V22.5493H11.8252V16.8213Z" fill="#D1DCE4"/>
<path d="M19.1168 3.55164C17.6038 4.87964 15.0659 4.81031 15.0659 4.81031C15.0659 4.81031 14.9854 2.58631 16.5039 1.25831C18.0169 -0.0696902 20.5547 -0.000356801 20.5547 -0.000356801C20.5547 -0.000356801 20.6352 2.22364 19.1168 3.55164Z" fill="#184F78"/>
<path d="M19.8947 0.575195C19.8947 0.575195 19.6855 0.847195 19.326 1.22053C18.9719 1.59386 18.4729 2.07386 17.9525 2.53253C17.432 2.9912 16.8848 3.4232 16.4555 3.73786C16.0317 4.05253 15.7205 4.23386 15.7205 4.23386C15.7205 4.23386 15.9297 3.96186 16.2892 3.58853C16.6433 3.2152 17.1423 2.7352 17.6627 2.27653C18.1832 1.81786 18.7304 1.38586 19.1597 1.07653C19.5835 0.761862 19.8947 0.580529 19.8947 0.580529V0.575195Z" fill="#467293"/>
<path d="M15.066 4.72528C9.18013 3.21594 6.4867 7.07728 7.57587 11.2799C8.42897 14.5866 11.4068 17.5786 15.066 16.6559C18.7305 17.5786 21.703 14.5866 22.5561 11.2799C23.6399 7.07728 20.9518 3.21594 15.066 4.72528Z" fill="#FC611F"/>
<path opacity="0.2" d="M0 28.2773H26.21V29.536L0 28.2773Z" fill="black"/>
<path opacity="0.2" d="M2.79004 22.5498H29V23.8138L2.79004 22.5498Z" fill="black"/>
<path opacity="0.3" d="M11.7716 16.4324C11.7394 16.1017 11.7233 15.7604 11.7233 15.4191C11.7233 10.4911 14.8031 6.28306 19.1544 4.58173C18.0384 4.29906 16.6756 4.30973 15.0713 4.72039C9.1855 3.21106 6.49207 7.07239 7.58125 11.2751C8.16071 13.5097 9.70595 15.5951 11.777 16.4324H11.7716Z" fill="white"/>
</g>
<defs>
<clipPath id="clip0_154_3527">
<rect width="29" height="34" fill="white"/>
</clipPath>
</defs>
</svg>
