<svg width="28" height="31" viewBox="0 0 28 31" fill="none" xmlns="http://www.w3.org/2000/svg">
<g clip-path="url(#clip0_154_3494)">
<path d="M5.93115 17.3065C12.4898 22.5788 6.98556 26.9259 11.63 29.9739C15.8037 32.7114 23.6866 30.2654 26.6239 19.1885C28.7892 11.0266 24.013 3.00415 16.1677 0.520098C5.76169 -2.76874 -2.64849 10.4056 5.93115 17.3065ZM12.4459 26.1147C12.7158 25.0945 14.0714 24.5749 15.4773 24.9551C16.8769 25.3353 17.7995 26.4696 17.5297 27.4898C17.2598 28.5101 15.9041 29.0297 14.4982 28.6495C13.0923 28.2693 12.176 27.135 12.4522 26.1147H12.4459Z" fill="#FDC00F"/>
<path d="M4.86405 7.49635C4.5063 8.85244 5.29711 10.2402 6.64023 10.6014C7.97707 10.9626 9.35784 10.1578 9.71559 8.80808C10.0733 7.45833 9.27625 6.06422 7.93941 5.70301C6.60257 5.34181 5.2218 6.14026 4.86405 7.49635Z" fill="#A2E2E8"/>
<path d="M10.0481 3.94166C9.69038 5.29142 10.4812 6.68553 11.8243 7.04673C13.1612 7.40793 14.5419 6.60949 14.8997 5.2534C15.2574 3.90364 14.4603 2.50953 13.1235 2.14833C11.7804 1.78712 10.4059 2.58557 10.0481 3.94166Z" fill="#184F78"/>
<path d="M16.2178 5.94417C15.8601 7.30027 16.6509 8.68804 17.994 9.04924C19.3308 9.41045 20.7116 8.612 21.0693 7.25591C21.4271 5.90615 20.63 4.51204 19.2932 4.15084C17.9563 3.78964 16.5756 4.59442 16.2178 5.94417Z" fill="#FC611F"/>
<path d="M19.9082 11.3303C19.5505 12.6864 20.3413 14.0742 21.6844 14.4354C23.0213 14.7966 24.402 13.9982 24.7598 12.6421C25.1175 11.2923 24.3204 9.8982 22.9836 9.537C21.6468 9.1758 20.266 9.97424 19.9082 11.3303Z" fill="#16B6C6"/>
<path d="M19.8329 17.8889C19.4751 19.2387 20.2722 20.6328 21.6091 20.994C22.9522 21.3552 24.3267 20.5568 24.6844 19.2007C25.0422 17.8509 24.2451 16.4568 22.9082 16.0956C21.5714 15.7344 20.1906 16.5328 19.8329 17.8889Z" fill="#FFF2CF"/>
<g opacity="0.2">
<path d="M8.71149 6.07129C9.11944 6.66062 9.28263 7.42104 9.08806 8.1688C8.73032 9.51855 7.34954 10.3233 6.0127 9.96213C5.72399 9.88609 5.47294 9.75301 5.24072 9.58826C5.56709 10.0635 6.04408 10.4311 6.64033 10.5958C7.97717 10.957 9.35794 10.1522 9.71569 8.80248C9.99812 7.73789 9.55878 6.66062 8.71149 6.07129Z" fill="black"/>
<path d="M24.1323 12.0086C23.7745 13.3584 22.3937 14.1632 21.0569 13.802C20.7682 13.7259 20.5171 13.5929 20.2849 13.4344C20.6113 13.9097 21.0883 14.2772 21.6845 14.4357C23.0214 14.7969 24.4021 13.9984 24.7599 12.6423C25.0423 11.5777 24.603 10.5005 23.7557 9.91113C24.1636 10.5005 24.3331 11.2609 24.1323 12.0086Z" fill="black"/>
<path d="M21.0694 7.25658C21.3519 6.19199 20.9125 5.11472 20.0652 4.52539C20.4732 5.11472 20.6427 5.87515 20.4418 6.6229C20.0841 7.97899 18.7033 8.77743 17.3665 8.41623C17.0778 8.34019 16.8267 8.20712 16.5945 8.04236C16.9208 8.51762 17.3978 8.88516 17.9941 9.04992C19.3309 9.41112 20.7117 8.61268 21.0694 7.25658Z" fill="black"/>
<path d="M13.8956 2.52246C14.3035 3.11179 14.4667 3.87222 14.2721 4.61997C13.9144 5.96972 12.5336 6.77451 11.1968 6.4133C10.9081 6.33726 10.657 6.20419 10.4248 6.03943C10.7512 6.51469 11.2282 6.88223 11.8244 7.04699C13.1612 7.40819 14.542 6.60975 14.8998 5.25365C15.1822 4.18906 14.7429 3.11179 13.8956 2.52246Z" fill="black"/>
<path d="M23.6802 16.4697C24.0882 17.0591 24.2577 17.8195 24.0568 18.5672C23.6991 19.9233 22.3246 20.7218 20.9815 20.3606C20.6927 20.2845 20.4417 20.1515 20.2095 19.9867C20.5358 20.462 21.0128 20.8295 21.6091 20.9943C22.9522 21.3555 24.3267 20.557 24.6844 19.2009C24.9669 18.1363 24.5275 17.0591 23.6802 16.4697Z" fill="black"/>
</g>
<path d="M4.93952 19.0991C2.64869 23.1103 1.58173 26.8237 2.56082 27.394C3.53992 27.9643 6.19477 25.1761 8.4856 21.1649C10.7764 17.1536 11.8434 13.4402 10.8643 12.8699C9.8852 12.2996 7.23035 15.0878 4.93952 19.0927V19.0991Z" fill="#184F78"/>
<path d="M1.33684 26.938C1.58789 26.7733 1.85149 26.6022 2.08371 26.6275C4.98962 27.0077 3.28875 31.64 0.370299 30.9239C0.112972 30.8605 0 30.7592 0 30.7655C0 30.7655 0.125525 30.6704 0.25105 30.493C0.382851 30.3156 0.433061 30.0621 0.407956 29.8023C0.395404 29.5425 0.338917 29.2383 0.338917 28.8771C0.338917 28.5349 0.376575 28.0723 0.70294 27.5844C0.897503 27.3246 1.11717 27.0964 1.34312 26.9317L1.33684 26.938Z" fill="#FC611F"/>
<path d="M2.369 25.142L1.37451 26.8818L3.58694 28.171L4.58142 26.4312L2.369 25.142Z" fill="#A3B9C9"/>
<path opacity="0.3" d="M0.338981 30.9107C0.40802 30.8473 0.483335 30.7776 0.552373 30.7206C0.583755 30.7015 0.615136 30.6825 0.646517 30.6572L0.60886 30.6318L2.15909 27.9197C2.71768 25.4673 4.13611 22.0327 6.18844 18.446C7.337 16.4372 8.54204 14.6312 9.69687 13.123C8.42906 13.9342 6.59012 16.1901 4.93319 19.086C3.62146 21.38 2.71768 23.5726 2.35993 25.1378L1.36829 26.8677L1.39339 26.8804C1.39339 26.8804 1.34946 26.9058 1.33063 26.9184C1.10468 27.0895 0.885014 27.3113 0.690451 27.5711C0.364086 28.0591 0.326428 28.5217 0.326428 28.8638C0.326428 29.225 0.382915 29.5292 0.395467 29.789C0.420572 30.0488 0.370362 30.3023 0.238561 30.4798C0.119312 30.6572 -0.0187652 30.7459 -0.0124889 30.7522C-0.0124889 30.7459 0.0942073 30.8346 0.326428 30.898L0.338981 30.9107Z" fill="white"/>
</g>
<defs>
<clipPath id="clip0_154_3494">
<rect width="27.1448" height="31" fill="white"/>
</clipPath>
</defs>
</svg>
