<svg width="33" height="36" viewBox="0 0 33 36" fill="none" xmlns="http://www.w3.org/2000/svg">
<g clip-path="url(#clip0_154_3431)">
<path d="M16.4978 6.48997C11.1748 6.48997 6.85791 10.7874 6.85791 16.0912C6.85791 18.7546 7.94756 21.1642 9.70953 22.9044C10.4653 23.6522 11.3417 24.9631 11.5086 26.0109L11.8425 28.102H21.1624L21.4962 26.0063C21.6632 24.9585 22.5395 23.6476 23.2953 22.8998C25.0573 21.1595 26.1469 18.75 26.1469 16.0866C26.1469 10.7874 21.8255 6.48535 16.4978 6.48535V6.48997Z" fill="#67E9F5"/>
<path d="M18.2367 28.8728C18.0234 28.8728 17.8518 28.702 17.8518 28.4896C17.8518 28.2496 17.8889 22.4842 21.2367 14.6048C21.3201 14.4109 21.5473 14.3186 21.7421 14.4017C21.9368 14.4848 22.0296 14.7109 21.9461 14.9048C18.6586 22.6458 18.6215 28.4342 18.6215 28.4942C18.6215 28.7066 18.45 28.8774 18.2367 28.8774V28.8728Z" fill="#FDC00F"/>
<path d="M14.7729 28.8725C14.5596 28.8725 14.388 28.6971 14.388 28.4894C14.388 28.434 14.3463 22.6271 11.0634 14.8999C10.98 14.7061 11.0727 14.4799 11.2675 14.3968C11.4622 14.3137 11.6894 14.406 11.7729 14.5999C15.1206 22.484 15.1577 28.2447 15.1577 28.4848C15.1577 28.6971 14.9862 28.8679 14.7729 28.8679V28.8725Z" fill="#FDC00F"/>
<path d="M21.1902 15.565C20.5225 15.565 20.1794 15.2003 19.878 14.8818C19.5951 14.5818 19.3494 14.3233 18.8486 14.3233C18.3478 14.3233 18.1021 14.5818 17.8193 14.8818C17.5179 15.2003 17.1747 15.565 16.507 15.565C15.8393 15.565 15.4962 15.2003 15.1948 14.8818C14.912 14.5818 14.6662 14.3233 14.1608 14.3233C13.6554 14.3233 13.4143 14.5818 13.1268 14.8818C12.8254 15.2003 12.4823 15.565 11.8146 15.565C11.708 15.565 11.6199 15.4773 11.6199 15.3711C11.6199 15.2649 11.708 15.1772 11.8146 15.1772C12.3154 15.1772 12.5611 14.9187 12.8486 14.6187C13.15 14.3002 13.4931 13.9355 14.1608 13.9355C14.8285 13.9355 15.1717 14.3002 15.473 14.6187C15.7559 14.9187 16.0016 15.1772 16.507 15.1772C17.0125 15.1772 17.2536 14.9187 17.5364 14.6187C17.8378 14.3002 18.1809 13.9355 18.8486 13.9355C19.5163 13.9355 19.8594 14.3002 20.1608 14.6187C20.4437 14.9187 20.6894 15.1772 21.1902 15.1772C21.2968 15.1772 21.3849 15.2649 21.3849 15.3711C21.3849 15.4773 21.2968 15.565 21.1902 15.565Z" fill="#FDC00F"/>
<path d="M19.2336 35.1366H13.7761C12.7096 35.1366 11.8472 34.2734 11.8472 33.2117V28.1064H21.1671V33.2117C21.1671 34.2734 20.3047 35.1366 19.2336 35.1366Z" fill="#E1E1E1"/>
<path d="M11.8425 32.3213V33.2122C11.8425 33.3922 11.875 33.563 11.9214 33.7292H21.0836C21.13 33.563 21.1625 33.3922 21.1625 33.2122V32.3213H11.8425Z" fill="#F15B67"/>
<path d="M21.1625 29.5098H11.8425V30.9176H21.1625V29.5098Z" fill="#F15B67"/>
<path d="M16.5025 35.9999C17.4576 35.9999 18.2366 35.6122 18.2366 35.1367H14.7729C14.7729 35.6122 15.5473 35.9999 16.5025 35.9999Z" fill="#FDC00F"/>
<path d="M16.5023 3.4389C16.2472 3.4389 16.0386 3.23118 16.0386 2.9773V0.461598C16.0386 0.207719 16.2472 0 16.5023 0C16.7573 0 16.9659 0.207719 16.9659 0.461598V2.9773C16.9659 3.23118 16.7573 3.4389 16.5023 3.4389Z" fill="#FDC00F"/>
<path d="M9.74659 5.23911C9.58431 5.23911 9.43129 5.15602 9.34319 5.00831L8.08199 2.82957C7.95216 2.60801 8.03098 2.32643 8.25355 2.19718C8.47611 2.06794 8.75896 2.14641 8.88879 2.36797L10.15 4.54672C10.2798 4.76828 10.201 5.04986 9.97843 5.1791C9.90424 5.22065 9.82542 5.23911 9.74659 5.23911Z" fill="#FDC00F"/>
<path d="M4.80372 10.1596C4.7249 10.1596 4.64607 10.1411 4.57189 10.0996L2.38332 8.84402C2.16076 8.71477 2.08657 8.43319 2.21176 8.21163C2.33696 7.99006 2.62444 7.9162 2.847 8.04084L5.03556 9.29638C5.25813 9.42563 5.33232 9.7072 5.20712 9.92877C5.11903 10.0765 4.96601 10.1596 4.80372 10.1596Z" fill="#FDC00F"/>
<path d="M2.99073 16.8851H0.463679C0.208655 16.8851 0 16.6774 0 16.4235C0 16.1696 0.208655 15.9619 0.463679 15.9619H2.99073C3.24575 15.9619 3.45441 16.1696 3.45441 16.4235C3.45441 16.6774 3.24575 16.8851 2.99073 16.8851Z" fill="#FDC00F"/>
<path d="M2.61063 24.8667C2.44834 24.8667 2.29533 24.7836 2.20723 24.6359C2.0774 24.4143 2.15623 24.1328 2.37879 24.0035L4.56735 22.748C4.78992 22.6187 5.07276 22.6972 5.20259 22.9188C5.33242 23.1403 5.2536 23.4219 5.03103 23.5511L2.84247 24.8067C2.76828 24.8482 2.68946 24.8667 2.61063 24.8667Z" fill="#FDC00F"/>
<path d="M30.3848 24.8712C30.306 24.8712 30.2271 24.8528 30.1529 24.8112L27.9644 23.551C27.7418 23.4218 27.6676 23.1402 27.7928 22.9187C27.9226 22.6971 28.2055 22.6232 28.4281 22.7479L30.6166 24.008C30.8392 24.1373 30.9134 24.4189 30.7882 24.6404C30.7001 24.7881 30.5471 24.8712 30.3848 24.8712Z" fill="#FDC00F"/>
<path d="M32.5364 16.89H30.0093C29.7543 16.89 29.5457 16.6823 29.5457 16.4284C29.5457 16.1745 29.7543 15.9668 30.0093 15.9668H32.5364C32.7914 15.9668 33.0001 16.1745 33.0001 16.4284C33.0001 16.6823 32.7914 16.89 32.5364 16.89Z" fill="#FDC00F"/>
<path d="M28.201 10.1645C28.0387 10.1645 27.8857 10.0815 27.7976 9.93375C27.6677 9.71218 27.7466 9.43061 27.9691 9.30136L30.1577 8.04582C30.3803 7.91657 30.6631 7.99504 30.7929 8.21661C30.9228 8.43817 30.8439 8.71975 30.6214 8.849L28.4328 10.1045C28.3586 10.1461 28.2798 10.1645 28.201 10.1645Z" fill="#FDC00F"/>
<path d="M23.2536 5.2439C23.1748 5.2439 23.0959 5.22543 23.0218 5.18389C22.7992 5.05464 22.725 4.77307 22.8502 4.5515L24.116 2.37276C24.2459 2.15119 24.5287 2.07734 24.7513 2.20197C24.9738 2.33122 25.048 2.61279 24.9228 2.83436L23.657 5.0131C23.5689 5.16081 23.4159 5.2439 23.2536 5.2439Z" fill="#FDC00F"/>
<path opacity="0.3" d="M9.00471 16.0452C10.5395 17.573 13.3401 17.2638 15.2597 15.3481C17.1794 13.4371 17.4947 10.6491 15.9599 9.12119C14.4251 7.5933 11.6245 7.90719 9.70486 9.8182C7.78523 11.7292 7.46993 14.5173 9.00471 16.0452Z" fill="white"/>
<path opacity="0.3" d="M15.728 18.6487C16.303 19.2211 17.3509 19.1057 18.0696 18.3902C18.7883 17.6747 18.9042 16.6315 18.3293 16.0592C17.7543 15.4868 16.7064 15.6022 15.9877 16.3176C15.269 17.0331 15.1531 18.0763 15.728 18.6487Z" fill="white"/>
<path opacity="0.2" d="M12.306 28.4896H20.6985C20.9536 28.4896 21.1622 28.3188 21.1622 28.1064H11.8423C11.8423 28.1064 12.0509 28.4896 12.306 28.4896Z" fill="black"/>
<path opacity="0.2" d="M14.9628 35.5198H18.0463C18.1622 35.4044 18.2364 35.2752 18.2364 35.1367H14.7727C14.7727 35.2752 14.8469 35.4044 14.9628 35.5198Z" fill="black"/>
</g>
<defs>
<clipPath id="clip0_154_3431">
<rect width="33" height="36" fill="white"/>
</clipPath>
</defs>
</svg>
