<svg width="27" height="33" viewBox="0 0 27 33" fill="none" xmlns="http://www.w3.org/2000/svg">
<g clip-path="url(#clip0_154_3516)">
<path d="M25.9104 30.1162H3.49634V32.9998H25.9104V30.1162Z" fill="#D1DCE4"/>
<path d="M0 24.2055L2.97658 32.5581C3.08178 32.8564 3.41595 33.049 3.72536 32.9931L12.4137 31.4022L14.4188 27.9157L2.00501 20.7129L0 24.1993V24.2055Z" fill="#FEDFD2"/>
<path d="M5.37762 29.2456C4.28229 28.6117 2.95181 28.6614 1.80078 29.258L2.97656 32.558C3.08176 32.8563 3.41593 33.0489 3.72534 32.993L7.15367 32.3653C7.09178 31.0665 6.47914 29.8857 5.37762 29.2518V29.2456Z" fill="#F15B67"/>
<path d="M5.14867 23.6032L0 24.206L10.811 5.40039L14.4126 7.48853L5.14867 23.6032Z" fill="#FDC00F"/>
<path d="M10.3592 26.6233L6.20688 27.8041L5.14868 23.603L14.4126 7.48828L19.6231 10.5086L10.3592 26.6233Z" fill="#FD814C"/>
<path d="M12.4136 31.4026L10.3591 26.6235L19.623 10.5088L23.2246 12.5969L12.4136 31.4026Z" fill="#FDA079"/>
<path d="M11.8487 3.58615L10.8091 5.39453L23.2264 12.5942L24.2661 10.7859L11.8487 3.58615Z" fill="#D1DCE4"/>
<path d="M25.5206 6.12116L15.248 0.167484C14.6539 -0.174324 13.8989 0.0307604 13.5586 0.621156L11.8506 3.59178L24.2643 10.7884L25.9723 7.81777C26.3127 7.22116 26.1084 6.46296 25.5206 6.12116Z" fill="#F15B67"/>
</g>
<defs>
<clipPath id="clip0_154_3516">
<rect width="26.1394" height="33" fill="white"/>
</clipPath>
</defs>
</svg>
