<svg width="30" height="30" viewBox="0 0 30 30" fill="none" xmlns="http://www.w3.org/2000/svg">
<path fill-rule="evenodd" clip-rule="evenodd" d="M30 15C30 19.5201 28.0007 23.5732 24.8383 26.3232C22.2046 28.6135 18.7642 30 15 30C11.2358 30 7.79541 28.6135 5.16175 26.3232C1.99927 23.5731 0 19.5201 0 15C0 6.71573 6.71573 0 15 0C23.2843 0 30 6.71573 30 15ZM19.5 10.5C19.5 8.01472 17.4853 6 15 6C12.5147 6 10.5 8.01472 10.5 10.5C10.5 12.9853 12.5147 15 15 15C17.4853 15 19.5 12.9853 19.5 10.5ZM15 18C17.5691 18 19.2585 19.375 20.4498 20.9032C21.3386 22.0435 21.0327 23.7161 19.7433 24.3701C18.3186 25.0927 16.7069 25.5 15 25.5C13.2931 25.5 11.6814 25.0927 10.2567 24.3701C8.96733 23.7161 8.66141 22.0435 9.5502 20.9032C10.7414 19.3749 12.4309 18 15 18Z" fill="#F47C85"/>
</svg>
